<svg xmlns="http://www.w3.org/2000/svg" xmlns:xlink="http://www.w3.org/1999/xlink" width="600" height="400" viewBox="0 0 2400 1600">
<defs>
  <clipPath id="clip060">
    <rect x="0" y="0" width="2400" height="1600"></rect>
  </clipPath>
</defs>
<path clip-path="url(#clip060)" d="M0 1600 L2400 1600 L2400 0 L0 0  Z" fill="#ffffff" fill-rule="evenodd" fill-opacity="1"></path>
<defs>
  <clipPath id="clip061">
    <rect x="480" y="0" width="1681" height="1600"></rect>
  </clipPath>
</defs>
<path clip-path="url(#clip060)" d="M224.098 1486.45 L2352.76 1486.45 L2352.76 47.2441 L224.098 47.2441  Z" fill="#ffffff" fill-rule="evenodd" fill-opacity="1"></path>
<defs>
  <clipPath id="clip062">
    <rect x="224" y="47" width="2130" height="1440"></rect>
  </clipPath>
</defs>
<polyline clip-path="url(#clip062)" style="stroke:#000000; stroke-linecap:round; stroke-linejoin:round; stroke-width:2; stroke-opacity:0.1; fill:none" points="284.343,1486.45 284.343,47.2441 "></polyline>
<polyline clip-path="url(#clip062)" style="stroke:#000000; stroke-linecap:round; stroke-linejoin:round; stroke-width:2; stroke-opacity:0.1; fill:none" points="685.977,1486.45 685.977,47.2441 "></polyline>
<polyline clip-path="url(#clip062)" style="stroke:#000000; stroke-linecap:round; stroke-linejoin:round; stroke-width:2; stroke-opacity:0.1; fill:none" points="1087.61,1486.45 1087.61,47.2441 "></polyline>
<polyline clip-path="url(#clip062)" style="stroke:#000000; stroke-linecap:round; stroke-linejoin:round; stroke-width:2; stroke-opacity:0.1; fill:none" points="1489.24,1486.45 1489.24,47.2441 "></polyline>
<polyline clip-path="url(#clip062)" style="stroke:#000000; stroke-linecap:round; stroke-linejoin:round; stroke-width:2; stroke-opacity:0.1; fill:none" points="1890.88,1486.45 1890.88,47.2441 "></polyline>
<polyline clip-path="url(#clip062)" style="stroke:#000000; stroke-linecap:round; stroke-linejoin:round; stroke-width:2; stroke-opacity:0.1; fill:none" points="2292.51,1486.45 2292.51,47.2441 "></polyline>
<polyline clip-path="url(#clip060)" style="stroke:#000000; stroke-linecap:round; stroke-linejoin:round; stroke-width:4; stroke-opacity:1; fill:none" points="224.098,1486.45 2352.76,1486.45 "></polyline>
<polyline clip-path="url(#clip060)" style="stroke:#000000; stroke-linecap:round; stroke-linejoin:round; stroke-width:4; stroke-opacity:1; fill:none" points="284.343,1486.45 284.343,1467.55 "></polyline>
<polyline clip-path="url(#clip060)" style="stroke:#000000; stroke-linecap:round; stroke-linejoin:round; stroke-width:4; stroke-opacity:1; fill:none" points="685.977,1486.45 685.977,1467.55 "></polyline>
<polyline clip-path="url(#clip060)" style="stroke:#000000; stroke-linecap:round; stroke-linejoin:round; stroke-width:4; stroke-opacity:1; fill:none" points="1087.61,1486.45 1087.61,1467.55 "></polyline>
<polyline clip-path="url(#clip060)" style="stroke:#000000; stroke-linecap:round; stroke-linejoin:round; stroke-width:4; stroke-opacity:1; fill:none" points="1489.24,1486.45 1489.24,1467.55 "></polyline>
<polyline clip-path="url(#clip060)" style="stroke:#000000; stroke-linecap:round; stroke-linejoin:round; stroke-width:4; stroke-opacity:1; fill:none" points="1890.88,1486.45 1890.88,1467.55 "></polyline>
<polyline clip-path="url(#clip060)" style="stroke:#000000; stroke-linecap:round; stroke-linejoin:round; stroke-width:4; stroke-opacity:1; fill:none" points="2292.51,1486.45 2292.51,1467.55 "></polyline>
<path clip-path="url(#clip060)" d="M284.343 1517.37 Q280.732 1517.37 278.903 1520.93 Q277.098 1524.47 277.098 1531.6 Q277.098 1538.71 278.903 1542.27 Q280.732 1545.82 284.343 1545.82 Q287.977 1545.82 289.783 1542.27 Q291.611 1538.71 291.611 1531.6 Q291.611 1524.47 289.783 1520.93 Q287.977 1517.37 284.343 1517.37 M284.343 1513.66 Q290.153 1513.66 293.209 1518.27 Q296.287 1522.85 296.287 1531.6 Q296.287 1540.33 293.209 1544.94 Q290.153 1549.52 284.343 1549.52 Q278.533 1549.52 275.454 1544.94 Q272.399 1540.33 272.399 1531.6 Q272.399 1522.85 275.454 1518.27 Q278.533 1513.66 284.343 1513.66 Z" fill="#000000" fill-rule="nonzero" fill-opacity="1"></path><path clip-path="url(#clip060)" d="M676.254 1514.29 L694.611 1514.29 L694.611 1518.22 L680.537 1518.22 L680.537 1526.7 Q681.555 1526.35 682.574 1526.19 Q683.592 1526 684.611 1526 Q690.398 1526 693.777 1529.17 Q697.157 1532.34 697.157 1537.76 Q697.157 1543.34 693.685 1546.44 Q690.213 1549.52 683.893 1549.52 Q681.717 1549.52 679.449 1549.15 Q677.203 1548.78 674.796 1548.04 L674.796 1543.34 Q676.879 1544.47 679.102 1545.03 Q681.324 1545.58 683.801 1545.58 Q687.805 1545.58 690.143 1543.48 Q692.481 1541.37 692.481 1537.76 Q692.481 1534.15 690.143 1532.04 Q687.805 1529.94 683.801 1529.94 Q681.926 1529.94 680.051 1530.35 Q678.199 1530.77 676.254 1531.65 L676.254 1514.29 Z" fill="#000000" fill-rule="nonzero" fill-opacity="1"></path><path clip-path="url(#clip060)" d="M1062.3 1544.91 L1069.94 1544.91 L1069.94 1518.55 L1061.63 1520.21 L1061.63 1515.95 L1069.89 1514.29 L1074.57 1514.29 L1074.57 1544.91 L1082.21 1544.91 L1082.21 1548.85 L1062.3 1548.85 L1062.3 1544.91 Z" fill="#000000" fill-rule="nonzero" fill-opacity="1"></path><path clip-path="url(#clip060)" d="M1101.65 1517.37 Q1098.04 1517.37 1096.21 1520.93 Q1094.4 1524.47 1094.4 1531.6 Q1094.4 1538.71 1096.21 1542.27 Q1098.04 1545.82 1101.65 1545.82 Q1105.28 1545.82 1107.09 1542.27 Q1108.92 1538.71 1108.92 1531.6 Q1108.92 1524.47 1107.09 1520.93 Q1105.28 1517.37 1101.65 1517.37 M1101.65 1513.66 Q1107.46 1513.66 1110.52 1518.27 Q1113.59 1522.85 1113.59 1531.6 Q1113.59 1540.33 1110.52 1544.94 Q1107.46 1549.52 1101.65 1549.52 Q1095.84 1549.52 1092.76 1544.94 Q1089.7 1540.33 1089.7 1531.6 Q1089.7 1522.85 1092.76 1518.27 Q1095.84 1513.66 1101.65 1513.66 Z" fill="#000000" fill-rule="nonzero" fill-opacity="1"></path><path clip-path="url(#clip060)" d="M1464.43 1544.91 L1472.07 1544.91 L1472.07 1518.55 L1463.76 1520.21 L1463.76 1515.95 L1472.02 1514.29 L1476.7 1514.29 L1476.7 1544.91 L1484.34 1544.91 L1484.34 1548.85 L1464.43 1548.85 L1464.43 1544.91 Z" fill="#000000" fill-rule="nonzero" fill-opacity="1"></path><path clip-path="url(#clip060)" d="M1493.83 1514.29 L1512.18 1514.29 L1512.18 1518.22 L1498.11 1518.22 L1498.11 1526.7 Q1499.13 1526.35 1500.15 1526.19 Q1501.16 1526 1502.18 1526 Q1507.97 1526 1511.35 1529.17 Q1514.73 1532.34 1514.73 1537.76 Q1514.73 1543.34 1511.26 1546.44 Q1507.79 1549.52 1501.47 1549.52 Q1499.29 1549.52 1497.02 1549.15 Q1494.78 1548.78 1492.37 1548.04 L1492.37 1543.34 Q1494.45 1544.47 1496.67 1545.03 Q1498.9 1545.58 1501.37 1545.58 Q1505.38 1545.58 1507.72 1543.48 Q1510.05 1541.37 1510.05 1537.76 Q1510.05 1534.15 1507.72 1532.04 Q1505.38 1529.94 1501.37 1529.94 Q1499.5 1529.94 1497.62 1530.35 Q1495.77 1530.77 1493.83 1531.65 L1493.83 1514.29 Z" fill="#000000" fill-rule="nonzero" fill-opacity="1"></path><path clip-path="url(#clip060)" d="M1869.65 1544.91 L1885.97 1544.91 L1885.97 1548.85 L1864.03 1548.85 L1864.03 1544.91 Q1866.69 1542.16 1871.27 1537.53 Q1875.88 1532.88 1877.06 1531.53 Q1879.3 1529.01 1880.18 1527.27 Q1881.09 1525.51 1881.09 1523.82 Q1881.09 1521.07 1879.14 1519.33 Q1877.22 1517.6 1874.12 1517.6 Q1871.92 1517.6 1869.47 1518.36 Q1867.03 1519.13 1864.26 1520.68 L1864.26 1515.95 Q1867.08 1514.82 1869.53 1514.24 Q1871.99 1513.66 1874.03 1513.66 Q1879.4 1513.66 1882.59 1516.35 Q1885.78 1519.03 1885.78 1523.52 Q1885.78 1525.65 1884.97 1527.57 Q1884.19 1529.47 1882.08 1532.07 Q1881.5 1532.74 1878.4 1535.95 Q1875.3 1539.15 1869.65 1544.91 Z" fill="#000000" fill-rule="nonzero" fill-opacity="1"></path><path clip-path="url(#clip060)" d="M1905.78 1517.37 Q1902.17 1517.37 1900.34 1520.93 Q1898.54 1524.47 1898.54 1531.6 Q1898.54 1538.71 1900.34 1542.27 Q1902.17 1545.82 1905.78 1545.82 Q1909.42 1545.82 1911.22 1542.27 Q1913.05 1538.71 1913.05 1531.6 Q1913.05 1524.47 1911.22 1520.93 Q1909.42 1517.37 1905.78 1517.37 M1905.78 1513.66 Q1911.59 1513.66 1914.65 1518.27 Q1917.73 1522.85 1917.73 1531.6 Q1917.73 1540.33 1914.65 1544.94 Q1911.59 1549.52 1905.78 1549.52 Q1899.97 1549.52 1896.9 1544.94 Q1893.84 1540.33 1893.84 1531.6 Q1893.84 1522.85 1896.9 1518.27 Q1899.97 1513.66 1905.78 1513.66 Z" fill="#000000" fill-rule="nonzero" fill-opacity="1"></path><path clip-path="url(#clip060)" d="M2271.78 1544.91 L2288.1 1544.91 L2288.1 1548.85 L2266.16 1548.85 L2266.16 1544.91 Q2268.82 1542.16 2273.4 1537.53 Q2278.01 1532.88 2279.19 1531.53 Q2281.43 1529.01 2282.31 1527.27 Q2283.22 1525.51 2283.22 1523.82 Q2283.22 1521.07 2281.27 1519.33 Q2279.35 1517.6 2276.25 1517.6 Q2274.05 1517.6 2271.6 1518.36 Q2269.17 1519.13 2266.39 1520.68 L2266.39 1515.95 Q2269.21 1514.82 2271.67 1514.24 Q2274.12 1513.66 2276.16 1513.66 Q2281.53 1513.66 2284.72 1516.35 Q2287.92 1519.03 2287.92 1523.52 Q2287.92 1525.65 2287.11 1527.57 Q2286.32 1529.47 2284.21 1532.07 Q2283.63 1532.74 2280.53 1535.95 Q2277.43 1539.15 2271.78 1544.91 Z" fill="#000000" fill-rule="nonzero" fill-opacity="1"></path><path clip-path="url(#clip060)" d="M2297.96 1514.29 L2316.32 1514.29 L2316.32 1518.22 L2302.24 1518.22 L2302.24 1526.7 Q2303.26 1526.35 2304.28 1526.19 Q2305.3 1526 2306.32 1526 Q2312.11 1526 2315.49 1529.17 Q2318.86 1532.34 2318.86 1537.76 Q2318.86 1543.34 2315.39 1546.44 Q2311.92 1549.52 2305.6 1549.52 Q2303.43 1549.52 2301.16 1549.15 Q2298.91 1548.78 2296.5 1548.04 L2296.5 1543.34 Q2298.59 1544.47 2300.81 1545.03 Q2303.03 1545.58 2305.51 1545.58 Q2309.51 1545.58 2311.85 1543.48 Q2314.19 1541.37 2314.19 1537.76 Q2314.19 1534.15 2311.85 1532.04 Q2309.51 1529.94 2305.51 1529.94 Q2303.63 1529.94 2301.76 1530.35 Q2299.91 1530.77 2297.96 1531.65 L2297.96 1514.29 Z" fill="#000000" fill-rule="nonzero" fill-opacity="1"></path><polyline clip-path="url(#clip062)" style="stroke:#000000; stroke-linecap:round; stroke-linejoin:round; stroke-width:2; stroke-opacity:0.1; fill:none" points="224.098,1422.43 2352.76,1422.43 "></polyline>
<polyline clip-path="url(#clip062)" style="stroke:#000000; stroke-linecap:round; stroke-linejoin:round; stroke-width:2; stroke-opacity:0.1; fill:none" points="224.098,1203.9 2352.76,1203.9 "></polyline>
<polyline clip-path="url(#clip062)" style="stroke:#000000; stroke-linecap:round; stroke-linejoin:round; stroke-width:2; stroke-opacity:0.1; fill:none" points="224.098,985.373 2352.76,985.373 "></polyline>
<polyline clip-path="url(#clip062)" style="stroke:#000000; stroke-linecap:round; stroke-linejoin:round; stroke-width:2; stroke-opacity:0.1; fill:none" points="224.098,766.846 2352.76,766.846 "></polyline>
<polyline clip-path="url(#clip062)" style="stroke:#000000; stroke-linecap:round; stroke-linejoin:round; stroke-width:2; stroke-opacity:0.1; fill:none" points="224.098,548.319 2352.76,548.319 "></polyline>
<polyline clip-path="url(#clip062)" style="stroke:#000000; stroke-linecap:round; stroke-linejoin:round; stroke-width:2; stroke-opacity:0.1; fill:none" points="224.098,329.791 2352.76,329.791 "></polyline>
<polyline clip-path="url(#clip062)" style="stroke:#000000; stroke-linecap:round; stroke-linejoin:round; stroke-width:2; stroke-opacity:0.1; fill:none" points="224.098,111.264 2352.76,111.264 "></polyline>
<polyline clip-path="url(#clip060)" style="stroke:#000000; stroke-linecap:round; stroke-linejoin:round; stroke-width:4; stroke-opacity:1; fill:none" points="224.098,1486.45 224.098,47.2441 "></polyline>
<polyline clip-path="url(#clip060)" style="stroke:#000000; stroke-linecap:round; stroke-linejoin:round; stroke-width:4; stroke-opacity:1; fill:none" points="224.098,1422.43 242.996,1422.43 "></polyline>
<polyline clip-path="url(#clip060)" style="stroke:#000000; stroke-linecap:round; stroke-linejoin:round; stroke-width:4; stroke-opacity:1; fill:none" points="224.098,1203.9 242.996,1203.9 "></polyline>
<polyline clip-path="url(#clip060)" style="stroke:#000000; stroke-linecap:round; stroke-linejoin:round; stroke-width:4; stroke-opacity:1; fill:none" points="224.098,985.373 242.996,985.373 "></polyline>
<polyline clip-path="url(#clip060)" style="stroke:#000000; stroke-linecap:round; stroke-linejoin:round; stroke-width:4; stroke-opacity:1; fill:none" points="224.098,766.846 242.996,766.846 "></polyline>
<polyline clip-path="url(#clip060)" style="stroke:#000000; stroke-linecap:round; stroke-linejoin:round; stroke-width:4; stroke-opacity:1; fill:none" points="224.098,548.319 242.996,548.319 "></polyline>
<polyline clip-path="url(#clip060)" style="stroke:#000000; stroke-linecap:round; stroke-linejoin:round; stroke-width:4; stroke-opacity:1; fill:none" points="224.098,329.791 242.996,329.791 "></polyline>
<polyline clip-path="url(#clip060)" style="stroke:#000000; stroke-linecap:round; stroke-linejoin:round; stroke-width:4; stroke-opacity:1; fill:none" points="224.098,111.264 242.996,111.264 "></polyline>
<path clip-path="url(#clip060)" d="M51.9875 1422.88 L81.6633 1422.88 L81.6633 1426.81 L51.9875 1426.81 L51.9875 1422.88 Z" fill="#000000" fill-rule="nonzero" fill-opacity="1"></path><path clip-path="url(#clip060)" d="M101.756 1408.23 Q98.1447 1408.23 96.316 1411.79 Q94.5104 1415.33 94.5104 1422.46 Q94.5104 1429.57 96.316 1433.13 Q98.1447 1436.68 101.756 1436.68 Q105.39 1436.68 107.196 1433.13 Q109.024 1429.57 109.024 1422.46 Q109.024 1415.33 107.196 1411.79 Q105.39 1408.23 101.756 1408.23 M101.756 1404.52 Q107.566 1404.52 110.621 1409.13 Q113.7 1413.71 113.7 1422.46 Q113.7 1431.19 110.621 1435.8 Q107.566 1440.38 101.756 1440.38 Q95.9456 1440.38 92.8669 1435.8 Q89.8114 1431.19 89.8114 1422.46 Q89.8114 1413.71 92.8669 1409.13 Q95.9456 1404.52 101.756 1404.52 Z" fill="#000000" fill-rule="nonzero" fill-opacity="1"></path><path clip-path="url(#clip060)" d="M121.918 1433.83 L126.802 1433.83 L126.802 1439.71 L121.918 1439.71 L121.918 1433.83 Z" fill="#000000" fill-rule="nonzero" fill-opacity="1"></path><path clip-path="url(#clip060)" d="M137.797 1435.77 L145.436 1435.77 L145.436 1409.41 L137.126 1411.07 L137.126 1406.81 L145.39 1405.15 L150.066 1405.15 L150.066 1435.77 L157.705 1435.77 L157.705 1439.71 L137.797 1439.71 L137.797 1435.77 Z" fill="#000000" fill-rule="nonzero" fill-opacity="1"></path><path clip-path="url(#clip060)" d="M167.195 1405.15 L185.552 1405.15 L185.552 1409.08 L171.478 1409.08 L171.478 1417.56 Q172.496 1417.21 173.515 1417.05 Q174.533 1416.86 175.552 1416.86 Q181.339 1416.86 184.718 1420.03 Q188.098 1423.2 188.098 1428.62 Q188.098 1434.2 184.626 1437.3 Q181.153 1440.38 174.834 1440.38 Q172.658 1440.38 170.39 1440.01 Q168.144 1439.64 165.737 1438.9 L165.737 1434.2 Q167.82 1435.33 170.042 1435.89 Q172.265 1436.44 174.741 1436.44 Q178.746 1436.44 181.084 1434.34 Q183.422 1432.23 183.422 1428.62 Q183.422 1425.01 181.084 1422.9 Q178.746 1420.8 174.741 1420.8 Q172.866 1420.8 170.991 1421.21 Q169.14 1421.63 167.195 1422.51 L167.195 1405.15 Z" fill="#000000" fill-rule="nonzero" fill-opacity="1"></path><path clip-path="url(#clip060)" d="M50.9921 1204.35 L80.6679 1204.35 L80.6679 1208.29 L50.9921 1208.29 L50.9921 1204.35 Z" fill="#000000" fill-rule="nonzero" fill-opacity="1"></path><path clip-path="url(#clip060)" d="M100.76 1189.7 Q97.1493 1189.7 95.3206 1193.26 Q93.515 1196.81 93.515 1203.94 Q93.515 1211.04 95.3206 1214.61 Q97.1493 1218.15 100.76 1218.15 Q104.395 1218.15 106.2 1214.61 Q108.029 1211.04 108.029 1203.94 Q108.029 1196.81 106.2 1193.26 Q104.395 1189.7 100.76 1189.7 M100.76 1186 Q106.571 1186 109.626 1190.6 Q112.705 1195.19 112.705 1203.94 Q112.705 1212.66 109.626 1217.27 Q106.571 1221.85 100.76 1221.85 Q94.9502 1221.85 91.8715 1217.27 Q88.816 1212.66 88.816 1203.94 Q88.816 1195.19 91.8715 1190.6 Q94.9502 1186 100.76 1186 Z" fill="#000000" fill-rule="nonzero" fill-opacity="1"></path><path clip-path="url(#clip060)" d="M120.922 1215.3 L125.807 1215.3 L125.807 1221.18 L120.922 1221.18 L120.922 1215.3 Z" fill="#000000" fill-rule="nonzero" fill-opacity="1"></path><path clip-path="url(#clip060)" d="M136.802 1217.25 L144.441 1217.25 L144.441 1190.88 L136.131 1192.55 L136.131 1188.29 L144.394 1186.62 L149.07 1186.62 L149.07 1217.25 L156.709 1217.25 L156.709 1221.18 L136.802 1221.18 L136.802 1217.25 Z" fill="#000000" fill-rule="nonzero" fill-opacity="1"></path><path clip-path="url(#clip060)" d="M176.153 1189.7 Q172.542 1189.7 170.714 1193.26 Q168.908 1196.81 168.908 1203.94 Q168.908 1211.04 170.714 1214.61 Q172.542 1218.15 176.153 1218.15 Q179.788 1218.15 181.593 1214.61 Q183.422 1211.04 183.422 1203.94 Q183.422 1196.81 181.593 1193.26 Q179.788 1189.7 176.153 1189.7 M176.153 1186 Q181.964 1186 185.019 1190.6 Q188.098 1195.19 188.098 1203.94 Q188.098 1212.66 185.019 1217.27 Q181.964 1221.85 176.153 1221.85 Q170.343 1221.85 167.265 1217.27 Q164.209 1212.66 164.209 1203.94 Q164.209 1195.19 167.265 1190.6 Q170.343 1186 176.153 1186 Z" fill="#000000" fill-rule="nonzero" fill-opacity="1"></path><path clip-path="url(#clip060)" d="M51.9875 985.825 L81.6633 985.825 L81.6633 989.76 L51.9875 989.76 L51.9875 985.825 Z" fill="#000000" fill-rule="nonzero" fill-opacity="1"></path><path clip-path="url(#clip060)" d="M101.756 971.172 Q98.1447 971.172 96.316 974.737 Q94.5104 978.278 94.5104 985.408 Q94.5104 992.514 96.316 996.079 Q98.1447 999.621 101.756 999.621 Q105.39 999.621 107.196 996.079 Q109.024 992.514 109.024 985.408 Q109.024 978.278 107.196 974.737 Q105.39 971.172 101.756 971.172 M101.756 967.468 Q107.566 967.468 110.621 972.075 Q113.7 976.658 113.7 985.408 Q113.7 994.135 110.621 998.741 Q107.566 1003.32 101.756 1003.32 Q95.9456 1003.32 92.8669 998.741 Q89.8114 994.135 89.8114 985.408 Q89.8114 976.658 92.8669 972.075 Q95.9456 967.468 101.756 967.468 Z" fill="#000000" fill-rule="nonzero" fill-opacity="1"></path><path clip-path="url(#clip060)" d="M121.918 996.774 L126.802 996.774 L126.802 1002.65 L121.918 1002.65 L121.918 996.774 Z" fill="#000000" fill-rule="nonzero" fill-opacity="1"></path><path clip-path="url(#clip060)" d="M146.987 971.172 Q143.376 971.172 141.547 974.737 Q139.742 978.278 139.742 985.408 Q139.742 992.514 141.547 996.079 Q143.376 999.621 146.987 999.621 Q150.621 999.621 152.427 996.079 Q154.255 992.514 154.255 985.408 Q154.255 978.278 152.427 974.737 Q150.621 971.172 146.987 971.172 M146.987 967.468 Q152.797 967.468 155.853 972.075 Q158.931 976.658 158.931 985.408 Q158.931 994.135 155.853 998.741 Q152.797 1003.32 146.987 1003.32 Q141.177 1003.32 138.098 998.741 Q135.043 994.135 135.043 985.408 Q135.043 976.658 138.098 972.075 Q141.177 967.468 146.987 967.468 Z" fill="#000000" fill-rule="nonzero" fill-opacity="1"></path><path clip-path="url(#clip060)" d="M167.195 968.093 L185.552 968.093 L185.552 972.028 L171.478 972.028 L171.478 980.501 Q172.496 980.153 173.515 979.991 Q174.533 979.806 175.552 979.806 Q181.339 979.806 184.718 982.977 Q188.098 986.149 188.098 991.565 Q188.098 997.144 184.626 1000.25 Q181.153 1003.32 174.834 1003.32 Q172.658 1003.32 170.39 1002.95 Q168.144 1002.58 165.737 1001.84 L165.737 997.144 Q167.82 998.278 170.042 998.834 Q172.265 999.389 174.741 999.389 Q178.746 999.389 181.084 997.283 Q183.422 995.176 183.422 991.565 Q183.422 987.954 181.084 985.848 Q178.746 983.741 174.741 983.741 Q172.866 983.741 170.991 984.158 Q169.14 984.575 167.195 985.454 L167.195 968.093 Z" fill="#000000" fill-rule="nonzero" fill-opacity="1"></path><path clip-path="url(#clip060)" d="M100.76 752.645 Q97.1493 752.645 95.3206 756.209 Q93.515 759.751 93.515 766.881 Q93.515 773.987 95.3206 777.552 Q97.1493 781.094 100.76 781.094 Q104.395 781.094 106.2 777.552 Q108.029 773.987 108.029 766.881 Q108.029 759.751 106.2 756.209 Q104.395 752.645 100.76 752.645 M100.76 748.941 Q106.571 748.941 109.626 753.547 Q112.705 758.131 112.705 766.881 Q112.705 775.608 109.626 780.214 Q106.571 784.797 100.76 784.797 Q94.9502 784.797 91.8715 780.214 Q88.816 775.608 88.816 766.881 Q88.816 758.131 91.8715 753.547 Q94.9502 748.941 100.76 748.941 Z" fill="#000000" fill-rule="nonzero" fill-opacity="1"></path><path clip-path="url(#clip060)" d="M120.922 778.246 L125.807 778.246 L125.807 784.126 L120.922 784.126 L120.922 778.246 Z" fill="#000000" fill-rule="nonzero" fill-opacity="1"></path><path clip-path="url(#clip060)" d="M145.992 752.645 Q142.381 752.645 140.552 756.209 Q138.746 759.751 138.746 766.881 Q138.746 773.987 140.552 777.552 Q142.381 781.094 145.992 781.094 Q149.626 781.094 151.431 777.552 Q153.26 773.987 153.26 766.881 Q153.26 759.751 151.431 756.209 Q149.626 752.645 145.992 752.645 M145.992 748.941 Q151.802 748.941 154.857 753.547 Q157.936 758.131 157.936 766.881 Q157.936 775.608 154.857 780.214 Q151.802 784.797 145.992 784.797 Q140.181 784.797 137.103 780.214 Q134.047 775.608 134.047 766.881 Q134.047 758.131 137.103 753.547 Q140.181 748.941 145.992 748.941 Z" fill="#000000" fill-rule="nonzero" fill-opacity="1"></path><path clip-path="url(#clip060)" d="M176.153 752.645 Q172.542 752.645 170.714 756.209 Q168.908 759.751 168.908 766.881 Q168.908 773.987 170.714 777.552 Q172.542 781.094 176.153 781.094 Q179.788 781.094 181.593 777.552 Q183.422 773.987 183.422 766.881 Q183.422 759.751 181.593 756.209 Q179.788 752.645 176.153 752.645 M176.153 748.941 Q181.964 748.941 185.019 753.547 Q188.098 758.131 188.098 766.881 Q188.098 775.608 185.019 780.214 Q181.964 784.797 176.153 784.797 Q170.343 784.797 167.265 780.214 Q164.209 775.608 164.209 766.881 Q164.209 758.131 167.265 753.547 Q170.343 748.941 176.153 748.941 Z" fill="#000000" fill-rule="nonzero" fill-opacity="1"></path><path clip-path="url(#clip060)" d="M101.756 534.117 Q98.1447 534.117 96.316 537.682 Q94.5104 541.224 94.5104 548.353 Q94.5104 555.46 96.316 559.025 Q98.1447 562.566 101.756 562.566 Q105.39 562.566 107.196 559.025 Q109.024 555.46 109.024 548.353 Q109.024 541.224 107.196 537.682 Q105.39 534.117 101.756 534.117 M101.756 530.414 Q107.566 530.414 110.621 535.02 Q113.7 539.603 113.7 548.353 Q113.7 557.08 110.621 561.687 Q107.566 566.27 101.756 566.27 Q95.9456 566.27 92.8669 561.687 Q89.8114 557.08 89.8114 548.353 Q89.8114 539.603 92.8669 535.02 Q95.9456 530.414 101.756 530.414 Z" fill="#000000" fill-rule="nonzero" fill-opacity="1"></path><path clip-path="url(#clip060)" d="M121.918 559.719 L126.802 559.719 L126.802 565.599 L121.918 565.599 L121.918 559.719 Z" fill="#000000" fill-rule="nonzero" fill-opacity="1"></path><path clip-path="url(#clip060)" d="M146.987 534.117 Q143.376 534.117 141.547 537.682 Q139.742 541.224 139.742 548.353 Q139.742 555.46 141.547 559.025 Q143.376 562.566 146.987 562.566 Q150.621 562.566 152.427 559.025 Q154.255 555.46 154.255 548.353 Q154.255 541.224 152.427 537.682 Q150.621 534.117 146.987 534.117 M146.987 530.414 Q152.797 530.414 155.853 535.02 Q158.931 539.603 158.931 548.353 Q158.931 557.08 155.853 561.687 Q152.797 566.27 146.987 566.27 Q141.177 566.27 138.098 561.687 Q135.043 557.08 135.043 548.353 Q135.043 539.603 138.098 535.02 Q141.177 530.414 146.987 530.414 Z" fill="#000000" fill-rule="nonzero" fill-opacity="1"></path><path clip-path="url(#clip060)" d="M167.195 531.039 L185.552 531.039 L185.552 534.974 L171.478 534.974 L171.478 543.446 Q172.496 543.099 173.515 542.937 Q174.533 542.752 175.552 542.752 Q181.339 542.752 184.718 545.923 Q188.098 549.094 188.098 554.511 Q188.098 560.089 184.626 563.191 Q181.153 566.27 174.834 566.27 Q172.658 566.27 170.39 565.9 Q168.144 565.529 165.737 564.789 L165.737 560.089 Q167.82 561.224 170.042 561.779 Q172.265 562.335 174.741 562.335 Q178.746 562.335 181.084 560.228 Q183.422 558.122 183.422 554.511 Q183.422 550.9 181.084 548.793 Q178.746 546.687 174.741 546.687 Q172.866 546.687 170.991 547.103 Q169.14 547.52 167.195 548.4 L167.195 531.039 Z" fill="#000000" fill-rule="nonzero" fill-opacity="1"></path><path clip-path="url(#clip060)" d="M100.76 315.59 Q97.1493 315.59 95.3206 319.155 Q93.515 322.697 93.515 329.826 Q93.515 336.933 95.3206 340.497 Q97.1493 344.039 100.76 344.039 Q104.395 344.039 106.2 340.497 Q108.029 336.933 108.029 329.826 Q108.029 322.697 106.2 319.155 Q104.395 315.59 100.76 315.59 M100.76 311.886 Q106.571 311.886 109.626 316.493 Q112.705 321.076 112.705 329.826 Q112.705 338.553 109.626 343.159 Q106.571 347.743 100.76 347.743 Q94.9502 347.743 91.8715 343.159 Q88.816 338.553 88.816 329.826 Q88.816 321.076 91.8715 316.493 Q94.9502 311.886 100.76 311.886 Z" fill="#000000" fill-rule="nonzero" fill-opacity="1"></path><path clip-path="url(#clip060)" d="M120.922 341.192 L125.807 341.192 L125.807 347.071 L120.922 347.071 L120.922 341.192 Z" fill="#000000" fill-rule="nonzero" fill-opacity="1"></path><path clip-path="url(#clip060)" d="M136.802 343.136 L144.441 343.136 L144.441 316.771 L136.131 318.437 L136.131 314.178 L144.394 312.511 L149.07 312.511 L149.07 343.136 L156.709 343.136 L156.709 347.071 L136.802 347.071 L136.802 343.136 Z" fill="#000000" fill-rule="nonzero" fill-opacity="1"></path><path clip-path="url(#clip060)" d="M176.153 315.59 Q172.542 315.59 170.714 319.155 Q168.908 322.697 168.908 329.826 Q168.908 336.933 170.714 340.497 Q172.542 344.039 176.153 344.039 Q179.788 344.039 181.593 340.497 Q183.422 336.933 183.422 329.826 Q183.422 322.697 181.593 319.155 Q179.788 315.59 176.153 315.59 M176.153 311.886 Q181.964 311.886 185.019 316.493 Q188.098 321.076 188.098 329.826 Q188.098 338.553 185.019 343.159 Q181.964 347.743 176.153 347.743 Q170.343 347.743 167.265 343.159 Q164.209 338.553 164.209 329.826 Q164.209 321.076 167.265 316.493 Q170.343 311.886 176.153 311.886 Z" fill="#000000" fill-rule="nonzero" fill-opacity="1"></path><path clip-path="url(#clip060)" d="M101.756 97.0628 Q98.1447 97.0628 96.316 100.628 Q94.5104 104.169 94.5104 111.299 Q94.5104 118.405 96.316 121.97 Q98.1447 125.512 101.756 125.512 Q105.39 125.512 107.196 121.97 Q109.024 118.405 109.024 111.299 Q109.024 104.169 107.196 100.628 Q105.39 97.0628 101.756 97.0628 M101.756 93.3591 Q107.566 93.3591 110.621 97.9655 Q113.7 102.549 113.7 111.299 Q113.7 120.026 110.621 124.632 Q107.566 129.215 101.756 129.215 Q95.9456 129.215 92.8669 124.632 Q89.8114 120.026 89.8114 111.299 Q89.8114 102.549 92.8669 97.9655 Q95.9456 93.3591 101.756 93.3591 Z" fill="#000000" fill-rule="nonzero" fill-opacity="1"></path><path clip-path="url(#clip060)" d="M121.918 122.664 L126.802 122.664 L126.802 128.544 L121.918 128.544 L121.918 122.664 Z" fill="#000000" fill-rule="nonzero" fill-opacity="1"></path><path clip-path="url(#clip060)" d="M137.797 124.609 L145.436 124.609 L145.436 98.2433 L137.126 99.91 L137.126 95.6507 L145.39 93.9841 L150.066 93.9841 L150.066 124.609 L157.705 124.609 L157.705 128.544 L137.797 128.544 L137.797 124.609 Z" fill="#000000" fill-rule="nonzero" fill-opacity="1"></path><path clip-path="url(#clip060)" d="M167.195 93.9841 L185.552 93.9841 L185.552 97.9192 L171.478 97.9192 L171.478 106.391 Q172.496 106.044 173.515 105.882 Q174.533 105.697 175.552 105.697 Q181.339 105.697 184.718 108.868 Q188.098 112.04 188.098 117.456 Q188.098 123.035 184.626 126.137 Q181.153 129.215 174.834 129.215 Q172.658 129.215 170.39 128.845 Q168.144 128.475 165.737 127.734 L165.737 123.035 Q167.82 124.169 170.042 124.725 Q172.265 125.28 174.741 125.28 Q178.746 125.28 181.084 123.174 Q183.422 121.067 183.422 117.456 Q183.422 113.845 181.084 111.739 Q178.746 109.632 174.741 109.632 Q172.866 109.632 170.991 110.049 Q169.14 110.465 167.195 111.345 L167.195 93.9841 Z" fill="#000000" fill-rule="nonzero" fill-opacity="1"></path><polyline clip-path="url(#clip062)" style="stroke:#009af9; stroke-linecap:round; stroke-linejoin:round; stroke-width:15.3846; stroke-opacity:1; fill:none" points="364.67,766.846 364.67,381.211 "></polyline>
<polyline clip-path="url(#clip062)" style="stroke:#009af9; stroke-linecap:round; stroke-linejoin:round; stroke-width:15.3846; stroke-opacity:1; fill:none" points="444.996,766.846 444.996,621.835 "></polyline>
<polyline clip-path="url(#clip062)" style="stroke:#009af9; stroke-linecap:round; stroke-linejoin:round; stroke-width:15.3846; stroke-opacity:1; fill:none" points="525.323,766.846 525.323,807.753 "></polyline>
<polyline clip-path="url(#clip062)" style="stroke:#009af9; stroke-linecap:round; stroke-linejoin:round; stroke-width:15.3846; stroke-opacity:1; fill:none" points="605.65,766.846 605.65,930.976 "></polyline>
<polyline clip-path="url(#clip062)" style="stroke:#009af9; stroke-linecap:round; stroke-linejoin:round; stroke-width:15.3846; stroke-opacity:1; fill:none" points="685.977,766.846 685.977,436.139 "></polyline>
<polyline clip-path="url(#clip062)" style="stroke:#009af9; stroke-linecap:round; stroke-linejoin:round; stroke-width:15.3846; stroke-opacity:1; fill:none" points="766.303,766.846 766.303,608.738 "></polyline>
<polyline clip-path="url(#clip062)" style="stroke:#009af9; stroke-linecap:round; stroke-linejoin:round; stroke-width:15.3846; stroke-opacity:1; fill:none" points="846.63,766.846 846.63,625.881 "></polyline>
<polyline clip-path="url(#clip062)" style="stroke:#009af9; stroke-linecap:round; stroke-linejoin:round; stroke-width:15.3846; stroke-opacity:1; fill:none" points="926.957,766.846 926.957,98.7549 "></polyline>
<polyline clip-path="url(#clip062)" style="stroke:#009af9; stroke-linecap:round; stroke-linejoin:round; stroke-width:15.3846; stroke-opacity:1; fill:none" points="1007.28,766.846 1007.28,1036.96 "></polyline>
<polyline clip-path="url(#clip062)" style="stroke:#009af9; stroke-linecap:round; stroke-linejoin:round; stroke-width:15.3846; stroke-opacity:1; fill:none" points="1087.61,766.846 1087.61,713.691 "></polyline>
<polyline clip-path="url(#clip062)" style="stroke:#009af9; stroke-linecap:round; stroke-linejoin:round; stroke-width:15.3846; stroke-opacity:1; fill:none" points="1167.94,766.846 1167.94,394.215 "></polyline>
<polyline clip-path="url(#clip062)" style="stroke:#009af9; stroke-linecap:round; stroke-linejoin:round; stroke-width:15.3846; stroke-opacity:1; fill:none" points="1248.26,766.846 1248.26,616.174 "></polyline>
<polyline clip-path="url(#clip062)" style="stroke:#009af9; stroke-linecap:round; stroke-linejoin:round; stroke-width:15.3846; stroke-opacity:1; fill:none" points="1328.59,766.846 1328.59,673.059 "></polyline>
<polyline clip-path="url(#clip062)" style="stroke:#009af9; stroke-linecap:round; stroke-linejoin:round; stroke-width:15.3846; stroke-opacity:1; fill:none" points="1408.92,766.846 1408.92,1113.61 "></polyline>
<polyline clip-path="url(#clip062)" style="stroke:#009af9; stroke-linecap:round; stroke-linejoin:round; stroke-width:15.3846; stroke-opacity:1; fill:none" points="1489.24,766.846 1489.24,845.1 "></polyline>
<polyline clip-path="url(#clip062)" style="stroke:#009af9; stroke-linecap:round; stroke-linejoin:round; stroke-width:15.3846; stroke-opacity:1; fill:none" points="1569.57,766.846 1569.57,533.342 "></polyline>
<polyline clip-path="url(#clip062)" style="stroke:#009af9; stroke-linecap:round; stroke-linejoin:round; stroke-width:15.3846; stroke-opacity:1; fill:none" points="1649.9,766.846 1649.9,608.019 "></polyline>
<polyline clip-path="url(#clip062)" style="stroke:#009af9; stroke-linecap:round; stroke-linejoin:round; stroke-width:15.3846; stroke-opacity:1; fill:none" points="1730.22,766.846 1730.22,760.386 "></polyline>
<polyline clip-path="url(#clip062)" style="stroke:#009af9; stroke-linecap:round; stroke-linejoin:round; stroke-width:15.3846; stroke-opacity:1; fill:none" points="1810.55,766.846 1810.55,1137.62 "></polyline>
<polyline clip-path="url(#clip062)" style="stroke:#009af9; stroke-linecap:round; stroke-linejoin:round; stroke-width:15.3846; stroke-opacity:1; fill:none" points="1890.88,766.846 1890.88,1219.62 "></polyline>
<polyline clip-path="url(#clip062)" style="stroke:#009af9; stroke-linecap:round; stroke-linejoin:round; stroke-width:15.3846; stroke-opacity:1; fill:none" points="1971.2,766.846 1971.2,832.042 "></polyline>
<polyline clip-path="url(#clip062)" style="stroke:#009af9; stroke-linecap:round; stroke-linejoin:round; stroke-width:15.3846; stroke-opacity:1; fill:none" points="2051.53,766.846 2051.53,965.93 "></polyline>
<polyline clip-path="url(#clip062)" style="stroke:#009af9; stroke-linecap:round; stroke-linejoin:round; stroke-width:15.3846; stroke-opacity:1; fill:none" points="2131.86,766.846 2131.86,377.717 "></polyline>
<polyline clip-path="url(#clip062)" style="stroke:#009af9; stroke-linecap:round; stroke-linejoin:round; stroke-width:15.3846; stroke-opacity:1; fill:none" points="2212.18,766.846 2212.18,830.596 "></polyline>
<polyline clip-path="url(#clip062)" style="stroke:#009af9; stroke-linecap:round; stroke-linejoin:round; stroke-width:15.3846; stroke-opacity:1; fill:none" points="2292.51,766.846 2292.51,927.414 "></polyline>
<polyline clip-path="url(#clip062)" style="stroke:#009af9; stroke-linecap:round; stroke-linejoin:round; stroke-width:15.3846; stroke-opacity:1; fill:none" points="284.343,766.846 284.343,766.846 "></polyline>
<polyline clip-path="url(#clip062)" style="stroke:#000000; stroke-linecap:round; stroke-linejoin:round; stroke-width:4; stroke-opacity:0.5; fill:none" stroke-dasharray="16, 10" points="-1904.56,1283.4 4481.41,1283.4 "></polyline>
<polyline clip-path="url(#clip062)" style="stroke:#000000; stroke-linecap:round; stroke-linejoin:round; stroke-width:4; stroke-opacity:0.5; fill:none" stroke-dasharray="16, 10" points="-1904.56,250.29 4481.41,250.29 "></polyline>
<polyline clip-path="url(#clip062)" style="stroke:#000000; stroke-linecap:round; stroke-linejoin:round; stroke-width:4; stroke-opacity:0.5; fill:none" stroke-dasharray="2, 4" points="-1904.56,1445.72 4481.41,1445.72 "></polyline>
<polyline clip-path="url(#clip062)" style="stroke:#000000; stroke-linecap:round; stroke-linejoin:round; stroke-width:4; stroke-opacity:0.5; fill:none" stroke-dasharray="2, 4" points="-1904.56,87.9763 4481.41,87.9763 "></polyline>
<g clip-path="url(#clip060)">
<text style="fill:#000000; fill-opacity:1; font-family:Courier,Courier New,Lucida Sans Typewriter,Lucida Typewriter,monospace; font-size:22px; text-anchor:middle;" transform="rotate(0, 2292.51, 236.501)" x="2292.51" y="236.501">CI %95.0</text>
</g>
<g clip-path="url(#clip060)">
<text style="fill:#000000; fill-opacity:1; font-family:Courier,Courier New,Lucida Sans Typewriter,Lucida Typewriter,monospace; font-size:22px; text-anchor:middle;" transform="rotate(0, 2292.51, 74.1871)" x="2292.51" y="74.1871">CI %99.0</text>
</g>
</svg>