<svg xmlns="http://www.w3.org/2000/svg" xmlns:xlink="http://www.w3.org/1999/xlink" width="600" height="400" viewBox="0 0 2400 1600">
<defs>
  <clipPath id="clip150">
    <rect x="0" y="0" width="2400" height="1600"></rect>
  </clipPath>
</defs>
<path clip-path="url(#clip150)" d="M0 1600 L2400 1600 L2400 0 L0 0  Z" fill="#ffffff" fill-rule="evenodd" fill-opacity="1"></path>
<defs>
  <clipPath id="clip151">
    <rect x="480" y="0" width="1681" height="1600"></rect>
  </clipPath>
</defs>
<path clip-path="url(#clip150)" d="M186.274 686.448 L2352.76 686.448 L2352.76 47.2441 L186.274 47.2441  Z" fill="#ffffff" fill-rule="evenodd" fill-opacity="1"></path>
<defs>
  <clipPath id="clip152">
    <rect x="186" y="47" width="2167" height="640"></rect>
  </clipPath>
</defs>
<polyline clip-path="url(#clip152)" style="stroke:#000000; stroke-linecap:round; stroke-linejoin:round; stroke-width:2; stroke-opacity:0.1; fill:none" points="211.903,686.448 211.903,47.2441 "></polyline>
<polyline clip-path="url(#clip152)" style="stroke:#000000; stroke-linecap:round; stroke-linejoin:round; stroke-width:2; stroke-opacity:0.1; fill:none" points="799.105,686.448 799.105,47.2441 "></polyline>
<polyline clip-path="url(#clip152)" style="stroke:#000000; stroke-linecap:round; stroke-linejoin:round; stroke-width:2; stroke-opacity:0.1; fill:none" points="1396.04,686.448 1396.04,47.2441 "></polyline>
<polyline clip-path="url(#clip152)" style="stroke:#000000; stroke-linecap:round; stroke-linejoin:round; stroke-width:2; stroke-opacity:0.1; fill:none" points="1983.24,686.448 1983.24,47.2441 "></polyline>
<polyline clip-path="url(#clip150)" style="stroke:#000000; stroke-linecap:round; stroke-linejoin:round; stroke-width:4; stroke-opacity:1; fill:none" points="186.274,686.448 2352.76,686.448 "></polyline>
<polyline clip-path="url(#clip150)" style="stroke:#000000; stroke-linecap:round; stroke-linejoin:round; stroke-width:4; stroke-opacity:1; fill:none" points="211.903,686.448 211.903,667.55 "></polyline>
<polyline clip-path="url(#clip150)" style="stroke:#000000; stroke-linecap:round; stroke-linejoin:round; stroke-width:4; stroke-opacity:1; fill:none" points="799.105,686.448 799.105,667.55 "></polyline>
<polyline clip-path="url(#clip150)" style="stroke:#000000; stroke-linecap:round; stroke-linejoin:round; stroke-width:4; stroke-opacity:1; fill:none" points="1396.04,686.448 1396.04,667.55 "></polyline>
<polyline clip-path="url(#clip150)" style="stroke:#000000; stroke-linecap:round; stroke-linejoin:round; stroke-width:4; stroke-opacity:1; fill:none" points="1983.24,686.448 1983.24,667.55 "></polyline>
<path clip-path="url(#clip150)" d="M83.6979 744.913 L100.017 744.913 L100.017 748.848 L78.0729 748.848 L78.0729 744.913 Q80.735 742.158 85.3183 737.528 Q89.9247 732.876 91.1053 731.533 Q93.3506 729.01 94.2303 727.274 Q95.133 725.515 95.133 723.825 Q95.133 721.07 93.1886 719.334 Q91.2673 717.598 88.1655 717.598 Q85.9664 717.598 83.5127 718.362 Q81.0822 719.126 78.3044 720.677 L78.3044 715.955 Q81.1285 714.82 83.5822 714.242 Q86.0359 713.663 88.0729 713.663 Q93.4432 713.663 96.6377 716.348 Q99.8321 719.033 99.8321 723.524 Q99.8321 725.654 99.0219 727.575 Q98.2349 729.473 96.1284 732.066 Q95.5497 732.737 92.4479 735.954 Q89.346 739.149 83.6979 744.913 Z" fill="#000000" fill-rule="nonzero" fill-opacity="1"></path><path clip-path="url(#clip150)" d="M119.832 717.367 Q116.221 717.367 114.392 720.931 Q112.587 724.473 112.587 731.603 Q112.587 738.709 114.392 742.274 Q116.221 745.815 119.832 745.815 Q123.466 745.815 125.272 742.274 Q127.1 738.709 127.1 731.603 Q127.1 724.473 125.272 720.931 Q123.466 717.367 119.832 717.367 M119.832 713.663 Q125.642 713.663 128.698 718.269 Q131.776 722.853 131.776 731.603 Q131.776 740.329 128.698 744.936 Q125.642 749.519 119.832 749.519 Q114.022 749.519 110.943 744.936 Q107.888 740.329 107.888 731.603 Q107.888 722.853 110.943 718.269 Q114.022 713.663 119.832 713.663 Z" fill="#000000" fill-rule="nonzero" fill-opacity="1"></path><path clip-path="url(#clip150)" d="M140.804 744.913 L148.443 744.913 L148.443 718.547 L140.133 720.214 L140.133 715.955 L148.397 714.288 L153.073 714.288 L153.073 744.913 L160.711 744.913 L160.711 748.848 L140.804 748.848 L140.804 744.913 Z" fill="#000000" fill-rule="nonzero" fill-opacity="1"></path><path clip-path="url(#clip150)" d="M180.156 732.436 Q176.822 732.436 174.901 734.218 Q173.003 736.001 173.003 739.126 Q173.003 742.251 174.901 744.033 Q176.822 745.815 180.156 745.815 Q183.489 745.815 185.41 744.033 Q187.332 742.228 187.332 739.126 Q187.332 736.001 185.41 734.218 Q183.512 732.436 180.156 732.436 M175.48 730.445 Q172.471 729.704 170.781 727.644 Q169.114 725.584 169.114 722.621 Q169.114 718.478 172.054 716.07 Q175.017 713.663 180.156 713.663 Q185.318 713.663 188.258 716.07 Q191.197 718.478 191.197 722.621 Q191.197 725.584 189.508 727.644 Q187.841 729.704 184.855 730.445 Q188.234 731.232 190.109 733.524 Q192.008 735.816 192.008 739.126 Q192.008 744.149 188.929 746.834 Q185.873 749.519 180.156 749.519 Q174.438 749.519 171.359 746.834 Q168.304 744.149 168.304 739.126 Q168.304 735.816 170.202 733.524 Q172.1 731.232 175.48 730.445 M173.767 723.061 Q173.767 725.746 175.434 727.251 Q177.123 728.755 180.156 728.755 Q183.165 728.755 184.855 727.251 Q186.568 725.746 186.568 723.061 Q186.568 720.376 184.855 718.871 Q183.165 717.367 180.156 717.367 Q177.123 717.367 175.434 718.871 Q173.767 720.376 173.767 723.061 Z" fill="#000000" fill-rule="nonzero" fill-opacity="1"></path><path clip-path="url(#clip150)" d="M197.563 733.964 L210.04 733.964 L210.04 737.76 L197.563 737.76 L197.563 733.964 Z" fill="#000000" fill-rule="nonzero" fill-opacity="1"></path><path clip-path="url(#clip150)" d="M227.424 717.367 Q223.813 717.367 221.984 720.931 Q220.179 724.473 220.179 731.603 Q220.179 738.709 221.984 742.274 Q223.813 745.815 227.424 745.815 Q231.058 745.815 232.864 742.274 Q234.692 738.709 234.692 731.603 Q234.692 724.473 232.864 720.931 Q231.058 717.367 227.424 717.367 M227.424 713.663 Q233.234 713.663 236.29 718.269 Q239.368 722.853 239.368 731.603 Q239.368 740.329 236.29 744.936 Q233.234 749.519 227.424 749.519 Q221.614 749.519 218.535 744.936 Q215.48 740.329 215.48 731.603 Q215.48 722.853 218.535 718.269 Q221.614 713.663 227.424 713.663 Z" fill="#000000" fill-rule="nonzero" fill-opacity="1"></path><path clip-path="url(#clip150)" d="M251.614 744.913 L267.933 744.913 L267.933 748.848 L245.989 748.848 L245.989 744.913 Q248.651 742.158 253.234 737.528 Q257.84 732.876 259.021 731.533 Q261.266 729.01 262.146 727.274 Q263.049 725.515 263.049 723.825 Q263.049 721.07 261.104 719.334 Q259.183 717.598 256.081 717.598 Q253.882 717.598 251.428 718.362 Q248.998 719.126 246.22 720.677 L246.22 715.955 Q249.044 714.82 251.498 714.242 Q253.952 713.663 255.989 713.663 Q261.359 713.663 264.553 716.348 Q267.748 719.033 267.748 723.524 Q267.748 725.654 266.938 727.575 Q266.151 729.473 264.044 732.066 Q263.465 732.737 260.364 735.954 Q257.262 739.149 251.614 744.913 Z" fill="#000000" fill-rule="nonzero" fill-opacity="1"></path><path clip-path="url(#clip150)" d="M274.993 733.964 L287.47 733.964 L287.47 737.76 L274.993 737.76 L274.993 733.964 Z" fill="#000000" fill-rule="nonzero" fill-opacity="1"></path><path clip-path="url(#clip150)" d="M304.854 717.367 Q301.243 717.367 299.414 720.931 Q297.609 724.473 297.609 731.603 Q297.609 738.709 299.414 742.274 Q301.243 745.815 304.854 745.815 Q308.488 745.815 310.294 742.274 Q312.123 738.709 312.123 731.603 Q312.123 724.473 310.294 720.931 Q308.488 717.367 304.854 717.367 M304.854 713.663 Q310.664 713.663 313.72 718.269 Q316.799 722.853 316.799 731.603 Q316.799 740.329 313.72 744.936 Q310.664 749.519 304.854 749.519 Q299.044 749.519 295.965 744.936 Q292.91 740.329 292.91 731.603 Q292.91 722.853 295.965 718.269 Q299.044 713.663 304.854 713.663 Z" fill="#000000" fill-rule="nonzero" fill-opacity="1"></path><path clip-path="url(#clip150)" d="M325.826 744.913 L333.465 744.913 L333.465 718.547 L325.155 720.214 L325.155 715.955 L333.419 714.288 L338.095 714.288 L338.095 744.913 L345.734 744.913 L345.734 748.848 L325.826 748.848 L325.826 744.913 Z" fill="#000000" fill-rule="nonzero" fill-opacity="1"></path><path clip-path="url(#clip150)" d="M670.9 744.913 L687.219 744.913 L687.219 748.848 L665.275 748.848 L665.275 744.913 Q667.937 742.158 672.52 737.528 Q677.126 732.876 678.307 731.533 Q680.552 729.01 681.432 727.274 Q682.335 725.515 682.335 723.825 Q682.335 721.07 680.39 719.334 Q678.469 717.598 675.367 717.598 Q673.168 717.598 670.714 718.362 Q668.284 719.126 665.506 720.677 L665.506 715.955 Q668.33 714.82 670.784 714.242 Q673.237 713.663 675.274 713.663 Q680.645 713.663 683.839 716.348 Q687.034 719.033 687.034 723.524 Q687.034 725.654 686.223 727.575 Q685.436 729.473 683.33 732.066 Q682.751 732.737 679.649 735.954 Q676.548 739.149 670.9 744.913 Z" fill="#000000" fill-rule="nonzero" fill-opacity="1"></path><path clip-path="url(#clip150)" d="M707.034 717.367 Q703.422 717.367 701.594 720.931 Q699.788 724.473 699.788 731.603 Q699.788 738.709 701.594 742.274 Q703.422 745.815 707.034 745.815 Q710.668 745.815 712.473 742.274 Q714.302 738.709 714.302 731.603 Q714.302 724.473 712.473 720.931 Q710.668 717.367 707.034 717.367 M707.034 713.663 Q712.844 713.663 715.899 718.269 Q718.978 722.853 718.978 731.603 Q718.978 740.329 715.899 744.936 Q712.844 749.519 707.034 749.519 Q701.223 749.519 698.145 744.936 Q695.089 740.329 695.089 731.603 Q695.089 722.853 698.145 718.269 Q701.223 713.663 707.034 713.663 Z" fill="#000000" fill-rule="nonzero" fill-opacity="1"></path><path clip-path="url(#clip150)" d="M728.006 744.913 L735.645 744.913 L735.645 718.547 L727.334 720.214 L727.334 715.955 L735.598 714.288 L740.274 714.288 L740.274 744.913 L747.913 744.913 L747.913 748.848 L728.006 748.848 L728.006 744.913 Z" fill="#000000" fill-rule="nonzero" fill-opacity="1"></path><path clip-path="url(#clip150)" d="M767.357 732.436 Q764.024 732.436 762.103 734.218 Q760.205 736.001 760.205 739.126 Q760.205 742.251 762.103 744.033 Q764.024 745.815 767.357 745.815 Q770.691 745.815 772.612 744.033 Q774.533 742.228 774.533 739.126 Q774.533 736.001 772.612 734.218 Q770.714 732.436 767.357 732.436 M762.681 730.445 Q759.672 729.704 757.982 727.644 Q756.316 725.584 756.316 722.621 Q756.316 718.478 759.256 716.07 Q762.218 713.663 767.357 713.663 Q772.519 713.663 775.459 716.07 Q778.399 718.478 778.399 722.621 Q778.399 725.584 776.709 727.644 Q775.042 729.704 772.056 730.445 Q775.436 731.232 777.311 733.524 Q779.209 735.816 779.209 739.126 Q779.209 744.149 776.13 746.834 Q773.075 749.519 767.357 749.519 Q761.64 749.519 758.561 746.834 Q755.506 744.149 755.506 739.126 Q755.506 735.816 757.404 733.524 Q759.302 731.232 762.681 730.445 M760.968 723.061 Q760.968 725.746 762.635 727.251 Q764.325 728.755 767.357 728.755 Q770.367 728.755 772.056 727.251 Q773.769 725.746 773.769 723.061 Q773.769 720.376 772.056 718.871 Q770.367 717.367 767.357 717.367 Q764.325 717.367 762.635 718.871 Q760.968 720.376 760.968 723.061 Z" fill="#000000" fill-rule="nonzero" fill-opacity="1"></path><path clip-path="url(#clip150)" d="M784.765 733.964 L797.241 733.964 L797.241 737.76 L784.765 737.76 L784.765 733.964 Z" fill="#000000" fill-rule="nonzero" fill-opacity="1"></path><path clip-path="url(#clip150)" d="M814.626 717.367 Q811.014 717.367 809.186 720.931 Q807.38 724.473 807.38 731.603 Q807.38 738.709 809.186 742.274 Q811.014 745.815 814.626 745.815 Q818.26 745.815 820.065 742.274 Q821.894 738.709 821.894 731.603 Q821.894 724.473 820.065 720.931 Q818.26 717.367 814.626 717.367 M814.626 713.663 Q820.436 713.663 823.491 718.269 Q826.57 722.853 826.57 731.603 Q826.57 740.329 823.491 744.936 Q820.436 749.519 814.626 749.519 Q808.815 749.519 805.737 744.936 Q802.681 740.329 802.681 731.603 Q802.681 722.853 805.737 718.269 Q808.815 713.663 814.626 713.663 Z" fill="#000000" fill-rule="nonzero" fill-opacity="1"></path><path clip-path="url(#clip150)" d="M844.787 732.436 Q841.454 732.436 839.533 734.218 Q837.635 736.001 837.635 739.126 Q837.635 742.251 839.533 744.033 Q841.454 745.815 844.787 745.815 Q848.121 745.815 850.042 744.033 Q851.963 742.228 851.963 739.126 Q851.963 736.001 850.042 734.218 Q848.144 732.436 844.787 732.436 M840.112 730.445 Q837.102 729.704 835.413 727.644 Q833.746 725.584 833.746 722.621 Q833.746 718.478 836.686 716.07 Q839.649 713.663 844.787 713.663 Q849.949 713.663 852.889 716.07 Q855.829 718.478 855.829 722.621 Q855.829 725.584 854.139 727.644 Q852.473 729.704 849.487 730.445 Q852.866 731.232 854.741 733.524 Q856.639 735.816 856.639 739.126 Q856.639 744.149 853.561 746.834 Q850.505 749.519 844.787 749.519 Q839.07 749.519 835.991 746.834 Q832.936 744.149 832.936 739.126 Q832.936 735.816 834.834 733.524 Q836.732 731.232 840.112 730.445 M838.399 723.061 Q838.399 725.746 840.065 727.251 Q841.755 728.755 844.787 728.755 Q847.797 728.755 849.487 727.251 Q851.199 725.746 851.199 723.061 Q851.199 720.376 849.487 718.871 Q847.797 717.367 844.787 717.367 Q841.755 717.367 840.065 718.871 Q838.399 720.376 838.399 723.061 Z" fill="#000000" fill-rule="nonzero" fill-opacity="1"></path><path clip-path="url(#clip150)" d="M862.195 733.964 L874.672 733.964 L874.672 737.76 L862.195 737.76 L862.195 733.964 Z" fill="#000000" fill-rule="nonzero" fill-opacity="1"></path><path clip-path="url(#clip150)" d="M892.056 717.367 Q888.445 717.367 886.616 720.931 Q884.81 724.473 884.81 731.603 Q884.81 738.709 886.616 742.274 Q888.445 745.815 892.056 745.815 Q895.69 745.815 897.496 742.274 Q899.324 738.709 899.324 731.603 Q899.324 724.473 897.496 720.931 Q895.69 717.367 892.056 717.367 M892.056 713.663 Q897.866 713.663 900.921 718.269 Q904 722.853 904 731.603 Q904 740.329 900.921 744.936 Q897.866 749.519 892.056 749.519 Q886.246 749.519 883.167 744.936 Q880.111 740.329 880.111 731.603 Q880.111 722.853 883.167 718.269 Q886.246 713.663 892.056 713.663 Z" fill="#000000" fill-rule="nonzero" fill-opacity="1"></path><path clip-path="url(#clip150)" d="M913.028 744.913 L920.667 744.913 L920.667 718.547 L912.357 720.214 L912.357 715.955 L920.62 714.288 L925.296 714.288 L925.296 744.913 L932.935 744.913 L932.935 748.848 L913.028 748.848 L913.028 744.913 Z" fill="#000000" fill-rule="nonzero" fill-opacity="1"></path><path clip-path="url(#clip150)" d="M1267.83 744.913 L1284.15 744.913 L1284.15 748.848 L1262.21 748.848 L1262.21 744.913 Q1264.87 742.158 1269.45 737.528 Q1274.06 732.876 1275.24 731.533 Q1277.49 729.01 1278.37 727.274 Q1279.27 725.515 1279.27 723.825 Q1279.27 721.07 1277.32 719.334 Q1275.4 717.598 1272.3 717.598 Q1270.1 717.598 1267.65 718.362 Q1265.22 719.126 1262.44 720.677 L1262.44 715.955 Q1265.26 714.82 1267.72 714.242 Q1270.17 713.663 1272.21 713.663 Q1277.58 713.663 1280.77 716.348 Q1283.97 719.033 1283.97 723.524 Q1283.97 725.654 1283.16 727.575 Q1282.37 729.473 1280.26 732.066 Q1279.69 732.737 1276.58 735.954 Q1273.48 739.149 1267.83 744.913 Z" fill="#000000" fill-rule="nonzero" fill-opacity="1"></path><path clip-path="url(#clip150)" d="M1303.97 717.367 Q1300.36 717.367 1298.53 720.931 Q1296.72 724.473 1296.72 731.603 Q1296.72 738.709 1298.53 742.274 Q1300.36 745.815 1303.97 745.815 Q1307.6 745.815 1309.41 742.274 Q1311.24 738.709 1311.24 731.603 Q1311.24 724.473 1309.41 720.931 Q1307.6 717.367 1303.97 717.367 M1303.97 713.663 Q1309.78 713.663 1312.83 718.269 Q1315.91 722.853 1315.91 731.603 Q1315.91 740.329 1312.83 744.936 Q1309.78 749.519 1303.97 749.519 Q1298.16 749.519 1295.08 744.936 Q1292.02 740.329 1292.02 731.603 Q1292.02 722.853 1295.08 718.269 Q1298.16 713.663 1303.97 713.663 Z" fill="#000000" fill-rule="nonzero" fill-opacity="1"></path><path clip-path="url(#clip150)" d="M1324.94 744.913 L1332.58 744.913 L1332.58 718.547 L1324.27 720.214 L1324.27 715.955 L1332.53 714.288 L1337.21 714.288 L1337.21 744.913 L1344.85 744.913 L1344.85 748.848 L1324.94 748.848 L1324.94 744.913 Z" fill="#000000" fill-rule="nonzero" fill-opacity="1"></path><path clip-path="url(#clip150)" d="M1354.43 748.13 L1354.43 743.871 Q1356.19 744.704 1358 745.144 Q1359.8 745.584 1361.54 745.584 Q1366.17 745.584 1368.6 742.482 Q1371.05 739.357 1371.4 733.015 Q1370.06 735.005 1368 736.07 Q1365.94 737.135 1363.44 737.135 Q1358.25 737.135 1355.22 734.01 Q1352.21 730.862 1352.21 725.422 Q1352.21 720.098 1355.36 716.88 Q1358.5 713.663 1363.74 713.663 Q1369.73 713.663 1372.88 718.269 Q1376.05 722.853 1376.05 731.603 Q1376.05 739.774 1372.16 744.658 Q1368.3 749.519 1361.75 749.519 Q1359.99 749.519 1358.18 749.172 Q1356.37 748.825 1354.43 748.13 M1363.74 733.478 Q1366.88 733.478 1368.71 731.325 Q1370.56 729.172 1370.56 725.422 Q1370.56 721.695 1368.71 719.542 Q1366.88 717.367 1363.74 717.367 Q1360.59 717.367 1358.74 719.542 Q1356.91 721.695 1356.91 725.422 Q1356.91 729.172 1358.74 731.325 Q1360.59 733.478 1363.74 733.478 Z" fill="#000000" fill-rule="nonzero" fill-opacity="1"></path><path clip-path="url(#clip150)" d="M1381.7 733.964 L1394.18 733.964 L1394.18 737.76 L1381.7 737.76 L1381.7 733.964 Z" fill="#000000" fill-rule="nonzero" fill-opacity="1"></path><path clip-path="url(#clip150)" d="M1411.56 717.367 Q1407.95 717.367 1406.12 720.931 Q1404.31 724.473 1404.31 731.603 Q1404.31 738.709 1406.12 742.274 Q1407.95 745.815 1411.56 745.815 Q1415.19 745.815 1417 742.274 Q1418.83 738.709 1418.83 731.603 Q1418.83 724.473 1417 720.931 Q1415.19 717.367 1411.56 717.367 M1411.56 713.663 Q1417.37 713.663 1420.43 718.269 Q1423.5 722.853 1423.5 731.603 Q1423.5 740.329 1420.43 744.936 Q1417.37 749.519 1411.56 749.519 Q1405.75 749.519 1402.67 744.936 Q1399.62 740.329 1399.62 731.603 Q1399.62 722.853 1402.67 718.269 Q1405.75 713.663 1411.56 713.663 Z" fill="#000000" fill-rule="nonzero" fill-opacity="1"></path><path clip-path="url(#clip150)" d="M1435.75 744.913 L1452.07 744.913 L1452.07 748.848 L1430.12 748.848 L1430.12 744.913 Q1432.79 742.158 1437.37 737.528 Q1441.98 732.876 1443.16 731.533 Q1445.4 729.01 1446.28 727.274 Q1447.18 725.515 1447.18 723.825 Q1447.18 721.07 1445.24 719.334 Q1443.32 717.598 1440.22 717.598 Q1438.02 717.598 1435.56 718.362 Q1433.13 719.126 1430.36 720.677 L1430.36 715.955 Q1433.18 714.82 1435.63 714.242 Q1438.09 713.663 1440.12 713.663 Q1445.49 713.663 1448.69 716.348 Q1451.88 719.033 1451.88 723.524 Q1451.88 725.654 1451.07 727.575 Q1450.29 729.473 1448.18 732.066 Q1447.6 732.737 1444.5 735.954 Q1441.4 739.149 1435.75 744.913 Z" fill="#000000" fill-rule="nonzero" fill-opacity="1"></path><path clip-path="url(#clip150)" d="M1459.13 733.964 L1471.61 733.964 L1471.61 737.76 L1459.13 737.76 L1459.13 733.964 Z" fill="#000000" fill-rule="nonzero" fill-opacity="1"></path><path clip-path="url(#clip150)" d="M1488.99 717.367 Q1485.38 717.367 1483.55 720.931 Q1481.74 724.473 1481.74 731.603 Q1481.74 738.709 1483.55 742.274 Q1485.38 745.815 1488.99 745.815 Q1492.62 745.815 1494.43 742.274 Q1496.26 738.709 1496.26 731.603 Q1496.26 724.473 1494.43 720.931 Q1492.62 717.367 1488.99 717.367 M1488.99 713.663 Q1494.8 713.663 1497.86 718.269 Q1500.93 722.853 1500.93 731.603 Q1500.93 740.329 1497.86 744.936 Q1494.8 749.519 1488.99 749.519 Q1483.18 749.519 1480.1 744.936 Q1477.05 740.329 1477.05 731.603 Q1477.05 722.853 1480.1 718.269 Q1483.18 713.663 1488.99 713.663 Z" fill="#000000" fill-rule="nonzero" fill-opacity="1"></path><path clip-path="url(#clip150)" d="M1509.96 744.913 L1517.6 744.913 L1517.6 718.547 L1509.29 720.214 L1509.29 715.955 L1517.55 714.288 L1522.23 714.288 L1522.23 744.913 L1529.87 744.913 L1529.87 748.848 L1509.96 748.848 L1509.96 744.913 Z" fill="#000000" fill-rule="nonzero" fill-opacity="1"></path><path clip-path="url(#clip150)" d="M1855.04 744.913 L1871.35 744.913 L1871.35 748.848 L1849.41 748.848 L1849.41 744.913 Q1852.07 742.158 1856.66 737.528 Q1861.26 732.876 1862.44 731.533 Q1864.69 729.01 1865.57 727.274 Q1866.47 725.515 1866.47 723.825 Q1866.47 721.07 1864.53 719.334 Q1862.6 717.598 1859.5 717.598 Q1857.3 717.598 1854.85 718.362 Q1852.42 719.126 1849.64 720.677 L1849.64 715.955 Q1852.47 714.82 1854.92 714.242 Q1857.37 713.663 1859.41 713.663 Q1864.78 713.663 1867.98 716.348 Q1871.17 719.033 1871.17 723.524 Q1871.17 725.654 1870.36 727.575 Q1869.57 729.473 1867.47 732.066 Q1866.89 732.737 1863.79 735.954 Q1860.68 739.149 1855.04 744.913 Z" fill="#000000" fill-rule="nonzero" fill-opacity="1"></path><path clip-path="url(#clip150)" d="M1891.17 717.367 Q1887.56 717.367 1885.73 720.931 Q1883.92 724.473 1883.92 731.603 Q1883.92 738.709 1885.73 742.274 Q1887.56 745.815 1891.17 745.815 Q1894.8 745.815 1896.61 742.274 Q1898.44 738.709 1898.44 731.603 Q1898.44 724.473 1896.61 720.931 Q1894.8 717.367 1891.17 717.367 M1891.17 713.663 Q1896.98 713.663 1900.04 718.269 Q1903.11 722.853 1903.11 731.603 Q1903.11 740.329 1900.04 744.936 Q1896.98 749.519 1891.17 749.519 Q1885.36 749.519 1882.28 744.936 Q1879.23 740.329 1879.23 731.603 Q1879.23 722.853 1882.28 718.269 Q1885.36 713.663 1891.17 713.663 Z" fill="#000000" fill-rule="nonzero" fill-opacity="1"></path><path clip-path="url(#clip150)" d="M1912.14 744.913 L1919.78 744.913 L1919.78 718.547 L1911.47 720.214 L1911.47 715.955 L1919.73 714.288 L1924.41 714.288 L1924.41 744.913 L1932.05 744.913 L1932.05 748.848 L1912.14 748.848 L1912.14 744.913 Z" fill="#000000" fill-rule="nonzero" fill-opacity="1"></path><path clip-path="url(#clip150)" d="M1941.63 748.13 L1941.63 743.871 Q1943.39 744.704 1945.2 745.144 Q1947 745.584 1948.74 745.584 Q1953.37 745.584 1955.8 742.482 Q1958.25 739.357 1958.6 733.015 Q1957.26 735.005 1955.2 736.07 Q1953.14 737.135 1950.64 737.135 Q1945.45 737.135 1942.42 734.01 Q1939.41 730.862 1939.41 725.422 Q1939.41 720.098 1942.56 716.88 Q1945.71 713.663 1950.94 713.663 Q1956.93 713.663 1960.08 718.269 Q1963.25 722.853 1963.25 731.603 Q1963.25 739.774 1959.36 744.658 Q1955.5 749.519 1948.95 749.519 Q1947.19 749.519 1945.38 749.172 Q1943.58 748.825 1941.63 748.13 M1950.94 733.478 Q1954.09 733.478 1955.91 731.325 Q1957.77 729.172 1957.77 725.422 Q1957.77 721.695 1955.91 719.542 Q1954.09 717.367 1950.94 717.367 Q1947.79 717.367 1945.94 719.542 Q1944.11 721.695 1944.11 725.422 Q1944.11 729.172 1945.94 731.325 Q1947.79 733.478 1950.94 733.478 Z" fill="#000000" fill-rule="nonzero" fill-opacity="1"></path><path clip-path="url(#clip150)" d="M1968.9 733.964 L1981.38 733.964 L1981.38 737.76 L1968.9 737.76 L1968.9 733.964 Z" fill="#000000" fill-rule="nonzero" fill-opacity="1"></path><path clip-path="url(#clip150)" d="M1998.76 717.367 Q1995.15 717.367 1993.32 720.931 Q1991.52 724.473 1991.52 731.603 Q1991.52 738.709 1993.32 742.274 Q1995.15 745.815 1998.76 745.815 Q2002.4 745.815 2004.2 742.274 Q2006.03 738.709 2006.03 731.603 Q2006.03 724.473 2004.2 720.931 Q2002.4 717.367 1998.76 717.367 M1998.76 713.663 Q2004.57 713.663 2007.63 718.269 Q2010.71 722.853 2010.71 731.603 Q2010.71 740.329 2007.63 744.936 Q2004.57 749.519 1998.76 749.519 Q1992.95 749.519 1989.87 744.936 Q1986.82 740.329 1986.82 731.603 Q1986.82 722.853 1989.87 718.269 Q1992.95 713.663 1998.76 713.663 Z" fill="#000000" fill-rule="nonzero" fill-opacity="1"></path><path clip-path="url(#clip150)" d="M2028.92 732.436 Q2025.59 732.436 2023.67 734.218 Q2021.77 736.001 2021.77 739.126 Q2021.77 742.251 2023.67 744.033 Q2025.59 745.815 2028.92 745.815 Q2032.26 745.815 2034.18 744.033 Q2036.1 742.228 2036.1 739.126 Q2036.1 736.001 2034.18 734.218 Q2032.28 732.436 2028.92 732.436 M2024.25 730.445 Q2021.24 729.704 2019.55 727.644 Q2017.88 725.584 2017.88 722.621 Q2017.88 718.478 2020.82 716.07 Q2023.78 713.663 2028.92 713.663 Q2034.09 713.663 2037.03 716.07 Q2039.96 718.478 2039.96 722.621 Q2039.96 725.584 2038.28 727.644 Q2036.61 729.704 2033.62 730.445 Q2037 731.232 2038.88 733.524 Q2040.78 735.816 2040.78 739.126 Q2040.78 744.149 2037.7 746.834 Q2034.64 749.519 2028.92 749.519 Q2023.21 749.519 2020.13 746.834 Q2017.07 744.149 2017.07 739.126 Q2017.07 735.816 2018.97 733.524 Q2020.87 731.232 2024.25 730.445 M2022.53 723.061 Q2022.53 725.746 2024.2 727.251 Q2025.89 728.755 2028.92 728.755 Q2031.93 728.755 2033.62 727.251 Q2035.34 725.746 2035.34 723.061 Q2035.34 720.376 2033.62 718.871 Q2031.93 717.367 2028.92 717.367 Q2025.89 717.367 2024.2 718.871 Q2022.53 720.376 2022.53 723.061 Z" fill="#000000" fill-rule="nonzero" fill-opacity="1"></path><path clip-path="url(#clip150)" d="M2046.33 733.964 L2058.81 733.964 L2058.81 737.76 L2046.33 737.76 L2046.33 733.964 Z" fill="#000000" fill-rule="nonzero" fill-opacity="1"></path><path clip-path="url(#clip150)" d="M2076.19 717.367 Q2072.58 717.367 2070.75 720.931 Q2068.95 724.473 2068.95 731.603 Q2068.95 738.709 2070.75 742.274 Q2072.58 745.815 2076.19 745.815 Q2079.83 745.815 2081.63 742.274 Q2083.46 738.709 2083.46 731.603 Q2083.46 724.473 2081.63 720.931 Q2079.83 717.367 2076.19 717.367 M2076.19 713.663 Q2082 713.663 2085.06 718.269 Q2088.14 722.853 2088.14 731.603 Q2088.14 740.329 2085.06 744.936 Q2082 749.519 2076.19 749.519 Q2070.38 749.519 2067.3 744.936 Q2064.25 740.329 2064.25 731.603 Q2064.25 722.853 2067.3 718.269 Q2070.38 713.663 2076.19 713.663 Z" fill="#000000" fill-rule="nonzero" fill-opacity="1"></path><path clip-path="url(#clip150)" d="M2097.16 744.913 L2104.8 744.913 L2104.8 718.547 L2096.49 720.214 L2096.49 715.955 L2104.76 714.288 L2109.43 714.288 L2109.43 744.913 L2117.07 744.913 L2117.07 748.848 L2097.16 748.848 L2097.16 744.913 Z" fill="#000000" fill-rule="nonzero" fill-opacity="1"></path><polyline clip-path="url(#clip152)" style="stroke:#000000; stroke-linecap:round; stroke-linejoin:round; stroke-width:2; stroke-opacity:0.1; fill:none" points="186.274,668.357 2352.76,668.357 "></polyline>
<polyline clip-path="url(#clip152)" style="stroke:#000000; stroke-linecap:round; stroke-linejoin:round; stroke-width:2; stroke-opacity:0.1; fill:none" points="186.274,517.602 2352.76,517.602 "></polyline>
<polyline clip-path="url(#clip152)" style="stroke:#000000; stroke-linecap:round; stroke-linejoin:round; stroke-width:2; stroke-opacity:0.1; fill:none" points="186.274,366.846 2352.76,366.846 "></polyline>
<polyline clip-path="url(#clip152)" style="stroke:#000000; stroke-linecap:round; stroke-linejoin:round; stroke-width:2; stroke-opacity:0.1; fill:none" points="186.274,216.09 2352.76,216.09 "></polyline>
<polyline clip-path="url(#clip152)" style="stroke:#000000; stroke-linecap:round; stroke-linejoin:round; stroke-width:2; stroke-opacity:0.1; fill:none" points="186.274,65.3348 2352.76,65.3348 "></polyline>
<polyline clip-path="url(#clip150)" style="stroke:#000000; stroke-linecap:round; stroke-linejoin:round; stroke-width:4; stroke-opacity:1; fill:none" points="186.274,686.448 186.274,47.2441 "></polyline>
<polyline clip-path="url(#clip150)" style="stroke:#000000; stroke-linecap:round; stroke-linejoin:round; stroke-width:4; stroke-opacity:1; fill:none" points="186.274,668.357 205.172,668.357 "></polyline>
<polyline clip-path="url(#clip150)" style="stroke:#000000; stroke-linecap:round; stroke-linejoin:round; stroke-width:4; stroke-opacity:1; fill:none" points="186.274,517.602 205.172,517.602 "></polyline>
<polyline clip-path="url(#clip150)" style="stroke:#000000; stroke-linecap:round; stroke-linejoin:round; stroke-width:4; stroke-opacity:1; fill:none" points="186.274,366.846 205.172,366.846 "></polyline>
<polyline clip-path="url(#clip150)" style="stroke:#000000; stroke-linecap:round; stroke-linejoin:round; stroke-width:4; stroke-opacity:1; fill:none" points="186.274,216.09 205.172,216.09 "></polyline>
<polyline clip-path="url(#clip150)" style="stroke:#000000; stroke-linecap:round; stroke-linejoin:round; stroke-width:4; stroke-opacity:1; fill:none" points="186.274,65.3348 205.172,65.3348 "></polyline>
<path clip-path="url(#clip150)" d="M62.9365 654.156 Q59.3254 654.156 57.4967 657.721 Q55.6912 661.262 55.6912 668.392 Q55.6912 675.498 57.4967 679.063 Q59.3254 682.605 62.9365 682.605 Q66.5707 682.605 68.3763 679.063 Q70.205 675.498 70.205 668.392 Q70.205 661.262 68.3763 657.721 Q66.5707 654.156 62.9365 654.156 M62.9365 650.452 Q68.7467 650.452 71.8022 655.059 Q74.8809 659.642 74.8809 668.392 Q74.8809 677.119 71.8022 681.725 Q68.7467 686.308 62.9365 686.308 Q57.1264 686.308 54.0477 681.725 Q50.9921 677.119 50.9921 668.392 Q50.9921 659.642 54.0477 655.059 Q57.1264 650.452 62.9365 650.452 Z" fill="#000000" fill-rule="nonzero" fill-opacity="1"></path><path clip-path="url(#clip150)" d="M83.0984 679.758 L87.9827 679.758 L87.9827 685.637 L83.0984 685.637 L83.0984 679.758 Z" fill="#000000" fill-rule="nonzero" fill-opacity="1"></path><path clip-path="url(#clip150)" d="M108.168 654.156 Q104.557 654.156 102.728 657.721 Q100.922 661.262 100.922 668.392 Q100.922 675.498 102.728 679.063 Q104.557 682.605 108.168 682.605 Q111.802 682.605 113.608 679.063 Q115.436 675.498 115.436 668.392 Q115.436 661.262 113.608 657.721 Q111.802 654.156 108.168 654.156 M108.168 650.452 Q113.978 650.452 117.033 655.059 Q120.112 659.642 120.112 668.392 Q120.112 677.119 117.033 681.725 Q113.978 686.308 108.168 686.308 Q102.358 686.308 99.2789 681.725 Q96.2234 677.119 96.2234 668.392 Q96.2234 659.642 99.2789 655.059 Q102.358 650.452 108.168 650.452 Z" fill="#000000" fill-rule="nonzero" fill-opacity="1"></path><path clip-path="url(#clip150)" d="M138.33 654.156 Q134.719 654.156 132.89 657.721 Q131.084 661.262 131.084 668.392 Q131.084 675.498 132.89 679.063 Q134.719 682.605 138.33 682.605 Q141.964 682.605 143.769 679.063 Q145.598 675.498 145.598 668.392 Q145.598 661.262 143.769 657.721 Q141.964 654.156 138.33 654.156 M138.33 650.452 Q144.14 650.452 147.195 655.059 Q150.274 659.642 150.274 668.392 Q150.274 677.119 147.195 681.725 Q144.14 686.308 138.33 686.308 Q132.519 686.308 129.441 681.725 Q126.385 677.119 126.385 668.392 Q126.385 659.642 129.441 655.059 Q132.519 650.452 138.33 650.452 Z" fill="#000000" fill-rule="nonzero" fill-opacity="1"></path><path clip-path="url(#clip150)" d="M63.9319 503.4 Q60.3208 503.4 58.4921 506.965 Q56.6865 510.507 56.6865 517.636 Q56.6865 524.743 58.4921 528.308 Q60.3208 531.849 63.9319 531.849 Q67.5661 531.849 69.3717 528.308 Q71.2004 524.743 71.2004 517.636 Q71.2004 510.507 69.3717 506.965 Q67.5661 503.4 63.9319 503.4 M63.9319 499.697 Q69.742 499.697 72.7976 504.303 Q75.8763 508.886 75.8763 517.636 Q75.8763 526.363 72.7976 530.97 Q69.742 535.553 63.9319 535.553 Q58.1217 535.553 55.043 530.97 Q51.9875 526.363 51.9875 517.636 Q51.9875 508.886 55.043 504.303 Q58.1217 499.697 63.9319 499.697 Z" fill="#000000" fill-rule="nonzero" fill-opacity="1"></path><path clip-path="url(#clip150)" d="M84.0938 529.002 L88.978 529.002 L88.978 534.882 L84.0938 534.882 L84.0938 529.002 Z" fill="#000000" fill-rule="nonzero" fill-opacity="1"></path><path clip-path="url(#clip150)" d="M103.191 530.946 L119.51 530.946 L119.51 534.882 L97.566 534.882 L97.566 530.946 Q100.228 528.192 104.811 523.562 Q109.418 518.909 110.598 517.567 Q112.844 515.044 113.723 513.308 Q114.626 511.548 114.626 509.859 Q114.626 507.104 112.682 505.368 Q110.76 503.632 107.658 503.632 Q105.459 503.632 103.006 504.396 Q100.575 505.16 97.7974 506.71 L97.7974 501.988 Q100.621 500.854 103.075 500.275 Q105.529 499.697 107.566 499.697 Q112.936 499.697 116.131 502.382 Q119.325 505.067 119.325 509.558 Q119.325 511.687 118.515 513.609 Q117.728 515.507 115.621 518.099 Q115.043 518.771 111.941 521.988 Q108.839 525.183 103.191 530.946 Z" fill="#000000" fill-rule="nonzero" fill-opacity="1"></path><path clip-path="url(#clip150)" d="M129.371 500.322 L147.728 500.322 L147.728 504.257 L133.654 504.257 L133.654 512.729 Q134.672 512.382 135.691 512.22 Q136.709 512.034 137.728 512.034 Q143.515 512.034 146.894 515.206 Q150.274 518.377 150.274 523.794 Q150.274 529.372 146.802 532.474 Q143.33 535.553 137.01 535.553 Q134.834 535.553 132.566 535.183 Q130.32 534.812 127.913 534.071 L127.913 529.372 Q129.996 530.507 132.219 531.062 Q134.441 531.618 136.918 531.618 Q140.922 531.618 143.26 529.511 Q145.598 527.405 145.598 523.794 Q145.598 520.183 143.26 518.076 Q140.922 515.97 136.918 515.97 Q135.043 515.97 133.168 516.386 Q131.316 516.803 129.371 517.683 L129.371 500.322 Z" fill="#000000" fill-rule="nonzero" fill-opacity="1"></path><path clip-path="url(#clip150)" d="M62.9365 352.645 Q59.3254 352.645 57.4967 356.209 Q55.6912 359.751 55.6912 366.881 Q55.6912 373.987 57.4967 377.552 Q59.3254 381.094 62.9365 381.094 Q66.5707 381.094 68.3763 377.552 Q70.205 373.987 70.205 366.881 Q70.205 359.751 68.3763 356.209 Q66.5707 352.645 62.9365 352.645 M62.9365 348.941 Q68.7467 348.941 71.8022 353.547 Q74.8809 358.131 74.8809 366.881 Q74.8809 375.608 71.8022 380.214 Q68.7467 384.797 62.9365 384.797 Q57.1264 384.797 54.0477 380.214 Q50.9921 375.608 50.9921 366.881 Q50.9921 358.131 54.0477 353.547 Q57.1264 348.941 62.9365 348.941 Z" fill="#000000" fill-rule="nonzero" fill-opacity="1"></path><path clip-path="url(#clip150)" d="M83.0984 378.246 L87.9827 378.246 L87.9827 384.126 L83.0984 384.126 L83.0984 378.246 Z" fill="#000000" fill-rule="nonzero" fill-opacity="1"></path><path clip-path="url(#clip150)" d="M98.2141 349.566 L116.57 349.566 L116.57 353.501 L102.496 353.501 L102.496 361.973 Q103.515 361.626 104.534 361.464 Q105.552 361.279 106.571 361.279 Q112.358 361.279 115.737 364.45 Q119.117 367.621 119.117 373.038 Q119.117 378.617 115.645 381.719 Q112.172 384.797 105.853 384.797 Q103.677 384.797 101.409 384.427 Q99.1632 384.057 96.7558 383.316 L96.7558 378.617 Q98.8391 379.751 101.061 380.307 Q103.284 380.862 105.76 380.862 Q109.765 380.862 112.103 378.756 Q114.441 376.649 114.441 373.038 Q114.441 369.427 112.103 367.321 Q109.765 365.214 105.76 365.214 Q103.885 365.214 102.01 365.631 Q100.159 366.047 98.2141 366.927 L98.2141 349.566 Z" fill="#000000" fill-rule="nonzero" fill-opacity="1"></path><path clip-path="url(#clip150)" d="M138.33 352.645 Q134.719 352.645 132.89 356.209 Q131.084 359.751 131.084 366.881 Q131.084 373.987 132.89 377.552 Q134.719 381.094 138.33 381.094 Q141.964 381.094 143.769 377.552 Q145.598 373.987 145.598 366.881 Q145.598 359.751 143.769 356.209 Q141.964 352.645 138.33 352.645 M138.33 348.941 Q144.14 348.941 147.195 353.547 Q150.274 358.131 150.274 366.881 Q150.274 375.608 147.195 380.214 Q144.14 384.797 138.33 384.797 Q132.519 384.797 129.441 380.214 Q126.385 375.608 126.385 366.881 Q126.385 358.131 129.441 353.547 Q132.519 348.941 138.33 348.941 Z" fill="#000000" fill-rule="nonzero" fill-opacity="1"></path><path clip-path="url(#clip150)" d="M63.9319 201.889 Q60.3208 201.889 58.4921 205.454 Q56.6865 208.996 56.6865 216.125 Q56.6865 223.232 58.4921 226.796 Q60.3208 230.338 63.9319 230.338 Q67.5661 230.338 69.3717 226.796 Q71.2004 223.232 71.2004 216.125 Q71.2004 208.996 69.3717 205.454 Q67.5661 201.889 63.9319 201.889 M63.9319 198.185 Q69.742 198.185 72.7976 202.792 Q75.8763 207.375 75.8763 216.125 Q75.8763 224.852 72.7976 229.458 Q69.742 234.042 63.9319 234.042 Q58.1217 234.042 55.043 229.458 Q51.9875 224.852 51.9875 216.125 Q51.9875 207.375 55.043 202.792 Q58.1217 198.185 63.9319 198.185 Z" fill="#000000" fill-rule="nonzero" fill-opacity="1"></path><path clip-path="url(#clip150)" d="M84.0938 227.491 L88.978 227.491 L88.978 233.37 L84.0938 233.37 L84.0938 227.491 Z" fill="#000000" fill-rule="nonzero" fill-opacity="1"></path><path clip-path="url(#clip150)" d="M97.9826 198.81 L120.205 198.81 L120.205 200.801 L107.658 233.37 L102.774 233.37 L114.58 202.746 L97.9826 202.746 L97.9826 198.81 Z" fill="#000000" fill-rule="nonzero" fill-opacity="1"></path><path clip-path="url(#clip150)" d="M129.371 198.81 L147.728 198.81 L147.728 202.746 L133.654 202.746 L133.654 211.218 Q134.672 210.87 135.691 210.708 Q136.709 210.523 137.728 210.523 Q143.515 210.523 146.894 213.695 Q150.274 216.866 150.274 222.282 Q150.274 227.861 146.802 230.963 Q143.33 234.042 137.01 234.042 Q134.834 234.042 132.566 233.671 Q130.32 233.301 127.913 232.56 L127.913 227.861 Q129.996 228.995 132.219 229.551 Q134.441 230.107 136.918 230.107 Q140.922 230.107 143.26 228 Q145.598 225.894 145.598 222.282 Q145.598 218.671 143.26 216.565 Q140.922 214.458 136.918 214.458 Q135.043 214.458 133.168 214.875 Q131.316 215.292 129.371 216.171 L129.371 198.81 Z" fill="#000000" fill-rule="nonzero" fill-opacity="1"></path><path clip-path="url(#clip150)" d="M53.7467 78.6796 L61.3856 78.6796 L61.3856 52.314 L53.0754 53.9807 L53.0754 49.7214 L61.3393 48.0548 L66.0152 48.0548 L66.0152 78.6796 L73.654 78.6796 L73.654 82.6148 L53.7467 82.6148 L53.7467 78.6796 Z" fill="#000000" fill-rule="nonzero" fill-opacity="1"></path><path clip-path="url(#clip150)" d="M83.0984 76.7352 L87.9827 76.7352 L87.9827 82.6148 L83.0984 82.6148 L83.0984 76.7352 Z" fill="#000000" fill-rule="nonzero" fill-opacity="1"></path><path clip-path="url(#clip150)" d="M108.168 51.1335 Q104.557 51.1335 102.728 54.6983 Q100.922 58.2399 100.922 65.3695 Q100.922 72.4759 102.728 76.0407 Q104.557 79.5824 108.168 79.5824 Q111.802 79.5824 113.608 76.0407 Q115.436 72.4759 115.436 65.3695 Q115.436 58.2399 113.608 54.6983 Q111.802 51.1335 108.168 51.1335 M108.168 47.4298 Q113.978 47.4298 117.033 52.0362 Q120.112 56.6195 120.112 65.3695 Q120.112 74.0963 117.033 78.7028 Q113.978 83.2861 108.168 83.2861 Q102.358 83.2861 99.2789 78.7028 Q96.2234 74.0963 96.2234 65.3695 Q96.2234 56.6195 99.2789 52.0362 Q102.358 47.4298 108.168 47.4298 Z" fill="#000000" fill-rule="nonzero" fill-opacity="1"></path><path clip-path="url(#clip150)" d="M138.33 51.1335 Q134.719 51.1335 132.89 54.6983 Q131.084 58.2399 131.084 65.3695 Q131.084 72.4759 132.89 76.0407 Q134.719 79.5824 138.33 79.5824 Q141.964 79.5824 143.769 76.0407 Q145.598 72.4759 145.598 65.3695 Q145.598 58.2399 143.769 54.6983 Q141.964 51.1335 138.33 51.1335 M138.33 47.4298 Q144.14 47.4298 147.195 52.0362 Q150.274 56.6195 150.274 65.3695 Q150.274 74.0963 147.195 78.7028 Q144.14 83.2861 138.33 83.2861 Q132.519 83.2861 129.441 78.7028 Q126.385 74.0963 126.385 65.3695 Q126.385 56.6195 129.441 52.0362 Q132.519 47.4298 138.33 47.4298 Z" fill="#000000" fill-rule="nonzero" fill-opacity="1"></path><polyline clip-path="url(#clip152)" style="stroke:#ffa500; stroke-linecap:round; stroke-linejoin:round; stroke-width:8; stroke-opacity:1; fill:none" points="247.59,65.3348 270.299,65.3348 293.008,668.357 315.718,65.3348 338.427,65.3348 361.137,668.357 383.846,65.3348 406.556,65.3348 429.265,65.3348 451.975,65.3348 474.684,65.3348 497.394,65.3348 520.103,65.3348 542.812,65.3348 565.522,65.3348 588.231,65.3348 610.941,65.3348 633.65,65.3348 656.36,65.3348 679.069,65.3348 701.779,65.3348 724.488,65.3348 747.198,65.3348 769.907,65.3348 792.616,65.3348 815.326,65.3348 838.035,65.3348 860.745,65.3348 883.454,65.3348 906.164,65.3348 928.873,65.3348 951.583,65.3348 974.292,65.3348 997.002,65.3348 1019.71,668.357 1042.42,65.3348 1065.13,668.357 1087.84,65.3348 1110.55,65.3348 1133.26,65.3348 1155.97,668.357 1178.68,65.3348 1201.39,65.3348 1224.1,65.3348 1246.81,668.357 1269.51,65.3348 1292.22,65.3348 1314.93,65.3348 1337.64,65.3348 1360.35,65.3348 1383.06,65.3348 1405.77,65.3348 1428.48,65.3348 1451.19,65.3348 1473.9,65.3348 1496.61,65.3348 1519.32,65.3348 1542.03,65.3348 1564.74,65.3348 1587.45,65.3348 1610.16,65.3348 1632.87,65.3348 1655.58,65.3348 1678.29,65.3348 1700.99,65.3348 1723.7,65.3348 1746.41,65.3348 1769.12,668.357 1791.83,65.3348 1814.54,65.3348 1837.25,65.3348 1859.96,65.3348 1882.67,65.3348 1905.38,65.3348 1928.09,65.3348 1950.8,65.3348 1973.51,65.3348 1996.22,65.3348 2018.93,65.3348 2041.64,668.357 2064.35,65.3348 2087.06,65.3348 2109.76,65.3348 2132.47,65.3348 2155.18,65.3348 2177.89,65.3348 2200.6,65.3348 2223.31,65.3348 2246.02,65.3348 2268.73,65.3348 2291.44,65.3348 "></polyline>
<path clip-path="url(#clip150)" d="M1985.17 665.141 L2280.54 665.141 L2280.54 561.461 L1985.17 561.461  Z" fill="#ffffff" fill-rule="evenodd" fill-opacity="1"></path>
<polyline clip-path="url(#clip150)" style="stroke:#000000; stroke-linecap:round; stroke-linejoin:round; stroke-width:4; stroke-opacity:1; fill:none" points="1985.17,665.141 2280.54,665.141 2280.54,561.461 1985.17,561.461 1985.17,665.141 "></polyline>
<polyline clip-path="url(#clip150)" style="stroke:#ffa500; stroke-linecap:round; stroke-linejoin:round; stroke-width:8; stroke-opacity:1; fill:none" points="2009.24,613.301 2153.67,613.301 "></polyline>
<path clip-path="url(#clip150)" d="M2196.17 605.419 L2196.17 609.447 Q2194.36 608.521 2192.42 608.058 Q2190.47 607.595 2188.39 607.595 Q2185.22 607.595 2183.62 608.567 Q2182.05 609.54 2182.05 611.484 Q2182.05 612.965 2183.18 613.822 Q2184.32 614.655 2187.74 615.419 L2189.2 615.743 Q2193.74 616.715 2195.63 618.498 Q2197.56 620.257 2197.56 623.428 Q2197.56 627.039 2194.69 629.146 Q2191.84 631.252 2186.84 631.252 Q2184.76 631.252 2182.49 630.836 Q2180.24 630.442 2177.74 629.632 L2177.74 625.234 Q2180.1 626.461 2182.39 627.086 Q2184.69 627.688 2186.93 627.688 Q2189.94 627.688 2191.56 626.669 Q2193.18 625.627 2193.18 623.752 Q2193.18 622.016 2192 621.09 Q2190.84 620.164 2186.88 619.308 L2185.4 618.961 Q2181.45 618.127 2179.69 616.414 Q2177.93 614.678 2177.93 611.669 Q2177.93 608.012 2180.52 606.021 Q2183.11 604.03 2187.88 604.03 Q2190.24 604.03 2192.32 604.378 Q2194.41 604.725 2196.17 605.419 Z" fill="#000000" fill-rule="nonzero" fill-opacity="1"></path><path clip-path="url(#clip150)" d="M2208.46 626.692 L2208.46 640.442 L2204.18 640.442 L2204.18 604.655 L2208.46 604.655 L2208.46 608.59 Q2209.8 606.276 2211.84 605.165 Q2213.9 604.03 2216.75 604.03 Q2221.47 604.03 2224.41 607.78 Q2227.37 611.53 2227.37 617.641 Q2227.37 623.752 2224.41 627.502 Q2221.47 631.252 2216.75 631.252 Q2213.9 631.252 2211.84 630.141 Q2209.8 629.007 2208.46 626.692 M2222.95 617.641 Q2222.95 612.942 2221.01 610.28 Q2219.08 607.595 2215.7 607.595 Q2212.32 607.595 2210.38 610.28 Q2208.46 612.942 2208.46 617.641 Q2208.46 622.34 2210.38 625.026 Q2212.32 627.688 2215.7 627.688 Q2219.08 627.688 2221.01 625.026 Q2222.95 622.34 2222.95 617.641 Z" fill="#000000" fill-rule="nonzero" fill-opacity="1"></path><path clip-path="url(#clip150)" d="M2255.98 604.655 L2246.61 617.271 L2256.47 630.581 L2251.44 630.581 L2243.9 620.396 L2236.35 630.581 L2231.33 630.581 L2241.4 617.016 L2232.19 604.655 L2237.21 604.655 L2244.08 613.891 L2250.96 604.655 L2255.98 604.655 Z" fill="#000000" fill-rule="nonzero" fill-opacity="1"></path><path clip-path="url(#clip150)" d="M186.274 1486.45 L2352.76 1486.45 L2352.76 847.244 L186.274 847.244  Z" fill="#ffffff" fill-rule="evenodd" fill-opacity="1"></path>
<defs>
  <clipPath id="clip153">
    <rect x="186" y="847" width="2167" height="640"></rect>
  </clipPath>
</defs>
<polyline clip-path="url(#clip153)" style="stroke:#000000; stroke-linecap:round; stroke-linejoin:round; stroke-width:2; stroke-opacity:0.1; fill:none" points="211.903,1486.45 211.903,847.244 "></polyline>
<polyline clip-path="url(#clip153)" style="stroke:#000000; stroke-linecap:round; stroke-linejoin:round; stroke-width:2; stroke-opacity:0.1; fill:none" points="799.105,1486.45 799.105,847.244 "></polyline>
<polyline clip-path="url(#clip153)" style="stroke:#000000; stroke-linecap:round; stroke-linejoin:round; stroke-width:2; stroke-opacity:0.1; fill:none" points="1396.04,1486.45 1396.04,847.244 "></polyline>
<polyline clip-path="url(#clip153)" style="stroke:#000000; stroke-linecap:round; stroke-linejoin:round; stroke-width:2; stroke-opacity:0.1; fill:none" points="1983.24,1486.45 1983.24,847.244 "></polyline>
<polyline clip-path="url(#clip150)" style="stroke:#000000; stroke-linecap:round; stroke-linejoin:round; stroke-width:4; stroke-opacity:1; fill:none" points="186.274,1486.45 2352.76,1486.45 "></polyline>
<polyline clip-path="url(#clip150)" style="stroke:#000000; stroke-linecap:round; stroke-linejoin:round; stroke-width:4; stroke-opacity:1; fill:none" points="211.903,1486.45 211.903,1467.55 "></polyline>
<polyline clip-path="url(#clip150)" style="stroke:#000000; stroke-linecap:round; stroke-linejoin:round; stroke-width:4; stroke-opacity:1; fill:none" points="799.105,1486.45 799.105,1467.55 "></polyline>
<polyline clip-path="url(#clip150)" style="stroke:#000000; stroke-linecap:round; stroke-linejoin:round; stroke-width:4; stroke-opacity:1; fill:none" points="1396.04,1486.45 1396.04,1467.55 "></polyline>
<polyline clip-path="url(#clip150)" style="stroke:#000000; stroke-linecap:round; stroke-linejoin:round; stroke-width:4; stroke-opacity:1; fill:none" points="1983.24,1486.45 1983.24,1467.55 "></polyline>
<path clip-path="url(#clip150)" d="M83.6979 1544.91 L100.017 1544.91 L100.017 1548.85 L78.0729 1548.85 L78.0729 1544.91 Q80.735 1542.16 85.3183 1537.53 Q89.9247 1532.88 91.1053 1531.53 Q93.3506 1529.01 94.2303 1527.27 Q95.133 1525.51 95.133 1523.82 Q95.133 1521.07 93.1886 1519.33 Q91.2673 1517.6 88.1655 1517.6 Q85.9664 1517.6 83.5127 1518.36 Q81.0822 1519.13 78.3044 1520.68 L78.3044 1515.95 Q81.1285 1514.82 83.5822 1514.24 Q86.0359 1513.66 88.0729 1513.66 Q93.4432 1513.66 96.6377 1516.35 Q99.8321 1519.03 99.8321 1523.52 Q99.8321 1525.65 99.0219 1527.57 Q98.2349 1529.47 96.1284 1532.07 Q95.5497 1532.74 92.4479 1535.95 Q89.346 1539.15 83.6979 1544.91 Z" fill="#000000" fill-rule="nonzero" fill-opacity="1"></path><path clip-path="url(#clip150)" d="M119.832 1517.37 Q116.221 1517.37 114.392 1520.93 Q112.587 1524.47 112.587 1531.6 Q112.587 1538.71 114.392 1542.27 Q116.221 1545.82 119.832 1545.82 Q123.466 1545.82 125.272 1542.27 Q127.1 1538.71 127.1 1531.6 Q127.1 1524.47 125.272 1520.93 Q123.466 1517.37 119.832 1517.37 M119.832 1513.66 Q125.642 1513.66 128.698 1518.27 Q131.776 1522.85 131.776 1531.6 Q131.776 1540.33 128.698 1544.94 Q125.642 1549.52 119.832 1549.52 Q114.022 1549.52 110.943 1544.94 Q107.888 1540.33 107.888 1531.6 Q107.888 1522.85 110.943 1518.27 Q114.022 1513.66 119.832 1513.66 Z" fill="#000000" fill-rule="nonzero" fill-opacity="1"></path><path clip-path="url(#clip150)" d="M140.804 1544.91 L148.443 1544.91 L148.443 1518.55 L140.133 1520.21 L140.133 1515.95 L148.397 1514.29 L153.073 1514.29 L153.073 1544.91 L160.711 1544.91 L160.711 1548.85 L140.804 1548.85 L140.804 1544.91 Z" fill="#000000" fill-rule="nonzero" fill-opacity="1"></path><path clip-path="url(#clip150)" d="M180.156 1532.44 Q176.822 1532.44 174.901 1534.22 Q173.003 1536 173.003 1539.13 Q173.003 1542.25 174.901 1544.03 Q176.822 1545.82 180.156 1545.82 Q183.489 1545.82 185.41 1544.03 Q187.332 1542.23 187.332 1539.13 Q187.332 1536 185.41 1534.22 Q183.512 1532.44 180.156 1532.44 M175.48 1530.45 Q172.471 1529.7 170.781 1527.64 Q169.114 1525.58 169.114 1522.62 Q169.114 1518.48 172.054 1516.07 Q175.017 1513.66 180.156 1513.66 Q185.318 1513.66 188.258 1516.07 Q191.197 1518.48 191.197 1522.62 Q191.197 1525.58 189.508 1527.64 Q187.841 1529.7 184.855 1530.45 Q188.234 1531.23 190.109 1533.52 Q192.008 1535.82 192.008 1539.13 Q192.008 1544.15 188.929 1546.83 Q185.873 1549.52 180.156 1549.52 Q174.438 1549.52 171.359 1546.83 Q168.304 1544.15 168.304 1539.13 Q168.304 1535.82 170.202 1533.52 Q172.1 1531.23 175.48 1530.45 M173.767 1523.06 Q173.767 1525.75 175.434 1527.25 Q177.123 1528.76 180.156 1528.76 Q183.165 1528.76 184.855 1527.25 Q186.568 1525.75 186.568 1523.06 Q186.568 1520.38 184.855 1518.87 Q183.165 1517.37 180.156 1517.37 Q177.123 1517.37 175.434 1518.87 Q173.767 1520.38 173.767 1523.06 Z" fill="#000000" fill-rule="nonzero" fill-opacity="1"></path><path clip-path="url(#clip150)" d="M197.563 1533.96 L210.04 1533.96 L210.04 1537.76 L197.563 1537.76 L197.563 1533.96 Z" fill="#000000" fill-rule="nonzero" fill-opacity="1"></path><path clip-path="url(#clip150)" d="M227.424 1517.37 Q223.813 1517.37 221.984 1520.93 Q220.179 1524.47 220.179 1531.6 Q220.179 1538.71 221.984 1542.27 Q223.813 1545.82 227.424 1545.82 Q231.058 1545.82 232.864 1542.27 Q234.692 1538.71 234.692 1531.6 Q234.692 1524.47 232.864 1520.93 Q231.058 1517.37 227.424 1517.37 M227.424 1513.66 Q233.234 1513.66 236.29 1518.27 Q239.368 1522.85 239.368 1531.6 Q239.368 1540.33 236.29 1544.94 Q233.234 1549.52 227.424 1549.52 Q221.614 1549.52 218.535 1544.94 Q215.48 1540.33 215.48 1531.6 Q215.48 1522.85 218.535 1518.27 Q221.614 1513.66 227.424 1513.66 Z" fill="#000000" fill-rule="nonzero" fill-opacity="1"></path><path clip-path="url(#clip150)" d="M251.614 1544.91 L267.933 1544.91 L267.933 1548.85 L245.989 1548.85 L245.989 1544.91 Q248.651 1542.16 253.234 1537.53 Q257.84 1532.88 259.021 1531.53 Q261.266 1529.01 262.146 1527.27 Q263.049 1525.51 263.049 1523.82 Q263.049 1521.07 261.104 1519.33 Q259.183 1517.6 256.081 1517.6 Q253.882 1517.6 251.428 1518.36 Q248.998 1519.13 246.22 1520.68 L246.22 1515.95 Q249.044 1514.82 251.498 1514.24 Q253.952 1513.66 255.989 1513.66 Q261.359 1513.66 264.553 1516.35 Q267.748 1519.03 267.748 1523.52 Q267.748 1525.65 266.938 1527.57 Q266.151 1529.47 264.044 1532.07 Q263.465 1532.74 260.364 1535.95 Q257.262 1539.15 251.614 1544.91 Z" fill="#000000" fill-rule="nonzero" fill-opacity="1"></path><path clip-path="url(#clip150)" d="M274.993 1533.96 L287.47 1533.96 L287.47 1537.76 L274.993 1537.76 L274.993 1533.96 Z" fill="#000000" fill-rule="nonzero" fill-opacity="1"></path><path clip-path="url(#clip150)" d="M304.854 1517.37 Q301.243 1517.37 299.414 1520.93 Q297.609 1524.47 297.609 1531.6 Q297.609 1538.71 299.414 1542.27 Q301.243 1545.82 304.854 1545.82 Q308.488 1545.82 310.294 1542.27 Q312.123 1538.71 312.123 1531.6 Q312.123 1524.47 310.294 1520.93 Q308.488 1517.37 304.854 1517.37 M304.854 1513.66 Q310.664 1513.66 313.72 1518.27 Q316.799 1522.85 316.799 1531.6 Q316.799 1540.33 313.72 1544.94 Q310.664 1549.52 304.854 1549.52 Q299.044 1549.52 295.965 1544.94 Q292.91 1540.33 292.91 1531.6 Q292.91 1522.85 295.965 1518.27 Q299.044 1513.66 304.854 1513.66 Z" fill="#000000" fill-rule="nonzero" fill-opacity="1"></path><path clip-path="url(#clip150)" d="M325.826 1544.91 L333.465 1544.91 L333.465 1518.55 L325.155 1520.21 L325.155 1515.95 L333.419 1514.29 L338.095 1514.29 L338.095 1544.91 L345.734 1544.91 L345.734 1548.85 L325.826 1548.85 L325.826 1544.91 Z" fill="#000000" fill-rule="nonzero" fill-opacity="1"></path><path clip-path="url(#clip150)" d="M670.9 1544.91 L687.219 1544.91 L687.219 1548.85 L665.275 1548.85 L665.275 1544.91 Q667.937 1542.16 672.52 1537.53 Q677.126 1532.88 678.307 1531.53 Q680.552 1529.01 681.432 1527.27 Q682.335 1525.51 682.335 1523.82 Q682.335 1521.07 680.39 1519.33 Q678.469 1517.6 675.367 1517.6 Q673.168 1517.6 670.714 1518.36 Q668.284 1519.13 665.506 1520.68 L665.506 1515.95 Q668.33 1514.82 670.784 1514.24 Q673.237 1513.66 675.274 1513.66 Q680.645 1513.66 683.839 1516.35 Q687.034 1519.03 687.034 1523.52 Q687.034 1525.65 686.223 1527.57 Q685.436 1529.47 683.33 1532.07 Q682.751 1532.74 679.649 1535.95 Q676.548 1539.15 670.9 1544.91 Z" fill="#000000" fill-rule="nonzero" fill-opacity="1"></path><path clip-path="url(#clip150)" d="M707.034 1517.37 Q703.422 1517.37 701.594 1520.93 Q699.788 1524.47 699.788 1531.6 Q699.788 1538.71 701.594 1542.27 Q703.422 1545.82 707.034 1545.82 Q710.668 1545.82 712.473 1542.27 Q714.302 1538.71 714.302 1531.6 Q714.302 1524.47 712.473 1520.93 Q710.668 1517.37 707.034 1517.37 M707.034 1513.66 Q712.844 1513.66 715.899 1518.27 Q718.978 1522.85 718.978 1531.6 Q718.978 1540.33 715.899 1544.94 Q712.844 1549.52 707.034 1549.52 Q701.223 1549.52 698.145 1544.94 Q695.089 1540.33 695.089 1531.6 Q695.089 1522.85 698.145 1518.27 Q701.223 1513.66 707.034 1513.66 Z" fill="#000000" fill-rule="nonzero" fill-opacity="1"></path><path clip-path="url(#clip150)" d="M728.006 1544.91 L735.645 1544.91 L735.645 1518.55 L727.334 1520.21 L727.334 1515.95 L735.598 1514.29 L740.274 1514.29 L740.274 1544.91 L747.913 1544.91 L747.913 1548.85 L728.006 1548.85 L728.006 1544.91 Z" fill="#000000" fill-rule="nonzero" fill-opacity="1"></path><path clip-path="url(#clip150)" d="M767.357 1532.44 Q764.024 1532.44 762.103 1534.22 Q760.205 1536 760.205 1539.13 Q760.205 1542.25 762.103 1544.03 Q764.024 1545.82 767.357 1545.82 Q770.691 1545.82 772.612 1544.03 Q774.533 1542.23 774.533 1539.13 Q774.533 1536 772.612 1534.22 Q770.714 1532.44 767.357 1532.44 M762.681 1530.45 Q759.672 1529.7 757.982 1527.64 Q756.316 1525.58 756.316 1522.62 Q756.316 1518.48 759.256 1516.07 Q762.218 1513.66 767.357 1513.66 Q772.519 1513.66 775.459 1516.07 Q778.399 1518.48 778.399 1522.62 Q778.399 1525.58 776.709 1527.64 Q775.042 1529.7 772.056 1530.45 Q775.436 1531.23 777.311 1533.52 Q779.209 1535.82 779.209 1539.13 Q779.209 1544.15 776.13 1546.83 Q773.075 1549.52 767.357 1549.52 Q761.64 1549.52 758.561 1546.83 Q755.506 1544.15 755.506 1539.13 Q755.506 1535.82 757.404 1533.52 Q759.302 1531.23 762.681 1530.45 M760.968 1523.06 Q760.968 1525.75 762.635 1527.25 Q764.325 1528.76 767.357 1528.76 Q770.367 1528.76 772.056 1527.25 Q773.769 1525.75 773.769 1523.06 Q773.769 1520.38 772.056 1518.87 Q770.367 1517.37 767.357 1517.37 Q764.325 1517.37 762.635 1518.87 Q760.968 1520.38 760.968 1523.06 Z" fill="#000000" fill-rule="nonzero" fill-opacity="1"></path><path clip-path="url(#clip150)" d="M784.765 1533.96 L797.241 1533.96 L797.241 1537.76 L784.765 1537.76 L784.765 1533.96 Z" fill="#000000" fill-rule="nonzero" fill-opacity="1"></path><path clip-path="url(#clip150)" d="M814.626 1517.37 Q811.014 1517.37 809.186 1520.93 Q807.38 1524.47 807.38 1531.6 Q807.38 1538.71 809.186 1542.27 Q811.014 1545.82 814.626 1545.82 Q818.26 1545.82 820.065 1542.27 Q821.894 1538.71 821.894 1531.6 Q821.894 1524.47 820.065 1520.93 Q818.26 1517.37 814.626 1517.37 M814.626 1513.66 Q820.436 1513.66 823.491 1518.27 Q826.57 1522.85 826.57 1531.6 Q826.57 1540.33 823.491 1544.94 Q820.436 1549.52 814.626 1549.52 Q808.815 1549.52 805.737 1544.94 Q802.681 1540.33 802.681 1531.6 Q802.681 1522.85 805.737 1518.27 Q808.815 1513.66 814.626 1513.66 Z" fill="#000000" fill-rule="nonzero" fill-opacity="1"></path><path clip-path="url(#clip150)" d="M844.787 1532.44 Q841.454 1532.44 839.533 1534.22 Q837.635 1536 837.635 1539.13 Q837.635 1542.25 839.533 1544.03 Q841.454 1545.82 844.787 1545.82 Q848.121 1545.82 850.042 1544.03 Q851.963 1542.23 851.963 1539.13 Q851.963 1536 850.042 1534.22 Q848.144 1532.44 844.787 1532.44 M840.112 1530.45 Q837.102 1529.7 835.413 1527.64 Q833.746 1525.58 833.746 1522.62 Q833.746 1518.48 836.686 1516.07 Q839.649 1513.66 844.787 1513.66 Q849.949 1513.66 852.889 1516.07 Q855.829 1518.48 855.829 1522.62 Q855.829 1525.58 854.139 1527.64 Q852.473 1529.7 849.487 1530.45 Q852.866 1531.23 854.741 1533.52 Q856.639 1535.82 856.639 1539.13 Q856.639 1544.15 853.561 1546.83 Q850.505 1549.52 844.787 1549.52 Q839.07 1549.52 835.991 1546.83 Q832.936 1544.15 832.936 1539.13 Q832.936 1535.82 834.834 1533.52 Q836.732 1531.23 840.112 1530.45 M838.399 1523.06 Q838.399 1525.75 840.065 1527.25 Q841.755 1528.76 844.787 1528.76 Q847.797 1528.76 849.487 1527.25 Q851.199 1525.75 851.199 1523.06 Q851.199 1520.38 849.487 1518.87 Q847.797 1517.37 844.787 1517.37 Q841.755 1517.37 840.065 1518.87 Q838.399 1520.38 838.399 1523.06 Z" fill="#000000" fill-rule="nonzero" fill-opacity="1"></path><path clip-path="url(#clip150)" d="M862.195 1533.96 L874.672 1533.96 L874.672 1537.76 L862.195 1537.76 L862.195 1533.96 Z" fill="#000000" fill-rule="nonzero" fill-opacity="1"></path><path clip-path="url(#clip150)" d="M892.056 1517.37 Q888.445 1517.37 886.616 1520.93 Q884.81 1524.47 884.81 1531.6 Q884.81 1538.71 886.616 1542.27 Q888.445 1545.82 892.056 1545.82 Q895.69 1545.82 897.496 1542.27 Q899.324 1538.71 899.324 1531.6 Q899.324 1524.47 897.496 1520.93 Q895.69 1517.37 892.056 1517.37 M892.056 1513.66 Q897.866 1513.66 900.921 1518.27 Q904 1522.85 904 1531.6 Q904 1540.33 900.921 1544.94 Q897.866 1549.52 892.056 1549.52 Q886.246 1549.52 883.167 1544.94 Q880.111 1540.33 880.111 1531.6 Q880.111 1522.85 883.167 1518.27 Q886.246 1513.66 892.056 1513.66 Z" fill="#000000" fill-rule="nonzero" fill-opacity="1"></path><path clip-path="url(#clip150)" d="M913.028 1544.91 L920.667 1544.91 L920.667 1518.55 L912.357 1520.21 L912.357 1515.95 L920.62 1514.29 L925.296 1514.29 L925.296 1544.91 L932.935 1544.91 L932.935 1548.85 L913.028 1548.85 L913.028 1544.91 Z" fill="#000000" fill-rule="nonzero" fill-opacity="1"></path><path clip-path="url(#clip150)" d="M1267.83 1544.91 L1284.15 1544.91 L1284.15 1548.85 L1262.21 1548.85 L1262.21 1544.91 Q1264.87 1542.16 1269.45 1537.53 Q1274.06 1532.88 1275.24 1531.53 Q1277.49 1529.01 1278.37 1527.27 Q1279.27 1525.51 1279.27 1523.82 Q1279.27 1521.07 1277.32 1519.33 Q1275.4 1517.6 1272.3 1517.6 Q1270.1 1517.6 1267.65 1518.36 Q1265.22 1519.13 1262.44 1520.68 L1262.44 1515.95 Q1265.26 1514.82 1267.72 1514.24 Q1270.17 1513.66 1272.21 1513.66 Q1277.58 1513.66 1280.77 1516.35 Q1283.97 1519.03 1283.97 1523.52 Q1283.97 1525.65 1283.16 1527.57 Q1282.37 1529.47 1280.26 1532.07 Q1279.69 1532.74 1276.58 1535.95 Q1273.48 1539.15 1267.83 1544.91 Z" fill="#000000" fill-rule="nonzero" fill-opacity="1"></path><path clip-path="url(#clip150)" d="M1303.97 1517.37 Q1300.36 1517.37 1298.53 1520.93 Q1296.72 1524.47 1296.72 1531.6 Q1296.72 1538.71 1298.53 1542.27 Q1300.36 1545.82 1303.97 1545.82 Q1307.6 1545.82 1309.41 1542.27 Q1311.24 1538.71 1311.24 1531.6 Q1311.24 1524.47 1309.41 1520.93 Q1307.6 1517.37 1303.97 1517.37 M1303.97 1513.66 Q1309.78 1513.66 1312.83 1518.27 Q1315.91 1522.85 1315.91 1531.6 Q1315.91 1540.33 1312.83 1544.94 Q1309.78 1549.52 1303.97 1549.52 Q1298.16 1549.52 1295.08 1544.94 Q1292.02 1540.33 1292.02 1531.6 Q1292.02 1522.85 1295.08 1518.27 Q1298.16 1513.66 1303.97 1513.66 Z" fill="#000000" fill-rule="nonzero" fill-opacity="1"></path><path clip-path="url(#clip150)" d="M1324.94 1544.91 L1332.58 1544.91 L1332.58 1518.55 L1324.27 1520.21 L1324.27 1515.95 L1332.53 1514.29 L1337.21 1514.29 L1337.21 1544.91 L1344.85 1544.91 L1344.85 1548.85 L1324.94 1548.85 L1324.94 1544.91 Z" fill="#000000" fill-rule="nonzero" fill-opacity="1"></path><path clip-path="url(#clip150)" d="M1354.43 1548.13 L1354.43 1543.87 Q1356.19 1544.7 1358 1545.14 Q1359.8 1545.58 1361.54 1545.58 Q1366.17 1545.58 1368.6 1542.48 Q1371.05 1539.36 1371.4 1533.01 Q1370.06 1535.01 1368 1536.07 Q1365.94 1537.13 1363.44 1537.13 Q1358.25 1537.13 1355.22 1534.01 Q1352.21 1530.86 1352.21 1525.42 Q1352.21 1520.1 1355.36 1516.88 Q1358.5 1513.66 1363.74 1513.66 Q1369.73 1513.66 1372.88 1518.27 Q1376.05 1522.85 1376.05 1531.6 Q1376.05 1539.77 1372.16 1544.66 Q1368.3 1549.52 1361.75 1549.52 Q1359.99 1549.52 1358.18 1549.17 Q1356.37 1548.82 1354.43 1548.13 M1363.74 1533.48 Q1366.88 1533.48 1368.71 1531.32 Q1370.56 1529.17 1370.56 1525.42 Q1370.56 1521.7 1368.71 1519.54 Q1366.88 1517.37 1363.74 1517.37 Q1360.59 1517.37 1358.74 1519.54 Q1356.91 1521.7 1356.91 1525.42 Q1356.91 1529.17 1358.74 1531.32 Q1360.59 1533.48 1363.74 1533.48 Z" fill="#000000" fill-rule="nonzero" fill-opacity="1"></path><path clip-path="url(#clip150)" d="M1381.7 1533.96 L1394.18 1533.96 L1394.18 1537.76 L1381.7 1537.76 L1381.7 1533.96 Z" fill="#000000" fill-rule="nonzero" fill-opacity="1"></path><path clip-path="url(#clip150)" d="M1411.56 1517.37 Q1407.95 1517.37 1406.12 1520.93 Q1404.31 1524.47 1404.31 1531.6 Q1404.31 1538.71 1406.12 1542.27 Q1407.95 1545.82 1411.56 1545.82 Q1415.19 1545.82 1417 1542.27 Q1418.83 1538.71 1418.83 1531.6 Q1418.83 1524.47 1417 1520.93 Q1415.19 1517.37 1411.56 1517.37 M1411.56 1513.66 Q1417.37 1513.66 1420.43 1518.27 Q1423.5 1522.85 1423.5 1531.6 Q1423.5 1540.33 1420.43 1544.94 Q1417.37 1549.52 1411.56 1549.52 Q1405.75 1549.52 1402.67 1544.94 Q1399.62 1540.33 1399.62 1531.6 Q1399.62 1522.85 1402.67 1518.27 Q1405.75 1513.66 1411.56 1513.66 Z" fill="#000000" fill-rule="nonzero" fill-opacity="1"></path><path clip-path="url(#clip150)" d="M1435.75 1544.91 L1452.07 1544.91 L1452.07 1548.85 L1430.12 1548.85 L1430.12 1544.91 Q1432.79 1542.16 1437.37 1537.53 Q1441.98 1532.88 1443.16 1531.53 Q1445.4 1529.01 1446.28 1527.27 Q1447.18 1525.51 1447.18 1523.82 Q1447.18 1521.07 1445.24 1519.33 Q1443.32 1517.6 1440.22 1517.6 Q1438.02 1517.6 1435.56 1518.36 Q1433.13 1519.13 1430.36 1520.68 L1430.36 1515.95 Q1433.18 1514.82 1435.63 1514.24 Q1438.09 1513.66 1440.12 1513.66 Q1445.49 1513.66 1448.69 1516.35 Q1451.88 1519.03 1451.88 1523.52 Q1451.88 1525.65 1451.07 1527.57 Q1450.29 1529.47 1448.18 1532.07 Q1447.6 1532.74 1444.5 1535.95 Q1441.4 1539.15 1435.75 1544.91 Z" fill="#000000" fill-rule="nonzero" fill-opacity="1"></path><path clip-path="url(#clip150)" d="M1459.13 1533.96 L1471.61 1533.96 L1471.61 1537.76 L1459.13 1537.76 L1459.13 1533.96 Z" fill="#000000" fill-rule="nonzero" fill-opacity="1"></path><path clip-path="url(#clip150)" d="M1488.99 1517.37 Q1485.38 1517.37 1483.55 1520.93 Q1481.74 1524.47 1481.74 1531.6 Q1481.74 1538.71 1483.55 1542.27 Q1485.38 1545.82 1488.99 1545.82 Q1492.62 1545.82 1494.43 1542.27 Q1496.26 1538.71 1496.26 1531.6 Q1496.26 1524.47 1494.43 1520.93 Q1492.62 1517.37 1488.99 1517.37 M1488.99 1513.66 Q1494.8 1513.66 1497.86 1518.27 Q1500.93 1522.85 1500.93 1531.6 Q1500.93 1540.33 1497.86 1544.94 Q1494.8 1549.52 1488.99 1549.52 Q1483.18 1549.52 1480.1 1544.94 Q1477.05 1540.33 1477.05 1531.6 Q1477.05 1522.85 1480.1 1518.27 Q1483.18 1513.66 1488.99 1513.66 Z" fill="#000000" fill-rule="nonzero" fill-opacity="1"></path><path clip-path="url(#clip150)" d="M1509.96 1544.91 L1517.6 1544.91 L1517.6 1518.55 L1509.29 1520.21 L1509.29 1515.95 L1517.55 1514.29 L1522.23 1514.29 L1522.23 1544.91 L1529.87 1544.91 L1529.87 1548.85 L1509.96 1548.85 L1509.96 1544.91 Z" fill="#000000" fill-rule="nonzero" fill-opacity="1"></path><path clip-path="url(#clip150)" d="M1855.04 1544.91 L1871.35 1544.91 L1871.35 1548.85 L1849.41 1548.85 L1849.41 1544.91 Q1852.07 1542.16 1856.66 1537.53 Q1861.26 1532.88 1862.44 1531.53 Q1864.69 1529.01 1865.57 1527.27 Q1866.47 1525.51 1866.47 1523.82 Q1866.47 1521.07 1864.53 1519.33 Q1862.6 1517.6 1859.5 1517.6 Q1857.3 1517.6 1854.85 1518.36 Q1852.42 1519.13 1849.64 1520.68 L1849.64 1515.95 Q1852.47 1514.82 1854.92 1514.24 Q1857.37 1513.66 1859.41 1513.66 Q1864.78 1513.66 1867.98 1516.35 Q1871.17 1519.03 1871.17 1523.52 Q1871.17 1525.65 1870.36 1527.57 Q1869.57 1529.47 1867.47 1532.07 Q1866.89 1532.74 1863.79 1535.95 Q1860.68 1539.15 1855.04 1544.91 Z" fill="#000000" fill-rule="nonzero" fill-opacity="1"></path><path clip-path="url(#clip150)" d="M1891.17 1517.37 Q1887.56 1517.37 1885.73 1520.93 Q1883.92 1524.47 1883.92 1531.6 Q1883.92 1538.71 1885.73 1542.27 Q1887.56 1545.82 1891.17 1545.82 Q1894.8 1545.82 1896.61 1542.27 Q1898.44 1538.71 1898.44 1531.6 Q1898.44 1524.47 1896.61 1520.93 Q1894.8 1517.37 1891.17 1517.37 M1891.17 1513.66 Q1896.98 1513.66 1900.04 1518.27 Q1903.11 1522.85 1903.11 1531.6 Q1903.11 1540.33 1900.04 1544.94 Q1896.98 1549.52 1891.17 1549.52 Q1885.36 1549.52 1882.28 1544.94 Q1879.23 1540.33 1879.23 1531.6 Q1879.23 1522.85 1882.28 1518.27 Q1885.36 1513.66 1891.17 1513.66 Z" fill="#000000" fill-rule="nonzero" fill-opacity="1"></path><path clip-path="url(#clip150)" d="M1912.14 1544.91 L1919.78 1544.91 L1919.78 1518.55 L1911.47 1520.21 L1911.47 1515.95 L1919.73 1514.29 L1924.41 1514.29 L1924.41 1544.91 L1932.05 1544.91 L1932.05 1548.85 L1912.14 1548.85 L1912.14 1544.91 Z" fill="#000000" fill-rule="nonzero" fill-opacity="1"></path><path clip-path="url(#clip150)" d="M1941.63 1548.13 L1941.63 1543.87 Q1943.39 1544.7 1945.2 1545.14 Q1947 1545.58 1948.74 1545.58 Q1953.37 1545.58 1955.8 1542.48 Q1958.25 1539.36 1958.6 1533.01 Q1957.26 1535.01 1955.2 1536.07 Q1953.14 1537.13 1950.64 1537.13 Q1945.45 1537.13 1942.42 1534.01 Q1939.41 1530.86 1939.41 1525.42 Q1939.41 1520.1 1942.56 1516.88 Q1945.71 1513.66 1950.94 1513.66 Q1956.93 1513.66 1960.08 1518.27 Q1963.25 1522.85 1963.25 1531.6 Q1963.25 1539.77 1959.36 1544.66 Q1955.5 1549.52 1948.95 1549.52 Q1947.19 1549.52 1945.38 1549.17 Q1943.58 1548.82 1941.63 1548.13 M1950.94 1533.48 Q1954.09 1533.48 1955.91 1531.32 Q1957.77 1529.17 1957.77 1525.42 Q1957.77 1521.7 1955.91 1519.54 Q1954.09 1517.37 1950.94 1517.37 Q1947.79 1517.37 1945.94 1519.54 Q1944.11 1521.7 1944.11 1525.42 Q1944.11 1529.17 1945.94 1531.32 Q1947.79 1533.48 1950.94 1533.48 Z" fill="#000000" fill-rule="nonzero" fill-opacity="1"></path><path clip-path="url(#clip150)" d="M1968.9 1533.96 L1981.38 1533.96 L1981.38 1537.76 L1968.9 1537.76 L1968.9 1533.96 Z" fill="#000000" fill-rule="nonzero" fill-opacity="1"></path><path clip-path="url(#clip150)" d="M1998.76 1517.37 Q1995.15 1517.37 1993.32 1520.93 Q1991.52 1524.47 1991.52 1531.6 Q1991.52 1538.71 1993.32 1542.27 Q1995.15 1545.82 1998.76 1545.82 Q2002.4 1545.82 2004.2 1542.27 Q2006.03 1538.71 2006.03 1531.6 Q2006.03 1524.47 2004.2 1520.93 Q2002.4 1517.37 1998.76 1517.37 M1998.76 1513.66 Q2004.57 1513.66 2007.63 1518.27 Q2010.71 1522.85 2010.71 1531.6 Q2010.71 1540.33 2007.63 1544.94 Q2004.57 1549.52 1998.76 1549.52 Q1992.95 1549.52 1989.87 1544.94 Q1986.82 1540.33 1986.82 1531.6 Q1986.82 1522.85 1989.87 1518.27 Q1992.95 1513.66 1998.76 1513.66 Z" fill="#000000" fill-rule="nonzero" fill-opacity="1"></path><path clip-path="url(#clip150)" d="M2028.92 1532.44 Q2025.59 1532.44 2023.67 1534.22 Q2021.77 1536 2021.77 1539.13 Q2021.77 1542.25 2023.67 1544.03 Q2025.59 1545.82 2028.92 1545.82 Q2032.26 1545.82 2034.18 1544.03 Q2036.1 1542.23 2036.1 1539.13 Q2036.1 1536 2034.18 1534.22 Q2032.28 1532.44 2028.92 1532.44 M2024.25 1530.45 Q2021.24 1529.7 2019.55 1527.64 Q2017.88 1525.58 2017.88 1522.62 Q2017.88 1518.48 2020.82 1516.07 Q2023.78 1513.66 2028.92 1513.66 Q2034.09 1513.66 2037.03 1516.07 Q2039.96 1518.48 2039.96 1522.62 Q2039.96 1525.58 2038.28 1527.64 Q2036.61 1529.7 2033.62 1530.45 Q2037 1531.23 2038.88 1533.52 Q2040.78 1535.82 2040.78 1539.13 Q2040.78 1544.15 2037.7 1546.83 Q2034.64 1549.52 2028.92 1549.52 Q2023.21 1549.52 2020.13 1546.83 Q2017.07 1544.15 2017.07 1539.13 Q2017.07 1535.82 2018.97 1533.52 Q2020.87 1531.23 2024.25 1530.45 M2022.53 1523.06 Q2022.53 1525.75 2024.2 1527.25 Q2025.89 1528.76 2028.92 1528.76 Q2031.93 1528.76 2033.62 1527.25 Q2035.34 1525.75 2035.34 1523.06 Q2035.34 1520.38 2033.62 1518.87 Q2031.93 1517.37 2028.92 1517.37 Q2025.89 1517.37 2024.2 1518.87 Q2022.53 1520.38 2022.53 1523.06 Z" fill="#000000" fill-rule="nonzero" fill-opacity="1"></path><path clip-path="url(#clip150)" d="M2046.33 1533.96 L2058.81 1533.96 L2058.81 1537.76 L2046.33 1537.76 L2046.33 1533.96 Z" fill="#000000" fill-rule="nonzero" fill-opacity="1"></path><path clip-path="url(#clip150)" d="M2076.19 1517.37 Q2072.58 1517.37 2070.75 1520.93 Q2068.95 1524.47 2068.95 1531.6 Q2068.95 1538.71 2070.75 1542.27 Q2072.58 1545.82 2076.19 1545.82 Q2079.83 1545.82 2081.63 1542.27 Q2083.46 1538.71 2083.46 1531.6 Q2083.46 1524.47 2081.63 1520.93 Q2079.83 1517.37 2076.19 1517.37 M2076.19 1513.66 Q2082 1513.66 2085.06 1518.27 Q2088.14 1522.85 2088.14 1531.6 Q2088.14 1540.33 2085.06 1544.94 Q2082 1549.52 2076.19 1549.52 Q2070.38 1549.52 2067.3 1544.94 Q2064.25 1540.33 2064.25 1531.6 Q2064.25 1522.85 2067.3 1518.27 Q2070.38 1513.66 2076.19 1513.66 Z" fill="#000000" fill-rule="nonzero" fill-opacity="1"></path><path clip-path="url(#clip150)" d="M2097.16 1544.91 L2104.8 1544.91 L2104.8 1518.55 L2096.49 1520.21 L2096.49 1515.95 L2104.76 1514.29 L2109.43 1514.29 L2109.43 1544.91 L2117.07 1544.91 L2117.07 1548.85 L2097.16 1548.85 L2097.16 1544.91 Z" fill="#000000" fill-rule="nonzero" fill-opacity="1"></path><polyline clip-path="url(#clip153)" style="stroke:#000000; stroke-linecap:round; stroke-linejoin:round; stroke-width:2; stroke-opacity:0.1; fill:none" points="186.274,1468.36 2352.76,1468.36 "></polyline>
<polyline clip-path="url(#clip153)" style="stroke:#000000; stroke-linecap:round; stroke-linejoin:round; stroke-width:2; stroke-opacity:0.1; fill:none" points="186.274,1317.6 2352.76,1317.6 "></polyline>
<polyline clip-path="url(#clip153)" style="stroke:#000000; stroke-linecap:round; stroke-linejoin:round; stroke-width:2; stroke-opacity:0.1; fill:none" points="186.274,1166.85 2352.76,1166.85 "></polyline>
<polyline clip-path="url(#clip153)" style="stroke:#000000; stroke-linecap:round; stroke-linejoin:round; stroke-width:2; stroke-opacity:0.1; fill:none" points="186.274,1016.09 2352.76,1016.09 "></polyline>
<polyline clip-path="url(#clip153)" style="stroke:#000000; stroke-linecap:round; stroke-linejoin:round; stroke-width:2; stroke-opacity:0.1; fill:none" points="186.274,865.335 2352.76,865.335 "></polyline>
<polyline clip-path="url(#clip150)" style="stroke:#000000; stroke-linecap:round; stroke-linejoin:round; stroke-width:4; stroke-opacity:1; fill:none" points="186.274,1486.45 186.274,847.244 "></polyline>
<polyline clip-path="url(#clip150)" style="stroke:#000000; stroke-linecap:round; stroke-linejoin:round; stroke-width:4; stroke-opacity:1; fill:none" points="186.274,1468.36 205.172,1468.36 "></polyline>
<polyline clip-path="url(#clip150)" style="stroke:#000000; stroke-linecap:round; stroke-linejoin:round; stroke-width:4; stroke-opacity:1; fill:none" points="186.274,1317.6 205.172,1317.6 "></polyline>
<polyline clip-path="url(#clip150)" style="stroke:#000000; stroke-linecap:round; stroke-linejoin:round; stroke-width:4; stroke-opacity:1; fill:none" points="186.274,1166.85 205.172,1166.85 "></polyline>
<polyline clip-path="url(#clip150)" style="stroke:#000000; stroke-linecap:round; stroke-linejoin:round; stroke-width:4; stroke-opacity:1; fill:none" points="186.274,1016.09 205.172,1016.09 "></polyline>
<polyline clip-path="url(#clip150)" style="stroke:#000000; stroke-linecap:round; stroke-linejoin:round; stroke-width:4; stroke-opacity:1; fill:none" points="186.274,865.335 205.172,865.335 "></polyline>
<path clip-path="url(#clip150)" d="M62.9365 1454.16 Q59.3254 1454.16 57.4967 1457.72 Q55.6912 1461.26 55.6912 1468.39 Q55.6912 1475.5 57.4967 1479.06 Q59.3254 1482.6 62.9365 1482.6 Q66.5707 1482.6 68.3763 1479.06 Q70.205 1475.5 70.205 1468.39 Q70.205 1461.26 68.3763 1457.72 Q66.5707 1454.16 62.9365 1454.16 M62.9365 1450.45 Q68.7467 1450.45 71.8022 1455.06 Q74.8809 1459.64 74.8809 1468.39 Q74.8809 1477.12 71.8022 1481.73 Q68.7467 1486.31 62.9365 1486.31 Q57.1264 1486.31 54.0477 1481.73 Q50.9921 1477.12 50.9921 1468.39 Q50.9921 1459.64 54.0477 1455.06 Q57.1264 1450.45 62.9365 1450.45 Z" fill="#000000" fill-rule="nonzero" fill-opacity="1"></path><path clip-path="url(#clip150)" d="M83.0984 1479.76 L87.9827 1479.76 L87.9827 1485.64 L83.0984 1485.64 L83.0984 1479.76 Z" fill="#000000" fill-rule="nonzero" fill-opacity="1"></path><path clip-path="url(#clip150)" d="M108.168 1454.16 Q104.557 1454.16 102.728 1457.72 Q100.922 1461.26 100.922 1468.39 Q100.922 1475.5 102.728 1479.06 Q104.557 1482.6 108.168 1482.6 Q111.802 1482.6 113.608 1479.06 Q115.436 1475.5 115.436 1468.39 Q115.436 1461.26 113.608 1457.72 Q111.802 1454.16 108.168 1454.16 M108.168 1450.45 Q113.978 1450.45 117.033 1455.06 Q120.112 1459.64 120.112 1468.39 Q120.112 1477.12 117.033 1481.73 Q113.978 1486.31 108.168 1486.31 Q102.358 1486.31 99.2789 1481.73 Q96.2234 1477.12 96.2234 1468.39 Q96.2234 1459.64 99.2789 1455.06 Q102.358 1450.45 108.168 1450.45 Z" fill="#000000" fill-rule="nonzero" fill-opacity="1"></path><path clip-path="url(#clip150)" d="M138.33 1454.16 Q134.719 1454.16 132.89 1457.72 Q131.084 1461.26 131.084 1468.39 Q131.084 1475.5 132.89 1479.06 Q134.719 1482.6 138.33 1482.6 Q141.964 1482.6 143.769 1479.06 Q145.598 1475.5 145.598 1468.39 Q145.598 1461.26 143.769 1457.72 Q141.964 1454.16 138.33 1454.16 M138.33 1450.45 Q144.14 1450.45 147.195 1455.06 Q150.274 1459.64 150.274 1468.39 Q150.274 1477.12 147.195 1481.73 Q144.14 1486.31 138.33 1486.31 Q132.519 1486.31 129.441 1481.73 Q126.385 1477.12 126.385 1468.39 Q126.385 1459.64 129.441 1455.06 Q132.519 1450.45 138.33 1450.45 Z" fill="#000000" fill-rule="nonzero" fill-opacity="1"></path><path clip-path="url(#clip150)" d="M63.9319 1303.4 Q60.3208 1303.4 58.4921 1306.97 Q56.6865 1310.51 56.6865 1317.64 Q56.6865 1324.74 58.4921 1328.31 Q60.3208 1331.85 63.9319 1331.85 Q67.5661 1331.85 69.3717 1328.31 Q71.2004 1324.74 71.2004 1317.64 Q71.2004 1310.51 69.3717 1306.97 Q67.5661 1303.4 63.9319 1303.4 M63.9319 1299.7 Q69.742 1299.7 72.7976 1304.3 Q75.8763 1308.89 75.8763 1317.64 Q75.8763 1326.36 72.7976 1330.97 Q69.742 1335.55 63.9319 1335.55 Q58.1217 1335.55 55.043 1330.97 Q51.9875 1326.36 51.9875 1317.64 Q51.9875 1308.89 55.043 1304.3 Q58.1217 1299.7 63.9319 1299.7 Z" fill="#000000" fill-rule="nonzero" fill-opacity="1"></path><path clip-path="url(#clip150)" d="M84.0938 1329 L88.978 1329 L88.978 1334.88 L84.0938 1334.88 L84.0938 1329 Z" fill="#000000" fill-rule="nonzero" fill-opacity="1"></path><path clip-path="url(#clip150)" d="M103.191 1330.95 L119.51 1330.95 L119.51 1334.88 L97.566 1334.88 L97.566 1330.95 Q100.228 1328.19 104.811 1323.56 Q109.418 1318.91 110.598 1317.57 Q112.844 1315.04 113.723 1313.31 Q114.626 1311.55 114.626 1309.86 Q114.626 1307.1 112.682 1305.37 Q110.76 1303.63 107.658 1303.63 Q105.459 1303.63 103.006 1304.4 Q100.575 1305.16 97.7974 1306.71 L97.7974 1301.99 Q100.621 1300.85 103.075 1300.28 Q105.529 1299.7 107.566 1299.7 Q112.936 1299.7 116.131 1302.38 Q119.325 1305.07 119.325 1309.56 Q119.325 1311.69 118.515 1313.61 Q117.728 1315.51 115.621 1318.1 Q115.043 1318.77 111.941 1321.99 Q108.839 1325.18 103.191 1330.95 Z" fill="#000000" fill-rule="nonzero" fill-opacity="1"></path><path clip-path="url(#clip150)" d="M129.371 1300.32 L147.728 1300.32 L147.728 1304.26 L133.654 1304.26 L133.654 1312.73 Q134.672 1312.38 135.691 1312.22 Q136.709 1312.03 137.728 1312.03 Q143.515 1312.03 146.894 1315.21 Q150.274 1318.38 150.274 1323.79 Q150.274 1329.37 146.802 1332.47 Q143.33 1335.55 137.01 1335.55 Q134.834 1335.55 132.566 1335.18 Q130.32 1334.81 127.913 1334.07 L127.913 1329.37 Q129.996 1330.51 132.219 1331.06 Q134.441 1331.62 136.918 1331.62 Q140.922 1331.62 143.26 1329.51 Q145.598 1327.4 145.598 1323.79 Q145.598 1320.18 143.26 1318.08 Q140.922 1315.97 136.918 1315.97 Q135.043 1315.97 133.168 1316.39 Q131.316 1316.8 129.371 1317.68 L129.371 1300.32 Z" fill="#000000" fill-rule="nonzero" fill-opacity="1"></path><path clip-path="url(#clip150)" d="M62.9365 1152.64 Q59.3254 1152.64 57.4967 1156.21 Q55.6912 1159.75 55.6912 1166.88 Q55.6912 1173.99 57.4967 1177.55 Q59.3254 1181.09 62.9365 1181.09 Q66.5707 1181.09 68.3763 1177.55 Q70.205 1173.99 70.205 1166.88 Q70.205 1159.75 68.3763 1156.21 Q66.5707 1152.64 62.9365 1152.64 M62.9365 1148.94 Q68.7467 1148.94 71.8022 1153.55 Q74.8809 1158.13 74.8809 1166.88 Q74.8809 1175.61 71.8022 1180.21 Q68.7467 1184.8 62.9365 1184.8 Q57.1264 1184.8 54.0477 1180.21 Q50.9921 1175.61 50.9921 1166.88 Q50.9921 1158.13 54.0477 1153.55 Q57.1264 1148.94 62.9365 1148.94 Z" fill="#000000" fill-rule="nonzero" fill-opacity="1"></path><path clip-path="url(#clip150)" d="M83.0984 1178.25 L87.9827 1178.25 L87.9827 1184.13 L83.0984 1184.13 L83.0984 1178.25 Z" fill="#000000" fill-rule="nonzero" fill-opacity="1"></path><path clip-path="url(#clip150)" d="M98.2141 1149.57 L116.57 1149.57 L116.57 1153.5 L102.496 1153.5 L102.496 1161.97 Q103.515 1161.63 104.534 1161.46 Q105.552 1161.28 106.571 1161.28 Q112.358 1161.28 115.737 1164.45 Q119.117 1167.62 119.117 1173.04 Q119.117 1178.62 115.645 1181.72 Q112.172 1184.8 105.853 1184.8 Q103.677 1184.8 101.409 1184.43 Q99.1632 1184.06 96.7558 1183.32 L96.7558 1178.62 Q98.8391 1179.75 101.061 1180.31 Q103.284 1180.86 105.76 1180.86 Q109.765 1180.86 112.103 1178.76 Q114.441 1176.65 114.441 1173.04 Q114.441 1169.43 112.103 1167.32 Q109.765 1165.21 105.76 1165.21 Q103.885 1165.21 102.01 1165.63 Q100.159 1166.05 98.2141 1166.93 L98.2141 1149.57 Z" fill="#000000" fill-rule="nonzero" fill-opacity="1"></path><path clip-path="url(#clip150)" d="M138.33 1152.64 Q134.719 1152.64 132.89 1156.21 Q131.084 1159.75 131.084 1166.88 Q131.084 1173.99 132.89 1177.55 Q134.719 1181.09 138.33 1181.09 Q141.964 1181.09 143.769 1177.55 Q145.598 1173.99 145.598 1166.88 Q145.598 1159.75 143.769 1156.21 Q141.964 1152.64 138.33 1152.64 M138.33 1148.94 Q144.14 1148.94 147.195 1153.55 Q150.274 1158.13 150.274 1166.88 Q150.274 1175.61 147.195 1180.21 Q144.14 1184.8 138.33 1184.8 Q132.519 1184.8 129.441 1180.21 Q126.385 1175.61 126.385 1166.88 Q126.385 1158.13 129.441 1153.55 Q132.519 1148.94 138.33 1148.94 Z" fill="#000000" fill-rule="nonzero" fill-opacity="1"></path><path clip-path="url(#clip150)" d="M63.9319 1001.89 Q60.3208 1001.89 58.4921 1005.45 Q56.6865 1009 56.6865 1016.13 Q56.6865 1023.23 58.4921 1026.8 Q60.3208 1030.34 63.9319 1030.34 Q67.5661 1030.34 69.3717 1026.8 Q71.2004 1023.23 71.2004 1016.13 Q71.2004 1009 69.3717 1005.45 Q67.5661 1001.89 63.9319 1001.89 M63.9319 998.185 Q69.742 998.185 72.7976 1002.79 Q75.8763 1007.38 75.8763 1016.13 Q75.8763 1024.85 72.7976 1029.46 Q69.742 1034.04 63.9319 1034.04 Q58.1217 1034.04 55.043 1029.46 Q51.9875 1024.85 51.9875 1016.13 Q51.9875 1007.38 55.043 1002.79 Q58.1217 998.185 63.9319 998.185 Z" fill="#000000" fill-rule="nonzero" fill-opacity="1"></path><path clip-path="url(#clip150)" d="M84.0938 1027.49 L88.978 1027.49 L88.978 1033.37 L84.0938 1033.37 L84.0938 1027.49 Z" fill="#000000" fill-rule="nonzero" fill-opacity="1"></path><path clip-path="url(#clip150)" d="M97.9826 998.81 L120.205 998.81 L120.205 1000.8 L107.658 1033.37 L102.774 1033.37 L114.58 1002.75 L97.9826 1002.75 L97.9826 998.81 Z" fill="#000000" fill-rule="nonzero" fill-opacity="1"></path><path clip-path="url(#clip150)" d="M129.371 998.81 L147.728 998.81 L147.728 1002.75 L133.654 1002.75 L133.654 1011.22 Q134.672 1010.87 135.691 1010.71 Q136.709 1010.52 137.728 1010.52 Q143.515 1010.52 146.894 1013.69 Q150.274 1016.87 150.274 1022.28 Q150.274 1027.86 146.802 1030.96 Q143.33 1034.04 137.01 1034.04 Q134.834 1034.04 132.566 1033.67 Q130.32 1033.3 127.913 1032.56 L127.913 1027.86 Q129.996 1029 132.219 1029.55 Q134.441 1030.11 136.918 1030.11 Q140.922 1030.11 143.26 1028 Q145.598 1025.89 145.598 1022.28 Q145.598 1018.67 143.26 1016.56 Q140.922 1014.46 136.918 1014.46 Q135.043 1014.46 133.168 1014.88 Q131.316 1015.29 129.371 1016.17 L129.371 998.81 Z" fill="#000000" fill-rule="nonzero" fill-opacity="1"></path><path clip-path="url(#clip150)" d="M53.7467 878.68 L61.3856 878.68 L61.3856 852.314 L53.0754 853.981 L53.0754 849.721 L61.3393 848.055 L66.0152 848.055 L66.0152 878.68 L73.654 878.68 L73.654 882.615 L53.7467 882.615 L53.7467 878.68 Z" fill="#000000" fill-rule="nonzero" fill-opacity="1"></path><path clip-path="url(#clip150)" d="M83.0984 876.735 L87.9827 876.735 L87.9827 882.615 L83.0984 882.615 L83.0984 876.735 Z" fill="#000000" fill-rule="nonzero" fill-opacity="1"></path><path clip-path="url(#clip150)" d="M108.168 851.133 Q104.557 851.133 102.728 854.698 Q100.922 858.24 100.922 865.369 Q100.922 872.476 102.728 876.041 Q104.557 879.582 108.168 879.582 Q111.802 879.582 113.608 876.041 Q115.436 872.476 115.436 865.369 Q115.436 858.24 113.608 854.698 Q111.802 851.133 108.168 851.133 M108.168 847.43 Q113.978 847.43 117.033 852.036 Q120.112 856.62 120.112 865.369 Q120.112 874.096 117.033 878.703 Q113.978 883.286 108.168 883.286 Q102.358 883.286 99.2789 878.703 Q96.2234 874.096 96.2234 865.369 Q96.2234 856.62 99.2789 852.036 Q102.358 847.43 108.168 847.43 Z" fill="#000000" fill-rule="nonzero" fill-opacity="1"></path><path clip-path="url(#clip150)" d="M138.33 851.133 Q134.719 851.133 132.89 854.698 Q131.084 858.24 131.084 865.369 Q131.084 872.476 132.89 876.041 Q134.719 879.582 138.33 879.582 Q141.964 879.582 143.769 876.041 Q145.598 872.476 145.598 865.369 Q145.598 858.24 143.769 854.698 Q141.964 851.133 138.33 851.133 M138.33 847.43 Q144.14 847.43 147.195 852.036 Q150.274 856.62 150.274 865.369 Q150.274 874.096 147.195 878.703 Q144.14 883.286 138.33 883.286 Q132.519 883.286 129.441 878.703 Q126.385 874.096 126.385 865.369 Q126.385 856.62 129.441 852.036 Q132.519 847.43 138.33 847.43 Z" fill="#000000" fill-rule="nonzero" fill-opacity="1"></path><polyline clip-path="url(#clip153)" style="stroke:#009af9; stroke-linecap:round; stroke-linejoin:round; stroke-width:8; stroke-opacity:1; fill:none" points="247.59,865.335 270.299,865.335 293.008,865.335 315.718,1468.36 338.427,865.335 361.137,865.335 383.846,1468.36 406.556,865.335 429.265,865.335 451.975,865.335 474.684,865.335 497.394,865.335 520.103,865.335 542.812,865.335 565.522,1468.36 588.231,865.335 610.941,1468.36 633.65,865.335 656.36,865.335 679.069,865.335 701.779,865.335 724.488,865.335 747.198,865.335 769.907,865.335 792.616,865.335 815.326,865.335 838.035,865.335 860.745,865.335 883.454,865.335 906.164,865.335 928.873,865.335 951.583,865.335 974.292,865.335 997.002,865.335 1019.71,865.335 1042.42,865.335 1065.13,865.335 1087.84,865.335 1110.55,865.335 1133.26,865.335 1155.97,1468.36 1178.68,865.335 1201.39,865.335 1224.1,865.335 1246.81,865.335 1269.51,865.335 1292.22,865.335 1314.93,1468.36 1337.64,865.335 1360.35,865.335 1383.06,865.335 1405.77,865.335 1428.48,865.335 1451.19,865.335 1473.9,865.335 1496.61,865.335 1519.32,865.335 1542.03,865.335 1564.74,865.335 1587.45,865.335 1610.16,865.335 1632.87,865.335 1655.58,865.335 1678.29,865.335 1700.99,865.335 1723.7,865.335 1746.41,865.335 1769.12,865.335 1791.83,865.335 1814.54,865.335 1837.25,865.335 1859.96,865.335 1882.67,865.335 1905.38,865.335 1928.09,865.335 1950.8,865.335 1973.51,865.335 1996.22,865.335 2018.93,865.335 2041.64,865.335 2064.35,865.335 2087.06,865.335 2109.76,865.335 2132.47,865.335 2155.18,1468.36 2177.89,865.335 2200.6,865.335 2223.31,865.335 2246.02,865.335 2268.73,865.335 2291.44,865.335 "></polyline>
<path clip-path="url(#clip150)" d="M1996.39 1465.14 L2280.54 1465.14 L2280.54 1361.46 L1996.39 1361.46  Z" fill="#ffffff" fill-rule="evenodd" fill-opacity="1"></path>
<polyline clip-path="url(#clip150)" style="stroke:#000000; stroke-linecap:round; stroke-linejoin:round; stroke-width:4; stroke-opacity:1; fill:none" points="1996.39,1465.14 2280.54,1465.14 2280.54,1361.46 1996.39,1361.46 1996.39,1465.14 "></polyline>
<polyline clip-path="url(#clip150)" style="stroke:#009af9; stroke-linecap:round; stroke-linejoin:round; stroke-width:8; stroke-opacity:1; fill:none" points="2020.46,1413.3 2164.9,1413.3 "></polyline>
<path clip-path="url(#clip150)" d="M2207.74 1417.64 Q2207.74 1412.94 2205.8 1410.28 Q2203.88 1407.6 2200.5 1407.6 Q2197.12 1407.6 2195.17 1410.28 Q2193.25 1412.94 2193.25 1417.64 Q2193.25 1422.34 2195.17 1425.03 Q2197.12 1427.69 2200.5 1427.69 Q2203.88 1427.69 2205.8 1425.03 Q2207.74 1422.34 2207.74 1417.64 M2193.25 1408.59 Q2194.59 1406.28 2196.63 1405.16 Q2198.69 1404.03 2201.54 1404.03 Q2206.26 1404.03 2209.2 1407.78 Q2212.16 1411.53 2212.16 1417.64 Q2212.16 1423.75 2209.2 1427.5 Q2206.26 1431.25 2201.54 1431.25 Q2198.69 1431.25 2196.63 1430.14 Q2194.59 1429.01 2193.25 1426.69 L2193.25 1430.58 L2188.97 1430.58 L2188.97 1394.56 L2193.25 1394.56 L2193.25 1408.59 Z" fill="#000000" fill-rule="nonzero" fill-opacity="1"></path><path clip-path="url(#clip150)" d="M2223.44 1397.29 L2223.44 1404.66 L2232.21 1404.66 L2232.21 1407.97 L2223.44 1407.97 L2223.44 1422.04 Q2223.44 1425.21 2224.29 1426.11 Q2225.17 1427.02 2227.83 1427.02 L2232.21 1427.02 L2232.21 1430.58 L2227.83 1430.58 Q2222.9 1430.58 2221.03 1428.75 Q2219.15 1426.9 2219.15 1422.04 L2219.15 1407.97 L2216.03 1407.97 L2216.03 1404.66 L2219.15 1404.66 L2219.15 1397.29 L2223.44 1397.29 Z" fill="#000000" fill-rule="nonzero" fill-opacity="1"></path><path clip-path="url(#clip150)" d="M2256.47 1405.65 L2256.47 1409.63 Q2254.66 1408.64 2252.83 1408.15 Q2251.03 1407.64 2249.18 1407.64 Q2245.03 1407.64 2242.74 1410.28 Q2240.45 1412.9 2240.45 1417.64 Q2240.45 1422.39 2242.74 1425.03 Q2245.03 1427.64 2249.18 1427.64 Q2251.03 1427.64 2252.83 1427.16 Q2254.66 1426.65 2256.47 1425.65 L2256.47 1429.59 Q2254.69 1430.42 2252.76 1430.84 Q2250.87 1431.25 2248.71 1431.25 Q2242.86 1431.25 2239.41 1427.57 Q2235.96 1423.89 2235.96 1417.64 Q2235.96 1411.3 2239.43 1407.66 Q2242.93 1404.03 2248.99 1404.03 Q2250.96 1404.03 2252.83 1404.45 Q2254.71 1404.84 2256.47 1405.65 Z" fill="#000000" fill-rule="nonzero" fill-opacity="1"></path></svg>