<svg xmlns="http://www.w3.org/2000/svg" xmlns:xlink="http://www.w3.org/1999/xlink" width="600" height="400" viewBox="0 0 2400 1600">
<defs>
  <clipPath id="clip270">
    <rect x="0" y="0" width="2400" height="1600"></rect>
  </clipPath>
</defs>
<path clip-path="url(#clip270)" d="M0 1600 L2400 1600 L2400 0 L0 0  Z" fill="#ffffff" fill-rule="evenodd" fill-opacity="1"></path>
<defs>
  <clipPath id="clip271">
    <rect x="480" y="0" width="1681" height="1600"></rect>
  </clipPath>
</defs>
<path clip-path="url(#clip270)" d="M186.274 686.448 L2352.76 686.448 L2352.76 47.2441 L186.274 47.2441  Z" fill="#ffffff" fill-rule="evenodd" fill-opacity="1"></path>
<defs>
  <clipPath id="clip272">
    <rect x="186" y="47" width="2167" height="640"></rect>
  </clipPath>
</defs>
<polyline clip-path="url(#clip272)" style="stroke:#000000; stroke-linecap:round; stroke-linejoin:round; stroke-width:2; stroke-opacity:0.1; fill:none" points="221.636,686.448 221.636,47.2441 "></polyline>
<polyline clip-path="url(#clip272)" style="stroke:#000000; stroke-linecap:round; stroke-linejoin:round; stroke-width:2; stroke-opacity:0.1; fill:none" points="818.57,686.448 818.57,47.2441 "></polyline>
<polyline clip-path="url(#clip272)" style="stroke:#000000; stroke-linecap:round; stroke-linejoin:round; stroke-width:2; stroke-opacity:0.1; fill:none" points="1405.77,686.448 1405.77,47.2441 "></polyline>
<polyline clip-path="url(#clip272)" style="stroke:#000000; stroke-linecap:round; stroke-linejoin:round; stroke-width:2; stroke-opacity:0.1; fill:none" points="2002.71,686.448 2002.71,47.2441 "></polyline>
<polyline clip-path="url(#clip270)" style="stroke:#000000; stroke-linecap:round; stroke-linejoin:round; stroke-width:4; stroke-opacity:1; fill:none" points="186.274,686.448 2352.76,686.448 "></polyline>
<polyline clip-path="url(#clip270)" style="stroke:#000000; stroke-linecap:round; stroke-linejoin:round; stroke-width:4; stroke-opacity:1; fill:none" points="221.636,686.448 221.636,667.55 "></polyline>
<polyline clip-path="url(#clip270)" style="stroke:#000000; stroke-linecap:round; stroke-linejoin:round; stroke-width:4; stroke-opacity:1; fill:none" points="818.57,686.448 818.57,667.55 "></polyline>
<polyline clip-path="url(#clip270)" style="stroke:#000000; stroke-linecap:round; stroke-linejoin:round; stroke-width:4; stroke-opacity:1; fill:none" points="1405.77,686.448 1405.77,667.55 "></polyline>
<polyline clip-path="url(#clip270)" style="stroke:#000000; stroke-linecap:round; stroke-linejoin:round; stroke-width:4; stroke-opacity:1; fill:none" points="2002.71,686.448 2002.71,667.55 "></polyline>
<path clip-path="url(#clip270)" d="M93.4305 744.913 L109.75 744.913 L109.75 748.848 L87.8056 748.848 L87.8056 744.913 Q90.4676 742.158 95.0509 737.528 Q99.6574 732.876 100.838 731.533 Q103.083 729.01 103.963 727.274 Q104.866 725.515 104.866 723.825 Q104.866 721.07 102.921 719.334 Q101 717.598 97.8981 717.598 Q95.699 717.598 93.2453 718.362 Q90.8148 719.126 88.037 720.677 L88.037 715.955 Q90.8611 714.82 93.3148 714.242 Q95.7685 713.663 97.8055 713.663 Q103.176 713.663 106.37 716.348 Q109.565 719.033 109.565 723.524 Q109.565 725.654 108.755 727.575 Q107.967 729.473 105.861 732.066 Q105.282 732.737 102.18 735.954 Q99.0787 739.149 93.4305 744.913 Z" fill="#000000" fill-rule="nonzero" fill-opacity="1"></path><path clip-path="url(#clip270)" d="M129.565 717.367 Q125.954 717.367 124.125 720.931 Q122.319 724.473 122.319 731.603 Q122.319 738.709 124.125 742.274 Q125.954 745.815 129.565 745.815 Q133.199 745.815 135.004 742.274 Q136.833 738.709 136.833 731.603 Q136.833 724.473 135.004 720.931 Q133.199 717.367 129.565 717.367 M129.565 713.663 Q135.375 713.663 138.43 718.269 Q141.509 722.853 141.509 731.603 Q141.509 740.329 138.43 744.936 Q135.375 749.519 129.565 749.519 Q123.754 749.519 120.676 744.936 Q117.62 740.329 117.62 731.603 Q117.62 722.853 120.676 718.269 Q123.754 713.663 129.565 713.663 Z" fill="#000000" fill-rule="nonzero" fill-opacity="1"></path><path clip-path="url(#clip270)" d="M153.754 744.913 L170.074 744.913 L170.074 748.848 L148.129 748.848 L148.129 744.913 Q150.791 742.158 155.375 737.528 Q159.981 732.876 161.162 731.533 Q163.407 729.01 164.287 727.274 Q165.189 725.515 165.189 723.825 Q165.189 721.07 163.245 719.334 Q161.324 717.598 158.222 717.598 Q156.023 717.598 153.569 718.362 Q151.139 719.126 148.361 720.677 L148.361 715.955 Q151.185 714.82 153.639 714.242 Q156.092 713.663 158.129 713.663 Q163.5 713.663 166.694 716.348 Q169.888 719.033 169.888 723.524 Q169.888 725.654 169.078 727.575 Q168.291 729.473 166.185 732.066 Q165.606 732.737 162.504 735.954 Q159.402 739.149 153.754 744.913 Z" fill="#000000" fill-rule="nonzero" fill-opacity="1"></path><path clip-path="url(#clip270)" d="M180.699 744.913 L188.337 744.913 L188.337 718.547 L180.027 720.214 L180.027 715.955 L188.291 714.288 L192.967 714.288 L192.967 744.913 L200.606 744.913 L200.606 748.848 L180.699 748.848 L180.699 744.913 Z" fill="#000000" fill-rule="nonzero" fill-opacity="1"></path><path clip-path="url(#clip270)" d="M207.296 733.964 L219.772 733.964 L219.772 737.76 L207.296 737.76 L207.296 733.964 Z" fill="#000000" fill-rule="nonzero" fill-opacity="1"></path><path clip-path="url(#clip270)" d="M237.157 717.367 Q233.546 717.367 231.717 720.931 Q229.911 724.473 229.911 731.603 Q229.911 738.709 231.717 742.274 Q233.546 745.815 237.157 745.815 Q240.791 745.815 242.596 742.274 Q244.425 738.709 244.425 731.603 Q244.425 724.473 242.596 720.931 Q240.791 717.367 237.157 717.367 M237.157 713.663 Q242.967 713.663 246.022 718.269 Q249.101 722.853 249.101 731.603 Q249.101 740.329 246.022 744.936 Q242.967 749.519 237.157 749.519 Q231.346 749.519 228.268 744.936 Q225.212 740.329 225.212 731.603 Q225.212 722.853 228.268 718.269 Q231.346 713.663 237.157 713.663 Z" fill="#000000" fill-rule="nonzero" fill-opacity="1"></path><path clip-path="url(#clip270)" d="M267.318 732.436 Q263.985 732.436 262.064 734.218 Q260.166 736.001 260.166 739.126 Q260.166 742.251 262.064 744.033 Q263.985 745.815 267.318 745.815 Q270.652 745.815 272.573 744.033 Q274.494 742.228 274.494 739.126 Q274.494 736.001 272.573 734.218 Q270.675 732.436 267.318 732.436 M262.643 730.445 Q259.633 729.704 257.944 727.644 Q256.277 725.584 256.277 722.621 Q256.277 718.478 259.217 716.07 Q262.18 713.663 267.318 713.663 Q272.481 713.663 275.42 716.07 Q278.36 718.478 278.36 722.621 Q278.36 725.584 276.67 727.644 Q275.004 729.704 272.018 730.445 Q275.397 731.232 277.272 733.524 Q279.17 735.816 279.17 739.126 Q279.17 744.149 276.092 746.834 Q273.036 749.519 267.318 749.519 Q261.601 749.519 258.522 746.834 Q255.467 744.149 255.467 739.126 Q255.467 735.816 257.365 733.524 Q259.263 731.232 262.643 730.445 M260.93 723.061 Q260.93 725.746 262.596 727.251 Q264.286 728.755 267.318 728.755 Q270.328 728.755 272.018 727.251 Q273.73 725.746 273.73 723.061 Q273.73 720.376 272.018 718.871 Q270.328 717.367 267.318 717.367 Q264.286 717.367 262.596 718.871 Q260.93 720.376 260.93 723.061 Z" fill="#000000" fill-rule="nonzero" fill-opacity="1"></path><path clip-path="url(#clip270)" d="M284.726 733.964 L297.203 733.964 L297.203 737.76 L284.726 737.76 L284.726 733.964 Z" fill="#000000" fill-rule="nonzero" fill-opacity="1"></path><path clip-path="url(#clip270)" d="M314.587 717.367 Q310.976 717.367 309.147 720.931 Q307.341 724.473 307.341 731.603 Q307.341 738.709 309.147 742.274 Q310.976 745.815 314.587 745.815 Q318.221 745.815 320.027 742.274 Q321.855 738.709 321.855 731.603 Q321.855 724.473 320.027 720.931 Q318.221 717.367 314.587 717.367 M314.587 713.663 Q320.397 713.663 323.452 718.269 Q326.531 722.853 326.531 731.603 Q326.531 740.329 323.452 744.936 Q320.397 749.519 314.587 749.519 Q308.777 749.519 305.698 744.936 Q302.642 740.329 302.642 731.603 Q302.642 722.853 305.698 718.269 Q308.777 713.663 314.587 713.663 Z" fill="#000000" fill-rule="nonzero" fill-opacity="1"></path><path clip-path="url(#clip270)" d="M335.559 744.913 L343.198 744.913 L343.198 718.547 L334.888 720.214 L334.888 715.955 L343.151 714.288 L347.827 714.288 L347.827 744.913 L355.466 744.913 L355.466 748.848 L335.559 748.848 L335.559 744.913 Z" fill="#000000" fill-rule="nonzero" fill-opacity="1"></path><path clip-path="url(#clip270)" d="M690.365 744.913 L706.684 744.913 L706.684 748.848 L684.74 748.848 L684.74 744.913 Q687.402 742.158 691.985 737.528 Q696.592 732.876 697.772 731.533 Q700.017 729.01 700.897 727.274 Q701.8 725.515 701.8 723.825 Q701.8 721.07 699.855 719.334 Q697.934 717.598 694.832 717.598 Q692.633 717.598 690.18 718.362 Q687.749 719.126 684.971 720.677 L684.971 715.955 Q687.795 714.82 690.249 714.242 Q692.703 713.663 694.74 713.663 Q700.11 713.663 703.304 716.348 Q706.499 719.033 706.499 723.524 Q706.499 725.654 705.689 727.575 Q704.902 729.473 702.795 732.066 Q702.217 732.737 699.115 735.954 Q696.013 739.149 690.365 744.913 Z" fill="#000000" fill-rule="nonzero" fill-opacity="1"></path><path clip-path="url(#clip270)" d="M726.499 717.367 Q722.888 717.367 721.059 720.931 Q719.253 724.473 719.253 731.603 Q719.253 738.709 721.059 742.274 Q722.888 745.815 726.499 745.815 Q730.133 745.815 731.939 742.274 Q733.767 738.709 733.767 731.603 Q733.767 724.473 731.939 720.931 Q730.133 717.367 726.499 717.367 M726.499 713.663 Q732.309 713.663 735.365 718.269 Q738.443 722.853 738.443 731.603 Q738.443 740.329 735.365 744.936 Q732.309 749.519 726.499 749.519 Q720.689 749.519 717.61 744.936 Q714.554 740.329 714.554 731.603 Q714.554 722.853 717.61 718.269 Q720.689 713.663 726.499 713.663 Z" fill="#000000" fill-rule="nonzero" fill-opacity="1"></path><path clip-path="url(#clip270)" d="M750.689 744.913 L767.008 744.913 L767.008 748.848 L745.064 748.848 L745.064 744.913 Q747.726 742.158 752.309 737.528 Q756.915 732.876 758.096 731.533 Q760.341 729.01 761.221 727.274 Q762.124 725.515 762.124 723.825 Q762.124 721.07 760.179 719.334 Q758.258 717.598 755.156 717.598 Q752.957 717.598 750.503 718.362 Q748.073 719.126 745.295 720.677 L745.295 715.955 Q748.119 714.82 750.573 714.242 Q753.026 713.663 755.063 713.663 Q760.434 713.663 763.628 716.348 Q766.823 719.033 766.823 723.524 Q766.823 725.654 766.012 727.575 Q765.225 729.473 763.119 732.066 Q762.54 732.737 759.438 735.954 Q756.337 739.149 750.689 744.913 Z" fill="#000000" fill-rule="nonzero" fill-opacity="1"></path><path clip-path="url(#clip270)" d="M780.85 744.913 L797.17 744.913 L797.17 748.848 L775.225 748.848 L775.225 744.913 Q777.887 742.158 782.471 737.528 Q787.077 732.876 788.258 731.533 Q790.503 729.01 791.383 727.274 Q792.286 725.515 792.286 723.825 Q792.286 721.07 790.341 719.334 Q788.42 717.598 785.318 717.598 Q783.119 717.598 780.665 718.362 Q778.235 719.126 775.457 720.677 L775.457 715.955 Q778.281 714.82 780.735 714.242 Q783.188 713.663 785.225 713.663 Q790.596 713.663 793.79 716.348 Q796.985 719.033 796.985 723.524 Q796.985 725.654 796.174 727.575 Q795.387 729.473 793.281 732.066 Q792.702 732.737 789.6 735.954 Q786.498 739.149 780.85 744.913 Z" fill="#000000" fill-rule="nonzero" fill-opacity="1"></path><path clip-path="url(#clip270)" d="M804.23 733.964 L816.707 733.964 L816.707 737.76 L804.23 737.76 L804.23 733.964 Z" fill="#000000" fill-rule="nonzero" fill-opacity="1"></path><path clip-path="url(#clip270)" d="M834.091 717.367 Q830.48 717.367 828.651 720.931 Q826.846 724.473 826.846 731.603 Q826.846 738.709 828.651 742.274 Q830.48 745.815 834.091 745.815 Q837.725 745.815 839.531 742.274 Q841.359 738.709 841.359 731.603 Q841.359 724.473 839.531 720.931 Q837.725 717.367 834.091 717.367 M834.091 713.663 Q839.901 713.663 842.957 718.269 Q846.035 722.853 846.035 731.603 Q846.035 740.329 842.957 744.936 Q839.901 749.519 834.091 749.519 Q828.281 749.519 825.202 744.936 Q822.146 740.329 822.146 731.603 Q822.146 722.853 825.202 718.269 Q828.281 713.663 834.091 713.663 Z" fill="#000000" fill-rule="nonzero" fill-opacity="1"></path><path clip-path="url(#clip270)" d="M858.281 744.913 L874.6 744.913 L874.6 748.848 L852.656 748.848 L852.656 744.913 Q855.318 742.158 859.901 737.528 Q864.507 732.876 865.688 731.533 Q867.933 729.01 868.813 727.274 Q869.716 725.515 869.716 723.825 Q869.716 721.07 867.771 719.334 Q865.85 717.598 862.748 717.598 Q860.549 717.598 858.095 718.362 Q855.665 719.126 852.887 720.677 L852.887 715.955 Q855.711 714.82 858.165 714.242 Q860.618 713.663 862.655 713.663 Q868.026 713.663 871.22 716.348 Q874.415 719.033 874.415 723.524 Q874.415 725.654 873.605 727.575 Q872.817 729.473 870.711 732.066 Q870.132 732.737 867.03 735.954 Q863.929 739.149 858.281 744.913 Z" fill="#000000" fill-rule="nonzero" fill-opacity="1"></path><path clip-path="url(#clip270)" d="M881.66 733.964 L894.137 733.964 L894.137 737.76 L881.66 737.76 L881.66 733.964 Z" fill="#000000" fill-rule="nonzero" fill-opacity="1"></path><path clip-path="url(#clip270)" d="M911.521 717.367 Q907.91 717.367 906.081 720.931 Q904.276 724.473 904.276 731.603 Q904.276 738.709 906.081 742.274 Q907.91 745.815 911.521 745.815 Q915.155 745.815 916.961 742.274 Q918.789 738.709 918.789 731.603 Q918.789 724.473 916.961 720.931 Q915.155 717.367 911.521 717.367 M911.521 713.663 Q917.331 713.663 920.387 718.269 Q923.465 722.853 923.465 731.603 Q923.465 740.329 920.387 744.936 Q917.331 749.519 911.521 749.519 Q905.711 749.519 902.632 744.936 Q899.577 740.329 899.577 731.603 Q899.577 722.853 902.632 718.269 Q905.711 713.663 911.521 713.663 Z" fill="#000000" fill-rule="nonzero" fill-opacity="1"></path><path clip-path="url(#clip270)" d="M932.493 744.913 L940.132 744.913 L940.132 718.547 L931.822 720.214 L931.822 715.955 L940.086 714.288 L944.762 714.288 L944.762 744.913 L952.4 744.913 L952.4 748.848 L932.493 748.848 L932.493 744.913 Z" fill="#000000" fill-rule="nonzero" fill-opacity="1"></path><path clip-path="url(#clip270)" d="M1277.57 744.913 L1293.89 744.913 L1293.89 748.848 L1271.94 748.848 L1271.94 744.913 Q1274.6 742.158 1279.19 737.528 Q1283.79 732.876 1284.97 731.533 Q1287.22 729.01 1288.1 727.274 Q1289 725.515 1289 723.825 Q1289 721.07 1287.06 719.334 Q1285.14 717.598 1282.03 717.598 Q1279.83 717.598 1277.38 718.362 Q1274.95 719.126 1272.17 720.677 L1272.17 715.955 Q1275 714.82 1277.45 714.242 Q1279.9 713.663 1281.94 713.663 Q1287.31 713.663 1290.51 716.348 Q1293.7 719.033 1293.7 723.524 Q1293.7 725.654 1292.89 727.575 Q1292.1 729.473 1290 732.066 Q1289.42 732.737 1286.32 735.954 Q1283.21 739.149 1277.57 744.913 Z" fill="#000000" fill-rule="nonzero" fill-opacity="1"></path><path clip-path="url(#clip270)" d="M1313.7 717.367 Q1310.09 717.367 1308.26 720.931 Q1306.46 724.473 1306.46 731.603 Q1306.46 738.709 1308.26 742.274 Q1310.09 745.815 1313.7 745.815 Q1317.33 745.815 1319.14 742.274 Q1320.97 738.709 1320.97 731.603 Q1320.97 724.473 1319.14 720.931 Q1317.33 717.367 1313.7 717.367 M1313.7 713.663 Q1319.51 713.663 1322.57 718.269 Q1325.64 722.853 1325.64 731.603 Q1325.64 740.329 1322.57 744.936 Q1319.51 749.519 1313.7 749.519 Q1307.89 749.519 1304.81 744.936 Q1301.76 740.329 1301.76 731.603 Q1301.76 722.853 1304.81 718.269 Q1307.89 713.663 1313.7 713.663 Z" fill="#000000" fill-rule="nonzero" fill-opacity="1"></path><path clip-path="url(#clip270)" d="M1337.89 744.913 L1354.21 744.913 L1354.21 748.848 L1332.27 748.848 L1332.27 744.913 Q1334.93 742.158 1339.51 737.528 Q1344.12 732.876 1345.3 731.533 Q1347.54 729.01 1348.42 727.274 Q1349.33 725.515 1349.33 723.825 Q1349.33 721.07 1347.38 719.334 Q1345.46 717.598 1342.36 717.598 Q1340.16 717.598 1337.7 718.362 Q1335.27 719.126 1332.5 720.677 L1332.5 715.955 Q1335.32 714.82 1337.77 714.242 Q1340.23 713.663 1342.27 713.663 Q1347.64 713.663 1350.83 716.348 Q1354.02 719.033 1354.02 723.524 Q1354.02 725.654 1353.21 727.575 Q1352.43 729.473 1350.32 732.066 Q1349.74 732.737 1346.64 735.954 Q1343.54 739.149 1337.89 744.913 Z" fill="#000000" fill-rule="nonzero" fill-opacity="1"></path><path clip-path="url(#clip270)" d="M1368.05 744.913 L1384.37 744.913 L1384.37 748.848 L1362.43 748.848 L1362.43 744.913 Q1365.09 742.158 1369.67 737.528 Q1374.28 732.876 1375.46 731.533 Q1377.7 729.01 1378.58 727.274 Q1379.49 725.515 1379.49 723.825 Q1379.49 721.07 1377.54 719.334 Q1375.62 717.598 1372.52 717.598 Q1370.32 717.598 1367.87 718.362 Q1365.44 719.126 1362.66 720.677 L1362.66 715.955 Q1365.48 714.82 1367.94 714.242 Q1370.39 713.663 1372.43 713.663 Q1377.8 713.663 1380.99 716.348 Q1384.19 719.033 1384.19 723.524 Q1384.19 725.654 1383.38 727.575 Q1382.59 729.473 1380.48 732.066 Q1379.9 732.737 1376.8 735.954 Q1373.7 739.149 1368.05 744.913 Z" fill="#000000" fill-rule="nonzero" fill-opacity="1"></path><path clip-path="url(#clip270)" d="M1391.43 733.964 L1403.91 733.964 L1403.91 737.76 L1391.43 737.76 L1391.43 733.964 Z" fill="#000000" fill-rule="nonzero" fill-opacity="1"></path><path clip-path="url(#clip270)" d="M1421.29 717.367 Q1417.68 717.367 1415.85 720.931 Q1414.05 724.473 1414.05 731.603 Q1414.05 738.709 1415.85 742.274 Q1417.68 745.815 1421.29 745.815 Q1424.93 745.815 1426.73 742.274 Q1428.56 738.709 1428.56 731.603 Q1428.56 724.473 1426.73 720.931 Q1424.93 717.367 1421.29 717.367 M1421.29 713.663 Q1427.1 713.663 1430.16 718.269 Q1433.24 722.853 1433.24 731.603 Q1433.24 740.329 1430.16 744.936 Q1427.1 749.519 1421.29 749.519 Q1415.48 749.519 1412.4 744.936 Q1409.35 740.329 1409.35 731.603 Q1409.35 722.853 1412.4 718.269 Q1415.48 713.663 1421.29 713.663 Z" fill="#000000" fill-rule="nonzero" fill-opacity="1"></path><path clip-path="url(#clip270)" d="M1451.45 732.436 Q1448.12 732.436 1446.2 734.218 Q1444.3 736.001 1444.3 739.126 Q1444.3 742.251 1446.2 744.033 Q1448.12 745.815 1451.45 745.815 Q1454.79 745.815 1456.71 744.033 Q1458.63 742.228 1458.63 739.126 Q1458.63 736.001 1456.71 734.218 Q1454.81 732.436 1451.45 732.436 M1446.78 730.445 Q1443.77 729.704 1442.08 727.644 Q1440.41 725.584 1440.41 722.621 Q1440.41 718.478 1443.35 716.07 Q1446.32 713.663 1451.45 713.663 Q1456.62 713.663 1459.56 716.07 Q1462.5 718.478 1462.5 722.621 Q1462.5 725.584 1460.81 727.644 Q1459.14 729.704 1456.15 730.445 Q1459.53 731.232 1461.41 733.524 Q1463.31 735.816 1463.31 739.126 Q1463.31 744.149 1460.23 746.834 Q1457.17 749.519 1451.45 749.519 Q1445.74 749.519 1442.66 746.834 Q1439.6 744.149 1439.6 739.126 Q1439.6 735.816 1441.5 733.524 Q1443.4 731.232 1446.78 730.445 M1445.07 723.061 Q1445.07 725.746 1446.73 727.251 Q1448.42 728.755 1451.45 728.755 Q1454.46 728.755 1456.15 727.251 Q1457.87 725.746 1457.87 723.061 Q1457.87 720.376 1456.15 718.871 Q1454.46 717.367 1451.45 717.367 Q1448.42 717.367 1446.73 718.871 Q1445.07 720.376 1445.07 723.061 Z" fill="#000000" fill-rule="nonzero" fill-opacity="1"></path><path clip-path="url(#clip270)" d="M1468.86 733.964 L1481.34 733.964 L1481.34 737.76 L1468.86 737.76 L1468.86 733.964 Z" fill="#000000" fill-rule="nonzero" fill-opacity="1"></path><path clip-path="url(#clip270)" d="M1498.72 717.367 Q1495.11 717.367 1493.28 720.931 Q1491.48 724.473 1491.48 731.603 Q1491.48 738.709 1493.28 742.274 Q1495.11 745.815 1498.72 745.815 Q1502.36 745.815 1504.16 742.274 Q1505.99 738.709 1505.99 731.603 Q1505.99 724.473 1504.16 720.931 Q1502.36 717.367 1498.72 717.367 M1498.72 713.663 Q1504.53 713.663 1507.59 718.269 Q1510.67 722.853 1510.67 731.603 Q1510.67 740.329 1507.59 744.936 Q1504.53 749.519 1498.72 749.519 Q1492.91 749.519 1489.83 744.936 Q1486.78 740.329 1486.78 731.603 Q1486.78 722.853 1489.83 718.269 Q1492.91 713.663 1498.72 713.663 Z" fill="#000000" fill-rule="nonzero" fill-opacity="1"></path><path clip-path="url(#clip270)" d="M1519.69 744.913 L1527.33 744.913 L1527.33 718.547 L1519.02 720.214 L1519.02 715.955 L1527.29 714.288 L1531.96 714.288 L1531.96 744.913 L1539.6 744.913 L1539.6 748.848 L1519.69 748.848 L1519.69 744.913 Z" fill="#000000" fill-rule="nonzero" fill-opacity="1"></path><path clip-path="url(#clip270)" d="M1874.5 744.913 L1890.82 744.913 L1890.82 748.848 L1868.88 748.848 L1868.88 744.913 Q1871.54 742.158 1876.12 737.528 Q1880.73 732.876 1881.91 731.533 Q1884.15 729.01 1885.03 727.274 Q1885.94 725.515 1885.94 723.825 Q1885.94 721.07 1883.99 719.334 Q1882.07 717.598 1878.97 717.598 Q1876.77 717.598 1874.32 718.362 Q1871.88 719.126 1869.11 720.677 L1869.11 715.955 Q1871.93 714.82 1874.38 714.242 Q1876.84 713.663 1878.88 713.663 Q1884.25 713.663 1887.44 716.348 Q1890.63 719.033 1890.63 723.524 Q1890.63 725.654 1889.82 727.575 Q1889.04 729.473 1886.93 732.066 Q1886.35 732.737 1883.25 735.954 Q1880.15 739.149 1874.5 744.913 Z" fill="#000000" fill-rule="nonzero" fill-opacity="1"></path><path clip-path="url(#clip270)" d="M1910.63 717.367 Q1907.02 717.367 1905.19 720.931 Q1903.39 724.473 1903.39 731.603 Q1903.39 738.709 1905.19 742.274 Q1907.02 745.815 1910.63 745.815 Q1914.27 745.815 1916.07 742.274 Q1917.9 738.709 1917.9 731.603 Q1917.9 724.473 1916.07 720.931 Q1914.27 717.367 1910.63 717.367 M1910.63 713.663 Q1916.44 713.663 1919.5 718.269 Q1922.58 722.853 1922.58 731.603 Q1922.58 740.329 1919.5 744.936 Q1916.44 749.519 1910.63 749.519 Q1904.82 749.519 1901.75 744.936 Q1898.69 740.329 1898.69 731.603 Q1898.69 722.853 1901.75 718.269 Q1904.82 713.663 1910.63 713.663 Z" fill="#000000" fill-rule="nonzero" fill-opacity="1"></path><path clip-path="url(#clip270)" d="M1934.82 744.913 L1951.14 744.913 L1951.14 748.848 L1929.2 748.848 L1929.2 744.913 Q1931.86 742.158 1936.44 737.528 Q1941.05 732.876 1942.23 731.533 Q1944.48 729.01 1945.36 727.274 Q1946.26 725.515 1946.26 723.825 Q1946.26 721.07 1944.32 719.334 Q1942.39 717.598 1939.29 717.598 Q1937.09 717.598 1934.64 718.362 Q1932.21 719.126 1929.43 720.677 L1929.43 715.955 Q1932.25 714.82 1934.71 714.242 Q1937.16 713.663 1939.2 713.663 Q1944.57 713.663 1947.76 716.348 Q1950.96 719.033 1950.96 723.524 Q1950.96 725.654 1950.15 727.575 Q1949.36 729.473 1947.25 732.066 Q1946.68 732.737 1943.57 735.954 Q1940.47 739.149 1934.82 744.913 Z" fill="#000000" fill-rule="nonzero" fill-opacity="1"></path><path clip-path="url(#clip270)" d="M1975.13 730.214 Q1978.48 730.931 1980.36 733.2 Q1982.25 735.468 1982.25 738.802 Q1982.25 743.917 1978.74 746.718 Q1975.22 749.519 1968.74 749.519 Q1966.56 749.519 1964.25 749.079 Q1961.95 748.663 1959.5 747.806 L1959.5 743.292 Q1961.44 744.427 1963.76 745.005 Q1966.07 745.584 1968.6 745.584 Q1973 745.584 1975.29 743.848 Q1977.6 742.112 1977.6 738.802 Q1977.6 735.746 1975.45 734.033 Q1973.32 732.297 1969.5 732.297 L1965.47 732.297 L1965.47 728.454 L1969.69 728.454 Q1973.13 728.454 1974.96 727.089 Q1976.79 725.7 1976.79 723.107 Q1976.79 720.445 1974.89 719.033 Q1973.02 717.598 1969.5 717.598 Q1967.58 717.598 1965.38 718.015 Q1963.18 718.431 1960.54 719.311 L1960.54 715.144 Q1963.2 714.404 1965.52 714.033 Q1967.86 713.663 1969.92 713.663 Q1975.24 713.663 1978.34 716.093 Q1981.44 718.501 1981.44 722.621 Q1981.44 725.492 1979.8 727.482 Q1978.16 729.45 1975.13 730.214 Z" fill="#000000" fill-rule="nonzero" fill-opacity="1"></path><path clip-path="url(#clip270)" d="M1988.37 733.964 L2000.84 733.964 L2000.84 737.76 L1988.37 737.76 L1988.37 733.964 Z" fill="#000000" fill-rule="nonzero" fill-opacity="1"></path><path clip-path="url(#clip270)" d="M2018.23 717.367 Q2014.62 717.367 2012.79 720.931 Q2010.98 724.473 2010.98 731.603 Q2010.98 738.709 2012.79 742.274 Q2014.62 745.815 2018.23 745.815 Q2021.86 745.815 2023.67 742.274 Q2025.5 738.709 2025.5 731.603 Q2025.5 724.473 2023.67 720.931 Q2021.86 717.367 2018.23 717.367 M2018.23 713.663 Q2024.04 713.663 2027.09 718.269 Q2030.17 722.853 2030.17 731.603 Q2030.17 740.329 2027.09 744.936 Q2024.04 749.519 2018.23 749.519 Q2012.42 749.519 2009.34 744.936 Q2006.28 740.329 2006.28 731.603 Q2006.28 722.853 2009.34 718.269 Q2012.42 713.663 2018.23 713.663 Z" fill="#000000" fill-rule="nonzero" fill-opacity="1"></path><path clip-path="url(#clip270)" d="M2042.42 744.913 L2058.74 744.913 L2058.74 748.848 L2036.79 748.848 L2036.79 744.913 Q2039.45 742.158 2044.04 737.528 Q2048.64 732.876 2049.82 731.533 Q2052.07 729.01 2052.95 727.274 Q2053.85 725.515 2053.85 723.825 Q2053.85 721.07 2051.91 719.334 Q2049.99 717.598 2046.88 717.598 Q2044.68 717.598 2042.23 718.362 Q2039.8 719.126 2037.02 720.677 L2037.02 715.955 Q2039.85 714.82 2042.3 714.242 Q2044.75 713.663 2046.79 713.663 Q2052.16 713.663 2055.36 716.348 Q2058.55 719.033 2058.55 723.524 Q2058.55 725.654 2057.74 727.575 Q2056.95 729.473 2054.85 732.066 Q2054.27 732.737 2051.17 735.954 Q2048.06 739.149 2042.42 744.913 Z" fill="#000000" fill-rule="nonzero" fill-opacity="1"></path><path clip-path="url(#clip270)" d="M2065.8 733.964 L2078.27 733.964 L2078.27 737.76 L2065.8 737.76 L2065.8 733.964 Z" fill="#000000" fill-rule="nonzero" fill-opacity="1"></path><path clip-path="url(#clip270)" d="M2095.66 717.367 Q2092.05 717.367 2090.22 720.931 Q2088.41 724.473 2088.41 731.603 Q2088.41 738.709 2090.22 742.274 Q2092.05 745.815 2095.66 745.815 Q2099.29 745.815 2101.1 742.274 Q2102.93 738.709 2102.93 731.603 Q2102.93 724.473 2101.1 720.931 Q2099.29 717.367 2095.66 717.367 M2095.66 713.663 Q2101.47 713.663 2104.52 718.269 Q2107.6 722.853 2107.6 731.603 Q2107.6 740.329 2104.52 744.936 Q2101.47 749.519 2095.66 749.519 Q2089.85 749.519 2086.77 744.936 Q2083.71 740.329 2083.71 731.603 Q2083.71 722.853 2086.77 718.269 Q2089.85 713.663 2095.66 713.663 Z" fill="#000000" fill-rule="nonzero" fill-opacity="1"></path><path clip-path="url(#clip270)" d="M2116.63 744.913 L2124.27 744.913 L2124.27 718.547 L2115.96 720.214 L2115.96 715.955 L2124.22 714.288 L2128.9 714.288 L2128.9 744.913 L2136.54 744.913 L2136.54 748.848 L2116.63 748.848 L2116.63 744.913 Z" fill="#000000" fill-rule="nonzero" fill-opacity="1"></path><polyline clip-path="url(#clip272)" style="stroke:#000000; stroke-linecap:round; stroke-linejoin:round; stroke-width:2; stroke-opacity:0.1; fill:none" points="186.274,668.357 2352.76,668.357 "></polyline>
<polyline clip-path="url(#clip272)" style="stroke:#000000; stroke-linecap:round; stroke-linejoin:round; stroke-width:2; stroke-opacity:0.1; fill:none" points="186.274,517.602 2352.76,517.602 "></polyline>
<polyline clip-path="url(#clip272)" style="stroke:#000000; stroke-linecap:round; stroke-linejoin:round; stroke-width:2; stroke-opacity:0.1; fill:none" points="186.274,366.846 2352.76,366.846 "></polyline>
<polyline clip-path="url(#clip272)" style="stroke:#000000; stroke-linecap:round; stroke-linejoin:round; stroke-width:2; stroke-opacity:0.1; fill:none" points="186.274,216.09 2352.76,216.09 "></polyline>
<polyline clip-path="url(#clip272)" style="stroke:#000000; stroke-linecap:round; stroke-linejoin:round; stroke-width:2; stroke-opacity:0.1; fill:none" points="186.274,65.3348 2352.76,65.3348 "></polyline>
<polyline clip-path="url(#clip270)" style="stroke:#000000; stroke-linecap:round; stroke-linejoin:round; stroke-width:4; stroke-opacity:1; fill:none" points="186.274,686.448 186.274,47.2441 "></polyline>
<polyline clip-path="url(#clip270)" style="stroke:#000000; stroke-linecap:round; stroke-linejoin:round; stroke-width:4; stroke-opacity:1; fill:none" points="186.274,668.357 205.172,668.357 "></polyline>
<polyline clip-path="url(#clip270)" style="stroke:#000000; stroke-linecap:round; stroke-linejoin:round; stroke-width:4; stroke-opacity:1; fill:none" points="186.274,517.602 205.172,517.602 "></polyline>
<polyline clip-path="url(#clip270)" style="stroke:#000000; stroke-linecap:round; stroke-linejoin:round; stroke-width:4; stroke-opacity:1; fill:none" points="186.274,366.846 205.172,366.846 "></polyline>
<polyline clip-path="url(#clip270)" style="stroke:#000000; stroke-linecap:round; stroke-linejoin:round; stroke-width:4; stroke-opacity:1; fill:none" points="186.274,216.09 205.172,216.09 "></polyline>
<polyline clip-path="url(#clip270)" style="stroke:#000000; stroke-linecap:round; stroke-linejoin:round; stroke-width:4; stroke-opacity:1; fill:none" points="186.274,65.3348 205.172,65.3348 "></polyline>
<path clip-path="url(#clip270)" d="M62.9365 654.156 Q59.3254 654.156 57.4967 657.721 Q55.6912 661.262 55.6912 668.392 Q55.6912 675.498 57.4967 679.063 Q59.3254 682.605 62.9365 682.605 Q66.5707 682.605 68.3763 679.063 Q70.205 675.498 70.205 668.392 Q70.205 661.262 68.3763 657.721 Q66.5707 654.156 62.9365 654.156 M62.9365 650.452 Q68.7467 650.452 71.8022 655.059 Q74.8809 659.642 74.8809 668.392 Q74.8809 677.119 71.8022 681.725 Q68.7467 686.308 62.9365 686.308 Q57.1264 686.308 54.0477 681.725 Q50.9921 677.119 50.9921 668.392 Q50.9921 659.642 54.0477 655.059 Q57.1264 650.452 62.9365 650.452 Z" fill="#000000" fill-rule="nonzero" fill-opacity="1"></path><path clip-path="url(#clip270)" d="M83.0984 679.758 L87.9827 679.758 L87.9827 685.637 L83.0984 685.637 L83.0984 679.758 Z" fill="#000000" fill-rule="nonzero" fill-opacity="1"></path><path clip-path="url(#clip270)" d="M108.168 654.156 Q104.557 654.156 102.728 657.721 Q100.922 661.262 100.922 668.392 Q100.922 675.498 102.728 679.063 Q104.557 682.605 108.168 682.605 Q111.802 682.605 113.608 679.063 Q115.436 675.498 115.436 668.392 Q115.436 661.262 113.608 657.721 Q111.802 654.156 108.168 654.156 M108.168 650.452 Q113.978 650.452 117.033 655.059 Q120.112 659.642 120.112 668.392 Q120.112 677.119 117.033 681.725 Q113.978 686.308 108.168 686.308 Q102.358 686.308 99.2789 681.725 Q96.2234 677.119 96.2234 668.392 Q96.2234 659.642 99.2789 655.059 Q102.358 650.452 108.168 650.452 Z" fill="#000000" fill-rule="nonzero" fill-opacity="1"></path><path clip-path="url(#clip270)" d="M138.33 654.156 Q134.719 654.156 132.89 657.721 Q131.084 661.262 131.084 668.392 Q131.084 675.498 132.89 679.063 Q134.719 682.605 138.33 682.605 Q141.964 682.605 143.769 679.063 Q145.598 675.498 145.598 668.392 Q145.598 661.262 143.769 657.721 Q141.964 654.156 138.33 654.156 M138.33 650.452 Q144.14 650.452 147.195 655.059 Q150.274 659.642 150.274 668.392 Q150.274 677.119 147.195 681.725 Q144.14 686.308 138.33 686.308 Q132.519 686.308 129.441 681.725 Q126.385 677.119 126.385 668.392 Q126.385 659.642 129.441 655.059 Q132.519 650.452 138.33 650.452 Z" fill="#000000" fill-rule="nonzero" fill-opacity="1"></path><path clip-path="url(#clip270)" d="M63.9319 503.4 Q60.3208 503.4 58.4921 506.965 Q56.6865 510.507 56.6865 517.636 Q56.6865 524.743 58.4921 528.308 Q60.3208 531.849 63.9319 531.849 Q67.5661 531.849 69.3717 528.308 Q71.2004 524.743 71.2004 517.636 Q71.2004 510.507 69.3717 506.965 Q67.5661 503.4 63.9319 503.4 M63.9319 499.697 Q69.742 499.697 72.7976 504.303 Q75.8763 508.886 75.8763 517.636 Q75.8763 526.363 72.7976 530.97 Q69.742 535.553 63.9319 535.553 Q58.1217 535.553 55.043 530.97 Q51.9875 526.363 51.9875 517.636 Q51.9875 508.886 55.043 504.303 Q58.1217 499.697 63.9319 499.697 Z" fill="#000000" fill-rule="nonzero" fill-opacity="1"></path><path clip-path="url(#clip270)" d="M84.0938 529.002 L88.978 529.002 L88.978 534.882 L84.0938 534.882 L84.0938 529.002 Z" fill="#000000" fill-rule="nonzero" fill-opacity="1"></path><path clip-path="url(#clip270)" d="M103.191 530.946 L119.51 530.946 L119.51 534.882 L97.566 534.882 L97.566 530.946 Q100.228 528.192 104.811 523.562 Q109.418 518.909 110.598 517.567 Q112.844 515.044 113.723 513.308 Q114.626 511.548 114.626 509.859 Q114.626 507.104 112.682 505.368 Q110.76 503.632 107.658 503.632 Q105.459 503.632 103.006 504.396 Q100.575 505.16 97.7974 506.71 L97.7974 501.988 Q100.621 500.854 103.075 500.275 Q105.529 499.697 107.566 499.697 Q112.936 499.697 116.131 502.382 Q119.325 505.067 119.325 509.558 Q119.325 511.687 118.515 513.609 Q117.728 515.507 115.621 518.099 Q115.043 518.771 111.941 521.988 Q108.839 525.183 103.191 530.946 Z" fill="#000000" fill-rule="nonzero" fill-opacity="1"></path><path clip-path="url(#clip270)" d="M129.371 500.322 L147.728 500.322 L147.728 504.257 L133.654 504.257 L133.654 512.729 Q134.672 512.382 135.691 512.22 Q136.709 512.034 137.728 512.034 Q143.515 512.034 146.894 515.206 Q150.274 518.377 150.274 523.794 Q150.274 529.372 146.802 532.474 Q143.33 535.553 137.01 535.553 Q134.834 535.553 132.566 535.183 Q130.32 534.812 127.913 534.071 L127.913 529.372 Q129.996 530.507 132.219 531.062 Q134.441 531.618 136.918 531.618 Q140.922 531.618 143.26 529.511 Q145.598 527.405 145.598 523.794 Q145.598 520.183 143.26 518.076 Q140.922 515.97 136.918 515.97 Q135.043 515.97 133.168 516.386 Q131.316 516.803 129.371 517.683 L129.371 500.322 Z" fill="#000000" fill-rule="nonzero" fill-opacity="1"></path><path clip-path="url(#clip270)" d="M62.9365 352.645 Q59.3254 352.645 57.4967 356.209 Q55.6912 359.751 55.6912 366.881 Q55.6912 373.987 57.4967 377.552 Q59.3254 381.094 62.9365 381.094 Q66.5707 381.094 68.3763 377.552 Q70.205 373.987 70.205 366.881 Q70.205 359.751 68.3763 356.209 Q66.5707 352.645 62.9365 352.645 M62.9365 348.941 Q68.7467 348.941 71.8022 353.547 Q74.8809 358.131 74.8809 366.881 Q74.8809 375.608 71.8022 380.214 Q68.7467 384.797 62.9365 384.797 Q57.1264 384.797 54.0477 380.214 Q50.9921 375.608 50.9921 366.881 Q50.9921 358.131 54.0477 353.547 Q57.1264 348.941 62.9365 348.941 Z" fill="#000000" fill-rule="nonzero" fill-opacity="1"></path><path clip-path="url(#clip270)" d="M83.0984 378.246 L87.9827 378.246 L87.9827 384.126 L83.0984 384.126 L83.0984 378.246 Z" fill="#000000" fill-rule="nonzero" fill-opacity="1"></path><path clip-path="url(#clip270)" d="M98.2141 349.566 L116.57 349.566 L116.57 353.501 L102.496 353.501 L102.496 361.973 Q103.515 361.626 104.534 361.464 Q105.552 361.279 106.571 361.279 Q112.358 361.279 115.737 364.45 Q119.117 367.621 119.117 373.038 Q119.117 378.617 115.645 381.719 Q112.172 384.797 105.853 384.797 Q103.677 384.797 101.409 384.427 Q99.1632 384.057 96.7558 383.316 L96.7558 378.617 Q98.8391 379.751 101.061 380.307 Q103.284 380.862 105.76 380.862 Q109.765 380.862 112.103 378.756 Q114.441 376.649 114.441 373.038 Q114.441 369.427 112.103 367.321 Q109.765 365.214 105.76 365.214 Q103.885 365.214 102.01 365.631 Q100.159 366.047 98.2141 366.927 L98.2141 349.566 Z" fill="#000000" fill-rule="nonzero" fill-opacity="1"></path><path clip-path="url(#clip270)" d="M138.33 352.645 Q134.719 352.645 132.89 356.209 Q131.084 359.751 131.084 366.881 Q131.084 373.987 132.89 377.552 Q134.719 381.094 138.33 381.094 Q141.964 381.094 143.769 377.552 Q145.598 373.987 145.598 366.881 Q145.598 359.751 143.769 356.209 Q141.964 352.645 138.33 352.645 M138.33 348.941 Q144.14 348.941 147.195 353.547 Q150.274 358.131 150.274 366.881 Q150.274 375.608 147.195 380.214 Q144.14 384.797 138.33 384.797 Q132.519 384.797 129.441 380.214 Q126.385 375.608 126.385 366.881 Q126.385 358.131 129.441 353.547 Q132.519 348.941 138.33 348.941 Z" fill="#000000" fill-rule="nonzero" fill-opacity="1"></path><path clip-path="url(#clip270)" d="M63.9319 201.889 Q60.3208 201.889 58.4921 205.454 Q56.6865 208.996 56.6865 216.125 Q56.6865 223.232 58.4921 226.796 Q60.3208 230.338 63.9319 230.338 Q67.5661 230.338 69.3717 226.796 Q71.2004 223.232 71.2004 216.125 Q71.2004 208.996 69.3717 205.454 Q67.5661 201.889 63.9319 201.889 M63.9319 198.185 Q69.742 198.185 72.7976 202.792 Q75.8763 207.375 75.8763 216.125 Q75.8763 224.852 72.7976 229.458 Q69.742 234.042 63.9319 234.042 Q58.1217 234.042 55.043 229.458 Q51.9875 224.852 51.9875 216.125 Q51.9875 207.375 55.043 202.792 Q58.1217 198.185 63.9319 198.185 Z" fill="#000000" fill-rule="nonzero" fill-opacity="1"></path><path clip-path="url(#clip270)" d="M84.0938 227.491 L88.978 227.491 L88.978 233.37 L84.0938 233.37 L84.0938 227.491 Z" fill="#000000" fill-rule="nonzero" fill-opacity="1"></path><path clip-path="url(#clip270)" d="M97.9826 198.81 L120.205 198.81 L120.205 200.801 L107.658 233.37 L102.774 233.37 L114.58 202.746 L97.9826 202.746 L97.9826 198.81 Z" fill="#000000" fill-rule="nonzero" fill-opacity="1"></path><path clip-path="url(#clip270)" d="M129.371 198.81 L147.728 198.81 L147.728 202.746 L133.654 202.746 L133.654 211.218 Q134.672 210.87 135.691 210.708 Q136.709 210.523 137.728 210.523 Q143.515 210.523 146.894 213.695 Q150.274 216.866 150.274 222.282 Q150.274 227.861 146.802 230.963 Q143.33 234.042 137.01 234.042 Q134.834 234.042 132.566 233.671 Q130.32 233.301 127.913 232.56 L127.913 227.861 Q129.996 228.995 132.219 229.551 Q134.441 230.107 136.918 230.107 Q140.922 230.107 143.26 228 Q145.598 225.894 145.598 222.282 Q145.598 218.671 143.26 216.565 Q140.922 214.458 136.918 214.458 Q135.043 214.458 133.168 214.875 Q131.316 215.292 129.371 216.171 L129.371 198.81 Z" fill="#000000" fill-rule="nonzero" fill-opacity="1"></path><path clip-path="url(#clip270)" d="M53.7467 78.6796 L61.3856 78.6796 L61.3856 52.314 L53.0754 53.9807 L53.0754 49.7214 L61.3393 48.0548 L66.0152 48.0548 L66.0152 78.6796 L73.654 78.6796 L73.654 82.6148 L53.7467 82.6148 L53.7467 78.6796 Z" fill="#000000" fill-rule="nonzero" fill-opacity="1"></path><path clip-path="url(#clip270)" d="M83.0984 76.7352 L87.9827 76.7352 L87.9827 82.6148 L83.0984 82.6148 L83.0984 76.7352 Z" fill="#000000" fill-rule="nonzero" fill-opacity="1"></path><path clip-path="url(#clip270)" d="M108.168 51.1335 Q104.557 51.1335 102.728 54.6983 Q100.922 58.2399 100.922 65.3695 Q100.922 72.4759 102.728 76.0407 Q104.557 79.5824 108.168 79.5824 Q111.802 79.5824 113.608 76.0407 Q115.436 72.4759 115.436 65.3695 Q115.436 58.2399 113.608 54.6983 Q111.802 51.1335 108.168 51.1335 M108.168 47.4298 Q113.978 47.4298 117.033 52.0362 Q120.112 56.6195 120.112 65.3695 Q120.112 74.0963 117.033 78.7028 Q113.978 83.2861 108.168 83.2861 Q102.358 83.2861 99.2789 78.7028 Q96.2234 74.0963 96.2234 65.3695 Q96.2234 56.6195 99.2789 52.0362 Q102.358 47.4298 108.168 47.4298 Z" fill="#000000" fill-rule="nonzero" fill-opacity="1"></path><path clip-path="url(#clip270)" d="M138.33 51.1335 Q134.719 51.1335 132.89 54.6983 Q131.084 58.2399 131.084 65.3695 Q131.084 72.4759 132.89 76.0407 Q134.719 79.5824 138.33 79.5824 Q141.964 79.5824 143.769 76.0407 Q145.598 72.4759 145.598 65.3695 Q145.598 58.2399 143.769 54.6983 Q141.964 51.1335 138.33 51.1335 M138.33 47.4298 Q144.14 47.4298 147.195 52.0362 Q150.274 56.6195 150.274 65.3695 Q150.274 74.0963 147.195 78.7028 Q144.14 83.2861 138.33 83.2861 Q132.519 83.2861 129.441 78.7028 Q126.385 74.0963 126.385 65.3695 Q126.385 56.6195 129.441 52.0362 Q132.519 47.4298 138.33 47.4298 Z" fill="#000000" fill-rule="nonzero" fill-opacity="1"></path><polyline clip-path="url(#clip272)" style="stroke:#ffa500; stroke-linecap:round; stroke-linejoin:round; stroke-width:8; stroke-opacity:1; fill:none" points="247.59,65.3348 270.299,65.3348 293.008,65.3348 315.718,65.3348 338.427,65.3348 361.137,65.3348 383.846,65.3348 406.556,668.357 429.265,65.3348 451.975,65.3348 474.684,65.3348 497.394,65.3348 520.103,65.3348 542.812,65.3348 565.522,65.3348 588.231,65.3348 610.941,65.3348 633.65,65.3348 656.36,65.3348 679.069,65.3348 701.779,65.3348 724.488,65.3348 747.198,65.3348 769.907,668.357 792.616,65.3348 815.326,65.3348 838.035,668.357 860.745,668.357 883.454,65.3348 906.164,65.3348 928.873,668.357 951.583,65.3348 974.292,668.357 997.002,65.3348 1019.71,65.3348 1042.42,65.3348 1065.13,668.357 1087.84,668.357 1110.55,65.3348 1133.26,668.357 1155.97,668.357 1178.68,65.3348 1201.39,65.3348 1224.1,668.357 1246.81,668.357 1269.51,65.3348 1292.22,65.3348 1314.93,65.3348 1337.64,65.3348 1360.35,65.3348 1383.06,65.3348 1405.77,65.3348 1428.48,65.3348 1451.19,65.3348 1473.9,65.3348 1496.61,668.357 1519.32,65.3348 1542.03,668.357 1564.74,668.357 1587.45,668.357 1610.16,65.3348 1632.87,668.357 1655.58,65.3348 1678.29,668.357 1700.99,65.3348 1723.7,65.3348 1746.41,65.3348 1769.12,65.3348 1791.83,65.3348 1814.54,65.3348 1837.25,668.357 1859.96,65.3348 1882.67,65.3348 1905.38,65.3348 1928.09,65.3348 1950.8,65.3348 1973.51,65.3348 1996.22,65.3348 2018.93,65.3348 2041.64,65.3348 2064.35,668.357 2087.06,65.3348 2109.76,668.357 2132.47,65.3348 2155.18,65.3348 2177.89,65.3348 2200.6,65.3348 2223.31,65.3348 2246.02,65.3348 2268.73,65.3348 2291.44,65.3348 "></polyline>
<path clip-path="url(#clip270)" d="M258.49 665.141 L553.865 665.141 L553.865 561.461 L258.49 561.461  Z" fill="#ffffff" fill-rule="evenodd" fill-opacity="1"></path>
<polyline clip-path="url(#clip270)" style="stroke:#000000; stroke-linecap:round; stroke-linejoin:round; stroke-width:4; stroke-opacity:1; fill:none" points="258.49,665.141 553.865,665.141 553.865,561.461 258.49,561.461 258.49,665.141 "></polyline>
<polyline clip-path="url(#clip270)" style="stroke:#ffa500; stroke-linecap:round; stroke-linejoin:round; stroke-width:8; stroke-opacity:1; fill:none" points="282.562,613.301 426.994,613.301 "></polyline>
<path clip-path="url(#clip270)" d="M469.492 605.419 L469.492 609.447 Q467.687 608.521 465.742 608.058 Q463.798 607.595 461.714 607.595 Q458.543 607.595 456.946 608.567 Q455.372 609.54 455.372 611.484 Q455.372 612.965 456.506 613.822 Q457.64 614.655 461.066 615.419 L462.525 615.743 Q467.062 616.715 468.96 618.498 Q470.881 620.257 470.881 623.428 Q470.881 627.039 468.011 629.146 Q465.163 631.252 460.163 631.252 Q458.08 631.252 455.812 630.836 Q453.566 630.442 451.066 629.632 L451.066 625.234 Q453.427 626.461 455.719 627.086 Q458.011 627.688 460.256 627.688 Q463.265 627.688 464.886 626.669 Q466.506 625.627 466.506 623.752 Q466.506 622.016 465.325 621.09 Q464.168 620.164 460.21 619.308 L458.728 618.961 Q454.77 618.127 453.011 616.414 Q451.251 614.678 451.251 611.669 Q451.251 608.012 453.844 606.021 Q456.437 604.03 461.205 604.03 Q463.566 604.03 465.649 604.378 Q467.733 604.725 469.492 605.419 Z" fill="#000000" fill-rule="nonzero" fill-opacity="1"></path><path clip-path="url(#clip270)" d="M481.784 626.692 L481.784 640.442 L477.501 640.442 L477.501 604.655 L481.784 604.655 L481.784 608.59 Q483.126 606.276 485.163 605.165 Q487.223 604.03 490.071 604.03 Q494.793 604.03 497.733 607.78 Q500.696 611.53 500.696 617.641 Q500.696 623.752 497.733 627.502 Q494.793 631.252 490.071 631.252 Q487.223 631.252 485.163 630.141 Q483.126 629.007 481.784 626.692 M496.274 617.641 Q496.274 612.942 494.33 610.28 Q492.409 607.595 489.029 607.595 Q485.649 607.595 483.705 610.28 Q481.784 612.942 481.784 617.641 Q481.784 622.34 483.705 625.026 Q485.649 627.688 489.029 627.688 Q492.409 627.688 494.33 625.026 Q496.274 622.34 496.274 617.641 Z" fill="#000000" fill-rule="nonzero" fill-opacity="1"></path><path clip-path="url(#clip270)" d="M529.307 604.655 L519.932 617.271 L529.793 630.581 L524.77 630.581 L517.223 620.396 L509.677 630.581 L504.654 630.581 L514.723 617.016 L505.51 604.655 L510.534 604.655 L517.408 613.891 L524.283 604.655 L529.307 604.655 Z" fill="#000000" fill-rule="nonzero" fill-opacity="1"></path><path clip-path="url(#clip270)" d="M186.274 1486.45 L2352.76 1486.45 L2352.76 847.244 L186.274 847.244  Z" fill="#ffffff" fill-rule="evenodd" fill-opacity="1"></path>
<defs>
  <clipPath id="clip273">
    <rect x="186" y="847" width="2167" height="640"></rect>
  </clipPath>
</defs>
<polyline clip-path="url(#clip273)" style="stroke:#000000; stroke-linecap:round; stroke-linejoin:round; stroke-width:2; stroke-opacity:0.1; fill:none" points="221.636,1486.45 221.636,847.244 "></polyline>
<polyline clip-path="url(#clip273)" style="stroke:#000000; stroke-linecap:round; stroke-linejoin:round; stroke-width:2; stroke-opacity:0.1; fill:none" points="818.57,1486.45 818.57,847.244 "></polyline>
<polyline clip-path="url(#clip273)" style="stroke:#000000; stroke-linecap:round; stroke-linejoin:round; stroke-width:2; stroke-opacity:0.1; fill:none" points="1405.77,1486.45 1405.77,847.244 "></polyline>
<polyline clip-path="url(#clip273)" style="stroke:#000000; stroke-linecap:round; stroke-linejoin:round; stroke-width:2; stroke-opacity:0.1; fill:none" points="2002.71,1486.45 2002.71,847.244 "></polyline>
<polyline clip-path="url(#clip270)" style="stroke:#000000; stroke-linecap:round; stroke-linejoin:round; stroke-width:4; stroke-opacity:1; fill:none" points="186.274,1486.45 2352.76,1486.45 "></polyline>
<polyline clip-path="url(#clip270)" style="stroke:#000000; stroke-linecap:round; stroke-linejoin:round; stroke-width:4; stroke-opacity:1; fill:none" points="221.636,1486.45 221.636,1467.55 "></polyline>
<polyline clip-path="url(#clip270)" style="stroke:#000000; stroke-linecap:round; stroke-linejoin:round; stroke-width:4; stroke-opacity:1; fill:none" points="818.57,1486.45 818.57,1467.55 "></polyline>
<polyline clip-path="url(#clip270)" style="stroke:#000000; stroke-linecap:round; stroke-linejoin:round; stroke-width:4; stroke-opacity:1; fill:none" points="1405.77,1486.45 1405.77,1467.55 "></polyline>
<polyline clip-path="url(#clip270)" style="stroke:#000000; stroke-linecap:round; stroke-linejoin:round; stroke-width:4; stroke-opacity:1; fill:none" points="2002.71,1486.45 2002.71,1467.55 "></polyline>
<path clip-path="url(#clip270)" d="M93.4305 1544.91 L109.75 1544.91 L109.75 1548.85 L87.8056 1548.85 L87.8056 1544.91 Q90.4676 1542.16 95.0509 1537.53 Q99.6574 1532.88 100.838 1531.53 Q103.083 1529.01 103.963 1527.27 Q104.866 1525.51 104.866 1523.82 Q104.866 1521.07 102.921 1519.33 Q101 1517.6 97.8981 1517.6 Q95.699 1517.6 93.2453 1518.36 Q90.8148 1519.13 88.037 1520.68 L88.037 1515.95 Q90.8611 1514.82 93.3148 1514.24 Q95.7685 1513.66 97.8055 1513.66 Q103.176 1513.66 106.37 1516.35 Q109.565 1519.03 109.565 1523.52 Q109.565 1525.65 108.755 1527.57 Q107.967 1529.47 105.861 1532.07 Q105.282 1532.74 102.18 1535.95 Q99.0787 1539.15 93.4305 1544.91 Z" fill="#000000" fill-rule="nonzero" fill-opacity="1"></path><path clip-path="url(#clip270)" d="M129.565 1517.37 Q125.954 1517.37 124.125 1520.93 Q122.319 1524.47 122.319 1531.6 Q122.319 1538.71 124.125 1542.27 Q125.954 1545.82 129.565 1545.82 Q133.199 1545.82 135.004 1542.27 Q136.833 1538.71 136.833 1531.6 Q136.833 1524.47 135.004 1520.93 Q133.199 1517.37 129.565 1517.37 M129.565 1513.66 Q135.375 1513.66 138.43 1518.27 Q141.509 1522.85 141.509 1531.6 Q141.509 1540.33 138.43 1544.94 Q135.375 1549.52 129.565 1549.52 Q123.754 1549.52 120.676 1544.94 Q117.62 1540.33 117.62 1531.6 Q117.62 1522.85 120.676 1518.27 Q123.754 1513.66 129.565 1513.66 Z" fill="#000000" fill-rule="nonzero" fill-opacity="1"></path><path clip-path="url(#clip270)" d="M153.754 1544.91 L170.074 1544.91 L170.074 1548.85 L148.129 1548.85 L148.129 1544.91 Q150.791 1542.16 155.375 1537.53 Q159.981 1532.88 161.162 1531.53 Q163.407 1529.01 164.287 1527.27 Q165.189 1525.51 165.189 1523.82 Q165.189 1521.07 163.245 1519.33 Q161.324 1517.6 158.222 1517.6 Q156.023 1517.6 153.569 1518.36 Q151.139 1519.13 148.361 1520.68 L148.361 1515.95 Q151.185 1514.82 153.639 1514.24 Q156.092 1513.66 158.129 1513.66 Q163.5 1513.66 166.694 1516.35 Q169.888 1519.03 169.888 1523.52 Q169.888 1525.65 169.078 1527.57 Q168.291 1529.47 166.185 1532.07 Q165.606 1532.74 162.504 1535.95 Q159.402 1539.15 153.754 1544.91 Z" fill="#000000" fill-rule="nonzero" fill-opacity="1"></path><path clip-path="url(#clip270)" d="M180.699 1544.91 L188.337 1544.91 L188.337 1518.55 L180.027 1520.21 L180.027 1515.95 L188.291 1514.29 L192.967 1514.29 L192.967 1544.91 L200.606 1544.91 L200.606 1548.85 L180.699 1548.85 L180.699 1544.91 Z" fill="#000000" fill-rule="nonzero" fill-opacity="1"></path><path clip-path="url(#clip270)" d="M207.296 1533.96 L219.772 1533.96 L219.772 1537.76 L207.296 1537.76 L207.296 1533.96 Z" fill="#000000" fill-rule="nonzero" fill-opacity="1"></path><path clip-path="url(#clip270)" d="M237.157 1517.37 Q233.546 1517.37 231.717 1520.93 Q229.911 1524.47 229.911 1531.6 Q229.911 1538.71 231.717 1542.27 Q233.546 1545.82 237.157 1545.82 Q240.791 1545.82 242.596 1542.27 Q244.425 1538.71 244.425 1531.6 Q244.425 1524.47 242.596 1520.93 Q240.791 1517.37 237.157 1517.37 M237.157 1513.66 Q242.967 1513.66 246.022 1518.27 Q249.101 1522.85 249.101 1531.6 Q249.101 1540.33 246.022 1544.94 Q242.967 1549.52 237.157 1549.52 Q231.346 1549.52 228.268 1544.94 Q225.212 1540.33 225.212 1531.6 Q225.212 1522.85 228.268 1518.27 Q231.346 1513.66 237.157 1513.66 Z" fill="#000000" fill-rule="nonzero" fill-opacity="1"></path><path clip-path="url(#clip270)" d="M267.318 1532.44 Q263.985 1532.44 262.064 1534.22 Q260.166 1536 260.166 1539.13 Q260.166 1542.25 262.064 1544.03 Q263.985 1545.82 267.318 1545.82 Q270.652 1545.82 272.573 1544.03 Q274.494 1542.23 274.494 1539.13 Q274.494 1536 272.573 1534.22 Q270.675 1532.44 267.318 1532.44 M262.643 1530.45 Q259.633 1529.7 257.944 1527.64 Q256.277 1525.58 256.277 1522.62 Q256.277 1518.48 259.217 1516.07 Q262.18 1513.66 267.318 1513.66 Q272.481 1513.66 275.42 1516.07 Q278.36 1518.48 278.36 1522.62 Q278.36 1525.58 276.67 1527.64 Q275.004 1529.7 272.018 1530.45 Q275.397 1531.23 277.272 1533.52 Q279.17 1535.82 279.17 1539.13 Q279.17 1544.15 276.092 1546.83 Q273.036 1549.52 267.318 1549.52 Q261.601 1549.52 258.522 1546.83 Q255.467 1544.15 255.467 1539.13 Q255.467 1535.82 257.365 1533.52 Q259.263 1531.23 262.643 1530.45 M260.93 1523.06 Q260.93 1525.75 262.596 1527.25 Q264.286 1528.76 267.318 1528.76 Q270.328 1528.76 272.018 1527.25 Q273.73 1525.75 273.73 1523.06 Q273.73 1520.38 272.018 1518.87 Q270.328 1517.37 267.318 1517.37 Q264.286 1517.37 262.596 1518.87 Q260.93 1520.38 260.93 1523.06 Z" fill="#000000" fill-rule="nonzero" fill-opacity="1"></path><path clip-path="url(#clip270)" d="M284.726 1533.96 L297.203 1533.96 L297.203 1537.76 L284.726 1537.76 L284.726 1533.96 Z" fill="#000000" fill-rule="nonzero" fill-opacity="1"></path><path clip-path="url(#clip270)" d="M314.587 1517.37 Q310.976 1517.37 309.147 1520.93 Q307.341 1524.47 307.341 1531.6 Q307.341 1538.71 309.147 1542.27 Q310.976 1545.82 314.587 1545.82 Q318.221 1545.82 320.027 1542.27 Q321.855 1538.71 321.855 1531.6 Q321.855 1524.47 320.027 1520.93 Q318.221 1517.37 314.587 1517.37 M314.587 1513.66 Q320.397 1513.66 323.452 1518.27 Q326.531 1522.85 326.531 1531.6 Q326.531 1540.33 323.452 1544.94 Q320.397 1549.52 314.587 1549.52 Q308.777 1549.52 305.698 1544.94 Q302.642 1540.33 302.642 1531.6 Q302.642 1522.85 305.698 1518.27 Q308.777 1513.66 314.587 1513.66 Z" fill="#000000" fill-rule="nonzero" fill-opacity="1"></path><path clip-path="url(#clip270)" d="M335.559 1544.91 L343.198 1544.91 L343.198 1518.55 L334.888 1520.21 L334.888 1515.95 L343.151 1514.29 L347.827 1514.29 L347.827 1544.91 L355.466 1544.91 L355.466 1548.85 L335.559 1548.85 L335.559 1544.91 Z" fill="#000000" fill-rule="nonzero" fill-opacity="1"></path><path clip-path="url(#clip270)" d="M690.365 1544.91 L706.684 1544.91 L706.684 1548.85 L684.74 1548.85 L684.74 1544.91 Q687.402 1542.16 691.985 1537.53 Q696.592 1532.88 697.772 1531.53 Q700.017 1529.01 700.897 1527.27 Q701.8 1525.51 701.8 1523.82 Q701.8 1521.07 699.855 1519.33 Q697.934 1517.6 694.832 1517.6 Q692.633 1517.6 690.18 1518.36 Q687.749 1519.13 684.971 1520.68 L684.971 1515.95 Q687.795 1514.82 690.249 1514.24 Q692.703 1513.66 694.74 1513.66 Q700.11 1513.66 703.304 1516.35 Q706.499 1519.03 706.499 1523.52 Q706.499 1525.65 705.689 1527.57 Q704.902 1529.47 702.795 1532.07 Q702.217 1532.74 699.115 1535.95 Q696.013 1539.15 690.365 1544.91 Z" fill="#000000" fill-rule="nonzero" fill-opacity="1"></path><path clip-path="url(#clip270)" d="M726.499 1517.37 Q722.888 1517.37 721.059 1520.93 Q719.253 1524.47 719.253 1531.6 Q719.253 1538.71 721.059 1542.27 Q722.888 1545.82 726.499 1545.82 Q730.133 1545.82 731.939 1542.27 Q733.767 1538.71 733.767 1531.6 Q733.767 1524.47 731.939 1520.93 Q730.133 1517.37 726.499 1517.37 M726.499 1513.66 Q732.309 1513.66 735.365 1518.27 Q738.443 1522.85 738.443 1531.6 Q738.443 1540.33 735.365 1544.94 Q732.309 1549.52 726.499 1549.52 Q720.689 1549.52 717.61 1544.94 Q714.554 1540.33 714.554 1531.6 Q714.554 1522.85 717.61 1518.27 Q720.689 1513.66 726.499 1513.66 Z" fill="#000000" fill-rule="nonzero" fill-opacity="1"></path><path clip-path="url(#clip270)" d="M750.689 1544.91 L767.008 1544.91 L767.008 1548.85 L745.064 1548.85 L745.064 1544.91 Q747.726 1542.16 752.309 1537.53 Q756.915 1532.88 758.096 1531.53 Q760.341 1529.01 761.221 1527.27 Q762.124 1525.51 762.124 1523.82 Q762.124 1521.07 760.179 1519.33 Q758.258 1517.6 755.156 1517.6 Q752.957 1517.6 750.503 1518.36 Q748.073 1519.13 745.295 1520.68 L745.295 1515.95 Q748.119 1514.82 750.573 1514.24 Q753.026 1513.66 755.063 1513.66 Q760.434 1513.66 763.628 1516.35 Q766.823 1519.03 766.823 1523.52 Q766.823 1525.65 766.012 1527.57 Q765.225 1529.47 763.119 1532.07 Q762.54 1532.74 759.438 1535.95 Q756.337 1539.15 750.689 1544.91 Z" fill="#000000" fill-rule="nonzero" fill-opacity="1"></path><path clip-path="url(#clip270)" d="M780.85 1544.91 L797.17 1544.91 L797.17 1548.85 L775.225 1548.85 L775.225 1544.91 Q777.887 1542.16 782.471 1537.53 Q787.077 1532.88 788.258 1531.53 Q790.503 1529.01 791.383 1527.27 Q792.286 1525.51 792.286 1523.82 Q792.286 1521.07 790.341 1519.33 Q788.42 1517.6 785.318 1517.6 Q783.119 1517.6 780.665 1518.36 Q778.235 1519.13 775.457 1520.68 L775.457 1515.95 Q778.281 1514.82 780.735 1514.24 Q783.188 1513.66 785.225 1513.66 Q790.596 1513.66 793.79 1516.35 Q796.985 1519.03 796.985 1523.52 Q796.985 1525.65 796.174 1527.57 Q795.387 1529.47 793.281 1532.07 Q792.702 1532.74 789.6 1535.95 Q786.498 1539.15 780.85 1544.91 Z" fill="#000000" fill-rule="nonzero" fill-opacity="1"></path><path clip-path="url(#clip270)" d="M804.23 1533.96 L816.707 1533.96 L816.707 1537.76 L804.23 1537.76 L804.23 1533.96 Z" fill="#000000" fill-rule="nonzero" fill-opacity="1"></path><path clip-path="url(#clip270)" d="M834.091 1517.37 Q830.48 1517.37 828.651 1520.93 Q826.846 1524.47 826.846 1531.6 Q826.846 1538.71 828.651 1542.27 Q830.48 1545.82 834.091 1545.82 Q837.725 1545.82 839.531 1542.27 Q841.359 1538.71 841.359 1531.6 Q841.359 1524.47 839.531 1520.93 Q837.725 1517.37 834.091 1517.37 M834.091 1513.66 Q839.901 1513.66 842.957 1518.27 Q846.035 1522.85 846.035 1531.6 Q846.035 1540.33 842.957 1544.94 Q839.901 1549.52 834.091 1549.52 Q828.281 1549.52 825.202 1544.94 Q822.146 1540.33 822.146 1531.6 Q822.146 1522.85 825.202 1518.27 Q828.281 1513.66 834.091 1513.66 Z" fill="#000000" fill-rule="nonzero" fill-opacity="1"></path><path clip-path="url(#clip270)" d="M858.281 1544.91 L874.6 1544.91 L874.6 1548.85 L852.656 1548.85 L852.656 1544.91 Q855.318 1542.16 859.901 1537.53 Q864.507 1532.88 865.688 1531.53 Q867.933 1529.01 868.813 1527.27 Q869.716 1525.51 869.716 1523.82 Q869.716 1521.07 867.771 1519.33 Q865.85 1517.6 862.748 1517.6 Q860.549 1517.6 858.095 1518.36 Q855.665 1519.13 852.887 1520.68 L852.887 1515.95 Q855.711 1514.82 858.165 1514.24 Q860.618 1513.66 862.655 1513.66 Q868.026 1513.66 871.22 1516.35 Q874.415 1519.03 874.415 1523.52 Q874.415 1525.65 873.605 1527.57 Q872.817 1529.47 870.711 1532.07 Q870.132 1532.74 867.03 1535.95 Q863.929 1539.15 858.281 1544.91 Z" fill="#000000" fill-rule="nonzero" fill-opacity="1"></path><path clip-path="url(#clip270)" d="M881.66 1533.96 L894.137 1533.96 L894.137 1537.76 L881.66 1537.76 L881.66 1533.96 Z" fill="#000000" fill-rule="nonzero" fill-opacity="1"></path><path clip-path="url(#clip270)" d="M911.521 1517.37 Q907.91 1517.37 906.081 1520.93 Q904.276 1524.47 904.276 1531.6 Q904.276 1538.71 906.081 1542.27 Q907.91 1545.82 911.521 1545.82 Q915.155 1545.82 916.961 1542.27 Q918.789 1538.71 918.789 1531.6 Q918.789 1524.47 916.961 1520.93 Q915.155 1517.37 911.521 1517.37 M911.521 1513.66 Q917.331 1513.66 920.387 1518.27 Q923.465 1522.85 923.465 1531.6 Q923.465 1540.33 920.387 1544.94 Q917.331 1549.52 911.521 1549.52 Q905.711 1549.52 902.632 1544.94 Q899.577 1540.33 899.577 1531.6 Q899.577 1522.85 902.632 1518.27 Q905.711 1513.66 911.521 1513.66 Z" fill="#000000" fill-rule="nonzero" fill-opacity="1"></path><path clip-path="url(#clip270)" d="M932.493 1544.91 L940.132 1544.91 L940.132 1518.55 L931.822 1520.21 L931.822 1515.95 L940.086 1514.29 L944.762 1514.29 L944.762 1544.91 L952.4 1544.91 L952.4 1548.85 L932.493 1548.85 L932.493 1544.91 Z" fill="#000000" fill-rule="nonzero" fill-opacity="1"></path><path clip-path="url(#clip270)" d="M1277.57 1544.91 L1293.89 1544.91 L1293.89 1548.85 L1271.94 1548.85 L1271.94 1544.91 Q1274.6 1542.16 1279.19 1537.53 Q1283.79 1532.88 1284.97 1531.53 Q1287.22 1529.01 1288.1 1527.27 Q1289 1525.51 1289 1523.82 Q1289 1521.07 1287.06 1519.33 Q1285.14 1517.6 1282.03 1517.6 Q1279.83 1517.6 1277.38 1518.36 Q1274.95 1519.13 1272.17 1520.68 L1272.17 1515.95 Q1275 1514.82 1277.45 1514.24 Q1279.9 1513.66 1281.94 1513.66 Q1287.31 1513.66 1290.51 1516.35 Q1293.7 1519.03 1293.7 1523.52 Q1293.7 1525.65 1292.89 1527.57 Q1292.1 1529.47 1290 1532.07 Q1289.42 1532.74 1286.32 1535.95 Q1283.21 1539.15 1277.57 1544.91 Z" fill="#000000" fill-rule="nonzero" fill-opacity="1"></path><path clip-path="url(#clip270)" d="M1313.7 1517.37 Q1310.09 1517.37 1308.26 1520.93 Q1306.46 1524.47 1306.46 1531.6 Q1306.46 1538.71 1308.26 1542.27 Q1310.09 1545.82 1313.7 1545.82 Q1317.33 1545.82 1319.14 1542.27 Q1320.97 1538.71 1320.97 1531.6 Q1320.97 1524.47 1319.14 1520.93 Q1317.33 1517.37 1313.7 1517.37 M1313.7 1513.66 Q1319.51 1513.66 1322.57 1518.27 Q1325.64 1522.85 1325.64 1531.6 Q1325.64 1540.33 1322.57 1544.94 Q1319.51 1549.52 1313.7 1549.52 Q1307.89 1549.52 1304.81 1544.94 Q1301.76 1540.33 1301.76 1531.6 Q1301.76 1522.85 1304.81 1518.27 Q1307.89 1513.66 1313.7 1513.66 Z" fill="#000000" fill-rule="nonzero" fill-opacity="1"></path><path clip-path="url(#clip270)" d="M1337.89 1544.91 L1354.21 1544.91 L1354.21 1548.85 L1332.27 1548.85 L1332.27 1544.91 Q1334.93 1542.16 1339.51 1537.53 Q1344.12 1532.88 1345.3 1531.53 Q1347.54 1529.01 1348.42 1527.27 Q1349.33 1525.51 1349.33 1523.82 Q1349.33 1521.07 1347.38 1519.33 Q1345.46 1517.6 1342.36 1517.6 Q1340.16 1517.6 1337.7 1518.36 Q1335.27 1519.13 1332.5 1520.68 L1332.5 1515.95 Q1335.32 1514.82 1337.77 1514.24 Q1340.23 1513.66 1342.27 1513.66 Q1347.64 1513.66 1350.83 1516.35 Q1354.02 1519.03 1354.02 1523.52 Q1354.02 1525.65 1353.21 1527.57 Q1352.43 1529.47 1350.32 1532.07 Q1349.74 1532.74 1346.64 1535.95 Q1343.54 1539.15 1337.89 1544.91 Z" fill="#000000" fill-rule="nonzero" fill-opacity="1"></path><path clip-path="url(#clip270)" d="M1368.05 1544.91 L1384.37 1544.91 L1384.37 1548.85 L1362.43 1548.85 L1362.43 1544.91 Q1365.09 1542.16 1369.67 1537.53 Q1374.28 1532.88 1375.46 1531.53 Q1377.7 1529.01 1378.58 1527.27 Q1379.49 1525.51 1379.49 1523.82 Q1379.49 1521.07 1377.54 1519.33 Q1375.62 1517.6 1372.52 1517.6 Q1370.32 1517.6 1367.87 1518.36 Q1365.44 1519.13 1362.66 1520.68 L1362.66 1515.95 Q1365.48 1514.82 1367.94 1514.24 Q1370.39 1513.66 1372.43 1513.66 Q1377.8 1513.66 1380.99 1516.35 Q1384.19 1519.03 1384.19 1523.52 Q1384.19 1525.65 1383.38 1527.57 Q1382.59 1529.47 1380.48 1532.07 Q1379.9 1532.74 1376.8 1535.95 Q1373.7 1539.15 1368.05 1544.91 Z" fill="#000000" fill-rule="nonzero" fill-opacity="1"></path><path clip-path="url(#clip270)" d="M1391.43 1533.96 L1403.91 1533.96 L1403.91 1537.76 L1391.43 1537.76 L1391.43 1533.96 Z" fill="#000000" fill-rule="nonzero" fill-opacity="1"></path><path clip-path="url(#clip270)" d="M1421.29 1517.37 Q1417.68 1517.37 1415.85 1520.93 Q1414.05 1524.47 1414.05 1531.6 Q1414.05 1538.71 1415.85 1542.27 Q1417.68 1545.82 1421.29 1545.82 Q1424.93 1545.82 1426.73 1542.27 Q1428.56 1538.71 1428.56 1531.6 Q1428.56 1524.47 1426.73 1520.93 Q1424.93 1517.37 1421.29 1517.37 M1421.29 1513.66 Q1427.1 1513.66 1430.16 1518.27 Q1433.24 1522.85 1433.24 1531.6 Q1433.24 1540.33 1430.16 1544.94 Q1427.1 1549.52 1421.29 1549.52 Q1415.48 1549.52 1412.4 1544.94 Q1409.35 1540.33 1409.35 1531.6 Q1409.35 1522.85 1412.4 1518.27 Q1415.48 1513.66 1421.29 1513.66 Z" fill="#000000" fill-rule="nonzero" fill-opacity="1"></path><path clip-path="url(#clip270)" d="M1451.45 1532.44 Q1448.12 1532.44 1446.2 1534.22 Q1444.3 1536 1444.3 1539.13 Q1444.3 1542.25 1446.2 1544.03 Q1448.12 1545.82 1451.45 1545.82 Q1454.79 1545.82 1456.71 1544.03 Q1458.63 1542.23 1458.63 1539.13 Q1458.63 1536 1456.71 1534.22 Q1454.81 1532.44 1451.45 1532.44 M1446.78 1530.45 Q1443.77 1529.7 1442.08 1527.64 Q1440.41 1525.58 1440.41 1522.62 Q1440.41 1518.48 1443.35 1516.07 Q1446.32 1513.66 1451.45 1513.66 Q1456.62 1513.66 1459.56 1516.07 Q1462.5 1518.48 1462.5 1522.62 Q1462.5 1525.58 1460.81 1527.64 Q1459.14 1529.7 1456.15 1530.45 Q1459.53 1531.23 1461.41 1533.52 Q1463.31 1535.82 1463.31 1539.13 Q1463.31 1544.15 1460.23 1546.83 Q1457.17 1549.52 1451.45 1549.52 Q1445.74 1549.52 1442.66 1546.83 Q1439.6 1544.15 1439.6 1539.13 Q1439.6 1535.82 1441.5 1533.52 Q1443.4 1531.23 1446.78 1530.45 M1445.07 1523.06 Q1445.07 1525.75 1446.73 1527.25 Q1448.42 1528.76 1451.45 1528.76 Q1454.46 1528.76 1456.15 1527.25 Q1457.87 1525.75 1457.87 1523.06 Q1457.87 1520.38 1456.15 1518.87 Q1454.46 1517.37 1451.45 1517.37 Q1448.42 1517.37 1446.73 1518.87 Q1445.07 1520.38 1445.07 1523.06 Z" fill="#000000" fill-rule="nonzero" fill-opacity="1"></path><path clip-path="url(#clip270)" d="M1468.86 1533.96 L1481.34 1533.96 L1481.34 1537.76 L1468.86 1537.76 L1468.86 1533.96 Z" fill="#000000" fill-rule="nonzero" fill-opacity="1"></path><path clip-path="url(#clip270)" d="M1498.72 1517.37 Q1495.11 1517.37 1493.28 1520.93 Q1491.48 1524.47 1491.48 1531.6 Q1491.48 1538.71 1493.28 1542.27 Q1495.11 1545.82 1498.72 1545.82 Q1502.36 1545.82 1504.16 1542.27 Q1505.99 1538.71 1505.99 1531.6 Q1505.99 1524.47 1504.16 1520.93 Q1502.36 1517.37 1498.72 1517.37 M1498.72 1513.66 Q1504.53 1513.66 1507.59 1518.27 Q1510.67 1522.85 1510.67 1531.6 Q1510.67 1540.33 1507.59 1544.94 Q1504.53 1549.52 1498.72 1549.52 Q1492.91 1549.52 1489.83 1544.94 Q1486.78 1540.33 1486.78 1531.6 Q1486.78 1522.85 1489.83 1518.27 Q1492.91 1513.66 1498.72 1513.66 Z" fill="#000000" fill-rule="nonzero" fill-opacity="1"></path><path clip-path="url(#clip270)" d="M1519.69 1544.91 L1527.33 1544.91 L1527.33 1518.55 L1519.02 1520.21 L1519.02 1515.95 L1527.29 1514.29 L1531.96 1514.29 L1531.96 1544.91 L1539.6 1544.91 L1539.6 1548.85 L1519.69 1548.85 L1519.69 1544.91 Z" fill="#000000" fill-rule="nonzero" fill-opacity="1"></path><path clip-path="url(#clip270)" d="M1874.5 1544.91 L1890.82 1544.91 L1890.82 1548.85 L1868.88 1548.85 L1868.88 1544.91 Q1871.54 1542.16 1876.12 1537.53 Q1880.73 1532.88 1881.91 1531.53 Q1884.15 1529.01 1885.03 1527.27 Q1885.94 1525.51 1885.94 1523.82 Q1885.94 1521.07 1883.99 1519.33 Q1882.07 1517.6 1878.97 1517.6 Q1876.77 1517.6 1874.32 1518.36 Q1871.88 1519.13 1869.11 1520.68 L1869.11 1515.95 Q1871.93 1514.82 1874.38 1514.24 Q1876.84 1513.66 1878.88 1513.66 Q1884.25 1513.66 1887.44 1516.35 Q1890.63 1519.03 1890.63 1523.52 Q1890.63 1525.65 1889.82 1527.57 Q1889.04 1529.47 1886.93 1532.07 Q1886.35 1532.74 1883.25 1535.95 Q1880.15 1539.15 1874.5 1544.91 Z" fill="#000000" fill-rule="nonzero" fill-opacity="1"></path><path clip-path="url(#clip270)" d="M1910.63 1517.37 Q1907.02 1517.37 1905.19 1520.93 Q1903.39 1524.47 1903.39 1531.6 Q1903.39 1538.71 1905.19 1542.27 Q1907.02 1545.82 1910.63 1545.82 Q1914.27 1545.82 1916.07 1542.27 Q1917.9 1538.71 1917.9 1531.6 Q1917.9 1524.47 1916.07 1520.93 Q1914.27 1517.37 1910.63 1517.37 M1910.63 1513.66 Q1916.44 1513.66 1919.5 1518.27 Q1922.58 1522.85 1922.58 1531.6 Q1922.58 1540.33 1919.5 1544.94 Q1916.44 1549.52 1910.63 1549.52 Q1904.82 1549.52 1901.75 1544.94 Q1898.69 1540.33 1898.69 1531.6 Q1898.69 1522.85 1901.75 1518.27 Q1904.82 1513.66 1910.63 1513.66 Z" fill="#000000" fill-rule="nonzero" fill-opacity="1"></path><path clip-path="url(#clip270)" d="M1934.82 1544.91 L1951.14 1544.91 L1951.14 1548.85 L1929.2 1548.85 L1929.2 1544.91 Q1931.86 1542.16 1936.44 1537.53 Q1941.05 1532.88 1942.23 1531.53 Q1944.48 1529.01 1945.36 1527.27 Q1946.26 1525.51 1946.26 1523.82 Q1946.26 1521.07 1944.32 1519.33 Q1942.39 1517.6 1939.29 1517.6 Q1937.09 1517.6 1934.64 1518.36 Q1932.21 1519.13 1929.43 1520.68 L1929.43 1515.95 Q1932.25 1514.82 1934.71 1514.24 Q1937.16 1513.66 1939.2 1513.66 Q1944.57 1513.66 1947.76 1516.35 Q1950.96 1519.03 1950.96 1523.52 Q1950.96 1525.65 1950.15 1527.57 Q1949.36 1529.47 1947.25 1532.07 Q1946.68 1532.74 1943.57 1535.95 Q1940.47 1539.15 1934.82 1544.91 Z" fill="#000000" fill-rule="nonzero" fill-opacity="1"></path><path clip-path="url(#clip270)" d="M1975.13 1530.21 Q1978.48 1530.93 1980.36 1533.2 Q1982.25 1535.47 1982.25 1538.8 Q1982.25 1543.92 1978.74 1546.72 Q1975.22 1549.52 1968.74 1549.52 Q1966.56 1549.52 1964.25 1549.08 Q1961.95 1548.66 1959.5 1547.81 L1959.5 1543.29 Q1961.44 1544.43 1963.76 1545.01 Q1966.07 1545.58 1968.6 1545.58 Q1973 1545.58 1975.29 1543.85 Q1977.6 1542.11 1977.6 1538.8 Q1977.6 1535.75 1975.45 1534.03 Q1973.32 1532.3 1969.5 1532.3 L1965.47 1532.3 L1965.47 1528.45 L1969.69 1528.45 Q1973.13 1528.45 1974.96 1527.09 Q1976.79 1525.7 1976.79 1523.11 Q1976.79 1520.45 1974.89 1519.03 Q1973.02 1517.6 1969.5 1517.6 Q1967.58 1517.6 1965.38 1518.01 Q1963.18 1518.43 1960.54 1519.31 L1960.54 1515.14 Q1963.2 1514.4 1965.52 1514.03 Q1967.86 1513.66 1969.92 1513.66 Q1975.24 1513.66 1978.34 1516.09 Q1981.44 1518.5 1981.44 1522.62 Q1981.44 1525.49 1979.8 1527.48 Q1978.16 1529.45 1975.13 1530.21 Z" fill="#000000" fill-rule="nonzero" fill-opacity="1"></path><path clip-path="url(#clip270)" d="M1988.37 1533.96 L2000.84 1533.96 L2000.84 1537.76 L1988.37 1537.76 L1988.37 1533.96 Z" fill="#000000" fill-rule="nonzero" fill-opacity="1"></path><path clip-path="url(#clip270)" d="M2018.23 1517.37 Q2014.62 1517.37 2012.79 1520.93 Q2010.98 1524.47 2010.98 1531.6 Q2010.98 1538.71 2012.79 1542.27 Q2014.62 1545.82 2018.23 1545.82 Q2021.86 1545.82 2023.67 1542.27 Q2025.5 1538.71 2025.5 1531.6 Q2025.5 1524.47 2023.67 1520.93 Q2021.86 1517.37 2018.23 1517.37 M2018.23 1513.66 Q2024.04 1513.66 2027.09 1518.27 Q2030.17 1522.85 2030.17 1531.6 Q2030.17 1540.33 2027.09 1544.94 Q2024.04 1549.52 2018.23 1549.52 Q2012.42 1549.52 2009.34 1544.94 Q2006.28 1540.33 2006.28 1531.6 Q2006.28 1522.85 2009.34 1518.27 Q2012.42 1513.66 2018.23 1513.66 Z" fill="#000000" fill-rule="nonzero" fill-opacity="1"></path><path clip-path="url(#clip270)" d="M2042.42 1544.91 L2058.74 1544.91 L2058.74 1548.85 L2036.79 1548.85 L2036.79 1544.91 Q2039.45 1542.16 2044.04 1537.53 Q2048.64 1532.88 2049.82 1531.53 Q2052.07 1529.01 2052.95 1527.27 Q2053.85 1525.51 2053.85 1523.82 Q2053.85 1521.07 2051.91 1519.33 Q2049.99 1517.6 2046.88 1517.6 Q2044.68 1517.6 2042.23 1518.36 Q2039.8 1519.13 2037.02 1520.68 L2037.02 1515.95 Q2039.85 1514.82 2042.3 1514.24 Q2044.75 1513.66 2046.79 1513.66 Q2052.16 1513.66 2055.36 1516.35 Q2058.55 1519.03 2058.55 1523.52 Q2058.55 1525.65 2057.74 1527.57 Q2056.95 1529.47 2054.85 1532.07 Q2054.27 1532.74 2051.17 1535.95 Q2048.06 1539.15 2042.42 1544.91 Z" fill="#000000" fill-rule="nonzero" fill-opacity="1"></path><path clip-path="url(#clip270)" d="M2065.8 1533.96 L2078.27 1533.96 L2078.27 1537.76 L2065.8 1537.76 L2065.8 1533.96 Z" fill="#000000" fill-rule="nonzero" fill-opacity="1"></path><path clip-path="url(#clip270)" d="M2095.66 1517.37 Q2092.05 1517.37 2090.22 1520.93 Q2088.41 1524.47 2088.41 1531.6 Q2088.41 1538.71 2090.22 1542.27 Q2092.05 1545.82 2095.66 1545.82 Q2099.29 1545.82 2101.1 1542.27 Q2102.93 1538.71 2102.93 1531.6 Q2102.93 1524.47 2101.1 1520.93 Q2099.29 1517.37 2095.66 1517.37 M2095.66 1513.66 Q2101.47 1513.66 2104.52 1518.27 Q2107.6 1522.85 2107.6 1531.6 Q2107.6 1540.33 2104.52 1544.94 Q2101.47 1549.52 2095.66 1549.52 Q2089.85 1549.52 2086.77 1544.94 Q2083.71 1540.33 2083.71 1531.6 Q2083.71 1522.85 2086.77 1518.27 Q2089.85 1513.66 2095.66 1513.66 Z" fill="#000000" fill-rule="nonzero" fill-opacity="1"></path><path clip-path="url(#clip270)" d="M2116.63 1544.91 L2124.27 1544.91 L2124.27 1518.55 L2115.96 1520.21 L2115.96 1515.95 L2124.22 1514.29 L2128.9 1514.29 L2128.9 1544.91 L2136.54 1544.91 L2136.54 1548.85 L2116.63 1548.85 L2116.63 1544.91 Z" fill="#000000" fill-rule="nonzero" fill-opacity="1"></path><polyline clip-path="url(#clip273)" style="stroke:#000000; stroke-linecap:round; stroke-linejoin:round; stroke-width:2; stroke-opacity:0.1; fill:none" points="186.274,1468.36 2352.76,1468.36 "></polyline>
<polyline clip-path="url(#clip273)" style="stroke:#000000; stroke-linecap:round; stroke-linejoin:round; stroke-width:2; stroke-opacity:0.1; fill:none" points="186.274,1317.6 2352.76,1317.6 "></polyline>
<polyline clip-path="url(#clip273)" style="stroke:#000000; stroke-linecap:round; stroke-linejoin:round; stroke-width:2; stroke-opacity:0.1; fill:none" points="186.274,1166.85 2352.76,1166.85 "></polyline>
<polyline clip-path="url(#clip273)" style="stroke:#000000; stroke-linecap:round; stroke-linejoin:round; stroke-width:2; stroke-opacity:0.1; fill:none" points="186.274,1016.09 2352.76,1016.09 "></polyline>
<polyline clip-path="url(#clip273)" style="stroke:#000000; stroke-linecap:round; stroke-linejoin:round; stroke-width:2; stroke-opacity:0.1; fill:none" points="186.274,865.335 2352.76,865.335 "></polyline>
<polyline clip-path="url(#clip270)" style="stroke:#000000; stroke-linecap:round; stroke-linejoin:round; stroke-width:4; stroke-opacity:1; fill:none" points="186.274,1486.45 186.274,847.244 "></polyline>
<polyline clip-path="url(#clip270)" style="stroke:#000000; stroke-linecap:round; stroke-linejoin:round; stroke-width:4; stroke-opacity:1; fill:none" points="186.274,1468.36 205.172,1468.36 "></polyline>
<polyline clip-path="url(#clip270)" style="stroke:#000000; stroke-linecap:round; stroke-linejoin:round; stroke-width:4; stroke-opacity:1; fill:none" points="186.274,1317.6 205.172,1317.6 "></polyline>
<polyline clip-path="url(#clip270)" style="stroke:#000000; stroke-linecap:round; stroke-linejoin:round; stroke-width:4; stroke-opacity:1; fill:none" points="186.274,1166.85 205.172,1166.85 "></polyline>
<polyline clip-path="url(#clip270)" style="stroke:#000000; stroke-linecap:round; stroke-linejoin:round; stroke-width:4; stroke-opacity:1; fill:none" points="186.274,1016.09 205.172,1016.09 "></polyline>
<polyline clip-path="url(#clip270)" style="stroke:#000000; stroke-linecap:round; stroke-linejoin:round; stroke-width:4; stroke-opacity:1; fill:none" points="186.274,865.335 205.172,865.335 "></polyline>
<path clip-path="url(#clip270)" d="M62.9365 1454.16 Q59.3254 1454.16 57.4967 1457.72 Q55.6912 1461.26 55.6912 1468.39 Q55.6912 1475.5 57.4967 1479.06 Q59.3254 1482.6 62.9365 1482.6 Q66.5707 1482.6 68.3763 1479.06 Q70.205 1475.5 70.205 1468.39 Q70.205 1461.26 68.3763 1457.72 Q66.5707 1454.16 62.9365 1454.16 M62.9365 1450.45 Q68.7467 1450.45 71.8022 1455.06 Q74.8809 1459.64 74.8809 1468.39 Q74.8809 1477.12 71.8022 1481.73 Q68.7467 1486.31 62.9365 1486.31 Q57.1264 1486.31 54.0477 1481.73 Q50.9921 1477.12 50.9921 1468.39 Q50.9921 1459.64 54.0477 1455.06 Q57.1264 1450.45 62.9365 1450.45 Z" fill="#000000" fill-rule="nonzero" fill-opacity="1"></path><path clip-path="url(#clip270)" d="M83.0984 1479.76 L87.9827 1479.76 L87.9827 1485.64 L83.0984 1485.64 L83.0984 1479.76 Z" fill="#000000" fill-rule="nonzero" fill-opacity="1"></path><path clip-path="url(#clip270)" d="M108.168 1454.16 Q104.557 1454.16 102.728 1457.72 Q100.922 1461.26 100.922 1468.39 Q100.922 1475.5 102.728 1479.06 Q104.557 1482.6 108.168 1482.6 Q111.802 1482.6 113.608 1479.06 Q115.436 1475.5 115.436 1468.39 Q115.436 1461.26 113.608 1457.72 Q111.802 1454.16 108.168 1454.16 M108.168 1450.45 Q113.978 1450.45 117.033 1455.06 Q120.112 1459.64 120.112 1468.39 Q120.112 1477.12 117.033 1481.73 Q113.978 1486.31 108.168 1486.31 Q102.358 1486.31 99.2789 1481.73 Q96.2234 1477.12 96.2234 1468.39 Q96.2234 1459.64 99.2789 1455.06 Q102.358 1450.45 108.168 1450.45 Z" fill="#000000" fill-rule="nonzero" fill-opacity="1"></path><path clip-path="url(#clip270)" d="M138.33 1454.16 Q134.719 1454.16 132.89 1457.72 Q131.084 1461.26 131.084 1468.39 Q131.084 1475.5 132.89 1479.06 Q134.719 1482.6 138.33 1482.6 Q141.964 1482.6 143.769 1479.06 Q145.598 1475.5 145.598 1468.39 Q145.598 1461.26 143.769 1457.72 Q141.964 1454.16 138.33 1454.16 M138.33 1450.45 Q144.14 1450.45 147.195 1455.06 Q150.274 1459.64 150.274 1468.39 Q150.274 1477.12 147.195 1481.73 Q144.14 1486.31 138.33 1486.31 Q132.519 1486.31 129.441 1481.73 Q126.385 1477.12 126.385 1468.39 Q126.385 1459.64 129.441 1455.06 Q132.519 1450.45 138.33 1450.45 Z" fill="#000000" fill-rule="nonzero" fill-opacity="1"></path><path clip-path="url(#clip270)" d="M63.9319 1303.4 Q60.3208 1303.4 58.4921 1306.97 Q56.6865 1310.51 56.6865 1317.64 Q56.6865 1324.74 58.4921 1328.31 Q60.3208 1331.85 63.9319 1331.85 Q67.5661 1331.85 69.3717 1328.31 Q71.2004 1324.74 71.2004 1317.64 Q71.2004 1310.51 69.3717 1306.97 Q67.5661 1303.4 63.9319 1303.4 M63.9319 1299.7 Q69.742 1299.7 72.7976 1304.3 Q75.8763 1308.89 75.8763 1317.64 Q75.8763 1326.36 72.7976 1330.97 Q69.742 1335.55 63.9319 1335.55 Q58.1217 1335.55 55.043 1330.97 Q51.9875 1326.36 51.9875 1317.64 Q51.9875 1308.89 55.043 1304.3 Q58.1217 1299.7 63.9319 1299.7 Z" fill="#000000" fill-rule="nonzero" fill-opacity="1"></path><path clip-path="url(#clip270)" d="M84.0938 1329 L88.978 1329 L88.978 1334.88 L84.0938 1334.88 L84.0938 1329 Z" fill="#000000" fill-rule="nonzero" fill-opacity="1"></path><path clip-path="url(#clip270)" d="M103.191 1330.95 L119.51 1330.95 L119.51 1334.88 L97.566 1334.88 L97.566 1330.95 Q100.228 1328.19 104.811 1323.56 Q109.418 1318.91 110.598 1317.57 Q112.844 1315.04 113.723 1313.31 Q114.626 1311.55 114.626 1309.86 Q114.626 1307.1 112.682 1305.37 Q110.76 1303.63 107.658 1303.63 Q105.459 1303.63 103.006 1304.4 Q100.575 1305.16 97.7974 1306.71 L97.7974 1301.99 Q100.621 1300.85 103.075 1300.28 Q105.529 1299.7 107.566 1299.7 Q112.936 1299.7 116.131 1302.38 Q119.325 1305.07 119.325 1309.56 Q119.325 1311.69 118.515 1313.61 Q117.728 1315.51 115.621 1318.1 Q115.043 1318.77 111.941 1321.99 Q108.839 1325.18 103.191 1330.95 Z" fill="#000000" fill-rule="nonzero" fill-opacity="1"></path><path clip-path="url(#clip270)" d="M129.371 1300.32 L147.728 1300.32 L147.728 1304.26 L133.654 1304.26 L133.654 1312.73 Q134.672 1312.38 135.691 1312.22 Q136.709 1312.03 137.728 1312.03 Q143.515 1312.03 146.894 1315.21 Q150.274 1318.38 150.274 1323.79 Q150.274 1329.37 146.802 1332.47 Q143.33 1335.55 137.01 1335.55 Q134.834 1335.55 132.566 1335.18 Q130.32 1334.81 127.913 1334.07 L127.913 1329.37 Q129.996 1330.51 132.219 1331.06 Q134.441 1331.62 136.918 1331.62 Q140.922 1331.62 143.26 1329.51 Q145.598 1327.4 145.598 1323.79 Q145.598 1320.18 143.26 1318.08 Q140.922 1315.97 136.918 1315.97 Q135.043 1315.97 133.168 1316.39 Q131.316 1316.8 129.371 1317.68 L129.371 1300.32 Z" fill="#000000" fill-rule="nonzero" fill-opacity="1"></path><path clip-path="url(#clip270)" d="M62.9365 1152.64 Q59.3254 1152.64 57.4967 1156.21 Q55.6912 1159.75 55.6912 1166.88 Q55.6912 1173.99 57.4967 1177.55 Q59.3254 1181.09 62.9365 1181.09 Q66.5707 1181.09 68.3763 1177.55 Q70.205 1173.99 70.205 1166.88 Q70.205 1159.75 68.3763 1156.21 Q66.5707 1152.64 62.9365 1152.64 M62.9365 1148.94 Q68.7467 1148.94 71.8022 1153.55 Q74.8809 1158.13 74.8809 1166.88 Q74.8809 1175.61 71.8022 1180.21 Q68.7467 1184.8 62.9365 1184.8 Q57.1264 1184.8 54.0477 1180.21 Q50.9921 1175.61 50.9921 1166.88 Q50.9921 1158.13 54.0477 1153.55 Q57.1264 1148.94 62.9365 1148.94 Z" fill="#000000" fill-rule="nonzero" fill-opacity="1"></path><path clip-path="url(#clip270)" d="M83.0984 1178.25 L87.9827 1178.25 L87.9827 1184.13 L83.0984 1184.13 L83.0984 1178.25 Z" fill="#000000" fill-rule="nonzero" fill-opacity="1"></path><path clip-path="url(#clip270)" d="M98.2141 1149.57 L116.57 1149.57 L116.57 1153.5 L102.496 1153.5 L102.496 1161.97 Q103.515 1161.63 104.534 1161.46 Q105.552 1161.28 106.571 1161.28 Q112.358 1161.28 115.737 1164.45 Q119.117 1167.62 119.117 1173.04 Q119.117 1178.62 115.645 1181.72 Q112.172 1184.8 105.853 1184.8 Q103.677 1184.8 101.409 1184.43 Q99.1632 1184.06 96.7558 1183.32 L96.7558 1178.62 Q98.8391 1179.75 101.061 1180.31 Q103.284 1180.86 105.76 1180.86 Q109.765 1180.86 112.103 1178.76 Q114.441 1176.65 114.441 1173.04 Q114.441 1169.43 112.103 1167.32 Q109.765 1165.21 105.76 1165.21 Q103.885 1165.21 102.01 1165.63 Q100.159 1166.05 98.2141 1166.93 L98.2141 1149.57 Z" fill="#000000" fill-rule="nonzero" fill-opacity="1"></path><path clip-path="url(#clip270)" d="M138.33 1152.64 Q134.719 1152.64 132.89 1156.21 Q131.084 1159.75 131.084 1166.88 Q131.084 1173.99 132.89 1177.55 Q134.719 1181.09 138.33 1181.09 Q141.964 1181.09 143.769 1177.55 Q145.598 1173.99 145.598 1166.88 Q145.598 1159.75 143.769 1156.21 Q141.964 1152.64 138.33 1152.64 M138.33 1148.94 Q144.14 1148.94 147.195 1153.55 Q150.274 1158.13 150.274 1166.88 Q150.274 1175.61 147.195 1180.21 Q144.14 1184.8 138.33 1184.8 Q132.519 1184.8 129.441 1180.21 Q126.385 1175.61 126.385 1166.88 Q126.385 1158.13 129.441 1153.55 Q132.519 1148.94 138.33 1148.94 Z" fill="#000000" fill-rule="nonzero" fill-opacity="1"></path><path clip-path="url(#clip270)" d="M63.9319 1001.89 Q60.3208 1001.89 58.4921 1005.45 Q56.6865 1009 56.6865 1016.13 Q56.6865 1023.23 58.4921 1026.8 Q60.3208 1030.34 63.9319 1030.34 Q67.5661 1030.34 69.3717 1026.8 Q71.2004 1023.23 71.2004 1016.13 Q71.2004 1009 69.3717 1005.45 Q67.5661 1001.89 63.9319 1001.89 M63.9319 998.185 Q69.742 998.185 72.7976 1002.79 Q75.8763 1007.38 75.8763 1016.13 Q75.8763 1024.85 72.7976 1029.46 Q69.742 1034.04 63.9319 1034.04 Q58.1217 1034.04 55.043 1029.46 Q51.9875 1024.85 51.9875 1016.13 Q51.9875 1007.38 55.043 1002.79 Q58.1217 998.185 63.9319 998.185 Z" fill="#000000" fill-rule="nonzero" fill-opacity="1"></path><path clip-path="url(#clip270)" d="M84.0938 1027.49 L88.978 1027.49 L88.978 1033.37 L84.0938 1033.37 L84.0938 1027.49 Z" fill="#000000" fill-rule="nonzero" fill-opacity="1"></path><path clip-path="url(#clip270)" d="M97.9826 998.81 L120.205 998.81 L120.205 1000.8 L107.658 1033.37 L102.774 1033.37 L114.58 1002.75 L97.9826 1002.75 L97.9826 998.81 Z" fill="#000000" fill-rule="nonzero" fill-opacity="1"></path><path clip-path="url(#clip270)" d="M129.371 998.81 L147.728 998.81 L147.728 1002.75 L133.654 1002.75 L133.654 1011.22 Q134.672 1010.87 135.691 1010.71 Q136.709 1010.52 137.728 1010.52 Q143.515 1010.52 146.894 1013.69 Q150.274 1016.87 150.274 1022.28 Q150.274 1027.86 146.802 1030.96 Q143.33 1034.04 137.01 1034.04 Q134.834 1034.04 132.566 1033.67 Q130.32 1033.3 127.913 1032.56 L127.913 1027.86 Q129.996 1029 132.219 1029.55 Q134.441 1030.11 136.918 1030.11 Q140.922 1030.11 143.26 1028 Q145.598 1025.89 145.598 1022.28 Q145.598 1018.67 143.26 1016.56 Q140.922 1014.46 136.918 1014.46 Q135.043 1014.46 133.168 1014.88 Q131.316 1015.29 129.371 1016.17 L129.371 998.81 Z" fill="#000000" fill-rule="nonzero" fill-opacity="1"></path><path clip-path="url(#clip270)" d="M53.7467 878.68 L61.3856 878.68 L61.3856 852.314 L53.0754 853.981 L53.0754 849.721 L61.3393 848.055 L66.0152 848.055 L66.0152 878.68 L73.654 878.68 L73.654 882.615 L53.7467 882.615 L53.7467 878.68 Z" fill="#000000" fill-rule="nonzero" fill-opacity="1"></path><path clip-path="url(#clip270)" d="M83.0984 876.735 L87.9827 876.735 L87.9827 882.615 L83.0984 882.615 L83.0984 876.735 Z" fill="#000000" fill-rule="nonzero" fill-opacity="1"></path><path clip-path="url(#clip270)" d="M108.168 851.133 Q104.557 851.133 102.728 854.698 Q100.922 858.24 100.922 865.369 Q100.922 872.476 102.728 876.041 Q104.557 879.582 108.168 879.582 Q111.802 879.582 113.608 876.041 Q115.436 872.476 115.436 865.369 Q115.436 858.24 113.608 854.698 Q111.802 851.133 108.168 851.133 M108.168 847.43 Q113.978 847.43 117.033 852.036 Q120.112 856.62 120.112 865.369 Q120.112 874.096 117.033 878.703 Q113.978 883.286 108.168 883.286 Q102.358 883.286 99.2789 878.703 Q96.2234 874.096 96.2234 865.369 Q96.2234 856.62 99.2789 852.036 Q102.358 847.43 108.168 847.43 Z" fill="#000000" fill-rule="nonzero" fill-opacity="1"></path><path clip-path="url(#clip270)" d="M138.33 851.133 Q134.719 851.133 132.89 854.698 Q131.084 858.24 131.084 865.369 Q131.084 872.476 132.89 876.041 Q134.719 879.582 138.33 879.582 Q141.964 879.582 143.769 876.041 Q145.598 872.476 145.598 865.369 Q145.598 858.24 143.769 854.698 Q141.964 851.133 138.33 851.133 M138.33 847.43 Q144.14 847.43 147.195 852.036 Q150.274 856.62 150.274 865.369 Q150.274 874.096 147.195 878.703 Q144.14 883.286 138.33 883.286 Q132.519 883.286 129.441 878.703 Q126.385 874.096 126.385 865.369 Q126.385 856.62 129.441 852.036 Q132.519 847.43 138.33 847.43 Z" fill="#000000" fill-rule="nonzero" fill-opacity="1"></path><polyline clip-path="url(#clip273)" style="stroke:#009af9; stroke-linecap:round; stroke-linejoin:round; stroke-width:8; stroke-opacity:1; fill:none" points="247.59,865.335 270.299,865.335 293.008,865.335 315.718,865.335 338.427,865.335 361.137,865.335 383.846,865.335 406.556,865.335 429.265,865.335 451.975,865.335 474.684,865.335 497.394,865.335 520.103,865.335 542.812,865.335 565.522,865.335 588.231,865.335 610.941,1468.36 633.65,865.335 656.36,865.335 679.069,865.335 701.779,865.335 724.488,865.335 747.198,865.335 769.907,1468.36 792.616,865.335 815.326,865.335 838.035,865.335 860.745,865.335 883.454,865.335 906.164,865.335 928.873,865.335 951.583,865.335 974.292,865.335 997.002,865.335 1019.71,865.335 1042.42,865.335 1065.13,865.335 1087.84,865.335 1110.55,865.335 1133.26,865.335 1155.97,865.335 1178.68,865.335 1201.39,865.335 1224.1,865.335 1246.81,1468.36 1269.51,865.335 1292.22,865.335 1314.93,865.335 1337.64,865.335 1360.35,865.335 1383.06,865.335 1405.77,865.335 1428.48,865.335 1451.19,865.335 1473.9,865.335 1496.61,865.335 1519.32,865.335 1542.03,865.335 1564.74,865.335 1587.45,865.335 1610.16,865.335 1632.87,865.335 1655.58,865.335 1678.29,865.335 1700.99,865.335 1723.7,865.335 1746.41,865.335 1769.12,865.335 1791.83,865.335 1814.54,865.335 1837.25,865.335 1859.96,865.335 1882.67,865.335 1905.38,865.335 1928.09,865.335 1950.8,865.335 1973.51,865.335 1996.22,865.335 2018.93,865.335 2041.64,865.335 2064.35,865.335 2087.06,865.335 2109.76,865.335 2132.47,865.335 2155.18,865.335 2177.89,865.335 2200.6,865.335 2223.31,865.335 2246.02,865.335 2268.73,865.335 2291.44,865.335 "></polyline>
<path clip-path="url(#clip270)" d="M1996.39 1465.14 L2280.54 1465.14 L2280.54 1361.46 L1996.39 1361.46  Z" fill="#ffffff" fill-rule="evenodd" fill-opacity="1"></path>
<polyline clip-path="url(#clip270)" style="stroke:#000000; stroke-linecap:round; stroke-linejoin:round; stroke-width:4; stroke-opacity:1; fill:none" points="1996.39,1465.14 2280.54,1465.14 2280.54,1361.46 1996.39,1361.46 1996.39,1465.14 "></polyline>
<polyline clip-path="url(#clip270)" style="stroke:#009af9; stroke-linecap:round; stroke-linejoin:round; stroke-width:8; stroke-opacity:1; fill:none" points="2020.46,1413.3 2164.9,1413.3 "></polyline>
<path clip-path="url(#clip270)" d="M2207.74 1417.64 Q2207.74 1412.94 2205.8 1410.28 Q2203.88 1407.6 2200.5 1407.6 Q2197.12 1407.6 2195.17 1410.28 Q2193.25 1412.94 2193.25 1417.64 Q2193.25 1422.34 2195.17 1425.03 Q2197.12 1427.69 2200.5 1427.69 Q2203.88 1427.69 2205.8 1425.03 Q2207.74 1422.34 2207.74 1417.64 M2193.25 1408.59 Q2194.59 1406.28 2196.63 1405.16 Q2198.69 1404.03 2201.54 1404.03 Q2206.26 1404.03 2209.2 1407.78 Q2212.16 1411.53 2212.16 1417.64 Q2212.16 1423.75 2209.2 1427.5 Q2206.26 1431.25 2201.54 1431.25 Q2198.69 1431.25 2196.63 1430.14 Q2194.59 1429.01 2193.25 1426.69 L2193.25 1430.58 L2188.97 1430.58 L2188.97 1394.56 L2193.25 1394.56 L2193.25 1408.59 Z" fill="#000000" fill-rule="nonzero" fill-opacity="1"></path><path clip-path="url(#clip270)" d="M2223.44 1397.29 L2223.44 1404.66 L2232.21 1404.66 L2232.21 1407.97 L2223.44 1407.97 L2223.44 1422.04 Q2223.44 1425.21 2224.29 1426.11 Q2225.17 1427.02 2227.83 1427.02 L2232.21 1427.02 L2232.21 1430.58 L2227.83 1430.58 Q2222.9 1430.58 2221.03 1428.75 Q2219.15 1426.9 2219.15 1422.04 L2219.15 1407.97 L2216.03 1407.97 L2216.03 1404.66 L2219.15 1404.66 L2219.15 1397.29 L2223.44 1397.29 Z" fill="#000000" fill-rule="nonzero" fill-opacity="1"></path><path clip-path="url(#clip270)" d="M2256.47 1405.65 L2256.47 1409.63 Q2254.66 1408.64 2252.83 1408.15 Q2251.03 1407.64 2249.18 1407.64 Q2245.03 1407.64 2242.74 1410.28 Q2240.45 1412.9 2240.45 1417.64 Q2240.45 1422.39 2242.74 1425.03 Q2245.03 1427.64 2249.18 1427.64 Q2251.03 1427.64 2252.83 1427.16 Q2254.66 1426.65 2256.47 1425.65 L2256.47 1429.59 Q2254.69 1430.42 2252.76 1430.84 Q2250.87 1431.25 2248.71 1431.25 Q2242.86 1431.25 2239.41 1427.57 Q2235.96 1423.89 2235.96 1417.64 Q2235.96 1411.3 2239.43 1407.66 Q2242.93 1404.03 2248.99 1404.03 Q2250.96 1404.03 2252.83 1404.45 Q2254.71 1404.84 2256.47 1405.65 Z" fill="#000000" fill-rule="nonzero" fill-opacity="1"></path></svg>