<svg xmlns="http://www.w3.org/2000/svg" xmlns:xlink="http://www.w3.org/1999/xlink" width="600" height="400" viewBox="0 0 2400 1600">
<defs>
  <clipPath id="clip230">
    <rect x="0" y="0" width="2400" height="1600"></rect>
  </clipPath>
</defs>
<path clip-path="url(#clip230)" d="M0 1600 L2400 1600 L2400 0 L0 0  Z" fill="#ffffff" fill-rule="evenodd" fill-opacity="1"></path>
<defs>
  <clipPath id="clip231">
    <rect x="480" y="0" width="1681" height="1600"></rect>
  </clipPath>
</defs>
<path clip-path="url(#clip230)" d="M186.274 686.448 L2352.76 686.448 L2352.76 47.2441 L186.274 47.2441  Z" fill="#ffffff" fill-rule="evenodd" fill-opacity="1"></path>
<defs>
  <clipPath id="clip232">
    <rect x="186" y="47" width="2167" height="640"></rect>
  </clipPath>
</defs>
<polyline clip-path="url(#clip232)" style="stroke:#000000; stroke-linecap:round; stroke-linejoin:round; stroke-width:2; stroke-opacity:0.1; fill:none" points="215.147,686.448 215.147,47.2441 "></polyline>
<polyline clip-path="url(#clip232)" style="stroke:#000000; stroke-linecap:round; stroke-linejoin:round; stroke-width:2; stroke-opacity:0.1; fill:none" points="805.593,686.448 805.593,47.2441 "></polyline>
<polyline clip-path="url(#clip232)" style="stroke:#000000; stroke-linecap:round; stroke-linejoin:round; stroke-width:2; stroke-opacity:0.1; fill:none" points="1402.53,686.448 1402.53,47.2441 "></polyline>
<polyline clip-path="url(#clip232)" style="stroke:#000000; stroke-linecap:round; stroke-linejoin:round; stroke-width:2; stroke-opacity:0.1; fill:none" points="1989.73,686.448 1989.73,47.2441 "></polyline>
<polyline clip-path="url(#clip230)" style="stroke:#000000; stroke-linecap:round; stroke-linejoin:round; stroke-width:4; stroke-opacity:1; fill:none" points="186.274,686.448 2352.76,686.448 "></polyline>
<polyline clip-path="url(#clip230)" style="stroke:#000000; stroke-linecap:round; stroke-linejoin:round; stroke-width:4; stroke-opacity:1; fill:none" points="215.147,686.448 215.147,667.55 "></polyline>
<polyline clip-path="url(#clip230)" style="stroke:#000000; stroke-linecap:round; stroke-linejoin:round; stroke-width:4; stroke-opacity:1; fill:none" points="805.593,686.448 805.593,667.55 "></polyline>
<polyline clip-path="url(#clip230)" style="stroke:#000000; stroke-linecap:round; stroke-linejoin:round; stroke-width:4; stroke-opacity:1; fill:none" points="1402.53,686.448 1402.53,667.55 "></polyline>
<polyline clip-path="url(#clip230)" style="stroke:#000000; stroke-linecap:round; stroke-linejoin:round; stroke-width:4; stroke-opacity:1; fill:none" points="1989.73,686.448 1989.73,667.55 "></polyline>
<path clip-path="url(#clip230)" d="M86.9421 744.913 L103.261 744.913 L103.261 748.848 L81.3171 748.848 L81.3171 744.913 Q83.9792 742.158 88.5625 737.528 Q93.1689 732.876 94.3495 731.533 Q96.5948 729.01 97.4745 727.274 Q98.3772 725.515 98.3772 723.825 Q98.3772 721.07 96.4328 719.334 Q94.5115 717.598 91.4097 717.598 Q89.2106 717.598 86.7569 718.362 Q84.3264 719.126 81.5486 720.677 L81.5486 715.955 Q84.3727 714.82 86.8264 714.242 Q89.2801 713.663 91.3171 713.663 Q96.6874 713.663 99.8819 716.348 Q103.076 719.033 103.076 723.524 Q103.076 725.654 102.266 727.575 Q101.479 729.473 99.3726 732.066 Q98.7939 732.737 95.6921 735.954 Q92.5902 739.149 86.9421 744.913 Z" fill="#000000" fill-rule="nonzero" fill-opacity="1"></path><path clip-path="url(#clip230)" d="M123.076 717.367 Q119.465 717.367 117.636 720.931 Q115.831 724.473 115.831 731.603 Q115.831 738.709 117.636 742.274 Q119.465 745.815 123.076 745.815 Q126.71 745.815 128.516 742.274 Q130.345 738.709 130.345 731.603 Q130.345 724.473 128.516 720.931 Q126.71 717.367 123.076 717.367 M123.076 713.663 Q128.886 713.663 131.942 718.269 Q135.021 722.853 135.021 731.603 Q135.021 740.329 131.942 744.936 Q128.886 749.519 123.076 749.519 Q117.266 749.519 114.187 744.936 Q111.132 740.329 111.132 731.603 Q111.132 722.853 114.187 718.269 Q117.266 713.663 123.076 713.663 Z" fill="#000000" fill-rule="nonzero" fill-opacity="1"></path><path clip-path="url(#clip230)" d="M144.048 744.913 L151.687 744.913 L151.687 718.547 L143.377 720.214 L143.377 715.955 L151.641 714.288 L156.317 714.288 L156.317 744.913 L163.956 744.913 L163.956 748.848 L144.048 748.848 L144.048 744.913 Z" fill="#000000" fill-rule="nonzero" fill-opacity="1"></path><path clip-path="url(#clip230)" d="M173.539 748.13 L173.539 743.871 Q175.298 744.704 177.104 745.144 Q178.909 745.584 180.645 745.584 Q185.275 745.584 187.705 742.482 Q190.159 739.357 190.506 733.015 Q189.164 735.005 187.104 736.07 Q185.043 737.135 182.543 737.135 Q177.358 737.135 174.326 734.01 Q171.317 730.862 171.317 725.422 Q171.317 720.098 174.465 716.88 Q177.613 713.663 182.844 713.663 Q188.84 713.663 191.988 718.269 Q195.159 722.853 195.159 731.603 Q195.159 739.774 191.27 744.658 Q187.405 749.519 180.854 749.519 Q179.094 749.519 177.289 749.172 Q175.483 748.825 173.539 748.13 M182.844 733.478 Q185.993 733.478 187.821 731.325 Q189.673 729.172 189.673 725.422 Q189.673 721.695 187.821 719.542 Q185.993 717.367 182.844 717.367 Q179.696 717.367 177.844 719.542 Q176.016 721.695 176.016 725.422 Q176.016 729.172 177.844 731.325 Q179.696 733.478 182.844 733.478 Z" fill="#000000" fill-rule="nonzero" fill-opacity="1"></path><path clip-path="url(#clip230)" d="M200.807 733.964 L213.284 733.964 L213.284 737.76 L200.807 737.76 L200.807 733.964 Z" fill="#000000" fill-rule="nonzero" fill-opacity="1"></path><path clip-path="url(#clip230)" d="M221.478 744.913 L229.117 744.913 L229.117 718.547 L220.807 720.214 L220.807 715.955 L229.071 714.288 L233.747 714.288 L233.747 744.913 L241.386 744.913 L241.386 748.848 L221.478 748.848 L221.478 744.913 Z" fill="#000000" fill-rule="nonzero" fill-opacity="1"></path><path clip-path="url(#clip230)" d="M251.64 744.913 L259.279 744.913 L259.279 718.547 L250.969 720.214 L250.969 715.955 L259.233 714.288 L263.909 714.288 L263.909 744.913 L271.548 744.913 L271.548 748.848 L251.64 748.848 L251.64 744.913 Z" fill="#000000" fill-rule="nonzero" fill-opacity="1"></path><path clip-path="url(#clip230)" d="M278.237 733.964 L290.714 733.964 L290.714 737.76 L278.237 737.76 L278.237 733.964 Z" fill="#000000" fill-rule="nonzero" fill-opacity="1"></path><path clip-path="url(#clip230)" d="M308.098 717.367 Q304.487 717.367 302.659 720.931 Q300.853 724.473 300.853 731.603 Q300.853 738.709 302.659 742.274 Q304.487 745.815 308.098 745.815 Q311.733 745.815 313.538 742.274 Q315.367 738.709 315.367 731.603 Q315.367 724.473 313.538 720.931 Q311.733 717.367 308.098 717.367 M308.098 713.663 Q313.908 713.663 316.964 718.269 Q320.043 722.853 320.043 731.603 Q320.043 740.329 316.964 744.936 Q313.908 749.519 308.098 749.519 Q302.288 749.519 299.209 744.936 Q296.154 740.329 296.154 731.603 Q296.154 722.853 299.209 718.269 Q302.288 713.663 308.098 713.663 Z" fill="#000000" fill-rule="nonzero" fill-opacity="1"></path><path clip-path="url(#clip230)" d="M329.07 744.913 L336.709 744.913 L336.709 718.547 L328.399 720.214 L328.399 715.955 L336.663 714.288 L341.339 714.288 L341.339 744.913 L348.978 744.913 L348.978 748.848 L329.07 748.848 L329.07 744.913 Z" fill="#000000" fill-rule="nonzero" fill-opacity="1"></path><path clip-path="url(#clip230)" d="M677.388 744.913 L693.707 744.913 L693.707 748.848 L671.763 748.848 L671.763 744.913 Q674.425 742.158 679.008 737.528 Q683.615 732.876 684.795 731.533 Q687.041 729.01 687.92 727.274 Q688.823 725.515 688.823 723.825 Q688.823 721.07 686.879 719.334 Q684.957 717.598 681.855 717.598 Q679.656 717.598 677.203 718.362 Q674.772 719.126 671.994 720.677 L671.994 715.955 Q674.818 714.82 677.272 714.242 Q679.726 713.663 681.763 713.663 Q687.133 713.663 690.328 716.348 Q693.522 719.033 693.522 723.524 Q693.522 725.654 692.712 727.575 Q691.925 729.473 689.818 732.066 Q689.24 732.737 686.138 735.954 Q683.036 739.149 677.388 744.913 Z" fill="#000000" fill-rule="nonzero" fill-opacity="1"></path><path clip-path="url(#clip230)" d="M713.522 717.367 Q709.911 717.367 708.082 720.931 Q706.277 724.473 706.277 731.603 Q706.277 738.709 708.082 742.274 Q709.911 745.815 713.522 745.815 Q717.156 745.815 718.962 742.274 Q720.79 738.709 720.79 731.603 Q720.79 724.473 718.962 720.931 Q717.156 717.367 713.522 717.367 M713.522 713.663 Q719.332 713.663 722.388 718.269 Q725.466 722.853 725.466 731.603 Q725.466 740.329 722.388 744.936 Q719.332 749.519 713.522 749.519 Q707.712 749.519 704.633 744.936 Q701.578 740.329 701.578 731.603 Q701.578 722.853 704.633 718.269 Q707.712 713.663 713.522 713.663 Z" fill="#000000" fill-rule="nonzero" fill-opacity="1"></path><path clip-path="url(#clip230)" d="M737.712 744.913 L754.031 744.913 L754.031 748.848 L732.087 748.848 L732.087 744.913 Q734.749 742.158 739.332 737.528 Q743.938 732.876 745.119 731.533 Q747.364 729.01 748.244 727.274 Q749.147 725.515 749.147 723.825 Q749.147 721.07 747.202 719.334 Q745.281 717.598 742.179 717.598 Q739.98 717.598 737.526 718.362 Q735.096 719.126 732.318 720.677 L732.318 715.955 Q735.142 714.82 737.596 714.242 Q740.05 713.663 742.087 713.663 Q747.457 713.663 750.651 716.348 Q753.846 719.033 753.846 723.524 Q753.846 725.654 753.036 727.575 Q752.249 729.473 750.142 732.066 Q749.563 732.737 746.462 735.954 Q743.36 739.149 737.712 744.913 Z" fill="#000000" fill-rule="nonzero" fill-opacity="1"></path><path clip-path="url(#clip230)" d="M773.846 717.367 Q770.235 717.367 768.406 720.931 Q766.6 724.473 766.6 731.603 Q766.6 738.709 768.406 742.274 Q770.235 745.815 773.846 745.815 Q777.48 745.815 779.286 742.274 Q781.114 738.709 781.114 731.603 Q781.114 724.473 779.286 720.931 Q777.48 717.367 773.846 717.367 M773.846 713.663 Q779.656 713.663 782.711 718.269 Q785.79 722.853 785.79 731.603 Q785.79 740.329 782.711 744.936 Q779.656 749.519 773.846 749.519 Q768.036 749.519 764.957 744.936 Q761.901 740.329 761.901 731.603 Q761.901 722.853 764.957 718.269 Q768.036 713.663 773.846 713.663 Z" fill="#000000" fill-rule="nonzero" fill-opacity="1"></path><path clip-path="url(#clip230)" d="M791.253 733.964 L803.73 733.964 L803.73 737.76 L791.253 737.76 L791.253 733.964 Z" fill="#000000" fill-rule="nonzero" fill-opacity="1"></path><path clip-path="url(#clip230)" d="M821.114 717.367 Q817.503 717.367 815.674 720.931 Q813.869 724.473 813.869 731.603 Q813.869 738.709 815.674 742.274 Q817.503 745.815 821.114 745.815 Q824.748 745.815 826.554 742.274 Q828.382 738.709 828.382 731.603 Q828.382 724.473 826.554 720.931 Q824.748 717.367 821.114 717.367 M821.114 713.663 Q826.924 713.663 829.98 718.269 Q833.058 722.853 833.058 731.603 Q833.058 740.329 829.98 744.936 Q826.924 749.519 821.114 749.519 Q815.304 749.519 812.225 744.936 Q809.17 740.329 809.17 731.603 Q809.17 722.853 812.225 718.269 Q815.304 713.663 821.114 713.663 Z" fill="#000000" fill-rule="nonzero" fill-opacity="1"></path><path clip-path="url(#clip230)" d="M841.322 714.288 L859.679 714.288 L859.679 718.223 L845.605 718.223 L845.605 726.695 Q846.623 726.348 847.642 726.186 Q848.66 726.001 849.679 726.001 Q855.466 726.001 858.845 729.172 Q862.225 732.343 862.225 737.76 Q862.225 743.339 858.753 746.44 Q855.28 749.519 848.961 749.519 Q846.785 749.519 844.517 749.149 Q842.271 748.778 839.864 748.038 L839.864 743.339 Q841.947 744.473 844.169 745.028 Q846.392 745.584 848.868 745.584 Q852.873 745.584 855.211 743.478 Q857.549 741.371 857.549 737.76 Q857.549 734.149 855.211 732.042 Q852.873 729.936 848.868 729.936 Q846.993 729.936 845.119 730.353 Q843.267 730.769 841.322 731.649 L841.322 714.288 Z" fill="#000000" fill-rule="nonzero" fill-opacity="1"></path><path clip-path="url(#clip230)" d="M868.683 733.964 L881.16 733.964 L881.16 737.76 L868.683 737.76 L868.683 733.964 Z" fill="#000000" fill-rule="nonzero" fill-opacity="1"></path><path clip-path="url(#clip230)" d="M898.544 717.367 Q894.933 717.367 893.104 720.931 Q891.299 724.473 891.299 731.603 Q891.299 738.709 893.104 742.274 Q894.933 745.815 898.544 745.815 Q902.178 745.815 903.984 742.274 Q905.813 738.709 905.813 731.603 Q905.813 724.473 903.984 720.931 Q902.178 717.367 898.544 717.367 M898.544 713.663 Q904.354 713.663 907.41 718.269 Q910.489 722.853 910.489 731.603 Q910.489 740.329 907.41 744.936 Q904.354 749.519 898.544 749.519 Q892.734 749.519 889.655 744.936 Q886.6 740.329 886.6 731.603 Q886.6 722.853 889.655 718.269 Q892.734 713.663 898.544 713.663 Z" fill="#000000" fill-rule="nonzero" fill-opacity="1"></path><path clip-path="url(#clip230)" d="M919.516 744.913 L927.155 744.913 L927.155 718.547 L918.845 720.214 L918.845 715.955 L927.109 714.288 L931.785 714.288 L931.785 744.913 L939.424 744.913 L939.424 748.848 L919.516 748.848 L919.516 744.913 Z" fill="#000000" fill-rule="nonzero" fill-opacity="1"></path><path clip-path="url(#clip230)" d="M1274.32 744.913 L1290.64 744.913 L1290.64 748.848 L1268.7 748.848 L1268.7 744.913 Q1271.36 742.158 1275.94 737.528 Q1280.55 732.876 1281.73 731.533 Q1283.97 729.01 1284.85 727.274 Q1285.76 725.515 1285.76 723.825 Q1285.76 721.07 1283.81 719.334 Q1281.89 717.598 1278.79 717.598 Q1276.59 717.598 1274.14 718.362 Q1271.71 719.126 1268.93 720.677 L1268.93 715.955 Q1271.75 714.82 1274.21 714.242 Q1276.66 713.663 1278.7 713.663 Q1284.07 713.663 1287.26 716.348 Q1290.46 719.033 1290.46 723.524 Q1290.46 725.654 1289.65 727.575 Q1288.86 729.473 1286.75 732.066 Q1286.17 732.737 1283.07 735.954 Q1279.97 739.149 1274.32 744.913 Z" fill="#000000" fill-rule="nonzero" fill-opacity="1"></path><path clip-path="url(#clip230)" d="M1310.46 717.367 Q1306.85 717.367 1305.02 720.931 Q1303.21 724.473 1303.21 731.603 Q1303.21 738.709 1305.02 742.274 Q1306.85 745.815 1310.46 745.815 Q1314.09 745.815 1315.9 742.274 Q1317.72 738.709 1317.72 731.603 Q1317.72 724.473 1315.9 720.931 Q1314.09 717.367 1310.46 717.367 M1310.46 713.663 Q1316.27 713.663 1319.32 718.269 Q1322.4 722.853 1322.4 731.603 Q1322.4 740.329 1319.32 744.936 Q1316.27 749.519 1310.46 749.519 Q1304.65 749.519 1301.57 744.936 Q1298.51 740.329 1298.51 731.603 Q1298.51 722.853 1301.57 718.269 Q1304.65 713.663 1310.46 713.663 Z" fill="#000000" fill-rule="nonzero" fill-opacity="1"></path><path clip-path="url(#clip230)" d="M1334.65 744.913 L1350.97 744.913 L1350.97 748.848 L1329.02 748.848 L1329.02 744.913 Q1331.68 742.158 1336.27 737.528 Q1340.87 732.876 1342.05 731.533 Q1344.3 729.01 1345.18 727.274 Q1346.08 725.515 1346.08 723.825 Q1346.08 721.07 1344.14 719.334 Q1342.22 717.598 1339.11 717.598 Q1336.91 717.598 1334.46 718.362 Q1332.03 719.126 1329.25 720.677 L1329.25 715.955 Q1332.08 714.82 1334.53 714.242 Q1336.98 713.663 1339.02 713.663 Q1344.39 713.663 1347.59 716.348 Q1350.78 719.033 1350.78 723.524 Q1350.78 725.654 1349.97 727.575 Q1349.18 729.473 1347.08 732.066 Q1346.5 732.737 1343.4 735.954 Q1340.29 739.149 1334.65 744.913 Z" fill="#000000" fill-rule="nonzero" fill-opacity="1"></path><path clip-path="url(#clip230)" d="M1370.78 717.367 Q1367.17 717.367 1365.34 720.931 Q1363.53 724.473 1363.53 731.603 Q1363.53 738.709 1365.34 742.274 Q1367.17 745.815 1370.78 745.815 Q1374.41 745.815 1376.22 742.274 Q1378.05 738.709 1378.05 731.603 Q1378.05 724.473 1376.22 720.931 Q1374.41 717.367 1370.78 717.367 M1370.78 713.663 Q1376.59 713.663 1379.65 718.269 Q1382.72 722.853 1382.72 731.603 Q1382.72 740.329 1379.65 744.936 Q1376.59 749.519 1370.78 749.519 Q1364.97 749.519 1361.89 744.936 Q1358.84 740.329 1358.84 731.603 Q1358.84 722.853 1361.89 718.269 Q1364.97 713.663 1370.78 713.663 Z" fill="#000000" fill-rule="nonzero" fill-opacity="1"></path><path clip-path="url(#clip230)" d="M1388.19 733.964 L1400.66 733.964 L1400.66 737.76 L1388.19 737.76 L1388.19 733.964 Z" fill="#000000" fill-rule="nonzero" fill-opacity="1"></path><path clip-path="url(#clip230)" d="M1408.86 744.913 L1416.5 744.913 L1416.5 718.547 L1408.19 720.214 L1408.19 715.955 L1416.45 714.288 L1421.13 714.288 L1421.13 744.913 L1428.77 744.913 L1428.77 748.848 L1408.86 748.848 L1408.86 744.913 Z" fill="#000000" fill-rule="nonzero" fill-opacity="1"></path><path clip-path="url(#clip230)" d="M1439.02 744.913 L1446.66 744.913 L1446.66 718.547 L1438.35 720.214 L1438.35 715.955 L1446.61 714.288 L1451.29 714.288 L1451.29 744.913 L1458.93 744.913 L1458.93 748.848 L1439.02 748.848 L1439.02 744.913 Z" fill="#000000" fill-rule="nonzero" fill-opacity="1"></path><path clip-path="url(#clip230)" d="M1465.62 733.964 L1478.09 733.964 L1478.09 737.76 L1465.62 737.76 L1465.62 733.964 Z" fill="#000000" fill-rule="nonzero" fill-opacity="1"></path><path clip-path="url(#clip230)" d="M1495.48 717.367 Q1491.87 717.367 1490.04 720.931 Q1488.23 724.473 1488.23 731.603 Q1488.23 738.709 1490.04 742.274 Q1491.87 745.815 1495.48 745.815 Q1499.11 745.815 1500.92 742.274 Q1502.75 738.709 1502.75 731.603 Q1502.75 724.473 1500.92 720.931 Q1499.11 717.367 1495.48 717.367 M1495.48 713.663 Q1501.29 713.663 1504.34 718.269 Q1507.42 722.853 1507.42 731.603 Q1507.42 740.329 1504.34 744.936 Q1501.29 749.519 1495.48 749.519 Q1489.67 749.519 1486.59 744.936 Q1483.53 740.329 1483.53 731.603 Q1483.53 722.853 1486.59 718.269 Q1489.67 713.663 1495.48 713.663 Z" fill="#000000" fill-rule="nonzero" fill-opacity="1"></path><path clip-path="url(#clip230)" d="M1516.45 744.913 L1524.09 744.913 L1524.09 718.547 L1515.78 720.214 L1515.78 715.955 L1524.04 714.288 L1528.72 714.288 L1528.72 744.913 L1536.36 744.913 L1536.36 748.848 L1516.45 748.848 L1516.45 744.913 Z" fill="#000000" fill-rule="nonzero" fill-opacity="1"></path><path clip-path="url(#clip230)" d="M1861.52 744.913 L1877.84 744.913 L1877.84 748.848 L1855.9 748.848 L1855.9 744.913 Q1858.56 742.158 1863.14 737.528 Q1867.75 732.876 1868.93 731.533 Q1871.18 729.01 1872.06 727.274 Q1872.96 725.515 1872.96 723.825 Q1872.96 721.07 1871.01 719.334 Q1869.09 717.598 1865.99 717.598 Q1863.79 717.598 1861.34 718.362 Q1858.91 719.126 1856.13 720.677 L1856.13 715.955 Q1858.95 714.82 1861.41 714.242 Q1863.86 713.663 1865.9 713.663 Q1871.27 713.663 1874.46 716.348 Q1877.66 719.033 1877.66 723.524 Q1877.66 725.654 1876.85 727.575 Q1876.06 729.473 1873.95 732.066 Q1873.38 732.737 1870.27 735.954 Q1867.17 739.149 1861.52 744.913 Z" fill="#000000" fill-rule="nonzero" fill-opacity="1"></path><path clip-path="url(#clip230)" d="M1897.66 717.367 Q1894.05 717.367 1892.22 720.931 Q1890.41 724.473 1890.41 731.603 Q1890.41 738.709 1892.22 742.274 Q1894.05 745.815 1897.66 745.815 Q1901.29 745.815 1903.1 742.274 Q1904.93 738.709 1904.93 731.603 Q1904.93 724.473 1903.1 720.931 Q1901.29 717.367 1897.66 717.367 M1897.66 713.663 Q1903.47 713.663 1906.52 718.269 Q1909.6 722.853 1909.6 731.603 Q1909.6 740.329 1906.52 744.936 Q1903.47 749.519 1897.66 749.519 Q1891.85 749.519 1888.77 744.936 Q1885.71 740.329 1885.71 731.603 Q1885.71 722.853 1888.77 718.269 Q1891.85 713.663 1897.66 713.663 Z" fill="#000000" fill-rule="nonzero" fill-opacity="1"></path><path clip-path="url(#clip230)" d="M1921.85 744.913 L1938.17 744.913 L1938.17 748.848 L1916.22 748.848 L1916.22 744.913 Q1918.88 742.158 1923.47 737.528 Q1928.07 732.876 1929.25 731.533 Q1931.5 729.01 1932.38 727.274 Q1933.28 725.515 1933.28 723.825 Q1933.28 721.07 1931.34 719.334 Q1929.42 717.598 1926.32 717.598 Q1924.12 717.598 1921.66 718.362 Q1919.23 719.126 1916.45 720.677 L1916.45 715.955 Q1919.28 714.82 1921.73 714.242 Q1924.19 713.663 1926.22 713.663 Q1931.59 713.663 1934.79 716.348 Q1937.98 719.033 1937.98 723.524 Q1937.98 725.654 1937.17 727.575 Q1936.38 729.473 1934.28 732.066 Q1933.7 732.737 1930.6 735.954 Q1927.5 739.149 1921.85 744.913 Z" fill="#000000" fill-rule="nonzero" fill-opacity="1"></path><path clip-path="url(#clip230)" d="M1948.79 744.913 L1956.43 744.913 L1956.43 718.547 L1948.12 720.214 L1948.12 715.955 L1956.38 714.288 L1961.06 714.288 L1961.06 744.913 L1968.7 744.913 L1968.7 748.848 L1948.79 748.848 L1948.79 744.913 Z" fill="#000000" fill-rule="nonzero" fill-opacity="1"></path><path clip-path="url(#clip230)" d="M1975.39 733.964 L1987.87 733.964 L1987.87 737.76 L1975.39 737.76 L1975.39 733.964 Z" fill="#000000" fill-rule="nonzero" fill-opacity="1"></path><path clip-path="url(#clip230)" d="M2005.25 717.367 Q2001.64 717.367 1999.81 720.931 Q1998 724.473 1998 731.603 Q1998 738.709 1999.81 742.274 Q2001.64 745.815 2005.25 745.815 Q2008.88 745.815 2010.69 742.274 Q2012.52 738.709 2012.52 731.603 Q2012.52 724.473 2010.69 720.931 Q2008.88 717.367 2005.25 717.367 M2005.25 713.663 Q2011.06 713.663 2014.12 718.269 Q2017.19 722.853 2017.19 731.603 Q2017.19 740.329 2014.12 744.936 Q2011.06 749.519 2005.25 749.519 Q1999.44 749.519 1996.36 744.936 Q1993.31 740.329 1993.31 731.603 Q1993.31 722.853 1996.36 718.269 Q1999.44 713.663 2005.25 713.663 Z" fill="#000000" fill-rule="nonzero" fill-opacity="1"></path><path clip-path="url(#clip230)" d="M2025.46 714.288 L2043.81 714.288 L2043.81 718.223 L2029.74 718.223 L2029.74 726.695 Q2030.76 726.348 2031.78 726.186 Q2032.8 726.001 2033.81 726.001 Q2039.6 726.001 2042.98 729.172 Q2046.36 732.343 2046.36 737.76 Q2046.36 743.339 2042.89 746.44 Q2039.42 749.519 2033.1 749.519 Q2030.92 749.519 2028.65 749.149 Q2026.41 748.778 2024 748.038 L2024 743.339 Q2026.08 744.473 2028.31 745.028 Q2030.53 745.584 2033 745.584 Q2037.01 745.584 2039.35 743.478 Q2041.68 741.371 2041.68 737.76 Q2041.68 734.149 2039.35 732.042 Q2037.01 729.936 2033 729.936 Q2031.13 729.936 2029.25 730.353 Q2027.4 730.769 2025.46 731.649 L2025.46 714.288 Z" fill="#000000" fill-rule="nonzero" fill-opacity="1"></path><path clip-path="url(#clip230)" d="M2052.82 733.964 L2065.3 733.964 L2065.3 737.76 L2052.82 737.76 L2052.82 733.964 Z" fill="#000000" fill-rule="nonzero" fill-opacity="1"></path><path clip-path="url(#clip230)" d="M2082.68 717.367 Q2079.07 717.367 2077.24 720.931 Q2075.43 724.473 2075.43 731.603 Q2075.43 738.709 2077.24 742.274 Q2079.07 745.815 2082.68 745.815 Q2086.31 745.815 2088.12 742.274 Q2089.95 738.709 2089.95 731.603 Q2089.95 724.473 2088.12 720.931 Q2086.31 717.367 2082.68 717.367 M2082.68 713.663 Q2088.49 713.663 2091.55 718.269 Q2094.62 722.853 2094.62 731.603 Q2094.62 740.329 2091.55 744.936 Q2088.49 749.519 2082.68 749.519 Q2076.87 749.519 2073.79 744.936 Q2070.74 740.329 2070.74 731.603 Q2070.74 722.853 2073.79 718.269 Q2076.87 713.663 2082.68 713.663 Z" fill="#000000" fill-rule="nonzero" fill-opacity="1"></path><path clip-path="url(#clip230)" d="M2103.65 744.913 L2111.29 744.913 L2111.29 718.547 L2102.98 720.214 L2102.98 715.955 L2111.24 714.288 L2115.92 714.288 L2115.92 744.913 L2123.56 744.913 L2123.56 748.848 L2103.65 748.848 L2103.65 744.913 Z" fill="#000000" fill-rule="nonzero" fill-opacity="1"></path><polyline clip-path="url(#clip232)" style="stroke:#000000; stroke-linecap:round; stroke-linejoin:round; stroke-width:2; stroke-opacity:0.1; fill:none" points="186.274,668.357 2352.76,668.357 "></polyline>
<polyline clip-path="url(#clip232)" style="stroke:#000000; stroke-linecap:round; stroke-linejoin:round; stroke-width:2; stroke-opacity:0.1; fill:none" points="186.274,517.602 2352.76,517.602 "></polyline>
<polyline clip-path="url(#clip232)" style="stroke:#000000; stroke-linecap:round; stroke-linejoin:round; stroke-width:2; stroke-opacity:0.1; fill:none" points="186.274,366.846 2352.76,366.846 "></polyline>
<polyline clip-path="url(#clip232)" style="stroke:#000000; stroke-linecap:round; stroke-linejoin:round; stroke-width:2; stroke-opacity:0.1; fill:none" points="186.274,216.09 2352.76,216.09 "></polyline>
<polyline clip-path="url(#clip232)" style="stroke:#000000; stroke-linecap:round; stroke-linejoin:round; stroke-width:2; stroke-opacity:0.1; fill:none" points="186.274,65.3348 2352.76,65.3348 "></polyline>
<polyline clip-path="url(#clip230)" style="stroke:#000000; stroke-linecap:round; stroke-linejoin:round; stroke-width:4; stroke-opacity:1; fill:none" points="186.274,686.448 186.274,47.2441 "></polyline>
<polyline clip-path="url(#clip230)" style="stroke:#000000; stroke-linecap:round; stroke-linejoin:round; stroke-width:4; stroke-opacity:1; fill:none" points="186.274,668.357 205.172,668.357 "></polyline>
<polyline clip-path="url(#clip230)" style="stroke:#000000; stroke-linecap:round; stroke-linejoin:round; stroke-width:4; stroke-opacity:1; fill:none" points="186.274,517.602 205.172,517.602 "></polyline>
<polyline clip-path="url(#clip230)" style="stroke:#000000; stroke-linecap:round; stroke-linejoin:round; stroke-width:4; stroke-opacity:1; fill:none" points="186.274,366.846 205.172,366.846 "></polyline>
<polyline clip-path="url(#clip230)" style="stroke:#000000; stroke-linecap:round; stroke-linejoin:round; stroke-width:4; stroke-opacity:1; fill:none" points="186.274,216.09 205.172,216.09 "></polyline>
<polyline clip-path="url(#clip230)" style="stroke:#000000; stroke-linecap:round; stroke-linejoin:round; stroke-width:4; stroke-opacity:1; fill:none" points="186.274,65.3348 205.172,65.3348 "></polyline>
<path clip-path="url(#clip230)" d="M62.9365 654.156 Q59.3254 654.156 57.4967 657.721 Q55.6912 661.262 55.6912 668.392 Q55.6912 675.498 57.4967 679.063 Q59.3254 682.605 62.9365 682.605 Q66.5707 682.605 68.3763 679.063 Q70.205 675.498 70.205 668.392 Q70.205 661.262 68.3763 657.721 Q66.5707 654.156 62.9365 654.156 M62.9365 650.452 Q68.7467 650.452 71.8022 655.059 Q74.8809 659.642 74.8809 668.392 Q74.8809 677.119 71.8022 681.725 Q68.7467 686.308 62.9365 686.308 Q57.1264 686.308 54.0477 681.725 Q50.9921 677.119 50.9921 668.392 Q50.9921 659.642 54.0477 655.059 Q57.1264 650.452 62.9365 650.452 Z" fill="#000000" fill-rule="nonzero" fill-opacity="1"></path><path clip-path="url(#clip230)" d="M83.0984 679.758 L87.9827 679.758 L87.9827 685.637 L83.0984 685.637 L83.0984 679.758 Z" fill="#000000" fill-rule="nonzero" fill-opacity="1"></path><path clip-path="url(#clip230)" d="M108.168 654.156 Q104.557 654.156 102.728 657.721 Q100.922 661.262 100.922 668.392 Q100.922 675.498 102.728 679.063 Q104.557 682.605 108.168 682.605 Q111.802 682.605 113.608 679.063 Q115.436 675.498 115.436 668.392 Q115.436 661.262 113.608 657.721 Q111.802 654.156 108.168 654.156 M108.168 650.452 Q113.978 650.452 117.033 655.059 Q120.112 659.642 120.112 668.392 Q120.112 677.119 117.033 681.725 Q113.978 686.308 108.168 686.308 Q102.358 686.308 99.2789 681.725 Q96.2234 677.119 96.2234 668.392 Q96.2234 659.642 99.2789 655.059 Q102.358 650.452 108.168 650.452 Z" fill="#000000" fill-rule="nonzero" fill-opacity="1"></path><path clip-path="url(#clip230)" d="M138.33 654.156 Q134.719 654.156 132.89 657.721 Q131.084 661.262 131.084 668.392 Q131.084 675.498 132.89 679.063 Q134.719 682.605 138.33 682.605 Q141.964 682.605 143.769 679.063 Q145.598 675.498 145.598 668.392 Q145.598 661.262 143.769 657.721 Q141.964 654.156 138.33 654.156 M138.33 650.452 Q144.14 650.452 147.195 655.059 Q150.274 659.642 150.274 668.392 Q150.274 677.119 147.195 681.725 Q144.14 686.308 138.33 686.308 Q132.519 686.308 129.441 681.725 Q126.385 677.119 126.385 668.392 Q126.385 659.642 129.441 655.059 Q132.519 650.452 138.33 650.452 Z" fill="#000000" fill-rule="nonzero" fill-opacity="1"></path><path clip-path="url(#clip230)" d="M63.9319 503.4 Q60.3208 503.4 58.4921 506.965 Q56.6865 510.507 56.6865 517.636 Q56.6865 524.743 58.4921 528.308 Q60.3208 531.849 63.9319 531.849 Q67.5661 531.849 69.3717 528.308 Q71.2004 524.743 71.2004 517.636 Q71.2004 510.507 69.3717 506.965 Q67.5661 503.4 63.9319 503.4 M63.9319 499.697 Q69.742 499.697 72.7976 504.303 Q75.8763 508.886 75.8763 517.636 Q75.8763 526.363 72.7976 530.97 Q69.742 535.553 63.9319 535.553 Q58.1217 535.553 55.043 530.97 Q51.9875 526.363 51.9875 517.636 Q51.9875 508.886 55.043 504.303 Q58.1217 499.697 63.9319 499.697 Z" fill="#000000" fill-rule="nonzero" fill-opacity="1"></path><path clip-path="url(#clip230)" d="M84.0938 529.002 L88.978 529.002 L88.978 534.882 L84.0938 534.882 L84.0938 529.002 Z" fill="#000000" fill-rule="nonzero" fill-opacity="1"></path><path clip-path="url(#clip230)" d="M103.191 530.946 L119.51 530.946 L119.51 534.882 L97.566 534.882 L97.566 530.946 Q100.228 528.192 104.811 523.562 Q109.418 518.909 110.598 517.567 Q112.844 515.044 113.723 513.308 Q114.626 511.548 114.626 509.859 Q114.626 507.104 112.682 505.368 Q110.76 503.632 107.658 503.632 Q105.459 503.632 103.006 504.396 Q100.575 505.16 97.7974 506.71 L97.7974 501.988 Q100.621 500.854 103.075 500.275 Q105.529 499.697 107.566 499.697 Q112.936 499.697 116.131 502.382 Q119.325 505.067 119.325 509.558 Q119.325 511.687 118.515 513.609 Q117.728 515.507 115.621 518.099 Q115.043 518.771 111.941 521.988 Q108.839 525.183 103.191 530.946 Z" fill="#000000" fill-rule="nonzero" fill-opacity="1"></path><path clip-path="url(#clip230)" d="M129.371 500.322 L147.728 500.322 L147.728 504.257 L133.654 504.257 L133.654 512.729 Q134.672 512.382 135.691 512.22 Q136.709 512.034 137.728 512.034 Q143.515 512.034 146.894 515.206 Q150.274 518.377 150.274 523.794 Q150.274 529.372 146.802 532.474 Q143.33 535.553 137.01 535.553 Q134.834 535.553 132.566 535.183 Q130.32 534.812 127.913 534.071 L127.913 529.372 Q129.996 530.507 132.219 531.062 Q134.441 531.618 136.918 531.618 Q140.922 531.618 143.26 529.511 Q145.598 527.405 145.598 523.794 Q145.598 520.183 143.26 518.076 Q140.922 515.97 136.918 515.97 Q135.043 515.97 133.168 516.386 Q131.316 516.803 129.371 517.683 L129.371 500.322 Z" fill="#000000" fill-rule="nonzero" fill-opacity="1"></path><path clip-path="url(#clip230)" d="M62.9365 352.645 Q59.3254 352.645 57.4967 356.209 Q55.6912 359.751 55.6912 366.881 Q55.6912 373.987 57.4967 377.552 Q59.3254 381.094 62.9365 381.094 Q66.5707 381.094 68.3763 377.552 Q70.205 373.987 70.205 366.881 Q70.205 359.751 68.3763 356.209 Q66.5707 352.645 62.9365 352.645 M62.9365 348.941 Q68.7467 348.941 71.8022 353.547 Q74.8809 358.131 74.8809 366.881 Q74.8809 375.608 71.8022 380.214 Q68.7467 384.797 62.9365 384.797 Q57.1264 384.797 54.0477 380.214 Q50.9921 375.608 50.9921 366.881 Q50.9921 358.131 54.0477 353.547 Q57.1264 348.941 62.9365 348.941 Z" fill="#000000" fill-rule="nonzero" fill-opacity="1"></path><path clip-path="url(#clip230)" d="M83.0984 378.246 L87.9827 378.246 L87.9827 384.126 L83.0984 384.126 L83.0984 378.246 Z" fill="#000000" fill-rule="nonzero" fill-opacity="1"></path><path clip-path="url(#clip230)" d="M98.2141 349.566 L116.57 349.566 L116.57 353.501 L102.496 353.501 L102.496 361.973 Q103.515 361.626 104.534 361.464 Q105.552 361.279 106.571 361.279 Q112.358 361.279 115.737 364.45 Q119.117 367.621 119.117 373.038 Q119.117 378.617 115.645 381.719 Q112.172 384.797 105.853 384.797 Q103.677 384.797 101.409 384.427 Q99.1632 384.057 96.7558 383.316 L96.7558 378.617 Q98.8391 379.751 101.061 380.307 Q103.284 380.862 105.76 380.862 Q109.765 380.862 112.103 378.756 Q114.441 376.649 114.441 373.038 Q114.441 369.427 112.103 367.321 Q109.765 365.214 105.76 365.214 Q103.885 365.214 102.01 365.631 Q100.159 366.047 98.2141 366.927 L98.2141 349.566 Z" fill="#000000" fill-rule="nonzero" fill-opacity="1"></path><path clip-path="url(#clip230)" d="M138.33 352.645 Q134.719 352.645 132.89 356.209 Q131.084 359.751 131.084 366.881 Q131.084 373.987 132.89 377.552 Q134.719 381.094 138.33 381.094 Q141.964 381.094 143.769 377.552 Q145.598 373.987 145.598 366.881 Q145.598 359.751 143.769 356.209 Q141.964 352.645 138.33 352.645 M138.33 348.941 Q144.14 348.941 147.195 353.547 Q150.274 358.131 150.274 366.881 Q150.274 375.608 147.195 380.214 Q144.14 384.797 138.33 384.797 Q132.519 384.797 129.441 380.214 Q126.385 375.608 126.385 366.881 Q126.385 358.131 129.441 353.547 Q132.519 348.941 138.33 348.941 Z" fill="#000000" fill-rule="nonzero" fill-opacity="1"></path><path clip-path="url(#clip230)" d="M63.9319 201.889 Q60.3208 201.889 58.4921 205.454 Q56.6865 208.996 56.6865 216.125 Q56.6865 223.232 58.4921 226.796 Q60.3208 230.338 63.9319 230.338 Q67.5661 230.338 69.3717 226.796 Q71.2004 223.232 71.2004 216.125 Q71.2004 208.996 69.3717 205.454 Q67.5661 201.889 63.9319 201.889 M63.9319 198.185 Q69.742 198.185 72.7976 202.792 Q75.8763 207.375 75.8763 216.125 Q75.8763 224.852 72.7976 229.458 Q69.742 234.042 63.9319 234.042 Q58.1217 234.042 55.043 229.458 Q51.9875 224.852 51.9875 216.125 Q51.9875 207.375 55.043 202.792 Q58.1217 198.185 63.9319 198.185 Z" fill="#000000" fill-rule="nonzero" fill-opacity="1"></path><path clip-path="url(#clip230)" d="M84.0938 227.491 L88.978 227.491 L88.978 233.37 L84.0938 233.37 L84.0938 227.491 Z" fill="#000000" fill-rule="nonzero" fill-opacity="1"></path><path clip-path="url(#clip230)" d="M97.9826 198.81 L120.205 198.81 L120.205 200.801 L107.658 233.37 L102.774 233.37 L114.58 202.746 L97.9826 202.746 L97.9826 198.81 Z" fill="#000000" fill-rule="nonzero" fill-opacity="1"></path><path clip-path="url(#clip230)" d="M129.371 198.81 L147.728 198.81 L147.728 202.746 L133.654 202.746 L133.654 211.218 Q134.672 210.87 135.691 210.708 Q136.709 210.523 137.728 210.523 Q143.515 210.523 146.894 213.695 Q150.274 216.866 150.274 222.282 Q150.274 227.861 146.802 230.963 Q143.33 234.042 137.01 234.042 Q134.834 234.042 132.566 233.671 Q130.32 233.301 127.913 232.56 L127.913 227.861 Q129.996 228.995 132.219 229.551 Q134.441 230.107 136.918 230.107 Q140.922 230.107 143.26 228 Q145.598 225.894 145.598 222.282 Q145.598 218.671 143.26 216.565 Q140.922 214.458 136.918 214.458 Q135.043 214.458 133.168 214.875 Q131.316 215.292 129.371 216.171 L129.371 198.81 Z" fill="#000000" fill-rule="nonzero" fill-opacity="1"></path><path clip-path="url(#clip230)" d="M53.7467 78.6796 L61.3856 78.6796 L61.3856 52.314 L53.0754 53.9807 L53.0754 49.7214 L61.3393 48.0548 L66.0152 48.0548 L66.0152 78.6796 L73.654 78.6796 L73.654 82.6148 L53.7467 82.6148 L53.7467 78.6796 Z" fill="#000000" fill-rule="nonzero" fill-opacity="1"></path><path clip-path="url(#clip230)" d="M83.0984 76.7352 L87.9827 76.7352 L87.9827 82.6148 L83.0984 82.6148 L83.0984 76.7352 Z" fill="#000000" fill-rule="nonzero" fill-opacity="1"></path><path clip-path="url(#clip230)" d="M108.168 51.1335 Q104.557 51.1335 102.728 54.6983 Q100.922 58.2399 100.922 65.3695 Q100.922 72.4759 102.728 76.0407 Q104.557 79.5824 108.168 79.5824 Q111.802 79.5824 113.608 76.0407 Q115.436 72.4759 115.436 65.3695 Q115.436 58.2399 113.608 54.6983 Q111.802 51.1335 108.168 51.1335 M108.168 47.4298 Q113.978 47.4298 117.033 52.0362 Q120.112 56.6195 120.112 65.3695 Q120.112 74.0963 117.033 78.7028 Q113.978 83.2861 108.168 83.2861 Q102.358 83.2861 99.2789 78.7028 Q96.2234 74.0963 96.2234 65.3695 Q96.2234 56.6195 99.2789 52.0362 Q102.358 47.4298 108.168 47.4298 Z" fill="#000000" fill-rule="nonzero" fill-opacity="1"></path><path clip-path="url(#clip230)" d="M138.33 51.1335 Q134.719 51.1335 132.89 54.6983 Q131.084 58.2399 131.084 65.3695 Q131.084 72.4759 132.89 76.0407 Q134.719 79.5824 138.33 79.5824 Q141.964 79.5824 143.769 76.0407 Q145.598 72.4759 145.598 65.3695 Q145.598 58.2399 143.769 54.6983 Q141.964 51.1335 138.33 51.1335 M138.33 47.4298 Q144.14 47.4298 147.195 52.0362 Q150.274 56.6195 150.274 65.3695 Q150.274 74.0963 147.195 78.7028 Q144.14 83.2861 138.33 83.2861 Q132.519 83.2861 129.441 78.7028 Q126.385 74.0963 126.385 65.3695 Q126.385 56.6195 129.441 52.0362 Q132.519 47.4298 138.33 47.4298 Z" fill="#000000" fill-rule="nonzero" fill-opacity="1"></path><polyline clip-path="url(#clip232)" style="stroke:#ffa500; stroke-linecap:round; stroke-linejoin:round; stroke-width:8; stroke-opacity:1; fill:none" points="247.59,65.3348 270.299,65.3348 293.008,65.3348 315.718,65.3348 338.427,65.3348 361.137,65.3348 383.846,65.3348 406.556,65.3348 429.265,65.3348 451.975,65.3348 474.684,65.3348 497.394,668.357 520.103,65.3348 542.812,65.3348 565.522,65.3348 588.231,668.357 610.941,65.3348 633.65,668.357 656.36,668.357 679.069,65.3348 701.779,65.3348 724.488,65.3348 747.198,668.357 769.907,65.3348 792.616,65.3348 815.326,668.357 838.035,65.3348 860.745,65.3348 883.454,65.3348 906.164,668.357 928.873,65.3348 951.583,65.3348 974.292,65.3348 997.002,65.3348 1019.71,65.3348 1042.42,65.3348 1065.13,65.3348 1087.84,65.3348 1110.55,65.3348 1133.26,65.3348 1155.97,65.3348 1178.68,65.3348 1201.39,65.3348 1224.1,668.357 1246.81,65.3348 1269.51,65.3348 1292.22,65.3348 1314.93,65.3348 1337.64,65.3348 1360.35,65.3348 1383.06,668.357 1405.77,65.3348 1428.48,668.357 1451.19,65.3348 1473.9,65.3348 1496.61,668.357 1519.32,65.3348 1542.03,65.3348 1564.74,65.3348 1587.45,65.3348 1610.16,65.3348 1632.87,65.3348 1655.58,65.3348 1678.29,65.3348 1700.99,65.3348 1723.7,65.3348 1746.41,65.3348 1769.12,668.357 1791.83,65.3348 1814.54,65.3348 1837.25,65.3348 1859.96,65.3348 1882.67,65.3348 1905.38,65.3348 1928.09,65.3348 1950.8,65.3348 1973.51,65.3348 1996.22,65.3348 2018.93,65.3348 2041.64,65.3348 2064.35,65.3348 2087.06,65.3348 2109.76,65.3348 2132.47,668.357 2155.18,65.3348 2177.89,65.3348 2200.6,65.3348 2223.31,65.3348 2246.02,65.3348 2268.73,65.3348 2291.44,65.3348 "></polyline>
<path clip-path="url(#clip230)" d="M1985.17 665.141 L2280.54 665.141 L2280.54 561.461 L1985.17 561.461  Z" fill="#ffffff" fill-rule="evenodd" fill-opacity="1"></path>
<polyline clip-path="url(#clip230)" style="stroke:#000000; stroke-linecap:round; stroke-linejoin:round; stroke-width:4; stroke-opacity:1; fill:none" points="1985.17,665.141 2280.54,665.141 2280.54,561.461 1985.17,561.461 1985.17,665.141 "></polyline>
<polyline clip-path="url(#clip230)" style="stroke:#ffa500; stroke-linecap:round; stroke-linejoin:round; stroke-width:8; stroke-opacity:1; fill:none" points="2009.24,613.301 2153.67,613.301 "></polyline>
<path clip-path="url(#clip230)" d="M2196.17 605.419 L2196.17 609.447 Q2194.36 608.521 2192.42 608.058 Q2190.47 607.595 2188.39 607.595 Q2185.22 607.595 2183.62 608.567 Q2182.05 609.54 2182.05 611.484 Q2182.05 612.965 2183.18 613.822 Q2184.32 614.655 2187.74 615.419 L2189.2 615.743 Q2193.74 616.715 2195.63 618.498 Q2197.56 620.257 2197.56 623.428 Q2197.56 627.039 2194.69 629.146 Q2191.84 631.252 2186.84 631.252 Q2184.76 631.252 2182.49 630.836 Q2180.24 630.442 2177.74 629.632 L2177.74 625.234 Q2180.1 626.461 2182.39 627.086 Q2184.69 627.688 2186.93 627.688 Q2189.94 627.688 2191.56 626.669 Q2193.18 625.627 2193.18 623.752 Q2193.18 622.016 2192 621.09 Q2190.84 620.164 2186.88 619.308 L2185.4 618.961 Q2181.45 618.127 2179.69 616.414 Q2177.93 614.678 2177.93 611.669 Q2177.93 608.012 2180.52 606.021 Q2183.11 604.03 2187.88 604.03 Q2190.24 604.03 2192.32 604.378 Q2194.41 604.725 2196.17 605.419 Z" fill="#000000" fill-rule="nonzero" fill-opacity="1"></path><path clip-path="url(#clip230)" d="M2208.46 626.692 L2208.46 640.442 L2204.18 640.442 L2204.18 604.655 L2208.46 604.655 L2208.46 608.59 Q2209.8 606.276 2211.84 605.165 Q2213.9 604.03 2216.75 604.03 Q2221.47 604.03 2224.41 607.78 Q2227.37 611.53 2227.37 617.641 Q2227.37 623.752 2224.41 627.502 Q2221.47 631.252 2216.75 631.252 Q2213.9 631.252 2211.84 630.141 Q2209.8 629.007 2208.46 626.692 M2222.95 617.641 Q2222.95 612.942 2221.01 610.28 Q2219.08 607.595 2215.7 607.595 Q2212.32 607.595 2210.38 610.28 Q2208.46 612.942 2208.46 617.641 Q2208.46 622.34 2210.38 625.026 Q2212.32 627.688 2215.7 627.688 Q2219.08 627.688 2221.01 625.026 Q2222.95 622.34 2222.95 617.641 Z" fill="#000000" fill-rule="nonzero" fill-opacity="1"></path><path clip-path="url(#clip230)" d="M2255.98 604.655 L2246.61 617.271 L2256.47 630.581 L2251.44 630.581 L2243.9 620.396 L2236.35 630.581 L2231.33 630.581 L2241.4 617.016 L2232.19 604.655 L2237.21 604.655 L2244.08 613.891 L2250.96 604.655 L2255.98 604.655 Z" fill="#000000" fill-rule="nonzero" fill-opacity="1"></path><path clip-path="url(#clip230)" d="M186.274 1486.45 L2352.76 1486.45 L2352.76 847.244 L186.274 847.244  Z" fill="#ffffff" fill-rule="evenodd" fill-opacity="1"></path>
<defs>
  <clipPath id="clip233">
    <rect x="186" y="847" width="2167" height="640"></rect>
  </clipPath>
</defs>
<polyline clip-path="url(#clip233)" style="stroke:#000000; stroke-linecap:round; stroke-linejoin:round; stroke-width:2; stroke-opacity:0.1; fill:none" points="215.147,1486.45 215.147,847.244 "></polyline>
<polyline clip-path="url(#clip233)" style="stroke:#000000; stroke-linecap:round; stroke-linejoin:round; stroke-width:2; stroke-opacity:0.1; fill:none" points="805.593,1486.45 805.593,847.244 "></polyline>
<polyline clip-path="url(#clip233)" style="stroke:#000000; stroke-linecap:round; stroke-linejoin:round; stroke-width:2; stroke-opacity:0.1; fill:none" points="1402.53,1486.45 1402.53,847.244 "></polyline>
<polyline clip-path="url(#clip233)" style="stroke:#000000; stroke-linecap:round; stroke-linejoin:round; stroke-width:2; stroke-opacity:0.1; fill:none" points="1989.73,1486.45 1989.73,847.244 "></polyline>
<polyline clip-path="url(#clip230)" style="stroke:#000000; stroke-linecap:round; stroke-linejoin:round; stroke-width:4; stroke-opacity:1; fill:none" points="186.274,1486.45 2352.76,1486.45 "></polyline>
<polyline clip-path="url(#clip230)" style="stroke:#000000; stroke-linecap:round; stroke-linejoin:round; stroke-width:4; stroke-opacity:1; fill:none" points="215.147,1486.45 215.147,1467.55 "></polyline>
<polyline clip-path="url(#clip230)" style="stroke:#000000; stroke-linecap:round; stroke-linejoin:round; stroke-width:4; stroke-opacity:1; fill:none" points="805.593,1486.45 805.593,1467.55 "></polyline>
<polyline clip-path="url(#clip230)" style="stroke:#000000; stroke-linecap:round; stroke-linejoin:round; stroke-width:4; stroke-opacity:1; fill:none" points="1402.53,1486.45 1402.53,1467.55 "></polyline>
<polyline clip-path="url(#clip230)" style="stroke:#000000; stroke-linecap:round; stroke-linejoin:round; stroke-width:4; stroke-opacity:1; fill:none" points="1989.73,1486.45 1989.73,1467.55 "></polyline>
<path clip-path="url(#clip230)" d="M86.9421 1544.91 L103.261 1544.91 L103.261 1548.85 L81.3171 1548.85 L81.3171 1544.91 Q83.9792 1542.16 88.5625 1537.53 Q93.1689 1532.88 94.3495 1531.53 Q96.5948 1529.01 97.4745 1527.27 Q98.3772 1525.51 98.3772 1523.82 Q98.3772 1521.07 96.4328 1519.33 Q94.5115 1517.6 91.4097 1517.6 Q89.2106 1517.6 86.7569 1518.36 Q84.3264 1519.13 81.5486 1520.68 L81.5486 1515.95 Q84.3727 1514.82 86.8264 1514.24 Q89.2801 1513.66 91.3171 1513.66 Q96.6874 1513.66 99.8819 1516.35 Q103.076 1519.03 103.076 1523.52 Q103.076 1525.65 102.266 1527.57 Q101.479 1529.47 99.3726 1532.07 Q98.7939 1532.74 95.6921 1535.95 Q92.5902 1539.15 86.9421 1544.91 Z" fill="#000000" fill-rule="nonzero" fill-opacity="1"></path><path clip-path="url(#clip230)" d="M123.076 1517.37 Q119.465 1517.37 117.636 1520.93 Q115.831 1524.47 115.831 1531.6 Q115.831 1538.71 117.636 1542.27 Q119.465 1545.82 123.076 1545.82 Q126.71 1545.82 128.516 1542.27 Q130.345 1538.71 130.345 1531.6 Q130.345 1524.47 128.516 1520.93 Q126.71 1517.37 123.076 1517.37 M123.076 1513.66 Q128.886 1513.66 131.942 1518.27 Q135.021 1522.85 135.021 1531.6 Q135.021 1540.33 131.942 1544.94 Q128.886 1549.52 123.076 1549.52 Q117.266 1549.52 114.187 1544.94 Q111.132 1540.33 111.132 1531.6 Q111.132 1522.85 114.187 1518.27 Q117.266 1513.66 123.076 1513.66 Z" fill="#000000" fill-rule="nonzero" fill-opacity="1"></path><path clip-path="url(#clip230)" d="M144.048 1544.91 L151.687 1544.91 L151.687 1518.55 L143.377 1520.21 L143.377 1515.95 L151.641 1514.29 L156.317 1514.29 L156.317 1544.91 L163.956 1544.91 L163.956 1548.85 L144.048 1548.85 L144.048 1544.91 Z" fill="#000000" fill-rule="nonzero" fill-opacity="1"></path><path clip-path="url(#clip230)" d="M173.539 1548.13 L173.539 1543.87 Q175.298 1544.7 177.104 1545.14 Q178.909 1545.58 180.645 1545.58 Q185.275 1545.58 187.705 1542.48 Q190.159 1539.36 190.506 1533.01 Q189.164 1535.01 187.104 1536.07 Q185.043 1537.13 182.543 1537.13 Q177.358 1537.13 174.326 1534.01 Q171.317 1530.86 171.317 1525.42 Q171.317 1520.1 174.465 1516.88 Q177.613 1513.66 182.844 1513.66 Q188.84 1513.66 191.988 1518.27 Q195.159 1522.85 195.159 1531.6 Q195.159 1539.77 191.27 1544.66 Q187.405 1549.52 180.854 1549.52 Q179.094 1549.52 177.289 1549.17 Q175.483 1548.82 173.539 1548.13 M182.844 1533.48 Q185.993 1533.48 187.821 1531.32 Q189.673 1529.17 189.673 1525.42 Q189.673 1521.7 187.821 1519.54 Q185.993 1517.37 182.844 1517.37 Q179.696 1517.37 177.844 1519.54 Q176.016 1521.7 176.016 1525.42 Q176.016 1529.17 177.844 1531.32 Q179.696 1533.48 182.844 1533.48 Z" fill="#000000" fill-rule="nonzero" fill-opacity="1"></path><path clip-path="url(#clip230)" d="M200.807 1533.96 L213.284 1533.96 L213.284 1537.76 L200.807 1537.76 L200.807 1533.96 Z" fill="#000000" fill-rule="nonzero" fill-opacity="1"></path><path clip-path="url(#clip230)" d="M221.478 1544.91 L229.117 1544.91 L229.117 1518.55 L220.807 1520.21 L220.807 1515.95 L229.071 1514.29 L233.747 1514.29 L233.747 1544.91 L241.386 1544.91 L241.386 1548.85 L221.478 1548.85 L221.478 1544.91 Z" fill="#000000" fill-rule="nonzero" fill-opacity="1"></path><path clip-path="url(#clip230)" d="M251.64 1544.91 L259.279 1544.91 L259.279 1518.55 L250.969 1520.21 L250.969 1515.95 L259.233 1514.29 L263.909 1514.29 L263.909 1544.91 L271.548 1544.91 L271.548 1548.85 L251.64 1548.85 L251.64 1544.91 Z" fill="#000000" fill-rule="nonzero" fill-opacity="1"></path><path clip-path="url(#clip230)" d="M278.237 1533.96 L290.714 1533.96 L290.714 1537.76 L278.237 1537.76 L278.237 1533.96 Z" fill="#000000" fill-rule="nonzero" fill-opacity="1"></path><path clip-path="url(#clip230)" d="M308.098 1517.37 Q304.487 1517.37 302.659 1520.93 Q300.853 1524.47 300.853 1531.6 Q300.853 1538.71 302.659 1542.27 Q304.487 1545.82 308.098 1545.82 Q311.733 1545.82 313.538 1542.27 Q315.367 1538.71 315.367 1531.6 Q315.367 1524.47 313.538 1520.93 Q311.733 1517.37 308.098 1517.37 M308.098 1513.66 Q313.908 1513.66 316.964 1518.27 Q320.043 1522.85 320.043 1531.6 Q320.043 1540.33 316.964 1544.94 Q313.908 1549.52 308.098 1549.52 Q302.288 1549.52 299.209 1544.94 Q296.154 1540.33 296.154 1531.6 Q296.154 1522.85 299.209 1518.27 Q302.288 1513.66 308.098 1513.66 Z" fill="#000000" fill-rule="nonzero" fill-opacity="1"></path><path clip-path="url(#clip230)" d="M329.07 1544.91 L336.709 1544.91 L336.709 1518.55 L328.399 1520.21 L328.399 1515.95 L336.663 1514.29 L341.339 1514.29 L341.339 1544.91 L348.978 1544.91 L348.978 1548.85 L329.07 1548.85 L329.07 1544.91 Z" fill="#000000" fill-rule="nonzero" fill-opacity="1"></path><path clip-path="url(#clip230)" d="M677.388 1544.91 L693.707 1544.91 L693.707 1548.85 L671.763 1548.85 L671.763 1544.91 Q674.425 1542.16 679.008 1537.53 Q683.615 1532.88 684.795 1531.53 Q687.041 1529.01 687.92 1527.27 Q688.823 1525.51 688.823 1523.82 Q688.823 1521.07 686.879 1519.33 Q684.957 1517.6 681.855 1517.6 Q679.656 1517.6 677.203 1518.36 Q674.772 1519.13 671.994 1520.68 L671.994 1515.95 Q674.818 1514.82 677.272 1514.24 Q679.726 1513.66 681.763 1513.66 Q687.133 1513.66 690.328 1516.35 Q693.522 1519.03 693.522 1523.52 Q693.522 1525.65 692.712 1527.57 Q691.925 1529.47 689.818 1532.07 Q689.24 1532.74 686.138 1535.95 Q683.036 1539.15 677.388 1544.91 Z" fill="#000000" fill-rule="nonzero" fill-opacity="1"></path><path clip-path="url(#clip230)" d="M713.522 1517.37 Q709.911 1517.37 708.082 1520.93 Q706.277 1524.47 706.277 1531.6 Q706.277 1538.71 708.082 1542.27 Q709.911 1545.82 713.522 1545.82 Q717.156 1545.82 718.962 1542.27 Q720.79 1538.71 720.79 1531.6 Q720.79 1524.47 718.962 1520.93 Q717.156 1517.37 713.522 1517.37 M713.522 1513.66 Q719.332 1513.66 722.388 1518.27 Q725.466 1522.85 725.466 1531.6 Q725.466 1540.33 722.388 1544.94 Q719.332 1549.52 713.522 1549.52 Q707.712 1549.52 704.633 1544.94 Q701.578 1540.33 701.578 1531.6 Q701.578 1522.85 704.633 1518.27 Q707.712 1513.66 713.522 1513.66 Z" fill="#000000" fill-rule="nonzero" fill-opacity="1"></path><path clip-path="url(#clip230)" d="M737.712 1544.91 L754.031 1544.91 L754.031 1548.85 L732.087 1548.85 L732.087 1544.91 Q734.749 1542.16 739.332 1537.53 Q743.938 1532.88 745.119 1531.53 Q747.364 1529.01 748.244 1527.27 Q749.147 1525.51 749.147 1523.82 Q749.147 1521.07 747.202 1519.33 Q745.281 1517.6 742.179 1517.6 Q739.98 1517.6 737.526 1518.36 Q735.096 1519.13 732.318 1520.68 L732.318 1515.95 Q735.142 1514.82 737.596 1514.24 Q740.05 1513.66 742.087 1513.66 Q747.457 1513.66 750.651 1516.35 Q753.846 1519.03 753.846 1523.52 Q753.846 1525.65 753.036 1527.57 Q752.249 1529.47 750.142 1532.07 Q749.563 1532.74 746.462 1535.95 Q743.36 1539.15 737.712 1544.91 Z" fill="#000000" fill-rule="nonzero" fill-opacity="1"></path><path clip-path="url(#clip230)" d="M773.846 1517.37 Q770.235 1517.37 768.406 1520.93 Q766.6 1524.47 766.6 1531.6 Q766.6 1538.71 768.406 1542.27 Q770.235 1545.82 773.846 1545.82 Q777.48 1545.82 779.286 1542.27 Q781.114 1538.71 781.114 1531.6 Q781.114 1524.47 779.286 1520.93 Q777.48 1517.37 773.846 1517.37 M773.846 1513.66 Q779.656 1513.66 782.711 1518.27 Q785.79 1522.85 785.79 1531.6 Q785.79 1540.33 782.711 1544.94 Q779.656 1549.52 773.846 1549.52 Q768.036 1549.52 764.957 1544.94 Q761.901 1540.33 761.901 1531.6 Q761.901 1522.85 764.957 1518.27 Q768.036 1513.66 773.846 1513.66 Z" fill="#000000" fill-rule="nonzero" fill-opacity="1"></path><path clip-path="url(#clip230)" d="M791.253 1533.96 L803.73 1533.96 L803.73 1537.76 L791.253 1537.76 L791.253 1533.96 Z" fill="#000000" fill-rule="nonzero" fill-opacity="1"></path><path clip-path="url(#clip230)" d="M821.114 1517.37 Q817.503 1517.37 815.674 1520.93 Q813.869 1524.47 813.869 1531.6 Q813.869 1538.71 815.674 1542.27 Q817.503 1545.82 821.114 1545.82 Q824.748 1545.82 826.554 1542.27 Q828.382 1538.71 828.382 1531.6 Q828.382 1524.47 826.554 1520.93 Q824.748 1517.37 821.114 1517.37 M821.114 1513.66 Q826.924 1513.66 829.98 1518.27 Q833.058 1522.85 833.058 1531.6 Q833.058 1540.33 829.98 1544.94 Q826.924 1549.52 821.114 1549.52 Q815.304 1549.52 812.225 1544.94 Q809.17 1540.33 809.17 1531.6 Q809.17 1522.85 812.225 1518.27 Q815.304 1513.66 821.114 1513.66 Z" fill="#000000" fill-rule="nonzero" fill-opacity="1"></path><path clip-path="url(#clip230)" d="M841.322 1514.29 L859.679 1514.29 L859.679 1518.22 L845.605 1518.22 L845.605 1526.7 Q846.623 1526.35 847.642 1526.19 Q848.66 1526 849.679 1526 Q855.466 1526 858.845 1529.17 Q862.225 1532.34 862.225 1537.76 Q862.225 1543.34 858.753 1546.44 Q855.28 1549.52 848.961 1549.52 Q846.785 1549.52 844.517 1549.15 Q842.271 1548.78 839.864 1548.04 L839.864 1543.34 Q841.947 1544.47 844.169 1545.03 Q846.392 1545.58 848.868 1545.58 Q852.873 1545.58 855.211 1543.48 Q857.549 1541.37 857.549 1537.76 Q857.549 1534.15 855.211 1532.04 Q852.873 1529.94 848.868 1529.94 Q846.993 1529.94 845.119 1530.35 Q843.267 1530.77 841.322 1531.65 L841.322 1514.29 Z" fill="#000000" fill-rule="nonzero" fill-opacity="1"></path><path clip-path="url(#clip230)" d="M868.683 1533.96 L881.16 1533.96 L881.16 1537.76 L868.683 1537.76 L868.683 1533.96 Z" fill="#000000" fill-rule="nonzero" fill-opacity="1"></path><path clip-path="url(#clip230)" d="M898.544 1517.37 Q894.933 1517.37 893.104 1520.93 Q891.299 1524.47 891.299 1531.6 Q891.299 1538.71 893.104 1542.27 Q894.933 1545.82 898.544 1545.82 Q902.178 1545.82 903.984 1542.27 Q905.813 1538.71 905.813 1531.6 Q905.813 1524.47 903.984 1520.93 Q902.178 1517.37 898.544 1517.37 M898.544 1513.66 Q904.354 1513.66 907.41 1518.27 Q910.489 1522.85 910.489 1531.6 Q910.489 1540.33 907.41 1544.94 Q904.354 1549.52 898.544 1549.52 Q892.734 1549.52 889.655 1544.94 Q886.6 1540.33 886.6 1531.6 Q886.6 1522.85 889.655 1518.27 Q892.734 1513.66 898.544 1513.66 Z" fill="#000000" fill-rule="nonzero" fill-opacity="1"></path><path clip-path="url(#clip230)" d="M919.516 1544.91 L927.155 1544.91 L927.155 1518.55 L918.845 1520.21 L918.845 1515.95 L927.109 1514.29 L931.785 1514.29 L931.785 1544.91 L939.424 1544.91 L939.424 1548.85 L919.516 1548.85 L919.516 1544.91 Z" fill="#000000" fill-rule="nonzero" fill-opacity="1"></path><path clip-path="url(#clip230)" d="M1274.32 1544.91 L1290.64 1544.91 L1290.64 1548.85 L1268.7 1548.85 L1268.7 1544.91 Q1271.36 1542.16 1275.94 1537.53 Q1280.55 1532.88 1281.73 1531.53 Q1283.97 1529.01 1284.85 1527.27 Q1285.76 1525.51 1285.76 1523.82 Q1285.76 1521.07 1283.81 1519.33 Q1281.89 1517.6 1278.79 1517.6 Q1276.59 1517.6 1274.14 1518.36 Q1271.71 1519.13 1268.93 1520.68 L1268.93 1515.95 Q1271.75 1514.82 1274.21 1514.24 Q1276.66 1513.66 1278.7 1513.66 Q1284.07 1513.66 1287.26 1516.35 Q1290.46 1519.03 1290.46 1523.52 Q1290.46 1525.65 1289.65 1527.57 Q1288.86 1529.47 1286.75 1532.07 Q1286.17 1532.74 1283.07 1535.95 Q1279.97 1539.15 1274.32 1544.91 Z" fill="#000000" fill-rule="nonzero" fill-opacity="1"></path><path clip-path="url(#clip230)" d="M1310.46 1517.37 Q1306.85 1517.37 1305.02 1520.93 Q1303.21 1524.47 1303.21 1531.6 Q1303.21 1538.71 1305.02 1542.27 Q1306.85 1545.82 1310.46 1545.82 Q1314.09 1545.82 1315.9 1542.27 Q1317.72 1538.71 1317.72 1531.6 Q1317.72 1524.47 1315.9 1520.93 Q1314.09 1517.37 1310.46 1517.37 M1310.46 1513.66 Q1316.27 1513.66 1319.32 1518.27 Q1322.4 1522.85 1322.4 1531.6 Q1322.4 1540.33 1319.32 1544.94 Q1316.27 1549.52 1310.46 1549.52 Q1304.65 1549.52 1301.57 1544.94 Q1298.51 1540.33 1298.51 1531.6 Q1298.51 1522.85 1301.57 1518.27 Q1304.65 1513.66 1310.46 1513.66 Z" fill="#000000" fill-rule="nonzero" fill-opacity="1"></path><path clip-path="url(#clip230)" d="M1334.65 1544.91 L1350.97 1544.91 L1350.97 1548.85 L1329.02 1548.85 L1329.02 1544.91 Q1331.68 1542.16 1336.27 1537.53 Q1340.87 1532.88 1342.05 1531.53 Q1344.3 1529.01 1345.18 1527.27 Q1346.08 1525.51 1346.08 1523.82 Q1346.08 1521.07 1344.14 1519.33 Q1342.22 1517.6 1339.11 1517.6 Q1336.91 1517.6 1334.46 1518.36 Q1332.03 1519.13 1329.25 1520.68 L1329.25 1515.95 Q1332.08 1514.82 1334.53 1514.24 Q1336.98 1513.66 1339.02 1513.66 Q1344.39 1513.66 1347.59 1516.35 Q1350.78 1519.03 1350.78 1523.52 Q1350.78 1525.65 1349.97 1527.57 Q1349.18 1529.47 1347.08 1532.07 Q1346.5 1532.74 1343.4 1535.95 Q1340.29 1539.15 1334.65 1544.91 Z" fill="#000000" fill-rule="nonzero" fill-opacity="1"></path><path clip-path="url(#clip230)" d="M1370.78 1517.37 Q1367.17 1517.37 1365.34 1520.93 Q1363.53 1524.47 1363.53 1531.6 Q1363.53 1538.71 1365.34 1542.27 Q1367.17 1545.82 1370.78 1545.82 Q1374.41 1545.82 1376.22 1542.27 Q1378.05 1538.71 1378.05 1531.6 Q1378.05 1524.47 1376.22 1520.93 Q1374.41 1517.37 1370.78 1517.37 M1370.78 1513.66 Q1376.59 1513.66 1379.65 1518.27 Q1382.72 1522.85 1382.72 1531.6 Q1382.72 1540.33 1379.65 1544.94 Q1376.59 1549.52 1370.78 1549.52 Q1364.97 1549.52 1361.89 1544.94 Q1358.84 1540.33 1358.84 1531.6 Q1358.84 1522.85 1361.89 1518.27 Q1364.97 1513.66 1370.78 1513.66 Z" fill="#000000" fill-rule="nonzero" fill-opacity="1"></path><path clip-path="url(#clip230)" d="M1388.19 1533.96 L1400.66 1533.96 L1400.66 1537.76 L1388.19 1537.76 L1388.19 1533.96 Z" fill="#000000" fill-rule="nonzero" fill-opacity="1"></path><path clip-path="url(#clip230)" d="M1408.86 1544.91 L1416.5 1544.91 L1416.5 1518.55 L1408.19 1520.21 L1408.19 1515.95 L1416.45 1514.29 L1421.13 1514.29 L1421.13 1544.91 L1428.77 1544.91 L1428.77 1548.85 L1408.86 1548.85 L1408.86 1544.91 Z" fill="#000000" fill-rule="nonzero" fill-opacity="1"></path><path clip-path="url(#clip230)" d="M1439.02 1544.91 L1446.66 1544.91 L1446.66 1518.55 L1438.35 1520.21 L1438.35 1515.95 L1446.61 1514.29 L1451.29 1514.29 L1451.29 1544.91 L1458.93 1544.91 L1458.93 1548.85 L1439.02 1548.85 L1439.02 1544.91 Z" fill="#000000" fill-rule="nonzero" fill-opacity="1"></path><path clip-path="url(#clip230)" d="M1465.62 1533.96 L1478.09 1533.96 L1478.09 1537.76 L1465.62 1537.76 L1465.62 1533.96 Z" fill="#000000" fill-rule="nonzero" fill-opacity="1"></path><path clip-path="url(#clip230)" d="M1495.48 1517.37 Q1491.87 1517.37 1490.04 1520.93 Q1488.23 1524.47 1488.23 1531.6 Q1488.23 1538.71 1490.04 1542.27 Q1491.87 1545.82 1495.48 1545.82 Q1499.11 1545.82 1500.92 1542.27 Q1502.75 1538.71 1502.75 1531.6 Q1502.75 1524.47 1500.92 1520.93 Q1499.11 1517.37 1495.48 1517.37 M1495.48 1513.66 Q1501.29 1513.66 1504.34 1518.27 Q1507.42 1522.85 1507.42 1531.6 Q1507.42 1540.33 1504.34 1544.94 Q1501.29 1549.52 1495.48 1549.52 Q1489.67 1549.52 1486.59 1544.94 Q1483.53 1540.33 1483.53 1531.6 Q1483.53 1522.85 1486.59 1518.27 Q1489.67 1513.66 1495.48 1513.66 Z" fill="#000000" fill-rule="nonzero" fill-opacity="1"></path><path clip-path="url(#clip230)" d="M1516.45 1544.91 L1524.09 1544.91 L1524.09 1518.55 L1515.78 1520.21 L1515.78 1515.95 L1524.04 1514.29 L1528.72 1514.29 L1528.72 1544.91 L1536.36 1544.91 L1536.36 1548.85 L1516.45 1548.85 L1516.45 1544.91 Z" fill="#000000" fill-rule="nonzero" fill-opacity="1"></path><path clip-path="url(#clip230)" d="M1861.52 1544.91 L1877.84 1544.91 L1877.84 1548.85 L1855.9 1548.85 L1855.9 1544.91 Q1858.56 1542.16 1863.14 1537.53 Q1867.75 1532.88 1868.93 1531.53 Q1871.18 1529.01 1872.06 1527.27 Q1872.96 1525.51 1872.96 1523.82 Q1872.96 1521.07 1871.01 1519.33 Q1869.09 1517.6 1865.99 1517.6 Q1863.79 1517.6 1861.34 1518.36 Q1858.91 1519.13 1856.13 1520.68 L1856.13 1515.95 Q1858.95 1514.82 1861.41 1514.24 Q1863.86 1513.66 1865.9 1513.66 Q1871.27 1513.66 1874.46 1516.35 Q1877.66 1519.03 1877.66 1523.52 Q1877.66 1525.65 1876.85 1527.57 Q1876.06 1529.47 1873.95 1532.07 Q1873.38 1532.74 1870.27 1535.95 Q1867.17 1539.15 1861.52 1544.91 Z" fill="#000000" fill-rule="nonzero" fill-opacity="1"></path><path clip-path="url(#clip230)" d="M1897.66 1517.37 Q1894.05 1517.37 1892.22 1520.93 Q1890.41 1524.47 1890.41 1531.6 Q1890.41 1538.71 1892.22 1542.27 Q1894.05 1545.82 1897.66 1545.82 Q1901.29 1545.82 1903.1 1542.27 Q1904.93 1538.71 1904.93 1531.6 Q1904.93 1524.47 1903.1 1520.93 Q1901.29 1517.37 1897.66 1517.37 M1897.66 1513.66 Q1903.47 1513.66 1906.52 1518.27 Q1909.6 1522.85 1909.6 1531.6 Q1909.6 1540.33 1906.52 1544.94 Q1903.47 1549.52 1897.66 1549.52 Q1891.85 1549.52 1888.77 1544.94 Q1885.71 1540.33 1885.71 1531.6 Q1885.71 1522.85 1888.77 1518.27 Q1891.85 1513.66 1897.66 1513.66 Z" fill="#000000" fill-rule="nonzero" fill-opacity="1"></path><path clip-path="url(#clip230)" d="M1921.85 1544.91 L1938.17 1544.91 L1938.17 1548.85 L1916.22 1548.85 L1916.22 1544.91 Q1918.88 1542.16 1923.47 1537.53 Q1928.07 1532.88 1929.25 1531.53 Q1931.5 1529.01 1932.38 1527.27 Q1933.28 1525.51 1933.28 1523.82 Q1933.28 1521.07 1931.34 1519.33 Q1929.42 1517.6 1926.32 1517.6 Q1924.12 1517.6 1921.66 1518.36 Q1919.23 1519.13 1916.45 1520.68 L1916.45 1515.95 Q1919.28 1514.82 1921.73 1514.24 Q1924.19 1513.66 1926.22 1513.66 Q1931.59 1513.66 1934.79 1516.35 Q1937.98 1519.03 1937.98 1523.52 Q1937.98 1525.65 1937.17 1527.57 Q1936.38 1529.47 1934.28 1532.07 Q1933.7 1532.74 1930.6 1535.95 Q1927.5 1539.15 1921.85 1544.91 Z" fill="#000000" fill-rule="nonzero" fill-opacity="1"></path><path clip-path="url(#clip230)" d="M1948.79 1544.91 L1956.43 1544.91 L1956.43 1518.55 L1948.12 1520.21 L1948.12 1515.95 L1956.38 1514.29 L1961.06 1514.29 L1961.06 1544.91 L1968.7 1544.91 L1968.7 1548.85 L1948.79 1548.85 L1948.79 1544.91 Z" fill="#000000" fill-rule="nonzero" fill-opacity="1"></path><path clip-path="url(#clip230)" d="M1975.39 1533.96 L1987.87 1533.96 L1987.87 1537.76 L1975.39 1537.76 L1975.39 1533.96 Z" fill="#000000" fill-rule="nonzero" fill-opacity="1"></path><path clip-path="url(#clip230)" d="M2005.25 1517.37 Q2001.64 1517.37 1999.81 1520.93 Q1998 1524.47 1998 1531.6 Q1998 1538.71 1999.81 1542.27 Q2001.64 1545.82 2005.25 1545.82 Q2008.88 1545.82 2010.69 1542.27 Q2012.52 1538.71 2012.52 1531.6 Q2012.52 1524.47 2010.69 1520.93 Q2008.88 1517.37 2005.25 1517.37 M2005.25 1513.66 Q2011.06 1513.66 2014.12 1518.27 Q2017.19 1522.85 2017.19 1531.6 Q2017.19 1540.33 2014.12 1544.94 Q2011.06 1549.52 2005.25 1549.52 Q1999.44 1549.52 1996.36 1544.94 Q1993.31 1540.33 1993.31 1531.6 Q1993.31 1522.85 1996.36 1518.27 Q1999.44 1513.66 2005.25 1513.66 Z" fill="#000000" fill-rule="nonzero" fill-opacity="1"></path><path clip-path="url(#clip230)" d="M2025.46 1514.29 L2043.81 1514.29 L2043.81 1518.22 L2029.74 1518.22 L2029.74 1526.7 Q2030.76 1526.35 2031.78 1526.19 Q2032.8 1526 2033.81 1526 Q2039.6 1526 2042.98 1529.17 Q2046.36 1532.34 2046.36 1537.76 Q2046.36 1543.34 2042.89 1546.44 Q2039.42 1549.52 2033.1 1549.52 Q2030.92 1549.52 2028.65 1549.15 Q2026.41 1548.78 2024 1548.04 L2024 1543.34 Q2026.08 1544.47 2028.31 1545.03 Q2030.53 1545.58 2033 1545.58 Q2037.01 1545.58 2039.35 1543.48 Q2041.68 1541.37 2041.68 1537.76 Q2041.68 1534.15 2039.35 1532.04 Q2037.01 1529.94 2033 1529.94 Q2031.13 1529.94 2029.25 1530.35 Q2027.4 1530.77 2025.46 1531.65 L2025.46 1514.29 Z" fill="#000000" fill-rule="nonzero" fill-opacity="1"></path><path clip-path="url(#clip230)" d="M2052.82 1533.96 L2065.3 1533.96 L2065.3 1537.76 L2052.82 1537.76 L2052.82 1533.96 Z" fill="#000000" fill-rule="nonzero" fill-opacity="1"></path><path clip-path="url(#clip230)" d="M2082.68 1517.37 Q2079.07 1517.37 2077.24 1520.93 Q2075.43 1524.47 2075.43 1531.6 Q2075.43 1538.71 2077.24 1542.27 Q2079.07 1545.82 2082.68 1545.82 Q2086.31 1545.82 2088.12 1542.27 Q2089.95 1538.71 2089.95 1531.6 Q2089.95 1524.47 2088.12 1520.93 Q2086.31 1517.37 2082.68 1517.37 M2082.68 1513.66 Q2088.49 1513.66 2091.55 1518.27 Q2094.62 1522.85 2094.62 1531.6 Q2094.62 1540.33 2091.55 1544.94 Q2088.49 1549.52 2082.68 1549.52 Q2076.87 1549.52 2073.79 1544.94 Q2070.74 1540.33 2070.74 1531.6 Q2070.74 1522.85 2073.79 1518.27 Q2076.87 1513.66 2082.68 1513.66 Z" fill="#000000" fill-rule="nonzero" fill-opacity="1"></path><path clip-path="url(#clip230)" d="M2103.65 1544.91 L2111.29 1544.91 L2111.29 1518.55 L2102.98 1520.21 L2102.98 1515.95 L2111.24 1514.29 L2115.92 1514.29 L2115.92 1544.91 L2123.56 1544.91 L2123.56 1548.85 L2103.65 1548.85 L2103.65 1544.91 Z" fill="#000000" fill-rule="nonzero" fill-opacity="1"></path><polyline clip-path="url(#clip233)" style="stroke:#000000; stroke-linecap:round; stroke-linejoin:round; stroke-width:2; stroke-opacity:0.1; fill:none" points="186.274,1468.36 2352.76,1468.36 "></polyline>
<polyline clip-path="url(#clip233)" style="stroke:#000000; stroke-linecap:round; stroke-linejoin:round; stroke-width:2; stroke-opacity:0.1; fill:none" points="186.274,1317.6 2352.76,1317.6 "></polyline>
<polyline clip-path="url(#clip233)" style="stroke:#000000; stroke-linecap:round; stroke-linejoin:round; stroke-width:2; stroke-opacity:0.1; fill:none" points="186.274,1166.85 2352.76,1166.85 "></polyline>
<polyline clip-path="url(#clip233)" style="stroke:#000000; stroke-linecap:round; stroke-linejoin:round; stroke-width:2; stroke-opacity:0.1; fill:none" points="186.274,1016.09 2352.76,1016.09 "></polyline>
<polyline clip-path="url(#clip233)" style="stroke:#000000; stroke-linecap:round; stroke-linejoin:round; stroke-width:2; stroke-opacity:0.1; fill:none" points="186.274,865.335 2352.76,865.335 "></polyline>
<polyline clip-path="url(#clip230)" style="stroke:#000000; stroke-linecap:round; stroke-linejoin:round; stroke-width:4; stroke-opacity:1; fill:none" points="186.274,1486.45 186.274,847.244 "></polyline>
<polyline clip-path="url(#clip230)" style="stroke:#000000; stroke-linecap:round; stroke-linejoin:round; stroke-width:4; stroke-opacity:1; fill:none" points="186.274,1468.36 205.172,1468.36 "></polyline>
<polyline clip-path="url(#clip230)" style="stroke:#000000; stroke-linecap:round; stroke-linejoin:round; stroke-width:4; stroke-opacity:1; fill:none" points="186.274,1317.6 205.172,1317.6 "></polyline>
<polyline clip-path="url(#clip230)" style="stroke:#000000; stroke-linecap:round; stroke-linejoin:round; stroke-width:4; stroke-opacity:1; fill:none" points="186.274,1166.85 205.172,1166.85 "></polyline>
<polyline clip-path="url(#clip230)" style="stroke:#000000; stroke-linecap:round; stroke-linejoin:round; stroke-width:4; stroke-opacity:1; fill:none" points="186.274,1016.09 205.172,1016.09 "></polyline>
<polyline clip-path="url(#clip230)" style="stroke:#000000; stroke-linecap:round; stroke-linejoin:round; stroke-width:4; stroke-opacity:1; fill:none" points="186.274,865.335 205.172,865.335 "></polyline>
<path clip-path="url(#clip230)" d="M62.9365 1454.16 Q59.3254 1454.16 57.4967 1457.72 Q55.6912 1461.26 55.6912 1468.39 Q55.6912 1475.5 57.4967 1479.06 Q59.3254 1482.6 62.9365 1482.6 Q66.5707 1482.6 68.3763 1479.06 Q70.205 1475.5 70.205 1468.39 Q70.205 1461.26 68.3763 1457.72 Q66.5707 1454.16 62.9365 1454.16 M62.9365 1450.45 Q68.7467 1450.45 71.8022 1455.06 Q74.8809 1459.64 74.8809 1468.39 Q74.8809 1477.12 71.8022 1481.73 Q68.7467 1486.31 62.9365 1486.31 Q57.1264 1486.31 54.0477 1481.73 Q50.9921 1477.12 50.9921 1468.39 Q50.9921 1459.64 54.0477 1455.06 Q57.1264 1450.45 62.9365 1450.45 Z" fill="#000000" fill-rule="nonzero" fill-opacity="1"></path><path clip-path="url(#clip230)" d="M83.0984 1479.76 L87.9827 1479.76 L87.9827 1485.64 L83.0984 1485.64 L83.0984 1479.76 Z" fill="#000000" fill-rule="nonzero" fill-opacity="1"></path><path clip-path="url(#clip230)" d="M108.168 1454.16 Q104.557 1454.16 102.728 1457.72 Q100.922 1461.26 100.922 1468.39 Q100.922 1475.5 102.728 1479.06 Q104.557 1482.6 108.168 1482.6 Q111.802 1482.6 113.608 1479.06 Q115.436 1475.5 115.436 1468.39 Q115.436 1461.26 113.608 1457.72 Q111.802 1454.16 108.168 1454.16 M108.168 1450.45 Q113.978 1450.45 117.033 1455.06 Q120.112 1459.64 120.112 1468.39 Q120.112 1477.12 117.033 1481.73 Q113.978 1486.31 108.168 1486.31 Q102.358 1486.31 99.2789 1481.73 Q96.2234 1477.12 96.2234 1468.39 Q96.2234 1459.64 99.2789 1455.06 Q102.358 1450.45 108.168 1450.45 Z" fill="#000000" fill-rule="nonzero" fill-opacity="1"></path><path clip-path="url(#clip230)" d="M138.33 1454.16 Q134.719 1454.16 132.89 1457.72 Q131.084 1461.26 131.084 1468.39 Q131.084 1475.5 132.89 1479.06 Q134.719 1482.6 138.33 1482.6 Q141.964 1482.6 143.769 1479.06 Q145.598 1475.5 145.598 1468.39 Q145.598 1461.26 143.769 1457.72 Q141.964 1454.16 138.33 1454.16 M138.33 1450.45 Q144.14 1450.45 147.195 1455.06 Q150.274 1459.64 150.274 1468.39 Q150.274 1477.12 147.195 1481.73 Q144.14 1486.31 138.33 1486.31 Q132.519 1486.31 129.441 1481.73 Q126.385 1477.12 126.385 1468.39 Q126.385 1459.64 129.441 1455.06 Q132.519 1450.45 138.33 1450.45 Z" fill="#000000" fill-rule="nonzero" fill-opacity="1"></path><path clip-path="url(#clip230)" d="M63.9319 1303.4 Q60.3208 1303.4 58.4921 1306.97 Q56.6865 1310.51 56.6865 1317.64 Q56.6865 1324.74 58.4921 1328.31 Q60.3208 1331.85 63.9319 1331.85 Q67.5661 1331.85 69.3717 1328.31 Q71.2004 1324.74 71.2004 1317.64 Q71.2004 1310.51 69.3717 1306.97 Q67.5661 1303.4 63.9319 1303.4 M63.9319 1299.7 Q69.742 1299.7 72.7976 1304.3 Q75.8763 1308.89 75.8763 1317.64 Q75.8763 1326.36 72.7976 1330.97 Q69.742 1335.55 63.9319 1335.55 Q58.1217 1335.55 55.043 1330.97 Q51.9875 1326.36 51.9875 1317.64 Q51.9875 1308.89 55.043 1304.3 Q58.1217 1299.7 63.9319 1299.7 Z" fill="#000000" fill-rule="nonzero" fill-opacity="1"></path><path clip-path="url(#clip230)" d="M84.0938 1329 L88.978 1329 L88.978 1334.88 L84.0938 1334.88 L84.0938 1329 Z" fill="#000000" fill-rule="nonzero" fill-opacity="1"></path><path clip-path="url(#clip230)" d="M103.191 1330.95 L119.51 1330.95 L119.51 1334.88 L97.566 1334.88 L97.566 1330.95 Q100.228 1328.19 104.811 1323.56 Q109.418 1318.91 110.598 1317.57 Q112.844 1315.04 113.723 1313.31 Q114.626 1311.55 114.626 1309.86 Q114.626 1307.1 112.682 1305.37 Q110.76 1303.63 107.658 1303.63 Q105.459 1303.63 103.006 1304.4 Q100.575 1305.16 97.7974 1306.71 L97.7974 1301.99 Q100.621 1300.85 103.075 1300.28 Q105.529 1299.7 107.566 1299.7 Q112.936 1299.7 116.131 1302.38 Q119.325 1305.07 119.325 1309.56 Q119.325 1311.69 118.515 1313.61 Q117.728 1315.51 115.621 1318.1 Q115.043 1318.77 111.941 1321.99 Q108.839 1325.18 103.191 1330.95 Z" fill="#000000" fill-rule="nonzero" fill-opacity="1"></path><path clip-path="url(#clip230)" d="M129.371 1300.32 L147.728 1300.32 L147.728 1304.26 L133.654 1304.26 L133.654 1312.73 Q134.672 1312.38 135.691 1312.22 Q136.709 1312.03 137.728 1312.03 Q143.515 1312.03 146.894 1315.21 Q150.274 1318.38 150.274 1323.79 Q150.274 1329.37 146.802 1332.47 Q143.33 1335.55 137.01 1335.55 Q134.834 1335.55 132.566 1335.18 Q130.32 1334.81 127.913 1334.07 L127.913 1329.37 Q129.996 1330.51 132.219 1331.06 Q134.441 1331.62 136.918 1331.62 Q140.922 1331.62 143.26 1329.51 Q145.598 1327.4 145.598 1323.79 Q145.598 1320.18 143.26 1318.08 Q140.922 1315.97 136.918 1315.97 Q135.043 1315.97 133.168 1316.39 Q131.316 1316.8 129.371 1317.68 L129.371 1300.32 Z" fill="#000000" fill-rule="nonzero" fill-opacity="1"></path><path clip-path="url(#clip230)" d="M62.9365 1152.64 Q59.3254 1152.64 57.4967 1156.21 Q55.6912 1159.75 55.6912 1166.88 Q55.6912 1173.99 57.4967 1177.55 Q59.3254 1181.09 62.9365 1181.09 Q66.5707 1181.09 68.3763 1177.55 Q70.205 1173.99 70.205 1166.88 Q70.205 1159.75 68.3763 1156.21 Q66.5707 1152.64 62.9365 1152.64 M62.9365 1148.94 Q68.7467 1148.94 71.8022 1153.55 Q74.8809 1158.13 74.8809 1166.88 Q74.8809 1175.61 71.8022 1180.21 Q68.7467 1184.8 62.9365 1184.8 Q57.1264 1184.8 54.0477 1180.21 Q50.9921 1175.61 50.9921 1166.88 Q50.9921 1158.13 54.0477 1153.55 Q57.1264 1148.94 62.9365 1148.94 Z" fill="#000000" fill-rule="nonzero" fill-opacity="1"></path><path clip-path="url(#clip230)" d="M83.0984 1178.25 L87.9827 1178.25 L87.9827 1184.13 L83.0984 1184.13 L83.0984 1178.25 Z" fill="#000000" fill-rule="nonzero" fill-opacity="1"></path><path clip-path="url(#clip230)" d="M98.2141 1149.57 L116.57 1149.57 L116.57 1153.5 L102.496 1153.5 L102.496 1161.97 Q103.515 1161.63 104.534 1161.46 Q105.552 1161.28 106.571 1161.28 Q112.358 1161.28 115.737 1164.45 Q119.117 1167.62 119.117 1173.04 Q119.117 1178.62 115.645 1181.72 Q112.172 1184.8 105.853 1184.8 Q103.677 1184.8 101.409 1184.43 Q99.1632 1184.06 96.7558 1183.32 L96.7558 1178.62 Q98.8391 1179.75 101.061 1180.31 Q103.284 1180.86 105.76 1180.86 Q109.765 1180.86 112.103 1178.76 Q114.441 1176.65 114.441 1173.04 Q114.441 1169.43 112.103 1167.32 Q109.765 1165.21 105.76 1165.21 Q103.885 1165.21 102.01 1165.63 Q100.159 1166.05 98.2141 1166.93 L98.2141 1149.57 Z" fill="#000000" fill-rule="nonzero" fill-opacity="1"></path><path clip-path="url(#clip230)" d="M138.33 1152.64 Q134.719 1152.64 132.89 1156.21 Q131.084 1159.75 131.084 1166.88 Q131.084 1173.99 132.89 1177.55 Q134.719 1181.09 138.33 1181.09 Q141.964 1181.09 143.769 1177.55 Q145.598 1173.99 145.598 1166.88 Q145.598 1159.75 143.769 1156.21 Q141.964 1152.64 138.33 1152.64 M138.33 1148.94 Q144.14 1148.94 147.195 1153.55 Q150.274 1158.13 150.274 1166.88 Q150.274 1175.61 147.195 1180.21 Q144.14 1184.8 138.33 1184.8 Q132.519 1184.8 129.441 1180.21 Q126.385 1175.61 126.385 1166.88 Q126.385 1158.13 129.441 1153.55 Q132.519 1148.94 138.33 1148.94 Z" fill="#000000" fill-rule="nonzero" fill-opacity="1"></path><path clip-path="url(#clip230)" d="M63.9319 1001.89 Q60.3208 1001.89 58.4921 1005.45 Q56.6865 1009 56.6865 1016.13 Q56.6865 1023.23 58.4921 1026.8 Q60.3208 1030.34 63.9319 1030.34 Q67.5661 1030.34 69.3717 1026.8 Q71.2004 1023.23 71.2004 1016.13 Q71.2004 1009 69.3717 1005.45 Q67.5661 1001.89 63.9319 1001.89 M63.9319 998.185 Q69.742 998.185 72.7976 1002.79 Q75.8763 1007.38 75.8763 1016.13 Q75.8763 1024.85 72.7976 1029.46 Q69.742 1034.04 63.9319 1034.04 Q58.1217 1034.04 55.043 1029.46 Q51.9875 1024.85 51.9875 1016.13 Q51.9875 1007.38 55.043 1002.79 Q58.1217 998.185 63.9319 998.185 Z" fill="#000000" fill-rule="nonzero" fill-opacity="1"></path><path clip-path="url(#clip230)" d="M84.0938 1027.49 L88.978 1027.49 L88.978 1033.37 L84.0938 1033.37 L84.0938 1027.49 Z" fill="#000000" fill-rule="nonzero" fill-opacity="1"></path><path clip-path="url(#clip230)" d="M97.9826 998.81 L120.205 998.81 L120.205 1000.8 L107.658 1033.37 L102.774 1033.37 L114.58 1002.75 L97.9826 1002.75 L97.9826 998.81 Z" fill="#000000" fill-rule="nonzero" fill-opacity="1"></path><path clip-path="url(#clip230)" d="M129.371 998.81 L147.728 998.81 L147.728 1002.75 L133.654 1002.75 L133.654 1011.22 Q134.672 1010.87 135.691 1010.71 Q136.709 1010.52 137.728 1010.52 Q143.515 1010.52 146.894 1013.69 Q150.274 1016.87 150.274 1022.28 Q150.274 1027.86 146.802 1030.96 Q143.33 1034.04 137.01 1034.04 Q134.834 1034.04 132.566 1033.67 Q130.32 1033.3 127.913 1032.56 L127.913 1027.86 Q129.996 1029 132.219 1029.55 Q134.441 1030.11 136.918 1030.11 Q140.922 1030.11 143.26 1028 Q145.598 1025.89 145.598 1022.28 Q145.598 1018.67 143.26 1016.56 Q140.922 1014.46 136.918 1014.46 Q135.043 1014.46 133.168 1014.88 Q131.316 1015.29 129.371 1016.17 L129.371 998.81 Z" fill="#000000" fill-rule="nonzero" fill-opacity="1"></path><path clip-path="url(#clip230)" d="M53.7467 878.68 L61.3856 878.68 L61.3856 852.314 L53.0754 853.981 L53.0754 849.721 L61.3393 848.055 L66.0152 848.055 L66.0152 878.68 L73.654 878.68 L73.654 882.615 L53.7467 882.615 L53.7467 878.68 Z" fill="#000000" fill-rule="nonzero" fill-opacity="1"></path><path clip-path="url(#clip230)" d="M83.0984 876.735 L87.9827 876.735 L87.9827 882.615 L83.0984 882.615 L83.0984 876.735 Z" fill="#000000" fill-rule="nonzero" fill-opacity="1"></path><path clip-path="url(#clip230)" d="M108.168 851.133 Q104.557 851.133 102.728 854.698 Q100.922 858.24 100.922 865.369 Q100.922 872.476 102.728 876.041 Q104.557 879.582 108.168 879.582 Q111.802 879.582 113.608 876.041 Q115.436 872.476 115.436 865.369 Q115.436 858.24 113.608 854.698 Q111.802 851.133 108.168 851.133 M108.168 847.43 Q113.978 847.43 117.033 852.036 Q120.112 856.62 120.112 865.369 Q120.112 874.096 117.033 878.703 Q113.978 883.286 108.168 883.286 Q102.358 883.286 99.2789 878.703 Q96.2234 874.096 96.2234 865.369 Q96.2234 856.62 99.2789 852.036 Q102.358 847.43 108.168 847.43 Z" fill="#000000" fill-rule="nonzero" fill-opacity="1"></path><path clip-path="url(#clip230)" d="M138.33 851.133 Q134.719 851.133 132.89 854.698 Q131.084 858.24 131.084 865.369 Q131.084 872.476 132.89 876.041 Q134.719 879.582 138.33 879.582 Q141.964 879.582 143.769 876.041 Q145.598 872.476 145.598 865.369 Q145.598 858.24 143.769 854.698 Q141.964 851.133 138.33 851.133 M138.33 847.43 Q144.14 847.43 147.195 852.036 Q150.274 856.62 150.274 865.369 Q150.274 874.096 147.195 878.703 Q144.14 883.286 138.33 883.286 Q132.519 883.286 129.441 878.703 Q126.385 874.096 126.385 865.369 Q126.385 856.62 129.441 852.036 Q132.519 847.43 138.33 847.43 Z" fill="#000000" fill-rule="nonzero" fill-opacity="1"></path><polyline clip-path="url(#clip233)" style="stroke:#009af9; stroke-linecap:round; stroke-linejoin:round; stroke-width:8; stroke-opacity:1; fill:none" points="247.59,865.335 270.299,1468.36 293.008,865.335 315.718,865.335 338.427,865.335 361.137,865.335 383.846,865.335 406.556,865.335 429.265,865.335 451.975,865.335 474.684,865.335 497.394,865.335 520.103,865.335 542.812,865.335 565.522,865.335 588.231,1468.36 610.941,865.335 633.65,1468.36 656.36,865.335 679.069,865.335 701.779,865.335 724.488,865.335 747.198,865.335 769.907,865.335 792.616,865.335 815.326,865.335 838.035,865.335 860.745,865.335 883.454,865.335 906.164,865.335 928.873,865.335 951.583,865.335 974.292,865.335 997.002,865.335 1019.71,865.335 1042.42,865.335 1065.13,865.335 1087.84,865.335 1110.55,865.335 1133.26,865.335 1155.97,865.335 1178.68,865.335 1201.39,865.335 1224.1,865.335 1246.81,865.335 1269.51,865.335 1292.22,865.335 1314.93,865.335 1337.64,865.335 1360.35,865.335 1383.06,865.335 1405.77,865.335 1428.48,865.335 1451.19,865.335 1473.9,865.335 1496.61,865.335 1519.32,865.335 1542.03,865.335 1564.74,865.335 1587.45,1468.36 1610.16,865.335 1632.87,865.335 1655.58,865.335 1678.29,865.335 1700.99,865.335 1723.7,1468.36 1746.41,865.335 1769.12,865.335 1791.83,865.335 1814.54,865.335 1837.25,865.335 1859.96,865.335 1882.67,865.335 1905.38,865.335 1928.09,865.335 1950.8,1468.36 1973.51,865.335 1996.22,865.335 2018.93,865.335 2041.64,1468.36 2064.35,865.335 2087.06,865.335 2109.76,865.335 2132.47,865.335 2155.18,865.335 2177.89,865.335 2200.6,865.335 2223.31,865.335 2246.02,865.335 2268.73,865.335 2291.44,865.335 "></polyline>
<path clip-path="url(#clip230)" d="M1996.39 1465.14 L2280.54 1465.14 L2280.54 1361.46 L1996.39 1361.46  Z" fill="#ffffff" fill-rule="evenodd" fill-opacity="1"></path>
<polyline clip-path="url(#clip230)" style="stroke:#000000; stroke-linecap:round; stroke-linejoin:round; stroke-width:4; stroke-opacity:1; fill:none" points="1996.39,1465.14 2280.54,1465.14 2280.54,1361.46 1996.39,1361.46 1996.39,1465.14 "></polyline>
<polyline clip-path="url(#clip230)" style="stroke:#009af9; stroke-linecap:round; stroke-linejoin:round; stroke-width:8; stroke-opacity:1; fill:none" points="2020.46,1413.3 2164.9,1413.3 "></polyline>
<path clip-path="url(#clip230)" d="M2207.74 1417.64 Q2207.74 1412.94 2205.8 1410.28 Q2203.88 1407.6 2200.5 1407.6 Q2197.12 1407.6 2195.17 1410.28 Q2193.25 1412.94 2193.25 1417.64 Q2193.25 1422.34 2195.17 1425.03 Q2197.12 1427.69 2200.5 1427.69 Q2203.88 1427.69 2205.8 1425.03 Q2207.74 1422.34 2207.74 1417.64 M2193.25 1408.59 Q2194.59 1406.28 2196.63 1405.16 Q2198.69 1404.03 2201.54 1404.03 Q2206.26 1404.03 2209.2 1407.78 Q2212.16 1411.53 2212.16 1417.64 Q2212.16 1423.75 2209.2 1427.5 Q2206.26 1431.25 2201.54 1431.25 Q2198.69 1431.25 2196.63 1430.14 Q2194.59 1429.01 2193.25 1426.69 L2193.25 1430.58 L2188.97 1430.58 L2188.97 1394.56 L2193.25 1394.56 L2193.25 1408.59 Z" fill="#000000" fill-rule="nonzero" fill-opacity="1"></path><path clip-path="url(#clip230)" d="M2223.44 1397.29 L2223.44 1404.66 L2232.21 1404.66 L2232.21 1407.97 L2223.44 1407.97 L2223.44 1422.04 Q2223.44 1425.21 2224.29 1426.11 Q2225.17 1427.02 2227.83 1427.02 L2232.21 1427.02 L2232.21 1430.58 L2227.83 1430.58 Q2222.9 1430.58 2221.03 1428.75 Q2219.15 1426.9 2219.15 1422.04 L2219.15 1407.97 L2216.03 1407.97 L2216.03 1404.66 L2219.15 1404.66 L2219.15 1397.29 L2223.44 1397.29 Z" fill="#000000" fill-rule="nonzero" fill-opacity="1"></path><path clip-path="url(#clip230)" d="M2256.47 1405.65 L2256.47 1409.63 Q2254.66 1408.64 2252.83 1408.15 Q2251.03 1407.64 2249.18 1407.64 Q2245.03 1407.64 2242.74 1410.28 Q2240.45 1412.9 2240.45 1417.64 Q2240.45 1422.39 2242.74 1425.03 Q2245.03 1427.64 2249.18 1427.64 Q2251.03 1427.64 2252.83 1427.16 Q2254.66 1426.65 2256.47 1425.65 L2256.47 1429.59 Q2254.69 1430.42 2252.76 1430.84 Q2250.87 1431.25 2248.71 1431.25 Q2242.86 1431.25 2239.41 1427.57 Q2235.96 1423.89 2235.96 1417.64 Q2235.96 1411.3 2239.43 1407.66 Q2242.93 1404.03 2248.99 1404.03 Q2250.96 1404.03 2252.83 1404.45 Q2254.71 1404.84 2256.47 1405.65 Z" fill="#000000" fill-rule="nonzero" fill-opacity="1"></path></svg>