<svg xmlns="http://www.w3.org/2000/svg" xmlns:xlink="http://www.w3.org/1999/xlink" width="600" height="400" viewBox="0 0 2400 1600">
<defs>
  <clipPath id="clip400">
    <rect x="0" y="0" width="2400" height="1600"></rect>
  </clipPath>
</defs>
<path clip-path="url(#clip400)" d="M0 1600 L2400 1600 L2400 0 L0 0  Z" fill="#ffffff" fill-rule="evenodd" fill-opacity="1"></path>
<defs>
  <clipPath id="clip401">
    <rect x="480" y="0" width="1681" height="1600"></rect>
  </clipPath>
</defs>
<path clip-path="url(#clip400)" d="M156.598 1486.45 L2352.76 1486.45 L2352.76 47.2441 L156.598 47.2441  Z" fill="#ffffff" fill-rule="evenodd" fill-opacity="1"></path>
<defs>
  <clipPath id="clip402">
    <rect x="156" y="47" width="2197" height="1440"></rect>
  </clipPath>
</defs>
<polyline clip-path="url(#clip402)" style="stroke:#000000; stroke-linecap:round; stroke-linejoin:round; stroke-width:2; stroke-opacity:0.1; fill:none" points="483.135,1486.45 483.135,47.2441 "></polyline>
<polyline clip-path="url(#clip402)" style="stroke:#000000; stroke-linecap:round; stroke-linejoin:round; stroke-width:2; stroke-opacity:0.1; fill:none" points="997.496,1486.45 997.496,47.2441 "></polyline>
<polyline clip-path="url(#clip402)" style="stroke:#000000; stroke-linecap:round; stroke-linejoin:round; stroke-width:2; stroke-opacity:0.1; fill:none" points="1511.86,1486.45 1511.86,47.2441 "></polyline>
<polyline clip-path="url(#clip402)" style="stroke:#000000; stroke-linecap:round; stroke-linejoin:round; stroke-width:2; stroke-opacity:0.1; fill:none" points="2026.22,1486.45 2026.22,47.2441 "></polyline>
<polyline clip-path="url(#clip400)" style="stroke:#000000; stroke-linecap:round; stroke-linejoin:round; stroke-width:4; stroke-opacity:1; fill:none" points="156.598,1486.45 2352.76,1486.45 "></polyline>
<polyline clip-path="url(#clip400)" style="stroke:#000000; stroke-linecap:round; stroke-linejoin:round; stroke-width:4; stroke-opacity:1; fill:none" points="483.135,1486.45 483.135,1467.55 "></polyline>
<polyline clip-path="url(#clip400)" style="stroke:#000000; stroke-linecap:round; stroke-linejoin:round; stroke-width:4; stroke-opacity:1; fill:none" points="997.496,1486.45 997.496,1467.55 "></polyline>
<polyline clip-path="url(#clip400)" style="stroke:#000000; stroke-linecap:round; stroke-linejoin:round; stroke-width:4; stroke-opacity:1; fill:none" points="1511.86,1486.45 1511.86,1467.55 "></polyline>
<polyline clip-path="url(#clip400)" style="stroke:#000000; stroke-linecap:round; stroke-linejoin:round; stroke-width:4; stroke-opacity:1; fill:none" points="2026.22,1486.45 2026.22,1467.55 "></polyline>
<path clip-path="url(#clip400)" d="M429.663 1532.02 L459.339 1532.02 L459.339 1535.95 L429.663 1535.95 L429.663 1532.02 Z" fill="#000000" fill-rule="nonzero" fill-opacity="1"></path><path clip-path="url(#clip400)" d="M469.478 1514.29 L487.834 1514.29 L487.834 1518.22 L473.76 1518.22 L473.76 1526.7 Q474.779 1526.35 475.797 1526.19 Q476.816 1526 477.834 1526 Q483.621 1526 487.001 1529.17 Q490.381 1532.34 490.381 1537.76 Q490.381 1543.34 486.908 1546.44 Q483.436 1549.52 477.117 1549.52 Q474.941 1549.52 472.672 1549.15 Q470.427 1548.78 468.02 1548.04 L468.02 1543.34 Q470.103 1544.47 472.325 1545.03 Q474.547 1545.58 477.024 1545.58 Q481.029 1545.58 483.367 1543.48 Q485.705 1541.37 485.705 1537.76 Q485.705 1534.15 483.367 1532.04 Q481.029 1529.94 477.024 1529.94 Q475.149 1529.94 473.274 1530.35 Q471.422 1530.77 469.478 1531.65 L469.478 1514.29 Z" fill="#000000" fill-rule="nonzero" fill-opacity="1"></path><path clip-path="url(#clip400)" d="M499.594 1542.97 L504.478 1542.97 L504.478 1548.85 L499.594 1548.85 L499.594 1542.97 Z" fill="#000000" fill-rule="nonzero" fill-opacity="1"></path><path clip-path="url(#clip400)" d="M524.663 1517.37 Q521.052 1517.37 519.223 1520.93 Q517.418 1524.47 517.418 1531.6 Q517.418 1538.71 519.223 1542.27 Q521.052 1545.82 524.663 1545.82 Q528.297 1545.82 530.103 1542.27 Q531.931 1538.71 531.931 1531.6 Q531.931 1524.47 530.103 1520.93 Q528.297 1517.37 524.663 1517.37 M524.663 1513.66 Q530.473 1513.66 533.529 1518.27 Q536.607 1522.85 536.607 1531.6 Q536.607 1540.33 533.529 1544.94 Q530.473 1549.52 524.663 1549.52 Q518.853 1549.52 515.774 1544.94 Q512.718 1540.33 512.718 1531.6 Q512.718 1522.85 515.774 1518.27 Q518.853 1513.66 524.663 1513.66 Z" fill="#000000" fill-rule="nonzero" fill-opacity="1"></path><path clip-path="url(#clip400)" d="M944.522 1532.02 L974.198 1532.02 L974.198 1535.95 L944.522 1535.95 L944.522 1532.02 Z" fill="#000000" fill-rule="nonzero" fill-opacity="1"></path><path clip-path="url(#clip400)" d="M988.318 1544.91 L1004.64 1544.91 L1004.64 1548.85 L982.693 1548.85 L982.693 1544.91 Q985.355 1542.16 989.939 1537.53 Q994.545 1532.88 995.726 1531.53 Q997.971 1529.01 998.851 1527.27 Q999.753 1525.51 999.753 1523.82 Q999.753 1521.07 997.809 1519.33 Q995.888 1517.6 992.786 1517.6 Q990.587 1517.6 988.133 1518.36 Q985.703 1519.13 982.925 1520.68 L982.925 1515.95 Q985.749 1514.82 988.203 1514.24 Q990.656 1513.66 992.693 1513.66 Q998.064 1513.66 1001.26 1516.35 Q1004.45 1519.03 1004.45 1523.52 Q1004.45 1525.65 1003.64 1527.57 Q1002.86 1529.47 1000.75 1532.07 Q1000.17 1532.74 997.068 1535.95 Q993.966 1539.15 988.318 1544.91 Z" fill="#000000" fill-rule="nonzero" fill-opacity="1"></path><path clip-path="url(#clip400)" d="M1014.45 1542.97 L1019.34 1542.97 L1019.34 1548.85 L1014.45 1548.85 L1014.45 1542.97 Z" fill="#000000" fill-rule="nonzero" fill-opacity="1"></path><path clip-path="url(#clip400)" d="M1029.57 1514.29 L1047.92 1514.29 L1047.92 1518.22 L1033.85 1518.22 L1033.85 1526.7 Q1034.87 1526.35 1035.89 1526.19 Q1036.91 1526 1037.92 1526 Q1043.71 1526 1047.09 1529.17 Q1050.47 1532.34 1050.47 1537.76 Q1050.47 1543.34 1047 1546.44 Q1043.53 1549.52 1037.21 1549.52 Q1035.03 1549.52 1032.76 1549.15 Q1030.52 1548.78 1028.11 1548.04 L1028.11 1543.34 Q1030.19 1544.47 1032.42 1545.03 Q1034.64 1545.58 1037.11 1545.58 Q1041.12 1545.58 1043.46 1543.48 Q1045.79 1541.37 1045.79 1537.76 Q1045.79 1534.15 1043.46 1532.04 Q1041.12 1529.94 1037.11 1529.94 Q1035.24 1529.94 1033.36 1530.35 Q1031.51 1530.77 1029.57 1531.65 L1029.57 1514.29 Z" fill="#000000" fill-rule="nonzero" fill-opacity="1"></path><path clip-path="url(#clip400)" d="M1489.24 1517.37 Q1485.63 1517.37 1483.8 1520.93 Q1482 1524.47 1482 1531.6 Q1482 1538.71 1483.8 1542.27 Q1485.63 1545.82 1489.24 1545.82 Q1492.88 1545.82 1494.68 1542.27 Q1496.51 1538.71 1496.51 1531.6 Q1496.51 1524.47 1494.68 1520.93 Q1492.88 1517.37 1489.24 1517.37 M1489.24 1513.66 Q1495.05 1513.66 1498.11 1518.27 Q1501.19 1522.85 1501.19 1531.6 Q1501.19 1540.33 1498.11 1544.94 Q1495.05 1549.52 1489.24 1549.52 Q1483.43 1549.52 1480.35 1544.94 Q1477.3 1540.33 1477.3 1531.6 Q1477.3 1522.85 1480.35 1518.27 Q1483.43 1513.66 1489.24 1513.66 Z" fill="#000000" fill-rule="nonzero" fill-opacity="1"></path><path clip-path="url(#clip400)" d="M1509.4 1542.97 L1514.29 1542.97 L1514.29 1548.85 L1509.4 1548.85 L1509.4 1542.97 Z" fill="#000000" fill-rule="nonzero" fill-opacity="1"></path><path clip-path="url(#clip400)" d="M1534.47 1517.37 Q1530.86 1517.37 1529.03 1520.93 Q1527.23 1524.47 1527.23 1531.6 Q1527.23 1538.71 1529.03 1542.27 Q1530.86 1545.82 1534.47 1545.82 Q1538.11 1545.82 1539.91 1542.27 Q1541.74 1538.71 1541.74 1531.6 Q1541.74 1524.47 1539.91 1520.93 Q1538.11 1517.37 1534.47 1517.37 M1534.47 1513.66 Q1540.28 1513.66 1543.34 1518.27 Q1546.42 1522.85 1546.42 1531.6 Q1546.42 1540.33 1543.34 1544.94 Q1540.28 1549.52 1534.47 1549.52 Q1528.66 1549.52 1525.58 1544.94 Q1522.53 1540.33 1522.53 1531.6 Q1522.53 1522.85 1525.58 1518.27 Q1528.66 1513.66 1534.47 1513.66 Z" fill="#000000" fill-rule="nonzero" fill-opacity="1"></path><path clip-path="url(#clip400)" d="M1997.96 1544.91 L2014.27 1544.91 L2014.27 1548.85 L1992.33 1548.85 L1992.33 1544.91 Q1994.99 1542.16 1999.58 1537.53 Q2004.18 1532.88 2005.36 1531.53 Q2007.61 1529.01 2008.49 1527.27 Q2009.39 1525.51 2009.39 1523.82 Q2009.39 1521.07 2007.45 1519.33 Q2005.52 1517.6 2002.42 1517.6 Q2000.22 1517.6 1997.77 1518.36 Q1995.34 1519.13 1992.56 1520.68 L1992.56 1515.95 Q1995.39 1514.82 1997.84 1514.24 Q2000.29 1513.66 2002.33 1513.66 Q2007.7 1513.66 2010.89 1516.35 Q2014.09 1519.03 2014.09 1523.52 Q2014.09 1525.65 2013.28 1527.57 Q2012.49 1529.47 2010.39 1532.07 Q2009.81 1532.74 2006.71 1535.95 Q2003.6 1539.15 1997.96 1544.91 Z" fill="#000000" fill-rule="nonzero" fill-opacity="1"></path><path clip-path="url(#clip400)" d="M2024.09 1542.97 L2028.97 1542.97 L2028.97 1548.85 L2024.09 1548.85 L2024.09 1542.97 Z" fill="#000000" fill-rule="nonzero" fill-opacity="1"></path><path clip-path="url(#clip400)" d="M2039.2 1514.29 L2057.56 1514.29 L2057.56 1518.22 L2043.49 1518.22 L2043.49 1526.7 Q2044.51 1526.35 2045.52 1526.19 Q2046.54 1526 2047.56 1526 Q2053.35 1526 2056.73 1529.17 Q2060.11 1532.34 2060.11 1537.76 Q2060.11 1543.34 2056.64 1546.44 Q2053.16 1549.52 2046.84 1549.52 Q2044.67 1549.52 2042.4 1549.15 Q2040.15 1548.78 2037.75 1548.04 L2037.75 1543.34 Q2039.83 1544.47 2042.05 1545.03 Q2044.27 1545.58 2046.75 1545.58 Q2050.76 1545.58 2053.09 1543.48 Q2055.43 1541.37 2055.43 1537.76 Q2055.43 1534.15 2053.09 1532.04 Q2050.76 1529.94 2046.75 1529.94 Q2044.88 1529.94 2043 1530.35 Q2041.15 1530.77 2039.2 1531.65 L2039.2 1514.29 Z" fill="#000000" fill-rule="nonzero" fill-opacity="1"></path><polyline clip-path="url(#clip402)" style="stroke:#000000; stroke-linecap:round; stroke-linejoin:round; stroke-width:2; stroke-opacity:0.1; fill:none" points="156.598,1445.72 2352.76,1445.72 "></polyline>
<polyline clip-path="url(#clip402)" style="stroke:#000000; stroke-linecap:round; stroke-linejoin:round; stroke-width:2; stroke-opacity:0.1; fill:none" points="156.598,1159.55 2352.76,1159.55 "></polyline>
<polyline clip-path="url(#clip402)" style="stroke:#000000; stroke-linecap:round; stroke-linejoin:round; stroke-width:2; stroke-opacity:0.1; fill:none" points="156.598,873.376 2352.76,873.376 "></polyline>
<polyline clip-path="url(#clip402)" style="stroke:#000000; stroke-linecap:round; stroke-linejoin:round; stroke-width:2; stroke-opacity:0.1; fill:none" points="156.598,587.207 2352.76,587.207 "></polyline>
<polyline clip-path="url(#clip402)" style="stroke:#000000; stroke-linecap:round; stroke-linejoin:round; stroke-width:2; stroke-opacity:0.1; fill:none" points="156.598,301.037 2352.76,301.037 "></polyline>
<polyline clip-path="url(#clip400)" style="stroke:#000000; stroke-linecap:round; stroke-linejoin:round; stroke-width:4; stroke-opacity:1; fill:none" points="156.598,1486.45 156.598,47.2441 "></polyline>
<polyline clip-path="url(#clip400)" style="stroke:#000000; stroke-linecap:round; stroke-linejoin:round; stroke-width:4; stroke-opacity:1; fill:none" points="156.598,1445.72 175.496,1445.72 "></polyline>
<polyline clip-path="url(#clip400)" style="stroke:#000000; stroke-linecap:round; stroke-linejoin:round; stroke-width:4; stroke-opacity:1; fill:none" points="156.598,1159.55 175.496,1159.55 "></polyline>
<polyline clip-path="url(#clip400)" style="stroke:#000000; stroke-linecap:round; stroke-linejoin:round; stroke-width:4; stroke-opacity:1; fill:none" points="156.598,873.376 175.496,873.376 "></polyline>
<polyline clip-path="url(#clip400)" style="stroke:#000000; stroke-linecap:round; stroke-linejoin:round; stroke-width:4; stroke-opacity:1; fill:none" points="156.598,587.207 175.496,587.207 "></polyline>
<polyline clip-path="url(#clip400)" style="stroke:#000000; stroke-linecap:round; stroke-linejoin:round; stroke-width:4; stroke-opacity:1; fill:none" points="156.598,301.037 175.496,301.037 "></polyline>
<path clip-path="url(#clip400)" d="M63.4226 1431.51 Q59.8115 1431.51 57.9828 1435.08 Q56.1773 1438.62 56.1773 1445.75 Q56.1773 1452.86 57.9828 1456.42 Q59.8115 1459.96 63.4226 1459.96 Q67.0569 1459.96 68.8624 1456.42 Q70.6911 1452.86 70.6911 1445.75 Q70.6911 1438.62 68.8624 1435.08 Q67.0569 1431.51 63.4226 1431.51 M63.4226 1427.81 Q69.2328 1427.81 72.2883 1432.42 Q75.367 1437 75.367 1445.75 Q75.367 1454.48 72.2883 1459.08 Q69.2328 1463.67 63.4226 1463.67 Q57.6125 1463.67 54.5338 1459.08 Q51.4782 1454.48 51.4782 1445.75 Q51.4782 1437 54.5338 1432.42 Q57.6125 1427.81 63.4226 1427.81 Z" fill="#000000" fill-rule="nonzero" fill-opacity="1"></path><path clip-path="url(#clip400)" d="M83.5845 1457.12 L88.4688 1457.12 L88.4688 1463 L83.5845 1463 L83.5845 1457.12 Z" fill="#000000" fill-rule="nonzero" fill-opacity="1"></path><path clip-path="url(#clip400)" d="M108.654 1431.51 Q105.043 1431.51 103.214 1435.08 Q101.409 1438.62 101.409 1445.75 Q101.409 1452.86 103.214 1456.42 Q105.043 1459.96 108.654 1459.96 Q112.288 1459.96 114.094 1456.42 Q115.922 1452.86 115.922 1445.75 Q115.922 1438.62 114.094 1435.08 Q112.288 1431.51 108.654 1431.51 M108.654 1427.81 Q114.464 1427.81 117.52 1432.42 Q120.598 1437 120.598 1445.75 Q120.598 1454.48 117.52 1459.08 Q114.464 1463.67 108.654 1463.67 Q102.844 1463.67 99.765 1459.08 Q96.7095 1454.48 96.7095 1445.75 Q96.7095 1437 99.765 1432.42 Q102.844 1427.81 108.654 1427.81 Z" fill="#000000" fill-rule="nonzero" fill-opacity="1"></path><path clip-path="url(#clip400)" d="M64.6495 1145.34 Q61.0384 1145.34 59.2097 1148.91 Q57.4041 1152.45 57.4041 1159.58 Q57.4041 1166.69 59.2097 1170.25 Q61.0384 1173.79 64.6495 1173.79 Q68.2837 1173.79 70.0892 1170.25 Q71.9179 1166.69 71.9179 1159.58 Q71.9179 1152.45 70.0892 1148.91 Q68.2837 1145.34 64.6495 1145.34 M64.6495 1141.64 Q70.4596 1141.64 73.5152 1146.25 Q76.5938 1150.83 76.5938 1159.58 Q76.5938 1168.31 73.5152 1172.91 Q70.4596 1177.5 64.6495 1177.5 Q58.8393 1177.5 55.7606 1172.91 Q52.7051 1168.31 52.7051 1159.58 Q52.7051 1150.83 55.7606 1146.25 Q58.8393 1141.64 64.6495 1141.64 Z" fill="#000000" fill-rule="nonzero" fill-opacity="1"></path><path clip-path="url(#clip400)" d="M84.8114 1170.95 L89.6956 1170.95 L89.6956 1176.83 L84.8114 1176.83 L84.8114 1170.95 Z" fill="#000000" fill-rule="nonzero" fill-opacity="1"></path><path clip-path="url(#clip400)" d="M100.691 1172.89 L108.33 1172.89 L108.33 1146.53 L100.02 1148.19 L100.02 1143.93 L108.283 1142.27 L112.959 1142.27 L112.959 1172.89 L120.598 1172.89 L120.598 1176.83 L100.691 1176.83 L100.691 1172.89 Z" fill="#000000" fill-rule="nonzero" fill-opacity="1"></path><path clip-path="url(#clip400)" d="M65.0198 859.175 Q61.4087 859.175 59.58 862.74 Q57.7745 866.281 57.7745 873.411 Q57.7745 880.517 59.58 884.082 Q61.4087 887.624 65.0198 887.624 Q68.6541 887.624 70.4596 884.082 Q72.2883 880.517 72.2883 873.411 Q72.2883 866.281 70.4596 862.74 Q68.6541 859.175 65.0198 859.175 M65.0198 855.471 Q70.83 855.471 73.8855 860.078 Q76.9642 864.661 76.9642 873.411 Q76.9642 882.138 73.8855 886.744 Q70.83 891.328 65.0198 891.328 Q59.2097 891.328 56.131 886.744 Q53.0754 882.138 53.0754 873.411 Q53.0754 864.661 56.131 860.078 Q59.2097 855.471 65.0198 855.471 Z" fill="#000000" fill-rule="nonzero" fill-opacity="1"></path><path clip-path="url(#clip400)" d="M85.1818 884.777 L90.066 884.777 L90.066 890.656 L85.1818 890.656 L85.1818 884.777 Z" fill="#000000" fill-rule="nonzero" fill-opacity="1"></path><path clip-path="url(#clip400)" d="M104.279 886.721 L120.598 886.721 L120.598 890.656 L98.6539 890.656 L98.6539 886.721 Q101.316 883.967 105.899 879.337 Q110.506 874.684 111.686 873.342 Q113.932 870.818 114.811 869.082 Q115.714 867.323 115.714 865.633 Q115.714 862.879 113.77 861.143 Q111.848 859.406 108.746 859.406 Q106.547 859.406 104.094 860.17 Q101.663 860.934 98.8854 862.485 L98.8854 857.763 Q101.709 856.629 104.163 856.05 Q106.617 855.471 108.654 855.471 Q114.024 855.471 117.219 858.156 Q120.413 860.842 120.413 865.332 Q120.413 867.462 119.603 869.383 Q118.816 871.281 116.709 873.874 Q116.131 874.545 113.029 877.763 Q109.927 880.957 104.279 886.721 Z" fill="#000000" fill-rule="nonzero" fill-opacity="1"></path><path clip-path="url(#clip400)" d="M64.0708 573.005 Q60.4597 573.005 58.631 576.57 Q56.8254 580.112 56.8254 587.241 Q56.8254 594.348 58.631 597.913 Q60.4597 601.454 64.0708 601.454 Q67.705 601.454 69.5105 597.913 Q71.3392 594.348 71.3392 587.241 Q71.3392 580.112 69.5105 576.57 Q67.705 573.005 64.0708 573.005 M64.0708 569.302 Q69.8809 569.302 72.9365 573.908 Q76.0151 578.491 76.0151 587.241 Q76.0151 595.968 72.9365 600.575 Q69.8809 605.158 64.0708 605.158 Q58.2606 605.158 55.1819 600.575 Q52.1264 595.968 52.1264 587.241 Q52.1264 578.491 55.1819 573.908 Q58.2606 569.302 64.0708 569.302 Z" fill="#000000" fill-rule="nonzero" fill-opacity="1"></path><path clip-path="url(#clip400)" d="M84.2327 598.607 L89.1169 598.607 L89.1169 604.487 L84.2327 604.487 L84.2327 598.607 Z" fill="#000000" fill-rule="nonzero" fill-opacity="1"></path><path clip-path="url(#clip400)" d="M113.469 585.852 Q116.825 586.57 118.7 588.839 Q120.598 591.107 120.598 594.44 Q120.598 599.556 117.08 602.357 Q113.561 605.158 107.08 605.158 Q104.904 605.158 102.589 604.718 Q100.297 604.301 97.8437 603.445 L97.8437 598.931 Q99.7882 600.065 102.103 600.644 Q104.418 601.223 106.941 601.223 Q111.339 601.223 113.631 599.487 Q115.945 597.751 115.945 594.44 Q115.945 591.385 113.793 589.672 Q111.663 587.936 107.844 587.936 L103.816 587.936 L103.816 584.093 L108.029 584.093 Q111.478 584.093 113.307 582.727 Q115.135 581.339 115.135 578.746 Q115.135 576.084 113.237 574.672 Q111.362 573.237 107.844 573.237 Q105.922 573.237 103.723 573.653 Q101.524 574.07 98.8854 574.95 L98.8854 570.783 Q101.547 570.042 103.862 569.672 Q106.2 569.302 108.26 569.302 Q113.584 569.302 116.686 571.732 Q119.788 574.14 119.788 578.26 Q119.788 581.13 118.145 583.121 Q116.501 585.089 113.469 585.852 Z" fill="#000000" fill-rule="nonzero" fill-opacity="1"></path><path clip-path="url(#clip400)" d="M62.9365 286.836 Q59.3254 286.836 57.4967 290.4 Q55.6912 293.942 55.6912 301.072 Q55.6912 308.178 57.4967 311.743 Q59.3254 315.285 62.9365 315.285 Q66.5707 315.285 68.3763 311.743 Q70.205 308.178 70.205 301.072 Q70.205 293.942 68.3763 290.4 Q66.5707 286.836 62.9365 286.836 M62.9365 283.132 Q68.7467 283.132 71.8022 287.738 Q74.8809 292.322 74.8809 301.072 Q74.8809 309.798 71.8022 314.405 Q68.7467 318.988 62.9365 318.988 Q57.1264 318.988 54.0477 314.405 Q50.9921 309.798 50.9921 301.072 Q50.9921 292.322 54.0477 287.738 Q57.1264 283.132 62.9365 283.132 Z" fill="#000000" fill-rule="nonzero" fill-opacity="1"></path><path clip-path="url(#clip400)" d="M83.0984 312.437 L87.9827 312.437 L87.9827 318.317 L83.0984 318.317 L83.0984 312.437 Z" fill="#000000" fill-rule="nonzero" fill-opacity="1"></path><path clip-path="url(#clip400)" d="M111.015 287.831 L99.2095 306.28 L111.015 306.28 L111.015 287.831 M109.788 283.757 L115.668 283.757 L115.668 306.28 L120.598 306.28 L120.598 310.169 L115.668 310.169 L115.668 318.317 L111.015 318.317 L111.015 310.169 L95.4132 310.169 L95.4132 305.655 L109.788 283.757 Z" fill="#000000" fill-rule="nonzero" fill-opacity="1"></path><path clip-path="url(#clip402)" d="M277.391 1424.83 L277.391 1445.72 L380.263 1445.72 L380.263 1424.83 L277.391 1424.83 L277.391 1424.83  Z" fill="#009af9" fill-rule="evenodd" fill-opacity="1"></path>
<polyline clip-path="url(#clip402)" style="stroke:#000000; stroke-linecap:round; stroke-linejoin:round; stroke-width:4; stroke-opacity:1; fill:none" points="277.391,1424.83 277.391,1445.72 380.263,1445.72 380.263,1424.83 277.391,1424.83 "></polyline>
<path clip-path="url(#clip402)" d="M380.263 1445.72 L380.263 1445.72 L483.135 1445.72 L483.135 1445.72 L380.263 1445.72 L380.263 1445.72  Z" fill="#009af9" fill-rule="evenodd" fill-opacity="1"></path>
<polyline clip-path="url(#clip402)" style="stroke:#000000; stroke-linecap:round; stroke-linejoin:round; stroke-width:4; stroke-opacity:1; fill:none" points="380.263,1445.72 380.263,1445.72 483.135,1445.72 380.263,1445.72 "></polyline>
<path clip-path="url(#clip402)" d="M483.135 1445.72 L483.135 1445.72 L586.008 1445.72 L586.008 1445.72 L483.135 1445.72 L483.135 1445.72  Z" fill="#009af9" fill-rule="evenodd" fill-opacity="1"></path>
<polyline clip-path="url(#clip402)" style="stroke:#000000; stroke-linecap:round; stroke-linejoin:round; stroke-width:4; stroke-opacity:1; fill:none" points="483.135,1445.72 483.135,1445.72 586.008,1445.72 483.135,1445.72 "></polyline>
<path clip-path="url(#clip402)" d="M586.008 1445.72 L586.008 1445.72 L688.88 1445.72 L688.88 1445.72 L586.008 1445.72 L586.008 1445.72  Z" fill="#009af9" fill-rule="evenodd" fill-opacity="1"></path>
<polyline clip-path="url(#clip402)" style="stroke:#000000; stroke-linecap:round; stroke-linejoin:round; stroke-width:4; stroke-opacity:1; fill:none" points="586.008,1445.72 586.008,1445.72 688.88,1445.72 586.008,1445.72 "></polyline>
<path clip-path="url(#clip402)" d="M688.88 1445.72 L688.88 1445.72 L791.752 1445.72 L791.752 1445.72 L688.88 1445.72 L688.88 1445.72  Z" fill="#009af9" fill-rule="evenodd" fill-opacity="1"></path>
<polyline clip-path="url(#clip402)" style="stroke:#000000; stroke-linecap:round; stroke-linejoin:round; stroke-width:4; stroke-opacity:1; fill:none" points="688.88,1445.72 688.88,1445.72 791.752,1445.72 688.88,1445.72 "></polyline>
<path clip-path="url(#clip402)" d="M791.752 1424.83 L791.752 1445.72 L894.624 1445.72 L894.624 1424.83 L791.752 1424.83 L791.752 1424.83  Z" fill="#009af9" fill-rule="evenodd" fill-opacity="1"></path>
<polyline clip-path="url(#clip402)" style="stroke:#000000; stroke-linecap:round; stroke-linejoin:round; stroke-width:4; stroke-opacity:1; fill:none" points="791.752,1424.83 791.752,1445.72 894.624,1445.72 894.624,1424.83 791.752,1424.83 "></polyline>
<path clip-path="url(#clip402)" d="M894.624 1424.83 L894.624 1445.72 L997.496 1445.72 L997.496 1424.83 L894.624 1424.83 L894.624 1424.83  Z" fill="#009af9" fill-rule="evenodd" fill-opacity="1"></path>
<polyline clip-path="url(#clip402)" style="stroke:#000000; stroke-linecap:round; stroke-linejoin:round; stroke-width:4; stroke-opacity:1; fill:none" points="894.624,1424.83 894.624,1445.72 997.496,1445.72 997.496,1424.83 894.624,1424.83 "></polyline>
<path clip-path="url(#clip402)" d="M997.496 1299.5 L997.496 1445.72 L1100.37 1445.72 L1100.37 1299.5 L997.496 1299.5 L997.496 1299.5  Z" fill="#009af9" fill-rule="evenodd" fill-opacity="1"></path>
<polyline clip-path="url(#clip402)" style="stroke:#000000; stroke-linecap:round; stroke-linejoin:round; stroke-width:4; stroke-opacity:1; fill:none" points="997.496,1299.5 997.496,1445.72 1100.37,1445.72 1100.37,1299.5 997.496,1299.5 "></polyline>
<path clip-path="url(#clip402)" d="M1100.37 1278.61 L1100.37 1445.72 L1203.24 1445.72 L1203.24 1278.61 L1100.37 1278.61 L1100.37 1278.61  Z" fill="#009af9" fill-rule="evenodd" fill-opacity="1"></path>
<polyline clip-path="url(#clip402)" style="stroke:#000000; stroke-linecap:round; stroke-linejoin:round; stroke-width:4; stroke-opacity:1; fill:none" points="1100.37,1278.61 1100.37,1445.72 1203.24,1445.72 1203.24,1278.61 1100.37,1278.61 "></polyline>
<path clip-path="url(#clip402)" d="M1203.24 1111.5 L1203.24 1445.72 L1306.11 1445.72 L1306.11 1111.5 L1203.24 1111.5 L1203.24 1111.5  Z" fill="#009af9" fill-rule="evenodd" fill-opacity="1"></path>
<polyline clip-path="url(#clip402)" style="stroke:#000000; stroke-linecap:round; stroke-linejoin:round; stroke-width:4; stroke-opacity:1; fill:none" points="1203.24,1111.5 1203.24,1445.72 1306.11,1445.72 1306.11,1111.5 1203.24,1111.5 "></polyline>
<path clip-path="url(#clip402)" d="M1306.11 589.295 L1306.11 1445.72 L1408.99 1445.72 L1408.99 589.295 L1306.11 589.295 L1306.11 589.295  Z" fill="#009af9" fill-rule="evenodd" fill-opacity="1"></path>
<polyline clip-path="url(#clip402)" style="stroke:#000000; stroke-linecap:round; stroke-linejoin:round; stroke-width:4; stroke-opacity:1; fill:none" points="1306.11,589.295 1306.11,1445.72 1408.99,1445.72 1408.99,589.295 1306.11,589.295 "></polyline>
<path clip-path="url(#clip402)" d="M1408.99 234.194 L1408.99 1445.72 L1511.86 1445.72 L1511.86 234.194 L1408.99 234.194 L1408.99 234.194  Z" fill="#009af9" fill-rule="evenodd" fill-opacity="1"></path>
<polyline clip-path="url(#clip402)" style="stroke:#000000; stroke-linecap:round; stroke-linejoin:round; stroke-width:4; stroke-opacity:1; fill:none" points="1408.99,234.194 1408.99,1445.72 1511.86,1445.72 1511.86,234.194 1408.99,234.194 "></polyline>
<path clip-path="url(#clip402)" d="M1511.86 87.9763 L1511.86 1445.72 L1614.73 1445.72 L1614.73 87.9763 L1511.86 87.9763 L1511.86 87.9763  Z" fill="#009af9" fill-rule="evenodd" fill-opacity="1"></path>
<polyline clip-path="url(#clip402)" style="stroke:#000000; stroke-linecap:round; stroke-linejoin:round; stroke-width:4; stroke-opacity:1; fill:none" points="1511.86,87.9763 1511.86,1445.72 1614.73,1445.72 1614.73,87.9763 1511.86,87.9763 "></polyline>
<path clip-path="url(#clip402)" d="M1614.73 526.631 L1614.73 1445.72 L1717.6 1445.72 L1717.6 526.631 L1614.73 526.631 L1614.73 526.631  Z" fill="#009af9" fill-rule="evenodd" fill-opacity="1"></path>
<polyline clip-path="url(#clip402)" style="stroke:#000000; stroke-linecap:round; stroke-linejoin:round; stroke-width:4; stroke-opacity:1; fill:none" points="1614.73,526.631 1614.73,1445.72 1717.6,1445.72 1717.6,526.631 1614.73,526.631 "></polyline>
<path clip-path="url(#clip402)" d="M1717.6 1069.73 L1717.6 1445.72 L1820.47 1445.72 L1820.47 1069.73 L1717.6 1069.73 L1717.6 1069.73  Z" fill="#009af9" fill-rule="evenodd" fill-opacity="1"></path>
<polyline clip-path="url(#clip402)" style="stroke:#000000; stroke-linecap:round; stroke-linejoin:round; stroke-width:4; stroke-opacity:1; fill:none" points="1717.6,1069.73 1717.6,1445.72 1820.47,1445.72 1820.47,1069.73 1717.6,1069.73 "></polyline>
<path clip-path="url(#clip402)" d="M1820.47 1278.61 L1820.47 1445.72 L1923.35 1445.72 L1923.35 1278.61 L1820.47 1278.61 L1820.47 1278.61  Z" fill="#009af9" fill-rule="evenodd" fill-opacity="1"></path>
<polyline clip-path="url(#clip402)" style="stroke:#000000; stroke-linecap:round; stroke-linejoin:round; stroke-width:4; stroke-opacity:1; fill:none" points="1820.47,1278.61 1820.47,1445.72 1923.35,1445.72 1923.35,1278.61 1820.47,1278.61 "></polyline>
<path clip-path="url(#clip402)" d="M1923.35 1362.16 L1923.35 1445.72 L2026.22 1445.72 L2026.22 1362.16 L1923.35 1362.16 L1923.35 1362.16  Z" fill="#009af9" fill-rule="evenodd" fill-opacity="1"></path>
<polyline clip-path="url(#clip402)" style="stroke:#000000; stroke-linecap:round; stroke-linejoin:round; stroke-width:4; stroke-opacity:1; fill:none" points="1923.35,1362.16 1923.35,1445.72 2026.22,1445.72 2026.22,1362.16 1923.35,1362.16 "></polyline>
<path clip-path="url(#clip402)" d="M2026.22 1424.83 L2026.22 1445.72 L2129.09 1445.72 L2129.09 1424.83 L2026.22 1424.83 L2026.22 1424.83  Z" fill="#009af9" fill-rule="evenodd" fill-opacity="1"></path>
<polyline clip-path="url(#clip402)" style="stroke:#000000; stroke-linecap:round; stroke-linejoin:round; stroke-width:4; stroke-opacity:1; fill:none" points="2026.22,1424.83 2026.22,1445.72 2129.09,1445.72 2129.09,1424.83 2026.22,1424.83 "></polyline>
<path clip-path="url(#clip402)" d="M2129.09 1424.83 L2129.09 1445.72 L2231.96 1445.72 L2231.96 1424.83 L2129.09 1424.83 L2129.09 1424.83  Z" fill="#009af9" fill-rule="evenodd" fill-opacity="1"></path>
<polyline clip-path="url(#clip402)" style="stroke:#000000; stroke-linecap:round; stroke-linejoin:round; stroke-width:4; stroke-opacity:1; fill:none" points="2129.09,1424.83 2129.09,1445.72 2231.96,1445.72 2231.96,1424.83 2129.09,1424.83 "></polyline>
<circle clip-path="url(#clip402)" style="fill:#009af9; stroke:none; fill-opacity:0" cx="328.827" cy="1424.83" r="2"></circle>
<circle clip-path="url(#clip402)" style="fill:#009af9; stroke:none; fill-opacity:0" cx="431.699" cy="1445.72" r="2"></circle>
<circle clip-path="url(#clip402)" style="fill:#009af9; stroke:none; fill-opacity:0" cx="534.571" cy="1445.72" r="2"></circle>
<circle clip-path="url(#clip402)" style="fill:#009af9; stroke:none; fill-opacity:0" cx="637.444" cy="1445.72" r="2"></circle>
<circle clip-path="url(#clip402)" style="fill:#009af9; stroke:none; fill-opacity:0" cx="740.316" cy="1445.72" r="2"></circle>
<circle clip-path="url(#clip402)" style="fill:#009af9; stroke:none; fill-opacity:0" cx="843.188" cy="1424.83" r="2"></circle>
<circle clip-path="url(#clip402)" style="fill:#009af9; stroke:none; fill-opacity:0" cx="946.06" cy="1424.83" r="2"></circle>
<circle clip-path="url(#clip402)" style="fill:#009af9; stroke:none; fill-opacity:0" cx="1048.93" cy="1299.5" r="2"></circle>
<circle clip-path="url(#clip402)" style="fill:#009af9; stroke:none; fill-opacity:0" cx="1151.8" cy="1278.61" r="2"></circle>
<circle clip-path="url(#clip402)" style="fill:#009af9; stroke:none; fill-opacity:0" cx="1254.68" cy="1111.5" r="2"></circle>
<circle clip-path="url(#clip402)" style="fill:#009af9; stroke:none; fill-opacity:0" cx="1357.55" cy="589.295" r="2"></circle>
<circle clip-path="url(#clip402)" style="fill:#009af9; stroke:none; fill-opacity:0" cx="1460.42" cy="234.194" r="2"></circle>
<circle clip-path="url(#clip402)" style="fill:#009af9; stroke:none; fill-opacity:0" cx="1563.29" cy="87.9763" r="2"></circle>
<circle clip-path="url(#clip402)" style="fill:#009af9; stroke:none; fill-opacity:0" cx="1666.17" cy="526.631" r="2"></circle>
<circle clip-path="url(#clip402)" style="fill:#009af9; stroke:none; fill-opacity:0" cx="1769.04" cy="1069.73" r="2"></circle>
<circle clip-path="url(#clip402)" style="fill:#009af9; stroke:none; fill-opacity:0" cx="1871.91" cy="1278.61" r="2"></circle>
<circle clip-path="url(#clip402)" style="fill:#009af9; stroke:none; fill-opacity:0" cx="1974.78" cy="1362.16" r="2"></circle>
<circle clip-path="url(#clip402)" style="fill:#009af9; stroke:none; fill-opacity:0" cx="2077.65" cy="1424.83" r="2"></circle>
<circle clip-path="url(#clip402)" style="fill:#009af9; stroke:none; fill-opacity:0" cx="2180.53" cy="1424.83" r="2"></circle>
<polyline clip-path="url(#clip402)" style="stroke:#e26f46; stroke-linecap:round; stroke-linejoin:round; stroke-width:4; stroke-opacity:1; fill:none" points="746.691,1444.58 751.672,1444.48 756.654,1444.36 802.716,1442.71 848.779,1439.38 876.461,1436.02 904.142,1431.16 927.547,1425.48 950.952,1417.94 963.663,1412.91 976.375,1407.11 989.087,1400.47 1001.8,1392.87 1013.52,1384.96 1025.24,1376.08 1036.96,1366.17 1048.68,1355.14 1061.24,1341.99 1073.81,1327.36 1086.37,1311.18 1098.93,1293.35 1113.49,1270.55 1128.05,1245.33 1142.6,1217.63 1157.16,1187.39 1170.1,1158.39 1183.03,1127.38 1195.97,1094.43 1208.91,1059.59 1220.25,1027.57 1231.6,994.268 1242.94,959.794 1254.28,924.276 1279.02,843.942 1303.76,761.198 1328.64,677.762 1353.52,596.667 1360.4,575.027 1367.28,553.834 1374.16,533.144 1381.04,513.018 1387.91,493.513 1394.79,474.685 1401.67,456.591 1408.55,439.285 1415.09,423.599 1421.64,408.719 1428.18,394.685 1434.72,381.539 1441.27,369.318 1447.81,358.057 1454.36,347.79 1460.9,338.547 1467.71,330.051 1474.51,322.719 1481.31,316.575 1488.12,311.638 1494.92,307.924 1501.73,305.447 1508.53,304.213 1515.34,304.227 1521.06,305.206 1526.79,307.068 1532.52,309.807 1538.25,313.417 1543.98,317.89 1549.7,323.216 1555.43,329.383 1561.16,336.375 1568.15,346.009 1575.15,356.818 1582.14,368.766 1589.13,381.813 1596.13,395.914 1603.12,411.025 1610.11,427.096 1617.1,444.075 1629.92,477.359 1642.73,513.161 1649.14,531.892 1655.54,551.114 1661.95,570.781 1668.35,590.844 1692.02,667.626 1715.69,746.82 1739.66,827.227 1763.63,905.763 1777.07,948.288 1790.5,989.414 1803.93,1028.92 1817.37,1066.62 1829.54,1099.12 1841.71,1129.93 1853.89,1159.01 1866.06,1186.32 1880,1215.4 1893.93,1242.16 1907.87,1266.63 1921.81,1288.89 1934.71,1307.58 1947.62,1324.53 1960.52,1339.81 1973.43,1353.53 1986.15,1365.62 1998.87,1376.4 2011.59,1385.95 2024.32,1394.38 2036.67,1401.59 2049.02,1407.93 2061.37,1413.47 2073.73,1418.29 2099.05,1426.27 2124.38,1432.13 2152.12,1436.71 2179.87,1439.85 2220.18,1442.67 2260.49,1444.19 2268.76,1444.4 2277.02,1444.58 "></polyline>
<path clip-path="url(#clip400)" d="M1513.71 250.738 L2279.55 250.738 L2279.55 95.2176 L1513.71 95.2176  Z" fill="#ffffff" fill-rule="evenodd" fill-opacity="1"></path>
<polyline clip-path="url(#clip400)" style="stroke:#000000; stroke-linecap:round; stroke-linejoin:round; stroke-width:4; stroke-opacity:1; fill:none" points="1513.71,250.738 2279.55,250.738 2279.55,95.2176 1513.71,95.2176 1513.71,250.738 "></polyline>
<path clip-path="url(#clip400)" d="M1538.11 167.794 L1684.52 167.794 L1684.52 126.322 L1538.11 126.322 L1538.11 167.794  Z" fill="#009af9" fill-rule="evenodd" fill-opacity="1"></path>
<polyline clip-path="url(#clip400)" style="stroke:#000000; stroke-linecap:round; stroke-linejoin:round; stroke-width:4; stroke-opacity:1; fill:none" points="1538.11,167.794 1684.52,167.794 1684.52,126.322 1538.11,126.322 1538.11,167.794 "></polyline>
<path clip-path="url(#clip400)" d="M1727.35 139.176 L1727.35 143.203 Q1725.55 142.277 1723.6 141.815 Q1721.66 141.352 1719.57 141.352 Q1716.4 141.352 1714.8 142.324 Q1713.23 143.296 1713.23 145.24 Q1713.23 146.722 1714.36 147.578 Q1715.5 148.412 1718.92 149.176 L1720.38 149.5 Q1724.92 150.472 1726.82 152.254 Q1728.74 154.014 1728.74 157.185 Q1728.74 160.796 1725.87 162.902 Q1723.02 165.009 1718.02 165.009 Q1715.94 165.009 1713.67 164.592 Q1711.42 164.199 1708.92 163.388 L1708.92 158.99 Q1711.29 160.217 1713.58 160.842 Q1715.87 161.444 1718.11 161.444 Q1721.12 161.444 1722.74 160.426 Q1724.36 159.384 1724.36 157.509 Q1724.36 155.773 1723.18 154.847 Q1722.03 153.921 1718.07 153.064 L1716.59 152.717 Q1712.63 151.884 1710.87 150.171 Q1709.11 148.435 1709.11 145.426 Q1709.11 141.768 1711.7 139.778 Q1714.3 137.787 1719.06 137.787 Q1721.42 137.787 1723.51 138.134 Q1725.59 138.481 1727.35 139.176 Z" fill="#000000" fill-rule="nonzero" fill-opacity="1"></path><path clip-path="url(#clip400)" d="M1739.73 131.051 L1739.73 138.412 L1748.51 138.412 L1748.51 141.722 L1739.73 141.722 L1739.73 155.796 Q1739.73 158.967 1740.59 159.87 Q1741.47 160.773 1744.13 160.773 L1748.51 160.773 L1748.51 164.338 L1744.13 164.338 Q1739.2 164.338 1737.33 162.509 Q1735.45 160.657 1735.45 155.796 L1735.45 141.722 L1732.33 141.722 L1732.33 138.412 L1735.45 138.412 L1735.45 131.051 L1739.73 131.051 Z" fill="#000000" fill-rule="nonzero" fill-opacity="1"></path><path clip-path="url(#clip400)" d="M1765.89 151.305 Q1760.73 151.305 1758.74 152.486 Q1756.75 153.666 1756.75 156.514 Q1756.75 158.782 1758.23 160.125 Q1759.73 161.444 1762.3 161.444 Q1765.85 161.444 1767.98 158.944 Q1770.13 156.421 1770.13 152.254 L1770.13 151.305 L1765.89 151.305 M1774.39 149.546 L1774.39 164.338 L1770.13 164.338 L1770.13 160.402 Q1768.67 162.763 1766.49 163.898 Q1764.32 165.009 1761.17 165.009 Q1757.19 165.009 1754.83 162.787 Q1752.49 160.541 1752.49 156.791 Q1752.49 152.416 1755.41 150.194 Q1758.35 147.972 1764.16 147.972 L1770.13 147.972 L1770.13 147.555 Q1770.13 144.615 1768.18 143.018 Q1766.26 141.398 1762.77 141.398 Q1760.55 141.398 1758.44 141.93 Q1756.33 142.463 1754.39 143.527 L1754.39 139.592 Q1756.73 138.69 1758.92 138.25 Q1761.12 137.787 1763.21 137.787 Q1768.83 137.787 1771.61 140.703 Q1774.39 143.62 1774.39 149.546 Z" fill="#000000" fill-rule="nonzero" fill-opacity="1"></path><path clip-path="url(#clip400)" d="M1804.71 148.689 L1804.71 164.338 L1800.45 164.338 L1800.45 148.828 Q1800.45 145.148 1799.02 143.319 Q1797.58 141.49 1794.71 141.49 Q1791.26 141.49 1789.27 143.69 Q1787.28 145.889 1787.28 149.685 L1787.28 164.338 L1783 164.338 L1783 138.412 L1787.28 138.412 L1787.28 142.44 Q1788.81 140.102 1790.87 138.944 Q1792.95 137.787 1795.66 137.787 Q1800.13 137.787 1802.42 140.565 Q1804.71 143.319 1804.71 148.689 Z" fill="#000000" fill-rule="nonzero" fill-opacity="1"></path><path clip-path="url(#clip400)" d="M1830.27 142.347 L1830.27 128.319 L1834.53 128.319 L1834.53 164.338 L1830.27 164.338 L1830.27 160.449 Q1828.92 162.763 1826.86 163.898 Q1824.83 165.009 1821.96 165.009 Q1817.26 165.009 1814.29 161.259 Q1811.35 157.509 1811.35 151.398 Q1811.35 145.287 1814.29 141.537 Q1817.26 137.787 1821.96 137.787 Q1824.83 137.787 1826.86 138.921 Q1828.92 140.032 1830.27 142.347 M1815.75 151.398 Q1815.75 156.097 1817.67 158.782 Q1819.62 161.444 1823 161.444 Q1826.38 161.444 1828.32 158.782 Q1830.27 156.097 1830.27 151.398 Q1830.27 146.699 1828.32 144.037 Q1826.38 141.352 1823 141.352 Q1819.62 141.352 1817.67 144.037 Q1815.75 146.699 1815.75 151.398 Z" fill="#000000" fill-rule="nonzero" fill-opacity="1"></path><path clip-path="url(#clip400)" d="M1855.08 151.305 Q1849.92 151.305 1847.93 152.486 Q1845.94 153.666 1845.94 156.514 Q1845.94 158.782 1847.42 160.125 Q1848.92 161.444 1851.49 161.444 Q1855.04 161.444 1857.16 158.944 Q1859.32 156.421 1859.32 152.254 L1859.32 151.305 L1855.08 151.305 M1863.58 149.546 L1863.58 164.338 L1859.32 164.338 L1859.32 160.402 Q1857.86 162.763 1855.68 163.898 Q1853.51 165.009 1850.36 165.009 Q1846.38 165.009 1844.02 162.787 Q1841.68 160.541 1841.68 156.791 Q1841.68 152.416 1844.6 150.194 Q1847.54 147.972 1853.35 147.972 L1859.32 147.972 L1859.32 147.555 Q1859.32 144.615 1857.37 143.018 Q1855.45 141.398 1851.96 141.398 Q1849.73 141.398 1847.63 141.93 Q1845.52 142.463 1843.58 143.527 L1843.58 139.592 Q1845.91 138.69 1848.11 138.25 Q1850.31 137.787 1852.4 137.787 Q1858.02 137.787 1860.8 140.703 Q1863.58 143.62 1863.58 149.546 Z" fill="#000000" fill-rule="nonzero" fill-opacity="1"></path><path clip-path="url(#clip400)" d="M1887.37 142.393 Q1886.66 141.977 1885.8 141.791 Q1884.97 141.583 1883.95 141.583 Q1880.34 141.583 1878.39 143.944 Q1876.47 146.282 1876.47 150.68 L1876.47 164.338 L1872.19 164.338 L1872.19 138.412 L1876.47 138.412 L1876.47 142.44 Q1877.81 140.078 1879.97 138.944 Q1882.12 137.787 1885.2 137.787 Q1885.64 137.787 1886.17 137.856 Q1886.7 137.903 1887.35 138.018 L1887.37 142.393 Z" fill="#000000" fill-rule="nonzero" fill-opacity="1"></path><path clip-path="url(#clip400)" d="M1908.07 142.347 L1908.07 128.319 L1912.33 128.319 L1912.33 164.338 L1908.07 164.338 L1908.07 160.449 Q1906.72 162.763 1904.66 163.898 Q1902.63 165.009 1899.76 165.009 Q1895.06 165.009 1892.1 161.259 Q1889.16 157.509 1889.16 151.398 Q1889.16 145.287 1892.1 141.537 Q1895.06 137.787 1899.76 137.787 Q1902.63 137.787 1904.66 138.921 Q1906.72 140.032 1908.07 142.347 M1893.55 151.398 Q1893.55 156.097 1895.47 158.782 Q1897.42 161.444 1900.8 161.444 Q1904.18 161.444 1906.12 158.782 Q1908.07 156.097 1908.07 151.398 Q1908.07 146.699 1906.12 144.037 Q1904.18 141.352 1900.8 141.352 Q1897.42 141.352 1895.47 144.037 Q1893.55 146.699 1893.55 151.398 Z" fill="#000000" fill-rule="nonzero" fill-opacity="1"></path><path clip-path="url(#clip400)" d="M1921.1 138.412 L1925.36 138.412 L1925.36 164.338 L1921.1 164.338 L1921.1 138.412 M1921.1 128.319 L1925.36 128.319 L1925.36 133.713 L1921.1 133.713 L1921.1 128.319 Z" fill="#000000" fill-rule="nonzero" fill-opacity="1"></path><path clip-path="url(#clip400)" d="M1932.42 138.412 L1952.65 138.412 L1952.65 142.301 L1936.63 160.935 L1952.65 160.935 L1952.65 164.338 L1931.84 164.338 L1931.84 160.449 L1947.86 141.815 L1932.42 141.815 L1932.42 138.412 Z" fill="#000000" fill-rule="nonzero" fill-opacity="1"></path><path clip-path="url(#clip400)" d="M1981.33 150.31 L1981.33 152.393 L1961.75 152.393 Q1962.03 156.791 1964.39 159.106 Q1966.77 161.398 1971.01 161.398 Q1973.46 161.398 1975.75 160.796 Q1978.07 160.194 1980.34 158.99 L1980.34 163.018 Q1978.04 163.99 1975.64 164.5 Q1973.23 165.009 1970.75 165.009 Q1964.55 165.009 1960.91 161.398 Q1957.3 157.787 1957.3 151.629 Q1957.3 145.264 1960.73 141.537 Q1964.18 137.787 1970.01 137.787 Q1975.24 137.787 1978.28 141.166 Q1981.33 144.523 1981.33 150.31 M1977.07 149.06 Q1977.03 145.565 1975.1 143.481 Q1973.21 141.398 1970.06 141.398 Q1966.49 141.398 1964.34 143.412 Q1962.21 145.426 1961.89 149.083 L1977.07 149.06 Z" fill="#000000" fill-rule="nonzero" fill-opacity="1"></path><path clip-path="url(#clip400)" d="M2005.38 142.347 L2005.38 128.319 L2009.64 128.319 L2009.64 164.338 L2005.38 164.338 L2005.38 160.449 Q2004.04 162.763 2001.98 163.898 Q1999.94 165.009 1997.07 165.009 Q1992.37 165.009 1989.41 161.259 Q1986.47 157.509 1986.47 151.398 Q1986.47 145.287 1989.41 141.537 Q1992.37 137.787 1997.07 137.787 Q1999.94 137.787 2001.98 138.921 Q2004.04 140.032 2005.38 142.347 M1990.87 151.398 Q1990.87 156.097 1992.79 158.782 Q1994.73 161.444 1998.11 161.444 Q2001.49 161.444 2003.44 158.782 Q2005.38 156.097 2005.38 151.398 Q2005.38 146.699 2003.44 144.037 Q2001.49 141.352 1998.11 141.352 Q1994.73 141.352 1992.79 144.037 Q1990.87 146.699 1990.87 151.398 Z" fill="#000000" fill-rule="nonzero" fill-opacity="1"></path><path clip-path="url(#clip400)" d="M2048.51 142.393 Q2047.79 141.977 2046.93 141.791 Q2046.1 141.583 2045.08 141.583 Q2041.47 141.583 2039.53 143.944 Q2037.6 146.282 2037.6 150.68 L2037.6 164.338 L2033.32 164.338 L2033.32 138.412 L2037.6 138.412 L2037.6 142.44 Q2038.95 140.078 2041.1 138.944 Q2043.25 137.787 2046.33 137.787 Q2046.77 137.787 2047.3 137.856 Q2047.84 137.903 2048.48 138.018 L2048.51 142.393 Z" fill="#000000" fill-rule="nonzero" fill-opacity="1"></path><path clip-path="url(#clip400)" d="M2074.11 150.31 L2074.11 152.393 L2054.52 152.393 Q2054.8 156.791 2057.16 159.106 Q2059.55 161.398 2063.78 161.398 Q2066.24 161.398 2068.53 160.796 Q2070.84 160.194 2073.11 158.99 L2073.11 163.018 Q2070.82 163.99 2068.41 164.5 Q2066.01 165.009 2063.53 165.009 Q2057.33 165.009 2053.69 161.398 Q2050.08 157.787 2050.08 151.629 Q2050.08 145.264 2053.51 141.537 Q2056.96 137.787 2062.79 137.787 Q2068.02 137.787 2071.05 141.166 Q2074.11 144.523 2074.11 150.31 M2069.85 149.06 Q2069.8 145.565 2067.88 143.481 Q2065.98 141.398 2062.84 141.398 Q2059.27 141.398 2057.12 143.412 Q2054.99 145.426 2054.66 149.083 L2069.85 149.06 Z" fill="#000000" fill-rule="nonzero" fill-opacity="1"></path><path clip-path="url(#clip400)" d="M2097.63 139.176 L2097.63 143.203 Q2095.82 142.277 2093.88 141.815 Q2091.93 141.352 2089.85 141.352 Q2086.68 141.352 2085.08 142.324 Q2083.51 143.296 2083.51 145.24 Q2083.51 146.722 2084.64 147.578 Q2085.77 148.412 2089.2 149.176 L2090.66 149.5 Q2095.2 150.472 2097.09 152.254 Q2099.02 154.014 2099.02 157.185 Q2099.02 160.796 2096.15 162.902 Q2093.3 165.009 2088.3 165.009 Q2086.21 165.009 2083.95 164.592 Q2081.7 164.199 2079.2 163.388 L2079.2 158.99 Q2081.56 160.217 2083.85 160.842 Q2086.15 161.444 2088.39 161.444 Q2091.4 161.444 2093.02 160.426 Q2094.64 159.384 2094.64 157.509 Q2094.64 155.773 2093.46 154.847 Q2092.3 153.921 2088.34 153.064 L2086.86 152.717 Q2082.9 151.884 2081.15 150.171 Q2079.39 148.435 2079.39 145.426 Q2079.39 141.768 2081.98 139.778 Q2084.57 137.787 2089.34 137.787 Q2091.7 137.787 2093.78 138.134 Q2095.87 138.481 2097.63 139.176 Z" fill="#000000" fill-rule="nonzero" fill-opacity="1"></path><path clip-path="url(#clip400)" d="M2105.8 138.412 L2110.06 138.412 L2110.06 164.338 L2105.8 164.338 L2105.8 138.412 M2105.8 128.319 L2110.06 128.319 L2110.06 133.713 L2105.8 133.713 L2105.8 128.319 Z" fill="#000000" fill-rule="nonzero" fill-opacity="1"></path><path clip-path="url(#clip400)" d="M2136.03 142.347 L2136.03 128.319 L2140.29 128.319 L2140.29 164.338 L2136.03 164.338 L2136.03 160.449 Q2134.69 162.763 2132.63 163.898 Q2130.59 165.009 2127.72 165.009 Q2123.02 165.009 2120.06 161.259 Q2117.12 157.509 2117.12 151.398 Q2117.12 145.287 2120.06 141.537 Q2123.02 137.787 2127.72 137.787 Q2130.59 137.787 2132.63 138.921 Q2134.69 140.032 2136.03 142.347 M2121.52 151.398 Q2121.52 156.097 2123.44 158.782 Q2125.38 161.444 2128.76 161.444 Q2132.14 161.444 2134.08 158.782 Q2136.03 156.097 2136.03 151.398 Q2136.03 146.699 2134.08 144.037 Q2132.14 141.352 2128.76 141.352 Q2125.38 141.352 2123.44 144.037 Q2121.52 146.699 2121.52 151.398 Z" fill="#000000" fill-rule="nonzero" fill-opacity="1"></path><path clip-path="url(#clip400)" d="M2148.62 154.106 L2148.62 138.412 L2152.88 138.412 L2152.88 153.944 Q2152.88 157.625 2154.32 159.476 Q2155.75 161.305 2158.62 161.305 Q2162.07 161.305 2164.06 159.106 Q2166.08 156.907 2166.08 153.111 L2166.08 138.412 L2170.33 138.412 L2170.33 164.338 L2166.08 164.338 L2166.08 160.356 Q2164.52 162.717 2162.46 163.875 Q2160.43 165.009 2157.72 165.009 Q2153.25 165.009 2150.94 162.231 Q2148.62 159.453 2148.62 154.106 M2159.34 137.787 L2159.34 137.787 Z" fill="#000000" fill-rule="nonzero" fill-opacity="1"></path><path clip-path="url(#clip400)" d="M2190.89 151.305 Q2185.73 151.305 2183.74 152.486 Q2181.75 153.666 2181.75 156.514 Q2181.75 158.782 2183.23 160.125 Q2184.73 161.444 2187.3 161.444 Q2190.84 161.444 2192.97 158.944 Q2195.13 156.421 2195.13 152.254 L2195.13 151.305 L2190.89 151.305 M2199.39 149.546 L2199.39 164.338 L2195.13 164.338 L2195.13 160.402 Q2193.67 162.763 2191.49 163.898 Q2189.32 165.009 2186.17 165.009 Q2182.19 165.009 2179.83 162.787 Q2177.49 160.541 2177.49 156.791 Q2177.49 152.416 2180.4 150.194 Q2183.34 147.972 2189.15 147.972 L2195.13 147.972 L2195.13 147.555 Q2195.13 144.615 2193.18 143.018 Q2191.26 141.398 2187.76 141.398 Q2185.54 141.398 2183.44 141.93 Q2181.33 142.463 2179.39 143.527 L2179.39 139.592 Q2181.72 138.69 2183.92 138.25 Q2186.12 137.787 2188.2 137.787 Q2193.83 137.787 2196.61 140.703 Q2199.39 143.62 2199.39 149.546 Z" fill="#000000" fill-rule="nonzero" fill-opacity="1"></path><path clip-path="url(#clip400)" d="M2208.16 128.319 L2212.42 128.319 L2212.42 164.338 L2208.16 164.338 L2208.16 128.319 Z" fill="#000000" fill-rule="nonzero" fill-opacity="1"></path><path clip-path="url(#clip400)" d="M2237.86 139.176 L2237.86 143.203 Q2236.05 142.277 2234.11 141.815 Q2232.16 141.352 2230.08 141.352 Q2226.91 141.352 2225.31 142.324 Q2223.74 143.296 2223.74 145.24 Q2223.74 146.722 2224.87 147.578 Q2226.01 148.412 2229.43 149.176 L2230.89 149.5 Q2235.43 150.472 2237.32 152.254 Q2239.25 154.014 2239.25 157.185 Q2239.25 160.796 2236.38 162.902 Q2233.53 165.009 2228.53 165.009 Q2226.45 165.009 2224.18 164.592 Q2221.93 164.199 2219.43 163.388 L2219.43 158.99 Q2221.79 160.217 2224.08 160.842 Q2226.38 161.444 2228.62 161.444 Q2231.63 161.444 2233.25 160.426 Q2234.87 159.384 2234.87 157.509 Q2234.87 155.773 2233.69 154.847 Q2232.53 153.921 2228.57 153.064 L2227.09 152.717 Q2223.14 151.884 2221.38 150.171 Q2219.62 148.435 2219.62 145.426 Q2219.62 141.768 2222.21 139.778 Q2224.8 137.787 2229.57 137.787 Q2231.93 137.787 2234.01 138.134 Q2236.1 138.481 2237.86 139.176 Z" fill="#000000" fill-rule="nonzero" fill-opacity="1"></path><polyline clip-path="url(#clip400)" style="stroke:#e26f46; stroke-linecap:round; stroke-linejoin:round; stroke-width:4; stroke-opacity:1; fill:none" points="1538.11,198.898 1684.52,198.898 "></polyline>
<path clip-path="url(#clip400)" d="M1713.21 212.289 L1713.21 226.039 L1708.92 226.039 L1708.92 190.252 L1713.21 190.252 L1713.21 194.187 Q1714.55 191.872 1716.59 190.761 Q1718.65 189.627 1721.49 189.627 Q1726.22 189.627 1729.16 193.377 Q1732.12 197.127 1732.12 203.238 Q1732.12 209.349 1729.16 213.099 Q1726.22 216.849 1721.49 216.849 Q1718.65 216.849 1716.59 215.738 Q1714.55 214.603 1713.21 212.289 M1727.7 203.238 Q1727.7 198.539 1725.75 195.877 Q1723.83 193.192 1720.45 193.192 Q1717.07 193.192 1715.13 195.877 Q1713.21 198.539 1713.21 203.238 Q1713.21 207.937 1715.13 210.622 Q1717.07 213.284 1720.45 213.284 Q1723.83 213.284 1725.75 210.622 Q1727.7 207.937 1727.7 203.238 Z" fill="#000000" fill-rule="nonzero" fill-opacity="1"></path><path clip-path="url(#clip400)" d="M1756.24 194.187 L1756.24 180.159 L1760.5 180.159 L1760.5 216.178 L1756.24 216.178 L1756.24 212.289 Q1754.9 214.603 1752.84 215.738 Q1750.8 216.849 1747.93 216.849 Q1743.23 216.849 1740.27 213.099 Q1737.33 209.349 1737.33 203.238 Q1737.33 197.127 1740.27 193.377 Q1743.23 189.627 1747.93 189.627 Q1750.8 189.627 1752.84 190.761 Q1754.9 191.872 1756.24 194.187 M1741.73 203.238 Q1741.73 207.937 1743.65 210.622 Q1745.59 213.284 1748.97 213.284 Q1752.35 213.284 1754.3 210.622 Q1756.24 207.937 1756.24 203.238 Q1756.24 198.539 1754.3 195.877 Q1752.35 193.192 1748.97 193.192 Q1745.59 193.192 1743.65 195.877 Q1741.73 198.539 1741.73 203.238 Z" fill="#000000" fill-rule="nonzero" fill-opacity="1"></path><path clip-path="url(#clip400)" d="M1782.4 180.159 L1782.4 183.701 L1778.32 183.701 Q1776.03 183.701 1775.13 184.627 Q1774.25 185.553 1774.25 187.96 L1774.25 190.252 L1781.26 190.252 L1781.26 193.562 L1774.25 193.562 L1774.25 216.178 L1769.97 216.178 L1769.97 193.562 L1765.89 193.562 L1765.89 190.252 L1769.97 190.252 L1769.97 188.446 Q1769.97 184.118 1771.98 182.15 Q1773.99 180.159 1778.37 180.159 L1782.4 180.159 Z" fill="#000000" fill-rule="nonzero" fill-opacity="1"></path><path clip-path="url(#clip400)" d="M1811.08 193.238 Q1807.65 193.238 1805.66 195.923 Q1803.67 198.585 1803.67 203.238 Q1803.67 207.891 1805.64 210.576 Q1807.63 213.238 1811.08 213.238 Q1814.48 213.238 1816.47 210.553 Q1818.46 207.867 1818.46 203.238 Q1818.46 198.631 1816.47 195.946 Q1814.48 193.238 1811.08 193.238 M1811.08 189.627 Q1816.63 189.627 1819.8 193.238 Q1822.98 196.849 1822.98 203.238 Q1822.98 209.604 1819.8 213.238 Q1816.63 216.849 1811.08 216.849 Q1805.5 216.849 1802.33 213.238 Q1799.18 209.604 1799.18 203.238 Q1799.18 196.849 1802.33 193.238 Q1805.5 189.627 1811.08 189.627 Z" fill="#000000" fill-rule="nonzero" fill-opacity="1"></path><path clip-path="url(#clip400)" d="M1843.16 180.159 L1843.16 183.701 L1839.09 183.701 Q1836.79 183.701 1835.89 184.627 Q1835.01 185.553 1835.01 187.96 L1835.01 190.252 L1842.03 190.252 L1842.03 193.562 L1835.01 193.562 L1835.01 216.178 L1830.73 216.178 L1830.73 193.562 L1826.66 193.562 L1826.66 190.252 L1830.73 190.252 L1830.73 188.446 Q1830.73 184.118 1832.74 182.15 Q1834.76 180.159 1839.13 180.159 L1843.16 180.159 Z" fill="#000000" fill-rule="nonzero" fill-opacity="1"></path><path clip-path="url(#clip400)" d="M1882.7 182.752 L1882.7 187.312 Q1880.04 186.039 1877.67 185.414 Q1875.31 184.789 1873.11 184.789 Q1869.29 184.789 1867.21 186.27 Q1865.15 187.752 1865.15 190.483 Q1865.15 192.775 1866.52 193.955 Q1867.91 195.113 1871.75 195.83 L1874.57 196.409 Q1879.8 197.405 1882.28 199.928 Q1884.78 202.428 1884.78 206.641 Q1884.78 211.664 1881.4 214.256 Q1878.04 216.849 1871.54 216.849 Q1869.09 216.849 1866.31 216.293 Q1863.55 215.738 1860.59 214.65 L1860.59 209.835 Q1863.44 211.432 1866.17 212.242 Q1868.9 213.053 1871.54 213.053 Q1875.54 213.053 1877.72 211.479 Q1879.9 209.904 1879.9 206.988 Q1879.9 204.442 1878.32 203.006 Q1876.77 201.571 1873.21 200.854 L1870.36 200.298 Q1865.13 199.256 1862.79 197.034 Q1860.45 194.812 1860.45 190.854 Q1860.45 186.27 1863.67 183.631 Q1866.91 180.993 1872.58 180.993 Q1875.01 180.993 1877.54 181.432 Q1880.06 181.872 1882.7 182.752 Z" fill="#000000" fill-rule="nonzero" fill-opacity="1"></path><path clip-path="url(#clip400)" d="M1896.1 182.891 L1896.1 190.252 L1904.87 190.252 L1904.87 193.562 L1896.1 193.562 L1896.1 207.636 Q1896.1 210.807 1896.96 211.71 Q1897.84 212.613 1900.5 212.613 L1904.87 212.613 L1904.87 216.178 L1900.5 216.178 Q1895.57 216.178 1893.69 214.349 Q1891.82 212.497 1891.82 207.636 L1891.82 193.562 L1888.69 193.562 L1888.69 190.252 L1891.82 190.252 L1891.82 182.891 L1896.1 182.891 Z" fill="#000000" fill-rule="nonzero" fill-opacity="1"></path><path clip-path="url(#clip400)" d="M1922.26 203.145 Q1917.1 203.145 1915.1 204.326 Q1913.11 205.506 1913.11 208.354 Q1913.11 210.622 1914.6 211.965 Q1916.1 213.284 1918.67 213.284 Q1922.21 213.284 1924.34 210.784 Q1926.49 208.261 1926.49 204.094 L1926.49 203.145 L1922.26 203.145 M1930.75 201.386 L1930.75 216.178 L1926.49 216.178 L1926.49 212.242 Q1925.03 214.603 1922.86 215.738 Q1920.68 216.849 1917.53 216.849 Q1913.55 216.849 1911.19 214.627 Q1908.85 212.381 1908.85 208.631 Q1908.85 204.256 1911.77 202.034 Q1914.71 199.812 1920.52 199.812 L1926.49 199.812 L1926.49 199.395 Q1926.49 196.455 1924.55 194.858 Q1922.63 193.238 1919.13 193.238 Q1916.91 193.238 1914.8 193.77 Q1912.7 194.303 1910.75 195.367 L1910.75 191.432 Q1913.09 190.53 1915.29 190.09 Q1917.49 189.627 1919.57 189.627 Q1925.2 189.627 1927.97 192.543 Q1930.75 195.46 1930.75 201.386 Z" fill="#000000" fill-rule="nonzero" fill-opacity="1"></path><path clip-path="url(#clip400)" d="M1961.08 200.529 L1961.08 216.178 L1956.82 216.178 L1956.82 200.668 Q1956.82 196.988 1955.38 195.159 Q1953.95 193.33 1951.08 193.33 Q1947.63 193.33 1945.64 195.53 Q1943.65 197.729 1943.65 201.525 L1943.65 216.178 L1939.36 216.178 L1939.36 190.252 L1943.65 190.252 L1943.65 194.28 Q1945.17 191.942 1947.23 190.784 Q1949.32 189.627 1952.03 189.627 Q1956.49 189.627 1958.78 192.405 Q1961.08 195.159 1961.08 200.529 Z" fill="#000000" fill-rule="nonzero" fill-opacity="1"></path><path clip-path="url(#clip400)" d="M1986.63 194.187 L1986.63 180.159 L1990.89 180.159 L1990.89 216.178 L1986.63 216.178 L1986.63 212.289 Q1985.29 214.603 1983.23 215.738 Q1981.19 216.849 1978.32 216.849 Q1973.62 216.849 1970.66 213.099 Q1967.72 209.349 1967.72 203.238 Q1967.72 197.127 1970.66 193.377 Q1973.62 189.627 1978.32 189.627 Q1981.19 189.627 1983.23 190.761 Q1985.29 191.872 1986.63 194.187 M1972.12 203.238 Q1972.12 207.937 1974.04 210.622 Q1975.98 213.284 1979.36 213.284 Q1982.74 213.284 1984.69 210.622 Q1986.63 207.937 1986.63 203.238 Q1986.63 198.539 1984.69 195.877 Q1982.74 193.192 1979.36 193.192 Q1975.98 193.192 1974.04 195.877 Q1972.12 198.539 1972.12 203.238 Z" fill="#000000" fill-rule="nonzero" fill-opacity="1"></path><path clip-path="url(#clip400)" d="M2011.45 203.145 Q2006.28 203.145 2004.29 204.326 Q2002.3 205.506 2002.3 208.354 Q2002.3 210.622 2003.78 211.965 Q2005.29 213.284 2007.86 213.284 Q2011.4 213.284 2013.53 210.784 Q2015.68 208.261 2015.68 204.094 L2015.68 203.145 L2011.45 203.145 M2019.94 201.386 L2019.94 216.178 L2015.68 216.178 L2015.68 212.242 Q2014.22 214.603 2012.05 215.738 Q2009.87 216.849 2006.72 216.849 Q2002.74 216.849 2000.38 214.627 Q1998.04 212.381 1998.04 208.631 Q1998.04 204.256 2000.96 202.034 Q2003.9 199.812 2009.71 199.812 L2015.68 199.812 L2015.68 199.395 Q2015.68 196.455 2013.74 194.858 Q2011.82 193.238 2008.32 193.238 Q2006.1 193.238 2003.99 193.77 Q2001.89 194.303 1999.94 195.367 L1999.94 191.432 Q2002.28 190.53 2004.48 190.09 Q2006.68 189.627 2008.76 189.627 Q2014.39 189.627 2017.16 192.543 Q2019.94 195.46 2019.94 201.386 Z" fill="#000000" fill-rule="nonzero" fill-opacity="1"></path><path clip-path="url(#clip400)" d="M2043.74 194.233 Q2043.02 193.817 2042.16 193.631 Q2041.33 193.423 2040.31 193.423 Q2036.7 193.423 2034.76 195.784 Q2032.84 198.122 2032.84 202.52 L2032.84 216.178 L2028.55 216.178 L2028.55 190.252 L2032.84 190.252 L2032.84 194.28 Q2034.18 191.918 2036.33 190.784 Q2038.48 189.627 2041.56 189.627 Q2042 189.627 2042.53 189.696 Q2043.07 189.743 2043.71 189.858 L2043.74 194.233 Z" fill="#000000" fill-rule="nonzero" fill-opacity="1"></path><path clip-path="url(#clip400)" d="M2064.43 194.187 L2064.43 180.159 L2068.69 180.159 L2068.69 216.178 L2064.43 216.178 L2064.43 212.289 Q2063.09 214.603 2061.03 215.738 Q2058.99 216.849 2056.12 216.849 Q2051.42 216.849 2048.46 213.099 Q2045.52 209.349 2045.52 203.238 Q2045.52 197.127 2048.46 193.377 Q2051.42 189.627 2056.12 189.627 Q2058.99 189.627 2061.03 190.761 Q2063.09 191.872 2064.43 194.187 M2049.92 203.238 Q2049.92 207.937 2051.84 210.622 Q2053.78 213.284 2057.16 213.284 Q2060.54 213.284 2062.49 210.622 Q2064.43 207.937 2064.43 203.238 Q2064.43 198.539 2062.49 195.877 Q2060.54 193.192 2057.16 193.192 Q2053.78 193.192 2051.84 195.877 Q2049.92 198.539 2049.92 203.238 Z" fill="#000000" fill-rule="nonzero" fill-opacity="1"></path><path clip-path="url(#clip400)" d="M2092.72 181.618 L2099.02 181.618 L2114.34 210.529 L2114.34 181.618 L2118.88 181.618 L2118.88 216.178 L2112.58 216.178 L2097.26 187.266 L2097.26 216.178 L2092.72 216.178 L2092.72 181.618 Z" fill="#000000" fill-rule="nonzero" fill-opacity="1"></path><path clip-path="url(#clip400)" d="M2138.04 193.238 Q2134.62 193.238 2132.63 195.923 Q2130.64 198.585 2130.64 203.238 Q2130.64 207.891 2132.6 210.576 Q2134.59 213.238 2138.04 213.238 Q2141.45 213.238 2143.44 210.553 Q2145.43 207.867 2145.43 203.238 Q2145.43 198.631 2143.44 195.946 Q2141.45 193.238 2138.04 193.238 M2138.04 189.627 Q2143.6 189.627 2146.77 193.238 Q2149.94 196.849 2149.94 203.238 Q2149.94 209.604 2146.77 213.238 Q2143.6 216.849 2138.04 216.849 Q2132.46 216.849 2129.29 213.238 Q2126.14 209.604 2126.14 203.238 Q2126.14 196.849 2129.29 193.238 Q2132.46 189.627 2138.04 189.627 Z" fill="#000000" fill-rule="nonzero" fill-opacity="1"></path><path clip-path="url(#clip400)" d="M2172.02 194.233 Q2171.31 193.817 2170.45 193.631 Q2169.62 193.423 2168.6 193.423 Q2164.99 193.423 2163.04 195.784 Q2161.12 198.122 2161.12 202.52 L2161.12 216.178 L2156.84 216.178 L2156.84 190.252 L2161.12 190.252 L2161.12 194.28 Q2162.46 191.918 2164.62 190.784 Q2166.77 189.627 2169.85 189.627 Q2170.29 189.627 2170.82 189.696 Q2171.35 189.743 2172 189.858 L2172.02 194.233 Z" fill="#000000" fill-rule="nonzero" fill-opacity="1"></path><path clip-path="url(#clip400)" d="M2195.84 195.229 Q2197.44 192.358 2199.66 190.993 Q2201.89 189.627 2204.89 189.627 Q2208.95 189.627 2211.14 192.474 Q2213.34 195.298 2213.34 200.529 L2213.34 216.178 L2209.06 216.178 L2209.06 200.668 Q2209.06 196.942 2207.74 195.136 Q2206.42 193.33 2203.71 193.33 Q2200.4 193.33 2198.48 195.53 Q2196.56 197.729 2196.56 201.525 L2196.56 216.178 L2192.28 216.178 L2192.28 200.668 Q2192.28 196.918 2190.96 195.136 Q2189.64 193.33 2186.89 193.33 Q2183.62 193.33 2181.7 195.553 Q2179.78 197.752 2179.78 201.525 L2179.78 216.178 L2175.5 216.178 L2175.5 190.252 L2179.78 190.252 L2179.78 194.28 Q2181.24 191.895 2183.27 190.761 Q2185.31 189.627 2188.11 189.627 Q2190.94 189.627 2192.9 191.062 Q2194.89 192.497 2195.84 195.229 Z" fill="#000000" fill-rule="nonzero" fill-opacity="1"></path><path clip-path="url(#clip400)" d="M2233.62 203.145 Q2228.46 203.145 2226.47 204.326 Q2224.48 205.506 2224.48 208.354 Q2224.48 210.622 2225.96 211.965 Q2227.46 213.284 2230.03 213.284 Q2233.57 213.284 2235.7 210.784 Q2237.86 208.261 2237.86 204.094 L2237.86 203.145 L2233.62 203.145 M2242.12 201.386 L2242.12 216.178 L2237.86 216.178 L2237.86 212.242 Q2236.4 214.603 2234.22 215.738 Q2232.05 216.849 2228.9 216.849 Q2224.92 216.849 2222.56 214.627 Q2220.22 212.381 2220.22 208.631 Q2220.22 204.256 2223.14 202.034 Q2226.07 199.812 2231.89 199.812 L2237.86 199.812 L2237.86 199.395 Q2237.86 196.455 2235.91 194.858 Q2233.99 193.238 2230.5 193.238 Q2228.27 193.238 2226.17 193.77 Q2224.06 194.303 2222.12 195.367 L2222.12 191.432 Q2224.45 190.53 2226.65 190.09 Q2228.85 189.627 2230.94 189.627 Q2236.56 189.627 2239.34 192.543 Q2242.12 195.46 2242.12 201.386 Z" fill="#000000" fill-rule="nonzero" fill-opacity="1"></path><path clip-path="url(#clip400)" d="M2250.89 180.159 L2255.15 180.159 L2255.15 216.178 L2250.89 216.178 L2250.89 180.159 Z" fill="#000000" fill-rule="nonzero" fill-opacity="1"></path></svg>