<svg xmlns="http://www.w3.org/2000/svg" xmlns:xlink="http://www.w3.org/1999/xlink" width="600" height="400" viewBox="0 0 2400 1600">
<defs>
  <clipPath id="clip920">
    <rect x="0" y="0" width="2400" height="1600"></rect>
  </clipPath>
</defs>
<path clip-path="url(#clip920)" d="M0 1600 L2400 1600 L2400 0 L0 0  Z" fill="#ffffff" fill-rule="evenodd" fill-opacity="1"></path>
<defs>
  <clipPath id="clip921">
    <rect x="480" y="0" width="1681" height="1600"></rect>
  </clipPath>
</defs>
<path clip-path="url(#clip920)" d="M186.274 1486.45 L2352.76 1486.45 L2352.76 47.2441 L186.274 47.2441  Z" fill="#ffffff" fill-rule="evenodd" fill-opacity="1"></path>
<defs>
  <clipPath id="clip922">
    <rect x="186" y="47" width="2167" height="1440"></rect>
  </clipPath>
</defs>
<polyline clip-path="url(#clip922)" style="stroke:#000000; stroke-linecap:round; stroke-linejoin:round; stroke-width:2; stroke-opacity:0.1; fill:none" points="240.103,1486.45 240.103,47.2441 "></polyline>
<polyline clip-path="url(#clip922)" style="stroke:#000000; stroke-linecap:round; stroke-linejoin:round; stroke-width:2; stroke-opacity:0.1; fill:none" points="614.435,1486.45 614.435,47.2441 "></polyline>
<polyline clip-path="url(#clip922)" style="stroke:#000000; stroke-linecap:round; stroke-linejoin:round; stroke-width:2; stroke-opacity:0.1; fill:none" points="988.766,1486.45 988.766,47.2441 "></polyline>
<polyline clip-path="url(#clip922)" style="stroke:#000000; stroke-linecap:round; stroke-linejoin:round; stroke-width:2; stroke-opacity:0.1; fill:none" points="1363.1,1486.45 1363.1,47.2441 "></polyline>
<polyline clip-path="url(#clip922)" style="stroke:#000000; stroke-linecap:round; stroke-linejoin:round; stroke-width:2; stroke-opacity:0.1; fill:none" points="1737.43,1486.45 1737.43,47.2441 "></polyline>
<polyline clip-path="url(#clip922)" style="stroke:#000000; stroke-linecap:round; stroke-linejoin:round; stroke-width:2; stroke-opacity:0.1; fill:none" points="2111.76,1486.45 2111.76,47.2441 "></polyline>
<polyline clip-path="url(#clip920)" style="stroke:#000000; stroke-linecap:round; stroke-linejoin:round; stroke-width:4; stroke-opacity:1; fill:none" points="186.274,1486.45 2352.76,1486.45 "></polyline>
<polyline clip-path="url(#clip920)" style="stroke:#000000; stroke-linecap:round; stroke-linejoin:round; stroke-width:4; stroke-opacity:1; fill:none" points="240.103,1486.45 240.103,1467.55 "></polyline>
<polyline clip-path="url(#clip920)" style="stroke:#000000; stroke-linecap:round; stroke-linejoin:round; stroke-width:4; stroke-opacity:1; fill:none" points="614.435,1486.45 614.435,1467.55 "></polyline>
<polyline clip-path="url(#clip920)" style="stroke:#000000; stroke-linecap:round; stroke-linejoin:round; stroke-width:4; stroke-opacity:1; fill:none" points="988.766,1486.45 988.766,1467.55 "></polyline>
<polyline clip-path="url(#clip920)" style="stroke:#000000; stroke-linecap:round; stroke-linejoin:round; stroke-width:4; stroke-opacity:1; fill:none" points="1363.1,1486.45 1363.1,1467.55 "></polyline>
<polyline clip-path="url(#clip920)" style="stroke:#000000; stroke-linecap:round; stroke-linejoin:round; stroke-width:4; stroke-opacity:1; fill:none" points="1737.43,1486.45 1737.43,1467.55 "></polyline>
<polyline clip-path="url(#clip920)" style="stroke:#000000; stroke-linecap:round; stroke-linejoin:round; stroke-width:4; stroke-opacity:1; fill:none" points="2111.76,1486.45 2111.76,1467.55 "></polyline>
<path clip-path="url(#clip920)" d="M240.103 1517.37 Q236.492 1517.37 234.663 1520.93 Q232.858 1524.47 232.858 1531.6 Q232.858 1538.71 234.663 1542.27 Q236.492 1545.82 240.103 1545.82 Q243.737 1545.82 245.543 1542.27 Q247.371 1538.71 247.371 1531.6 Q247.371 1524.47 245.543 1520.93 Q243.737 1517.37 240.103 1517.37 M240.103 1513.66 Q245.913 1513.66 248.969 1518.27 Q252.047 1522.85 252.047 1531.6 Q252.047 1540.33 248.969 1544.94 Q245.913 1549.52 240.103 1549.52 Q234.293 1549.52 231.214 1544.94 Q228.159 1540.33 228.159 1531.6 Q228.159 1522.85 231.214 1518.27 Q234.293 1513.66 240.103 1513.66 Z" fill="#000000" fill-rule="nonzero" fill-opacity="1"></path><path clip-path="url(#clip920)" d="M589.134 1514.29 L607.49 1514.29 L607.49 1518.22 L593.416 1518.22 L593.416 1526.7 Q594.435 1526.35 595.453 1526.19 Q596.472 1526 597.49 1526 Q603.277 1526 606.657 1529.17 Q610.036 1532.34 610.036 1537.76 Q610.036 1543.34 606.564 1546.44 Q603.092 1549.52 596.773 1549.52 Q594.597 1549.52 592.328 1549.15 Q590.083 1548.78 587.675 1548.04 L587.675 1543.34 Q589.759 1544.47 591.981 1545.03 Q594.203 1545.58 596.68 1545.58 Q600.685 1545.58 603.023 1543.48 Q605.361 1541.37 605.361 1537.76 Q605.361 1534.15 603.023 1532.04 Q600.685 1529.94 596.68 1529.94 Q594.805 1529.94 592.93 1530.35 Q591.078 1530.77 589.134 1531.65 L589.134 1514.29 Z" fill="#000000" fill-rule="nonzero" fill-opacity="1"></path><path clip-path="url(#clip920)" d="M629.249 1517.37 Q625.638 1517.37 623.81 1520.93 Q622.004 1524.47 622.004 1531.6 Q622.004 1538.71 623.81 1542.27 Q625.638 1545.82 629.249 1545.82 Q632.884 1545.82 634.689 1542.27 Q636.518 1538.71 636.518 1531.6 Q636.518 1524.47 634.689 1520.93 Q632.884 1517.37 629.249 1517.37 M629.249 1513.66 Q635.059 1513.66 638.115 1518.27 Q641.194 1522.85 641.194 1531.6 Q641.194 1540.33 638.115 1544.94 Q635.059 1549.52 629.249 1549.52 Q623.439 1549.52 620.36 1544.94 Q617.305 1540.33 617.305 1531.6 Q617.305 1522.85 620.36 1518.27 Q623.439 1513.66 629.249 1513.66 Z" fill="#000000" fill-rule="nonzero" fill-opacity="1"></path><path clip-path="url(#clip920)" d="M948.373 1544.91 L956.012 1544.91 L956.012 1518.55 L947.702 1520.21 L947.702 1515.95 L955.965 1514.29 L960.641 1514.29 L960.641 1544.91 L968.28 1544.91 L968.28 1548.85 L948.373 1548.85 L948.373 1544.91 Z" fill="#000000" fill-rule="nonzero" fill-opacity="1"></path><path clip-path="url(#clip920)" d="M987.725 1517.37 Q984.113 1517.37 982.285 1520.93 Q980.479 1524.47 980.479 1531.6 Q980.479 1538.71 982.285 1542.27 Q984.113 1545.82 987.725 1545.82 Q991.359 1545.82 993.164 1542.27 Q994.993 1538.71 994.993 1531.6 Q994.993 1524.47 993.164 1520.93 Q991.359 1517.37 987.725 1517.37 M987.725 1513.66 Q993.535 1513.66 996.59 1518.27 Q999.669 1522.85 999.669 1531.6 Q999.669 1540.33 996.59 1544.94 Q993.535 1549.52 987.725 1549.52 Q981.914 1549.52 978.836 1544.94 Q975.78 1540.33 975.78 1531.6 Q975.78 1522.85 978.836 1518.27 Q981.914 1513.66 987.725 1513.66 Z" fill="#000000" fill-rule="nonzero" fill-opacity="1"></path><path clip-path="url(#clip920)" d="M1017.89 1517.37 Q1014.28 1517.37 1012.45 1520.93 Q1010.64 1524.47 1010.64 1531.6 Q1010.64 1538.71 1012.45 1542.27 Q1014.28 1545.82 1017.89 1545.82 Q1021.52 1545.82 1023.33 1542.27 Q1025.15 1538.71 1025.15 1531.6 Q1025.15 1524.47 1023.33 1520.93 Q1021.52 1517.37 1017.89 1517.37 M1017.89 1513.66 Q1023.7 1513.66 1026.75 1518.27 Q1029.83 1522.85 1029.83 1531.6 Q1029.83 1540.33 1026.75 1544.94 Q1023.7 1549.52 1017.89 1549.52 Q1012.08 1549.52 1009 1544.94 Q1005.94 1540.33 1005.94 1531.6 Q1005.94 1522.85 1009 1518.27 Q1012.08 1513.66 1017.89 1513.66 Z" fill="#000000" fill-rule="nonzero" fill-opacity="1"></path><path clip-path="url(#clip920)" d="M1322.7 1544.91 L1330.34 1544.91 L1330.34 1518.55 L1322.03 1520.21 L1322.03 1515.95 L1330.3 1514.29 L1334.97 1514.29 L1334.97 1544.91 L1342.61 1544.91 L1342.61 1548.85 L1322.7 1548.85 L1322.7 1544.91 Z" fill="#000000" fill-rule="nonzero" fill-opacity="1"></path><path clip-path="url(#clip920)" d="M1352.1 1514.29 L1370.46 1514.29 L1370.46 1518.22 L1356.38 1518.22 L1356.38 1526.7 Q1357.4 1526.35 1358.42 1526.19 Q1359.44 1526 1360.46 1526 Q1366.25 1526 1369.63 1529.17 Q1373.01 1532.34 1373.01 1537.76 Q1373.01 1543.34 1369.53 1546.44 Q1366.06 1549.52 1359.74 1549.52 Q1357.57 1549.52 1355.3 1549.15 Q1353.05 1548.78 1350.64 1548.04 L1350.64 1543.34 Q1352.73 1544.47 1354.95 1545.03 Q1357.17 1545.58 1359.65 1545.58 Q1363.65 1545.58 1365.99 1543.48 Q1368.33 1541.37 1368.33 1537.76 Q1368.33 1534.15 1365.99 1532.04 Q1363.65 1529.94 1359.65 1529.94 Q1357.77 1529.94 1355.9 1530.35 Q1354.05 1530.77 1352.1 1531.65 L1352.1 1514.29 Z" fill="#000000" fill-rule="nonzero" fill-opacity="1"></path><path clip-path="url(#clip920)" d="M1392.22 1517.37 Q1388.61 1517.37 1386.78 1520.93 Q1384.97 1524.47 1384.97 1531.6 Q1384.97 1538.71 1386.78 1542.27 Q1388.61 1545.82 1392.22 1545.82 Q1395.85 1545.82 1397.66 1542.27 Q1399.49 1538.71 1399.49 1531.6 Q1399.49 1524.47 1397.66 1520.93 Q1395.85 1517.37 1392.22 1517.37 M1392.22 1513.66 Q1398.03 1513.66 1401.08 1518.27 Q1404.16 1522.85 1404.16 1531.6 Q1404.16 1540.33 1401.08 1544.94 Q1398.03 1549.52 1392.22 1549.52 Q1386.41 1549.52 1383.33 1544.94 Q1380.27 1540.33 1380.27 1531.6 Q1380.27 1522.85 1383.33 1518.27 Q1386.41 1513.66 1392.22 1513.66 Z" fill="#000000" fill-rule="nonzero" fill-opacity="1"></path><path clip-path="url(#clip920)" d="M1701.12 1544.91 L1717.44 1544.91 L1717.44 1548.85 L1695.5 1548.85 L1695.5 1544.91 Q1698.16 1542.16 1702.74 1537.53 Q1707.35 1532.88 1708.53 1531.53 Q1710.77 1529.01 1711.65 1527.27 Q1712.56 1525.51 1712.56 1523.82 Q1712.56 1521.07 1710.61 1519.33 Q1708.69 1517.6 1705.59 1517.6 Q1703.39 1517.6 1700.94 1518.36 Q1698.51 1519.13 1695.73 1520.68 L1695.73 1515.95 Q1698.55 1514.82 1701.01 1514.24 Q1703.46 1513.66 1705.5 1513.66 Q1710.87 1513.66 1714.06 1516.35 Q1717.26 1519.03 1717.26 1523.52 Q1717.26 1525.65 1716.45 1527.57 Q1715.66 1529.47 1713.55 1532.07 Q1712.97 1532.74 1709.87 1535.95 Q1706.77 1539.15 1701.12 1544.91 Z" fill="#000000" fill-rule="nonzero" fill-opacity="1"></path><path clip-path="url(#clip920)" d="M1737.26 1517.37 Q1733.64 1517.37 1731.82 1520.93 Q1730.01 1524.47 1730.01 1531.6 Q1730.01 1538.71 1731.82 1542.27 Q1733.64 1545.82 1737.26 1545.82 Q1740.89 1545.82 1742.7 1542.27 Q1744.52 1538.71 1744.52 1531.6 Q1744.52 1524.47 1742.7 1520.93 Q1740.89 1517.37 1737.26 1517.37 M1737.26 1513.66 Q1743.07 1513.66 1746.12 1518.27 Q1749.2 1522.85 1749.2 1531.6 Q1749.2 1540.33 1746.12 1544.94 Q1743.07 1549.52 1737.26 1549.52 Q1731.45 1549.52 1728.37 1544.94 Q1725.31 1540.33 1725.31 1531.6 Q1725.31 1522.85 1728.37 1518.27 Q1731.45 1513.66 1737.26 1513.66 Z" fill="#000000" fill-rule="nonzero" fill-opacity="1"></path><path clip-path="url(#clip920)" d="M1767.42 1517.37 Q1763.81 1517.37 1761.98 1520.93 Q1760.17 1524.47 1760.17 1531.6 Q1760.17 1538.71 1761.98 1542.27 Q1763.81 1545.82 1767.42 1545.82 Q1771.05 1545.82 1772.86 1542.27 Q1774.69 1538.71 1774.69 1531.6 Q1774.69 1524.47 1772.86 1520.93 Q1771.05 1517.37 1767.42 1517.37 M1767.42 1513.66 Q1773.23 1513.66 1776.28 1518.27 Q1779.36 1522.85 1779.36 1531.6 Q1779.36 1540.33 1776.28 1544.94 Q1773.23 1549.52 1767.42 1549.52 Q1761.61 1549.52 1758.53 1544.94 Q1755.47 1540.33 1755.47 1531.6 Q1755.47 1522.85 1758.53 1518.27 Q1761.61 1513.66 1767.42 1513.66 Z" fill="#000000" fill-rule="nonzero" fill-opacity="1"></path><path clip-path="url(#clip920)" d="M2075.45 1544.91 L2091.77 1544.91 L2091.77 1548.85 L2069.83 1548.85 L2069.83 1544.91 Q2072.49 1542.16 2077.07 1537.53 Q2081.68 1532.88 2082.86 1531.53 Q2085.11 1529.01 2085.99 1527.27 Q2086.89 1525.51 2086.89 1523.82 Q2086.89 1521.07 2084.94 1519.33 Q2083.02 1517.6 2079.92 1517.6 Q2077.72 1517.6 2075.27 1518.36 Q2072.84 1519.13 2070.06 1520.68 L2070.06 1515.95 Q2072.88 1514.82 2075.34 1514.24 Q2077.79 1513.66 2079.83 1513.66 Q2085.2 1513.66 2088.39 1516.35 Q2091.59 1519.03 2091.59 1523.52 Q2091.59 1525.65 2090.78 1527.57 Q2089.99 1529.47 2087.88 1532.07 Q2087.31 1532.74 2084.2 1535.95 Q2081.1 1539.15 2075.45 1544.91 Z" fill="#000000" fill-rule="nonzero" fill-opacity="1"></path><path clip-path="url(#clip920)" d="M2101.63 1514.29 L2119.99 1514.29 L2119.99 1518.22 L2105.92 1518.22 L2105.92 1526.7 Q2106.93 1526.35 2107.95 1526.19 Q2108.97 1526 2109.99 1526 Q2115.78 1526 2119.16 1529.17 Q2122.54 1532.34 2122.54 1537.76 Q2122.54 1543.34 2119.06 1546.44 Q2115.59 1549.52 2109.27 1549.52 Q2107.1 1549.52 2104.83 1549.15 Q2102.58 1548.78 2100.18 1548.04 L2100.18 1543.34 Q2102.26 1544.47 2104.48 1545.03 Q2106.7 1545.58 2109.18 1545.58 Q2113.18 1545.58 2115.52 1543.48 Q2117.86 1541.37 2117.86 1537.76 Q2117.86 1534.15 2115.52 1532.04 Q2113.18 1529.94 2109.18 1529.94 Q2107.31 1529.94 2105.43 1530.35 Q2103.58 1530.77 2101.63 1531.65 L2101.63 1514.29 Z" fill="#000000" fill-rule="nonzero" fill-opacity="1"></path><path clip-path="url(#clip920)" d="M2141.75 1517.37 Q2138.14 1517.37 2136.31 1520.93 Q2134.5 1524.47 2134.5 1531.6 Q2134.5 1538.71 2136.31 1542.27 Q2138.14 1545.82 2141.75 1545.82 Q2145.38 1545.82 2147.19 1542.27 Q2149.02 1538.71 2149.02 1531.6 Q2149.02 1524.47 2147.19 1520.93 Q2145.38 1517.37 2141.75 1517.37 M2141.75 1513.66 Q2147.56 1513.66 2150.62 1518.27 Q2153.69 1522.85 2153.69 1531.6 Q2153.69 1540.33 2150.62 1544.94 Q2147.56 1549.52 2141.75 1549.52 Q2135.94 1549.52 2132.86 1544.94 Q2129.81 1540.33 2129.81 1531.6 Q2129.81 1522.85 2132.86 1518.27 Q2135.94 1513.66 2141.75 1513.66 Z" fill="#000000" fill-rule="nonzero" fill-opacity="1"></path><polyline clip-path="url(#clip922)" style="stroke:#000000; stroke-linecap:round; stroke-linejoin:round; stroke-width:2; stroke-opacity:0.1; fill:none" points="186.274,1445.72 2352.76,1445.72 "></polyline>
<polyline clip-path="url(#clip922)" style="stroke:#000000; stroke-linecap:round; stroke-linejoin:round; stroke-width:2; stroke-opacity:0.1; fill:none" points="186.274,1106.28 2352.76,1106.28 "></polyline>
<polyline clip-path="url(#clip922)" style="stroke:#000000; stroke-linecap:round; stroke-linejoin:round; stroke-width:2; stroke-opacity:0.1; fill:none" points="186.274,766.846 2352.76,766.846 "></polyline>
<polyline clip-path="url(#clip922)" style="stroke:#000000; stroke-linecap:round; stroke-linejoin:round; stroke-width:2; stroke-opacity:0.1; fill:none" points="186.274,427.411 2352.76,427.411 "></polyline>
<polyline clip-path="url(#clip922)" style="stroke:#000000; stroke-linecap:round; stroke-linejoin:round; stroke-width:2; stroke-opacity:0.1; fill:none" points="186.274,87.9763 2352.76,87.9763 "></polyline>
<polyline clip-path="url(#clip920)" style="stroke:#000000; stroke-linecap:round; stroke-linejoin:round; stroke-width:4; stroke-opacity:1; fill:none" points="186.274,1486.45 186.274,47.2441 "></polyline>
<polyline clip-path="url(#clip920)" style="stroke:#000000; stroke-linecap:round; stroke-linejoin:round; stroke-width:4; stroke-opacity:1; fill:none" points="186.274,1445.72 205.172,1445.72 "></polyline>
<polyline clip-path="url(#clip920)" style="stroke:#000000; stroke-linecap:round; stroke-linejoin:round; stroke-width:4; stroke-opacity:1; fill:none" points="186.274,1106.28 205.172,1106.28 "></polyline>
<polyline clip-path="url(#clip920)" style="stroke:#000000; stroke-linecap:round; stroke-linejoin:round; stroke-width:4; stroke-opacity:1; fill:none" points="186.274,766.846 205.172,766.846 "></polyline>
<polyline clip-path="url(#clip920)" style="stroke:#000000; stroke-linecap:round; stroke-linejoin:round; stroke-width:4; stroke-opacity:1; fill:none" points="186.274,427.411 205.172,427.411 "></polyline>
<polyline clip-path="url(#clip920)" style="stroke:#000000; stroke-linecap:round; stroke-linejoin:round; stroke-width:4; stroke-opacity:1; fill:none" points="186.274,87.9763 205.172,87.9763 "></polyline>
<path clip-path="url(#clip920)" d="M62.9365 1431.51 Q59.3254 1431.51 57.4967 1435.08 Q55.6912 1438.62 55.6912 1445.75 Q55.6912 1452.86 57.4967 1456.42 Q59.3254 1459.96 62.9365 1459.96 Q66.5707 1459.96 68.3763 1456.42 Q70.205 1452.86 70.205 1445.75 Q70.205 1438.62 68.3763 1435.08 Q66.5707 1431.51 62.9365 1431.51 M62.9365 1427.81 Q68.7467 1427.81 71.8022 1432.42 Q74.8809 1437 74.8809 1445.75 Q74.8809 1454.48 71.8022 1459.08 Q68.7467 1463.67 62.9365 1463.67 Q57.1264 1463.67 54.0477 1459.08 Q50.9921 1454.48 50.9921 1445.75 Q50.9921 1437 54.0477 1432.42 Q57.1264 1427.81 62.9365 1427.81 Z" fill="#000000" fill-rule="nonzero" fill-opacity="1"></path><path clip-path="url(#clip920)" d="M83.0984 1457.12 L87.9827 1457.12 L87.9827 1463 L83.0984 1463 L83.0984 1457.12 Z" fill="#000000" fill-rule="nonzero" fill-opacity="1"></path><path clip-path="url(#clip920)" d="M108.168 1431.51 Q104.557 1431.51 102.728 1435.08 Q100.922 1438.62 100.922 1445.75 Q100.922 1452.86 102.728 1456.42 Q104.557 1459.96 108.168 1459.96 Q111.802 1459.96 113.608 1456.42 Q115.436 1452.86 115.436 1445.75 Q115.436 1438.62 113.608 1435.08 Q111.802 1431.51 108.168 1431.51 M108.168 1427.81 Q113.978 1427.81 117.033 1432.42 Q120.112 1437 120.112 1445.75 Q120.112 1454.48 117.033 1459.08 Q113.978 1463.67 108.168 1463.67 Q102.358 1463.67 99.2789 1459.08 Q96.2234 1454.48 96.2234 1445.75 Q96.2234 1437 99.2789 1432.42 Q102.358 1427.81 108.168 1427.81 Z" fill="#000000" fill-rule="nonzero" fill-opacity="1"></path><path clip-path="url(#clip920)" d="M138.33 1431.51 Q134.719 1431.51 132.89 1435.08 Q131.084 1438.62 131.084 1445.75 Q131.084 1452.86 132.89 1456.42 Q134.719 1459.96 138.33 1459.96 Q141.964 1459.96 143.769 1456.42 Q145.598 1452.86 145.598 1445.75 Q145.598 1438.62 143.769 1435.08 Q141.964 1431.51 138.33 1431.51 M138.33 1427.81 Q144.14 1427.81 147.195 1432.42 Q150.274 1437 150.274 1445.75 Q150.274 1454.48 147.195 1459.08 Q144.14 1463.67 138.33 1463.67 Q132.519 1463.67 129.441 1459.08 Q126.385 1454.48 126.385 1445.75 Q126.385 1437 129.441 1432.42 Q132.519 1427.81 138.33 1427.81 Z" fill="#000000" fill-rule="nonzero" fill-opacity="1"></path><path clip-path="url(#clip920)" d="M63.9319 1092.08 Q60.3208 1092.08 58.4921 1095.64 Q56.6865 1099.19 56.6865 1106.32 Q56.6865 1113.42 58.4921 1116.99 Q60.3208 1120.53 63.9319 1120.53 Q67.5661 1120.53 69.3717 1116.99 Q71.2004 1113.42 71.2004 1106.32 Q71.2004 1099.19 69.3717 1095.64 Q67.5661 1092.08 63.9319 1092.08 M63.9319 1088.38 Q69.742 1088.38 72.7976 1092.98 Q75.8763 1097.57 75.8763 1106.32 Q75.8763 1115.04 72.7976 1119.65 Q69.742 1124.23 63.9319 1124.23 Q58.1217 1124.23 55.043 1119.65 Q51.9875 1115.04 51.9875 1106.32 Q51.9875 1097.57 55.043 1092.98 Q58.1217 1088.38 63.9319 1088.38 Z" fill="#000000" fill-rule="nonzero" fill-opacity="1"></path><path clip-path="url(#clip920)" d="M84.0938 1117.68 L88.978 1117.68 L88.978 1123.56 L84.0938 1123.56 L84.0938 1117.68 Z" fill="#000000" fill-rule="nonzero" fill-opacity="1"></path><path clip-path="url(#clip920)" d="M103.191 1119.63 L119.51 1119.63 L119.51 1123.56 L97.566 1123.56 L97.566 1119.63 Q100.228 1116.87 104.811 1112.24 Q109.418 1107.59 110.598 1106.25 Q112.844 1103.72 113.723 1101.99 Q114.626 1100.23 114.626 1098.54 Q114.626 1095.78 112.682 1094.05 Q110.76 1092.31 107.658 1092.31 Q105.459 1092.31 103.006 1093.07 Q100.575 1093.84 97.7974 1095.39 L97.7974 1090.67 Q100.621 1089.53 103.075 1088.95 Q105.529 1088.38 107.566 1088.38 Q112.936 1088.38 116.131 1091.06 Q119.325 1093.75 119.325 1098.24 Q119.325 1100.37 118.515 1102.29 Q117.728 1104.19 115.621 1106.78 Q115.043 1107.45 111.941 1110.67 Q108.839 1113.86 103.191 1119.63 Z" fill="#000000" fill-rule="nonzero" fill-opacity="1"></path><path clip-path="url(#clip920)" d="M129.371 1089 L147.728 1089 L147.728 1092.94 L133.654 1092.94 L133.654 1101.41 Q134.672 1101.06 135.691 1100.9 Q136.709 1100.71 137.728 1100.71 Q143.515 1100.71 146.894 1103.89 Q150.274 1107.06 150.274 1112.47 Q150.274 1118.05 146.802 1121.15 Q143.33 1124.23 137.01 1124.23 Q134.834 1124.23 132.566 1123.86 Q130.32 1123.49 127.913 1122.75 L127.913 1118.05 Q129.996 1119.19 132.219 1119.74 Q134.441 1120.3 136.918 1120.3 Q140.922 1120.3 143.26 1118.19 Q145.598 1116.08 145.598 1112.47 Q145.598 1108.86 143.26 1106.76 Q140.922 1104.65 136.918 1104.65 Q135.043 1104.65 133.168 1105.07 Q131.316 1105.48 129.371 1106.36 L129.371 1089 Z" fill="#000000" fill-rule="nonzero" fill-opacity="1"></path><path clip-path="url(#clip920)" d="M62.9365 752.645 Q59.3254 752.645 57.4967 756.209 Q55.6912 759.751 55.6912 766.881 Q55.6912 773.987 57.4967 777.552 Q59.3254 781.094 62.9365 781.094 Q66.5707 781.094 68.3763 777.552 Q70.205 773.987 70.205 766.881 Q70.205 759.751 68.3763 756.209 Q66.5707 752.645 62.9365 752.645 M62.9365 748.941 Q68.7467 748.941 71.8022 753.547 Q74.8809 758.131 74.8809 766.881 Q74.8809 775.608 71.8022 780.214 Q68.7467 784.797 62.9365 784.797 Q57.1264 784.797 54.0477 780.214 Q50.9921 775.608 50.9921 766.881 Q50.9921 758.131 54.0477 753.547 Q57.1264 748.941 62.9365 748.941 Z" fill="#000000" fill-rule="nonzero" fill-opacity="1"></path><path clip-path="url(#clip920)" d="M83.0984 778.246 L87.9827 778.246 L87.9827 784.126 L83.0984 784.126 L83.0984 778.246 Z" fill="#000000" fill-rule="nonzero" fill-opacity="1"></path><path clip-path="url(#clip920)" d="M98.2141 749.566 L116.57 749.566 L116.57 753.501 L102.496 753.501 L102.496 761.973 Q103.515 761.626 104.534 761.464 Q105.552 761.279 106.571 761.279 Q112.358 761.279 115.737 764.45 Q119.117 767.621 119.117 773.038 Q119.117 778.617 115.645 781.719 Q112.172 784.797 105.853 784.797 Q103.677 784.797 101.409 784.427 Q99.1632 784.057 96.7558 783.316 L96.7558 778.617 Q98.8391 779.751 101.061 780.307 Q103.284 780.862 105.76 780.862 Q109.765 780.862 112.103 778.756 Q114.441 776.649 114.441 773.038 Q114.441 769.427 112.103 767.321 Q109.765 765.214 105.76 765.214 Q103.885 765.214 102.01 765.631 Q100.159 766.047 98.2141 766.927 L98.2141 749.566 Z" fill="#000000" fill-rule="nonzero" fill-opacity="1"></path><path clip-path="url(#clip920)" d="M138.33 752.645 Q134.719 752.645 132.89 756.209 Q131.084 759.751 131.084 766.881 Q131.084 773.987 132.89 777.552 Q134.719 781.094 138.33 781.094 Q141.964 781.094 143.769 777.552 Q145.598 773.987 145.598 766.881 Q145.598 759.751 143.769 756.209 Q141.964 752.645 138.33 752.645 M138.33 748.941 Q144.14 748.941 147.195 753.547 Q150.274 758.131 150.274 766.881 Q150.274 775.608 147.195 780.214 Q144.14 784.797 138.33 784.797 Q132.519 784.797 129.441 780.214 Q126.385 775.608 126.385 766.881 Q126.385 758.131 129.441 753.547 Q132.519 748.941 138.33 748.941 Z" fill="#000000" fill-rule="nonzero" fill-opacity="1"></path><path clip-path="url(#clip920)" d="M63.9319 413.21 Q60.3208 413.21 58.4921 416.775 Q56.6865 420.316 56.6865 427.446 Q56.6865 434.552 58.4921 438.117 Q60.3208 441.659 63.9319 441.659 Q67.5661 441.659 69.3717 438.117 Q71.2004 434.552 71.2004 427.446 Q71.2004 420.316 69.3717 416.775 Q67.5661 413.21 63.9319 413.21 M63.9319 409.506 Q69.742 409.506 72.7976 414.113 Q75.8763 418.696 75.8763 427.446 Q75.8763 436.173 72.7976 440.779 Q69.742 445.362 63.9319 445.362 Q58.1217 445.362 55.043 440.779 Q51.9875 436.173 51.9875 427.446 Q51.9875 418.696 55.043 414.113 Q58.1217 409.506 63.9319 409.506 Z" fill="#000000" fill-rule="nonzero" fill-opacity="1"></path><path clip-path="url(#clip920)" d="M84.0938 438.812 L88.978 438.812 L88.978 444.691 L84.0938 444.691 L84.0938 438.812 Z" fill="#000000" fill-rule="nonzero" fill-opacity="1"></path><path clip-path="url(#clip920)" d="M97.9826 410.131 L120.205 410.131 L120.205 412.122 L107.658 444.691 L102.774 444.691 L114.58 414.066 L97.9826 414.066 L97.9826 410.131 Z" fill="#000000" fill-rule="nonzero" fill-opacity="1"></path><path clip-path="url(#clip920)" d="M129.371 410.131 L147.728 410.131 L147.728 414.066 L133.654 414.066 L133.654 422.538 Q134.672 422.191 135.691 422.029 Q136.709 421.844 137.728 421.844 Q143.515 421.844 146.894 425.015 Q150.274 428.187 150.274 433.603 Q150.274 439.182 146.802 442.284 Q143.33 445.362 137.01 445.362 Q134.834 445.362 132.566 444.992 Q130.32 444.622 127.913 443.881 L127.913 439.182 Q129.996 440.316 132.219 440.872 Q134.441 441.427 136.918 441.427 Q140.922 441.427 143.26 439.321 Q145.598 437.214 145.598 433.603 Q145.598 429.992 143.26 427.886 Q140.922 425.779 136.918 425.779 Q135.043 425.779 133.168 426.196 Q131.316 426.613 129.371 427.492 L129.371 410.131 Z" fill="#000000" fill-rule="nonzero" fill-opacity="1"></path><path clip-path="url(#clip920)" d="M53.7467 101.321 L61.3856 101.321 L61.3856 74.9555 L53.0754 76.6222 L53.0754 72.3629 L61.3393 70.6963 L66.0152 70.6963 L66.0152 101.321 L73.654 101.321 L73.654 105.256 L53.7467 105.256 L53.7467 101.321 Z" fill="#000000" fill-rule="nonzero" fill-opacity="1"></path><path clip-path="url(#clip920)" d="M83.0984 99.3767 L87.9827 99.3767 L87.9827 105.256 L83.0984 105.256 L83.0984 99.3767 Z" fill="#000000" fill-rule="nonzero" fill-opacity="1"></path><path clip-path="url(#clip920)" d="M108.168 73.775 Q104.557 73.775 102.728 77.3398 Q100.922 80.8814 100.922 88.011 Q100.922 95.1174 102.728 98.6822 Q104.557 102.224 108.168 102.224 Q111.802 102.224 113.608 98.6822 Q115.436 95.1174 115.436 88.011 Q115.436 80.8814 113.608 77.3398 Q111.802 73.775 108.168 73.775 M108.168 70.0713 Q113.978 70.0713 117.033 74.6777 Q120.112 79.261 120.112 88.011 Q120.112 96.7378 117.033 101.344 Q113.978 105.928 108.168 105.928 Q102.358 105.928 99.2789 101.344 Q96.2234 96.7378 96.2234 88.011 Q96.2234 79.261 99.2789 74.6777 Q102.358 70.0713 108.168 70.0713 Z" fill="#000000" fill-rule="nonzero" fill-opacity="1"></path><path clip-path="url(#clip920)" d="M138.33 73.775 Q134.719 73.775 132.89 77.3398 Q131.084 80.8814 131.084 88.011 Q131.084 95.1174 132.89 98.6822 Q134.719 102.224 138.33 102.224 Q141.964 102.224 143.769 98.6822 Q145.598 95.1174 145.598 88.011 Q145.598 80.8814 143.769 77.3398 Q141.964 73.775 138.33 73.775 M138.33 70.0713 Q144.14 70.0713 147.195 74.6777 Q150.274 79.261 150.274 88.011 Q150.274 96.7378 147.195 101.344 Q144.14 105.928 138.33 105.928 Q132.519 105.928 129.441 101.344 Q126.385 96.7378 126.385 88.011 Q126.385 79.261 129.441 74.6777 Q132.519 70.0713 138.33 70.0713 Z" fill="#000000" fill-rule="nonzero" fill-opacity="1"></path><polyline clip-path="url(#clip922)" style="stroke:#009af9; stroke-linecap:round; stroke-linejoin:round; stroke-width:4; stroke-opacity:1; fill:none" points="247.59,87.9763 255.076,88.5194 262.563,408.01 270.049,794.01 277.536,605.008 285.023,87.9808 292.509,1306.84 299.996,93.9894 307.483,87.9793 314.969,290.488 322.456,315.707 329.942,171.263 337.429,455.621 344.916,136.36 352.402,928.307 359.889,88.9493 367.376,872.539 374.862,149.576 382.349,144.846 389.836,99.1481 397.322,200.643 404.809,370.362 412.295,91.4383 419.782,284.212 427.269,89.9255 434.755,536.18 442.242,87.9789 449.729,222.057 457.215,301.21 464.702,433.002 472.189,90.4943 479.675,104.023 487.162,316.451 494.648,277.695 502.135,233.466 509.622,129.659 517.108,242.302 524.595,304.228 532.082,175.107 539.568,369.103 547.055,1442.67 554.541,87.9763 562.028,569.167 569.515,536.243 577.001,87.9763 584.488,327.338 591.975,244.205 599.461,789.404 606.948,90.1943 614.435,194.376 621.921,343.204 629.408,128.418 636.894,245.063 644.381,252.338 651.868,239.891 659.354,213.968 666.841,256.976 674.328,267.697 681.814,221.393 689.301,98.1956 696.788,112.248 704.274,310.894 711.761,173.367 719.247,123.022 726.734,377.081 734.221,765.741 741.707,144.238 749.194,263.067 756.681,634.388 764.167,88.0684 771.654,307.787 779.14,89.2406 786.627,290.443 794.114,526.55 801.6,107.554 809.087,724.485 816.574,89.499 824.06,305.769 831.547,170.506 839.034,138.494 846.52,107.206 854.007,152.018 861.493,336.303 868.98,172.73 876.467,1281.79 883.953,88.025 891.44,89.711 898.927,340.78 906.413,131.767 913.9,317.657 921.387,309.054 928.873,157.692 936.36,1211.74 943.846,88.0336 951.333,114.621 958.82,309.612 966.306,109.884 973.793,167.289 981.28,313.631 988.766,109.994 996.253,297.613 1003.74,249.921 1011.23,132.09 1018.71,216.918 1026.2,218.889 1033.69,208.589 1041.17,867.187 1048.66,98.3775 1056.15,1445.66 1063.63,87.9763 1071.12,89.2514 1078.61,524.146 1086.09,248.291 1093.58,186.856 1101.07,191.038 1108.55,235.404 1116.04,136.499 1123.53,240.107 1131.01,456.297 1138.5,115.051 1145.99,218.63 1153.47,301.779 1160.96,249.496 1168.45,141.807 1175.93,262.757 1183.42,181.128 1190.91,277.354 1198.39,145.033 1205.88,207.748 1213.37,322.67 1220.85,285.915 1228.34,282.862 1235.83,165.204 1243.31,736.338 1250.8,98.4671 1258.29,95.7944 1265.77,315.975 1273.26,301.424 1280.74,95.8494 1288.23,304.455 1295.72,220.194 1303.2,296.97 1310.69,402.47 1318.18,273.08 1325.66,293.512 1333.15,221.169 1340.64,277.966 1348.12,315.393 1355.61,113.645 1363.1,272.967 1370.58,1140.03 1378.07,490.155 1385.56,91.4602 1393.04,563.345 1400.53,88.2955 1408.02,99.5114 1415.5,1035.36 1422.99,526.578 1430.48,88.0488 1437.96,87.9789 1445.45,89.2743 1452.94,88.5668 1460.42,337.67 1467.91,88.2867 1475.4,286.489 1482.88,226.887 1490.37,789.527 1497.86,87.9767 1505.34,325.605 1512.83,90.2025 1520.32,1439.09 1527.8,87.9763 1535.29,128.968 1542.78,327.635 1550.26,414.519 1557.75,116.78 1565.24,97.6065 1572.72,296.378 1580.21,465.614 1587.7,88.2848 1595.18,186.145 1602.67,355.224 1610.16,340.635 1617.64,261.54 1625.13,311.565 1632.62,168.702 1640.1,511.704 1647.59,108.129 1655.08,542.493 1662.56,93.17 1670.05,188.825 1677.54,565.116 1685.02,160.013 1692.51,222.45 1700,154.751 1707.48,261.117 1714.97,375.635 1722.46,112.093 1729.94,930.892 1737.43,90.5534 1744.92,425.132 1752.4,97.7111 1759.89,387.904 1767.38,578.261 1774.86,88.1334 1782.35,1120.59 1789.84,91.887 1797.32,89.2564 1804.81,240.686 1812.3,360.565 1819.78,90.9688 1827.27,108.592 1834.76,351.328 1842.24,140.449 1849.73,185.735 1857.22,183.658 1864.7,410.939 1872.19,126.502 1879.68,105.86 1887.16,272.391 1894.65,671.723 1902.14,152.469 1909.62,94.784 1917.11,219.659 1924.6,166.65 1932.08,310.495 1939.57,1406.46 1947.06,87.9763 1954.54,275.769 1962.03,151.297 1969.52,276.184 1977,135.682 1984.49,289.187 1991.98,301.391 1999.46,160.421 2006.95,528.857 2014.43,408.842 2021.92,88.6161 2029.41,116.128 2036.89,178.603 2044.38,164.199 2051.87,89.8954 2059.35,223.328 2066.84,327.679 2074.33,162.931 2081.81,149.728 2089.3,239.873 2096.79,754.058 2104.27,88.0156 2111.76,89.2059 2119.25,297.791 2126.73,309.003 2134.22,191.795 2141.71,167.756 2149.19,245.172 2156.68,201.643 2164.17,104.025 2171.65,363.698 2179.14,219.706 2186.63,322.668 2194.11,282.598 2201.6,94.0772 2209.09,308.663 2216.57,340.563 2224.06,114.997 2231.55,88.1951 2239.03,105.172 2246.52,272.983 2254.01,128.446 2261.49,127.499 2268.98,253.814 2276.47,105.003 2283.95,308.783 "></polyline>
<polyline clip-path="url(#clip922)" style="stroke:#e26f46; stroke-linecap:round; stroke-linejoin:round; stroke-width:4; stroke-opacity:1; fill:none" points="247.59,94.0227 255.076,1445.71 262.563,1105.55 270.049,329.159 277.536,1443.88 285.023,1321.64 292.509,119.813 299.996,1445.67 307.483,832.496 314.969,1434.39 322.456,1127.4 329.942,1011.87 337.429,985.58 344.916,1239.13 352.402,1002.4 359.889,1071.07 367.376,1076.06 374.862,1093.9 382.349,1018.96 389.836,986.379 397.322,811.824 404.809,1354.66 412.295,1156.68 419.782,980.439 427.269,1106.27 434.755,1035.46 442.242,999.007 449.729,1128.08 457.215,1080.56 464.702,1091.2 472.189,907.604 479.675,1239.68 487.162,1046.69 494.648,984.991 502.135,1049.51 509.622,292.281 517.108,1430.17 524.595,162.642 532.082,1445.63 539.568,1375.57 547.055,1059.03 554.541,144.321 562.028,1445.51 569.515,1350.25 577.001,930.324 584.488,88.6636 591.975,1445.71 599.461,1427.98 606.948,1290.82 614.435,1178.24 621.921,1262.03 629.408,943.184 636.894,1051.61 644.381,1075.64 651.868,993.105 659.354,1063.3 666.841,836.938 674.328,1405.88 681.814,944.527 689.301,1216.89 696.788,1180.85 704.274,991.727 711.761,1004.35 719.247,1094.6 726.734,1053.3 734.221,794.003 741.707,1054.2 749.194,1078.16 756.681,357.907 764.167,1445.69 771.654,900.681 779.14,1222.24 786.627,1026.53 794.114,967.352 801.6,1024.44 809.087,993.033 816.574,1315.96 824.06,975.444 831.547,1143.58 839.034,1043.92 846.52,750.976 854.007,1443.75 861.493,1025.41 868.98,1043.57 876.467,1011.89 883.953,999.654 891.44,1035.2 898.927,1208.95 906.413,1112.82 913.9,1183.89 921.387,1072.92 928.873,1006.66 936.36,1036.64 943.846,1012.34 951.333,1121.04 958.82,1010.66 966.306,1087.39 973.793,1156.65 981.28,1000.61 988.766,1001.54 996.253,1116.19 1003.74,1036.3 1011.23,1132.54 1018.71,565.544 1026.2,1435.5 1033.69,832.236 1041.17,1147.96 1048.66,88.3537 1056.15,1445.72 1063.63,88.1591 1071.12,87.9763 1078.61,1445.72 1086.09,829.29 1093.58,1445.72 1101.07,439.927 1108.55,1445.68 1116.04,1148.76 1123.53,180.118 1131.01,1359.62 1138.5,1426.57 1145.99,826.253 1153.47,239.884 1160.96,1444.89 1168.45,1290.68 1175.93,1095.22 1183.42,1440.12 1190.91,1091.01 1198.39,976.788 1205.88,1028.53 1213.37,988.514 1220.85,907.154 1228.34,1030.62 1235.83,1061.92 1243.31,839.253 1250.8,1400.82 1258.29,404.755 1265.77,1239.71 1273.26,1005.58 1280.74,1414.02 1288.23,1382.77 1295.72,1023.52 1303.2,1064.3 1310.69,668.31 1318.18,1445.72 1325.66,491.061 1333.15,1105.99 1340.64,1332.71 1348.12,545.808 1355.61,1176.19 1363.1,1197.68 1370.58,974.599 1378.07,1169.02 1385.56,1101.6 1393.04,1060.49 1400.53,1312.43 1408.02,1044.27 1415.5,1444.69 1422.99,815.774 1430.48,1181.12 1437.96,493.983 1445.45,1272.67 1452.94,1327.04 1460.42,885.513 1467.91,1302.09 1475.4,956.037 1482.88,960.282 1490.37,953.583 1497.86,1105.12 1505.34,1002.29 1512.83,1078.63 1520.32,990.284 1527.8,993.024 1535.29,1288.16 1542.78,1028.75 1550.26,1137.84 1557.75,732.953 1565.24,1415.3 1572.72,911.75 1580.21,1068.31 1587.7,889.876 1595.18,1206.61 1602.67,981.027 1610.16,1161.9 1617.64,1082.58 1625.13,957.561 1632.62,1274.84 1640.1,1012.63 1647.59,911.866 1655.08,1005.27 1662.56,1259.41 1670.05,582.295 1677.54,1391.29 1685.02,1283.25 1692.51,1042.13 1700,1090.07 1707.48,899.084 1714.97,1140.66 1722.46,1026.02 1729.94,967.004 1737.43,827.056 1744.92,1443.09 1752.4,973.515 1759.89,1411.24 1767.38,937.159 1774.86,1102.37 1782.35,1204.46 1789.84,258.009 1797.32,1444.24 1804.81,1425.19 1812.3,713.95 1819.78,588.159 1827.27,1355.9 1834.76,1021.21 1842.24,242.153 1849.73,1445.71 1857.22,620.875 1864.7,1122.1 1872.19,906.642 1879.68,1120.69 1887.16,604.224 1894.65,238.073 1902.14,1435.64 1909.62,586.566 1917.11,191.096 1924.6,1445.72 1932.08,1293.37 1939.57,133.196 1947.06,89.0478 1954.54,1445.72 1962.03,800.457 1969.52,1435.47 1977,840.084 1984.49,1088.1 1991.98,1091.65 1999.46,1191.72 2006.95,900.778 2014.43,1369.55 2021.92,1092.23 2029.41,209.157 2036.89,1445.66 2044.38,481.079 2051.87,89.5617 2059.35,608.405 2066.84,1445.12 2074.33,616.78 2081.81,1445.68 2089.3,555.979 2096.79,1438.94 2104.27,1440.09 2111.76,1367.86 2119.25,981.628 2126.73,1011.04 2134.22,1390.38 2141.71,402.67 2149.19,1335.62 2156.68,1137.96 2164.17,1393.72 2171.65,1272.2 2179.14,1020.09 2186.63,1255.09 2194.11,774.437 2201.6,1199.63 2209.09,1035.15 2216.57,737.542 2224.06,1436.27 2231.55,289.262 2239.03,1442.9 2246.52,1318.42 2254.01,1205.71 2261.49,999.195 2268.98,1026.7 2276.47,1027.42 2283.95,1052.11 2291.44,1029.52 "></polyline>
<path clip-path="url(#clip920)" d="M258.49 1438.47 L553.865 1438.47 L553.865 1282.95 L258.49 1282.95  Z" fill="#ffffff" fill-rule="evenodd" fill-opacity="1"></path>
<polyline clip-path="url(#clip920)" style="stroke:#000000; stroke-linecap:round; stroke-linejoin:round; stroke-width:4; stroke-opacity:1; fill:none" points="258.49,1438.47 553.865,1438.47 553.865,1282.95 258.49,1282.95 258.49,1438.47 "></polyline>
<polyline clip-path="url(#clip920)" style="stroke:#009af9; stroke-linecap:round; stroke-linejoin:round; stroke-width:4; stroke-opacity:1; fill:none" points="282.562,1334.79 426.994,1334.79 "></polyline>
<path clip-path="url(#clip920)" d="M469.839 1339.13 Q469.839 1334.44 467.895 1331.77 Q465.974 1329.09 462.594 1329.09 Q459.214 1329.09 457.27 1331.77 Q455.349 1334.44 455.349 1339.13 Q455.349 1343.83 457.27 1346.52 Q459.214 1349.18 462.594 1349.18 Q465.974 1349.18 467.895 1346.52 Q469.839 1343.83 469.839 1339.13 M455.349 1330.08 Q456.691 1327.77 458.728 1326.66 Q460.788 1325.52 463.636 1325.52 Q468.358 1325.52 471.298 1329.27 Q474.261 1333.02 474.261 1339.13 Q474.261 1345.25 471.298 1349 Q468.358 1352.75 463.636 1352.75 Q460.788 1352.75 458.728 1351.63 Q456.691 1350.5 455.349 1348.19 L455.349 1352.07 L451.066 1352.07 L451.066 1316.06 L455.349 1316.06 L455.349 1330.08 Z" fill="#000000" fill-rule="nonzero" fill-opacity="1"></path><path clip-path="url(#clip920)" d="M485.534 1318.79 L485.534 1326.15 L494.307 1326.15 L494.307 1329.46 L485.534 1329.46 L485.534 1343.53 Q485.534 1346.7 486.39 1347.61 Q487.27 1348.51 489.932 1348.51 L494.307 1348.51 L494.307 1352.07 L489.932 1352.07 Q485.001 1352.07 483.126 1350.25 Q481.251 1348.39 481.251 1343.53 L481.251 1329.46 L478.126 1329.46 L478.126 1326.15 L481.251 1326.15 L481.251 1318.79 L485.534 1318.79 Z" fill="#000000" fill-rule="nonzero" fill-opacity="1"></path><path clip-path="url(#clip920)" d="M518.566 1327.14 L518.566 1331.13 Q516.76 1330.13 514.932 1329.64 Q513.126 1329.13 511.274 1329.13 Q507.131 1329.13 504.839 1331.77 Q502.547 1334.39 502.547 1339.13 Q502.547 1343.88 504.839 1346.52 Q507.131 1349.13 511.274 1349.13 Q513.126 1349.13 514.932 1348.65 Q516.76 1348.14 518.566 1347.14 L518.566 1351.08 Q516.783 1351.91 514.862 1352.33 Q512.964 1352.75 510.811 1352.75 Q504.955 1352.75 501.506 1349.07 Q498.057 1345.38 498.057 1339.13 Q498.057 1332.79 501.529 1329.16 Q505.024 1325.52 511.089 1325.52 Q513.057 1325.52 514.932 1325.94 Q516.807 1326.33 518.566 1327.14 Z" fill="#000000" fill-rule="nonzero" fill-opacity="1"></path><polyline clip-path="url(#clip920)" style="stroke:#e26f46; stroke-linecap:round; stroke-linejoin:round; stroke-width:4; stroke-opacity:1; fill:none" points="282.562,1386.63 426.994,1386.63 "></polyline>
<path clip-path="url(#clip920)" d="M469.492 1378.75 L469.492 1382.78 Q467.687 1381.85 465.742 1381.39 Q463.798 1380.93 461.714 1380.93 Q458.543 1380.93 456.946 1381.9 Q455.372 1382.87 455.372 1384.82 Q455.372 1386.3 456.506 1387.16 Q457.64 1387.99 461.066 1388.75 L462.525 1389.08 Q467.062 1390.05 468.96 1391.83 Q470.881 1393.59 470.881 1396.76 Q470.881 1400.37 468.011 1402.48 Q465.163 1404.59 460.163 1404.59 Q458.08 1404.59 455.812 1404.17 Q453.566 1403.78 451.066 1402.97 L451.066 1398.57 Q453.427 1399.79 455.719 1400.42 Q458.011 1401.02 460.256 1401.02 Q463.265 1401.02 464.886 1400 Q466.506 1398.96 466.506 1397.09 Q466.506 1395.35 465.325 1394.42 Q464.168 1393.5 460.21 1392.64 L458.728 1392.29 Q454.77 1391.46 453.011 1389.75 Q451.251 1388.01 451.251 1385 Q451.251 1381.35 453.844 1379.35 Q456.437 1377.36 461.205 1377.36 Q463.566 1377.36 465.649 1377.71 Q467.733 1378.06 469.492 1378.75 Z" fill="#000000" fill-rule="nonzero" fill-opacity="1"></path><path clip-path="url(#clip920)" d="M481.784 1400.03 L481.784 1413.78 L477.501 1413.78 L477.501 1377.99 L481.784 1377.99 L481.784 1381.92 Q483.126 1379.61 485.163 1378.5 Q487.223 1377.36 490.071 1377.36 Q494.793 1377.36 497.733 1381.11 Q500.696 1384.86 500.696 1390.97 Q500.696 1397.09 497.733 1400.84 Q494.793 1404.59 490.071 1404.59 Q487.223 1404.59 485.163 1403.47 Q483.126 1402.34 481.784 1400.03 M496.274 1390.97 Q496.274 1386.28 494.33 1383.61 Q492.409 1380.93 489.029 1380.93 Q485.649 1380.93 483.705 1383.61 Q481.784 1386.28 481.784 1390.97 Q481.784 1395.67 483.705 1398.36 Q485.649 1401.02 489.029 1401.02 Q492.409 1401.02 494.33 1398.36 Q496.274 1395.67 496.274 1390.97 Z" fill="#000000" fill-rule="nonzero" fill-opacity="1"></path><path clip-path="url(#clip920)" d="M529.307 1377.99 L519.932 1390.6 L529.793 1403.91 L524.77 1403.91 L517.223 1393.73 L509.677 1403.91 L504.654 1403.91 L514.723 1390.35 L505.51 1377.99 L510.534 1377.99 L517.408 1387.22 L524.283 1377.99 L529.307 1377.99 Z" fill="#000000" fill-rule="nonzero" fill-opacity="1"></path></svg>