<svg xmlns="http://www.w3.org/2000/svg" xmlns:xlink="http://www.w3.org/1999/xlink" width="600" height="400" viewBox="0 0 2400 1600">
<defs>
  <clipPath id="clip040">
    <rect x="0" y="0" width="2400" height="1600"></rect>
  </clipPath>
</defs>
<path clip-path="url(#clip040)" d="M0 1600 L2400 1600 L2400 0 L0 0  Z" fill="#ffffff" fill-rule="evenodd" fill-opacity="1"></path>
<defs>
  <clipPath id="clip041">
    <rect x="480" y="0" width="1681" height="1600"></rect>
  </clipPath>
</defs>
<path clip-path="url(#clip040)" d="M186.274 1486.45 L2352.76 1486.45 L2352.76 47.2441 L186.274 47.2441  Z" fill="#ffffff" fill-rule="evenodd" fill-opacity="1"></path>
<defs>
  <clipPath id="clip042">
    <rect x="186" y="47" width="2167" height="1440"></rect>
  </clipPath>
</defs>
<polyline clip-path="url(#clip042)" style="stroke:#000000; stroke-linecap:round; stroke-linejoin:round; stroke-width:2; stroke-opacity:0.1; fill:none" points="240.103,1486.45 240.103,47.2441 "></polyline>
<polyline clip-path="url(#clip042)" style="stroke:#000000; stroke-linecap:round; stroke-linejoin:round; stroke-width:2; stroke-opacity:0.1; fill:none" points="614.435,1486.45 614.435,47.2441 "></polyline>
<polyline clip-path="url(#clip042)" style="stroke:#000000; stroke-linecap:round; stroke-linejoin:round; stroke-width:2; stroke-opacity:0.1; fill:none" points="988.766,1486.45 988.766,47.2441 "></polyline>
<polyline clip-path="url(#clip042)" style="stroke:#000000; stroke-linecap:round; stroke-linejoin:round; stroke-width:2; stroke-opacity:0.1; fill:none" points="1363.1,1486.45 1363.1,47.2441 "></polyline>
<polyline clip-path="url(#clip042)" style="stroke:#000000; stroke-linecap:round; stroke-linejoin:round; stroke-width:2; stroke-opacity:0.1; fill:none" points="1737.43,1486.45 1737.43,47.2441 "></polyline>
<polyline clip-path="url(#clip042)" style="stroke:#000000; stroke-linecap:round; stroke-linejoin:round; stroke-width:2; stroke-opacity:0.1; fill:none" points="2111.76,1486.45 2111.76,47.2441 "></polyline>
<polyline clip-path="url(#clip040)" style="stroke:#000000; stroke-linecap:round; stroke-linejoin:round; stroke-width:4; stroke-opacity:1; fill:none" points="186.274,1486.45 2352.76,1486.45 "></polyline>
<polyline clip-path="url(#clip040)" style="stroke:#000000; stroke-linecap:round; stroke-linejoin:round; stroke-width:4; stroke-opacity:1; fill:none" points="240.103,1486.45 240.103,1467.55 "></polyline>
<polyline clip-path="url(#clip040)" style="stroke:#000000; stroke-linecap:round; stroke-linejoin:round; stroke-width:4; stroke-opacity:1; fill:none" points="614.435,1486.45 614.435,1467.55 "></polyline>
<polyline clip-path="url(#clip040)" style="stroke:#000000; stroke-linecap:round; stroke-linejoin:round; stroke-width:4; stroke-opacity:1; fill:none" points="988.766,1486.45 988.766,1467.55 "></polyline>
<polyline clip-path="url(#clip040)" style="stroke:#000000; stroke-linecap:round; stroke-linejoin:round; stroke-width:4; stroke-opacity:1; fill:none" points="1363.1,1486.45 1363.1,1467.55 "></polyline>
<polyline clip-path="url(#clip040)" style="stroke:#000000; stroke-linecap:round; stroke-linejoin:round; stroke-width:4; stroke-opacity:1; fill:none" points="1737.43,1486.45 1737.43,1467.55 "></polyline>
<polyline clip-path="url(#clip040)" style="stroke:#000000; stroke-linecap:round; stroke-linejoin:round; stroke-width:4; stroke-opacity:1; fill:none" points="2111.76,1486.45 2111.76,1467.55 "></polyline>
<path clip-path="url(#clip040)" d="M240.103 1517.37 Q236.492 1517.37 234.663 1520.93 Q232.858 1524.47 232.858 1531.6 Q232.858 1538.71 234.663 1542.27 Q236.492 1545.82 240.103 1545.82 Q243.737 1545.82 245.543 1542.27 Q247.371 1538.71 247.371 1531.6 Q247.371 1524.47 245.543 1520.93 Q243.737 1517.37 240.103 1517.37 M240.103 1513.66 Q245.913 1513.66 248.969 1518.27 Q252.047 1522.85 252.047 1531.6 Q252.047 1540.33 248.969 1544.94 Q245.913 1549.52 240.103 1549.52 Q234.293 1549.52 231.214 1544.94 Q228.159 1540.33 228.159 1531.6 Q228.159 1522.85 231.214 1518.27 Q234.293 1513.66 240.103 1513.66 Z" fill="#000000" fill-rule="nonzero" fill-opacity="1"></path><path clip-path="url(#clip040)" d="M589.134 1514.29 L607.49 1514.29 L607.49 1518.22 L593.416 1518.22 L593.416 1526.7 Q594.435 1526.35 595.453 1526.19 Q596.472 1526 597.49 1526 Q603.277 1526 606.657 1529.17 Q610.036 1532.34 610.036 1537.76 Q610.036 1543.34 606.564 1546.44 Q603.092 1549.52 596.773 1549.52 Q594.597 1549.52 592.328 1549.15 Q590.083 1548.78 587.675 1548.04 L587.675 1543.34 Q589.759 1544.47 591.981 1545.03 Q594.203 1545.58 596.68 1545.58 Q600.685 1545.58 603.023 1543.48 Q605.361 1541.37 605.361 1537.76 Q605.361 1534.15 603.023 1532.04 Q600.685 1529.94 596.68 1529.94 Q594.805 1529.94 592.93 1530.35 Q591.078 1530.77 589.134 1531.65 L589.134 1514.29 Z" fill="#000000" fill-rule="nonzero" fill-opacity="1"></path><path clip-path="url(#clip040)" d="M629.249 1517.37 Q625.638 1517.37 623.81 1520.93 Q622.004 1524.47 622.004 1531.6 Q622.004 1538.71 623.81 1542.27 Q625.638 1545.82 629.249 1545.82 Q632.884 1545.82 634.689 1542.27 Q636.518 1538.71 636.518 1531.6 Q636.518 1524.47 634.689 1520.93 Q632.884 1517.37 629.249 1517.37 M629.249 1513.66 Q635.059 1513.66 638.115 1518.27 Q641.194 1522.85 641.194 1531.6 Q641.194 1540.33 638.115 1544.94 Q635.059 1549.52 629.249 1549.52 Q623.439 1549.52 620.36 1544.94 Q617.305 1540.33 617.305 1531.6 Q617.305 1522.85 620.36 1518.27 Q623.439 1513.66 629.249 1513.66 Z" fill="#000000" fill-rule="nonzero" fill-opacity="1"></path><path clip-path="url(#clip040)" d="M948.373 1544.91 L956.012 1544.91 L956.012 1518.55 L947.702 1520.21 L947.702 1515.95 L955.965 1514.29 L960.641 1514.29 L960.641 1544.91 L968.28 1544.91 L968.28 1548.85 L948.373 1548.85 L948.373 1544.91 Z" fill="#000000" fill-rule="nonzero" fill-opacity="1"></path><path clip-path="url(#clip040)" d="M987.725 1517.37 Q984.113 1517.37 982.285 1520.93 Q980.479 1524.47 980.479 1531.6 Q980.479 1538.71 982.285 1542.27 Q984.113 1545.82 987.725 1545.82 Q991.359 1545.82 993.164 1542.27 Q994.993 1538.71 994.993 1531.6 Q994.993 1524.47 993.164 1520.93 Q991.359 1517.37 987.725 1517.37 M987.725 1513.66 Q993.535 1513.66 996.59 1518.27 Q999.669 1522.85 999.669 1531.6 Q999.669 1540.33 996.59 1544.94 Q993.535 1549.52 987.725 1549.52 Q981.914 1549.52 978.836 1544.94 Q975.78 1540.33 975.78 1531.6 Q975.78 1522.85 978.836 1518.27 Q981.914 1513.66 987.725 1513.66 Z" fill="#000000" fill-rule="nonzero" fill-opacity="1"></path><path clip-path="url(#clip040)" d="M1017.89 1517.37 Q1014.28 1517.37 1012.45 1520.93 Q1010.64 1524.47 1010.64 1531.6 Q1010.64 1538.71 1012.45 1542.27 Q1014.28 1545.82 1017.89 1545.82 Q1021.52 1545.82 1023.33 1542.27 Q1025.15 1538.71 1025.15 1531.6 Q1025.15 1524.47 1023.33 1520.93 Q1021.52 1517.37 1017.89 1517.37 M1017.89 1513.66 Q1023.7 1513.66 1026.75 1518.27 Q1029.83 1522.85 1029.83 1531.6 Q1029.83 1540.33 1026.75 1544.94 Q1023.7 1549.52 1017.89 1549.52 Q1012.08 1549.52 1009 1544.94 Q1005.94 1540.33 1005.94 1531.6 Q1005.94 1522.85 1009 1518.27 Q1012.08 1513.66 1017.89 1513.66 Z" fill="#000000" fill-rule="nonzero" fill-opacity="1"></path><path clip-path="url(#clip040)" d="M1322.7 1544.91 L1330.34 1544.91 L1330.34 1518.55 L1322.03 1520.21 L1322.03 1515.95 L1330.3 1514.29 L1334.97 1514.29 L1334.97 1544.91 L1342.61 1544.91 L1342.61 1548.85 L1322.7 1548.85 L1322.7 1544.91 Z" fill="#000000" fill-rule="nonzero" fill-opacity="1"></path><path clip-path="url(#clip040)" d="M1352.1 1514.29 L1370.46 1514.29 L1370.46 1518.22 L1356.38 1518.22 L1356.38 1526.7 Q1357.4 1526.35 1358.42 1526.19 Q1359.44 1526 1360.46 1526 Q1366.25 1526 1369.63 1529.17 Q1373.01 1532.34 1373.01 1537.76 Q1373.01 1543.34 1369.53 1546.44 Q1366.06 1549.52 1359.74 1549.52 Q1357.57 1549.52 1355.3 1549.15 Q1353.05 1548.78 1350.64 1548.04 L1350.64 1543.34 Q1352.73 1544.47 1354.95 1545.03 Q1357.17 1545.58 1359.65 1545.58 Q1363.65 1545.58 1365.99 1543.48 Q1368.33 1541.37 1368.33 1537.76 Q1368.33 1534.15 1365.99 1532.04 Q1363.65 1529.94 1359.65 1529.94 Q1357.77 1529.94 1355.9 1530.35 Q1354.05 1530.77 1352.1 1531.65 L1352.1 1514.29 Z" fill="#000000" fill-rule="nonzero" fill-opacity="1"></path><path clip-path="url(#clip040)" d="M1392.22 1517.37 Q1388.61 1517.37 1386.78 1520.93 Q1384.97 1524.47 1384.97 1531.6 Q1384.97 1538.71 1386.78 1542.27 Q1388.61 1545.82 1392.22 1545.82 Q1395.85 1545.82 1397.66 1542.27 Q1399.49 1538.71 1399.49 1531.6 Q1399.49 1524.47 1397.66 1520.93 Q1395.85 1517.37 1392.22 1517.37 M1392.22 1513.66 Q1398.03 1513.66 1401.08 1518.27 Q1404.16 1522.85 1404.16 1531.6 Q1404.16 1540.33 1401.08 1544.94 Q1398.03 1549.52 1392.22 1549.52 Q1386.41 1549.52 1383.33 1544.94 Q1380.27 1540.33 1380.27 1531.6 Q1380.27 1522.85 1383.33 1518.27 Q1386.41 1513.66 1392.22 1513.66 Z" fill="#000000" fill-rule="nonzero" fill-opacity="1"></path><path clip-path="url(#clip040)" d="M1701.12 1544.91 L1717.44 1544.91 L1717.44 1548.85 L1695.5 1548.85 L1695.5 1544.91 Q1698.16 1542.16 1702.74 1537.53 Q1707.35 1532.88 1708.53 1531.53 Q1710.77 1529.01 1711.65 1527.27 Q1712.56 1525.51 1712.56 1523.82 Q1712.56 1521.07 1710.61 1519.33 Q1708.69 1517.6 1705.59 1517.6 Q1703.39 1517.6 1700.94 1518.36 Q1698.51 1519.13 1695.73 1520.68 L1695.73 1515.95 Q1698.55 1514.82 1701.01 1514.24 Q1703.46 1513.66 1705.5 1513.66 Q1710.87 1513.66 1714.06 1516.35 Q1717.26 1519.03 1717.26 1523.52 Q1717.26 1525.65 1716.45 1527.57 Q1715.66 1529.47 1713.55 1532.07 Q1712.97 1532.74 1709.87 1535.95 Q1706.77 1539.15 1701.12 1544.91 Z" fill="#000000" fill-rule="nonzero" fill-opacity="1"></path><path clip-path="url(#clip040)" d="M1737.26 1517.37 Q1733.64 1517.37 1731.82 1520.93 Q1730.01 1524.47 1730.01 1531.6 Q1730.01 1538.71 1731.82 1542.27 Q1733.64 1545.82 1737.26 1545.82 Q1740.89 1545.82 1742.7 1542.27 Q1744.52 1538.71 1744.52 1531.6 Q1744.52 1524.47 1742.7 1520.93 Q1740.89 1517.37 1737.26 1517.37 M1737.26 1513.66 Q1743.07 1513.66 1746.12 1518.27 Q1749.2 1522.85 1749.2 1531.6 Q1749.2 1540.33 1746.12 1544.94 Q1743.07 1549.52 1737.26 1549.52 Q1731.45 1549.52 1728.37 1544.94 Q1725.31 1540.33 1725.31 1531.6 Q1725.31 1522.85 1728.37 1518.27 Q1731.45 1513.66 1737.26 1513.66 Z" fill="#000000" fill-rule="nonzero" fill-opacity="1"></path><path clip-path="url(#clip040)" d="M1767.42 1517.37 Q1763.81 1517.37 1761.98 1520.93 Q1760.17 1524.47 1760.17 1531.6 Q1760.17 1538.71 1761.98 1542.27 Q1763.81 1545.82 1767.42 1545.82 Q1771.05 1545.82 1772.86 1542.27 Q1774.69 1538.71 1774.69 1531.6 Q1774.69 1524.47 1772.86 1520.93 Q1771.05 1517.37 1767.42 1517.37 M1767.42 1513.66 Q1773.23 1513.66 1776.28 1518.27 Q1779.36 1522.85 1779.36 1531.6 Q1779.36 1540.33 1776.28 1544.94 Q1773.23 1549.52 1767.42 1549.52 Q1761.61 1549.52 1758.53 1544.94 Q1755.47 1540.33 1755.47 1531.6 Q1755.47 1522.85 1758.53 1518.27 Q1761.61 1513.66 1767.42 1513.66 Z" fill="#000000" fill-rule="nonzero" fill-opacity="1"></path><path clip-path="url(#clip040)" d="M2075.45 1544.91 L2091.77 1544.91 L2091.77 1548.85 L2069.83 1548.85 L2069.83 1544.91 Q2072.49 1542.16 2077.07 1537.53 Q2081.68 1532.88 2082.86 1531.53 Q2085.11 1529.01 2085.99 1527.27 Q2086.89 1525.51 2086.89 1523.82 Q2086.89 1521.07 2084.94 1519.33 Q2083.02 1517.6 2079.92 1517.6 Q2077.72 1517.6 2075.27 1518.36 Q2072.84 1519.13 2070.06 1520.68 L2070.06 1515.95 Q2072.88 1514.82 2075.34 1514.24 Q2077.79 1513.66 2079.83 1513.66 Q2085.2 1513.66 2088.39 1516.35 Q2091.59 1519.03 2091.59 1523.52 Q2091.59 1525.65 2090.78 1527.57 Q2089.99 1529.47 2087.88 1532.07 Q2087.31 1532.74 2084.2 1535.95 Q2081.1 1539.15 2075.45 1544.91 Z" fill="#000000" fill-rule="nonzero" fill-opacity="1"></path><path clip-path="url(#clip040)" d="M2101.63 1514.29 L2119.99 1514.29 L2119.99 1518.22 L2105.92 1518.22 L2105.92 1526.7 Q2106.93 1526.35 2107.95 1526.19 Q2108.97 1526 2109.99 1526 Q2115.78 1526 2119.16 1529.17 Q2122.54 1532.34 2122.54 1537.76 Q2122.54 1543.34 2119.06 1546.44 Q2115.59 1549.52 2109.27 1549.52 Q2107.1 1549.52 2104.83 1549.15 Q2102.58 1548.78 2100.18 1548.04 L2100.18 1543.34 Q2102.26 1544.47 2104.48 1545.03 Q2106.7 1545.58 2109.18 1545.58 Q2113.18 1545.58 2115.52 1543.48 Q2117.86 1541.37 2117.86 1537.76 Q2117.86 1534.15 2115.52 1532.04 Q2113.18 1529.94 2109.18 1529.94 Q2107.31 1529.94 2105.43 1530.35 Q2103.58 1530.77 2101.63 1531.65 L2101.63 1514.29 Z" fill="#000000" fill-rule="nonzero" fill-opacity="1"></path><path clip-path="url(#clip040)" d="M2141.75 1517.37 Q2138.14 1517.37 2136.31 1520.93 Q2134.5 1524.47 2134.5 1531.6 Q2134.5 1538.71 2136.31 1542.27 Q2138.14 1545.82 2141.75 1545.82 Q2145.38 1545.82 2147.19 1542.27 Q2149.02 1538.71 2149.02 1531.6 Q2149.02 1524.47 2147.19 1520.93 Q2145.38 1517.37 2141.75 1517.37 M2141.75 1513.66 Q2147.56 1513.66 2150.62 1518.27 Q2153.69 1522.85 2153.69 1531.6 Q2153.69 1540.33 2150.62 1544.94 Q2147.56 1549.52 2141.75 1549.52 Q2135.94 1549.52 2132.86 1544.94 Q2129.81 1540.33 2129.81 1531.6 Q2129.81 1522.85 2132.86 1518.27 Q2135.94 1513.66 2141.75 1513.66 Z" fill="#000000" fill-rule="nonzero" fill-opacity="1"></path><polyline clip-path="url(#clip042)" style="stroke:#000000; stroke-linecap:round; stroke-linejoin:round; stroke-width:2; stroke-opacity:0.1; fill:none" points="186.274,1445.72 2352.76,1445.72 "></polyline>
<polyline clip-path="url(#clip042)" style="stroke:#000000; stroke-linecap:round; stroke-linejoin:round; stroke-width:2; stroke-opacity:0.1; fill:none" points="186.274,1106.28 2352.76,1106.28 "></polyline>
<polyline clip-path="url(#clip042)" style="stroke:#000000; stroke-linecap:round; stroke-linejoin:round; stroke-width:2; stroke-opacity:0.1; fill:none" points="186.274,766.846 2352.76,766.846 "></polyline>
<polyline clip-path="url(#clip042)" style="stroke:#000000; stroke-linecap:round; stroke-linejoin:round; stroke-width:2; stroke-opacity:0.1; fill:none" points="186.274,427.411 2352.76,427.411 "></polyline>
<polyline clip-path="url(#clip042)" style="stroke:#000000; stroke-linecap:round; stroke-linejoin:round; stroke-width:2; stroke-opacity:0.1; fill:none" points="186.274,87.9763 2352.76,87.9763 "></polyline>
<polyline clip-path="url(#clip040)" style="stroke:#000000; stroke-linecap:round; stroke-linejoin:round; stroke-width:4; stroke-opacity:1; fill:none" points="186.274,1486.45 186.274,47.2441 "></polyline>
<polyline clip-path="url(#clip040)" style="stroke:#000000; stroke-linecap:round; stroke-linejoin:round; stroke-width:4; stroke-opacity:1; fill:none" points="186.274,1445.72 205.172,1445.72 "></polyline>
<polyline clip-path="url(#clip040)" style="stroke:#000000; stroke-linecap:round; stroke-linejoin:round; stroke-width:4; stroke-opacity:1; fill:none" points="186.274,1106.28 205.172,1106.28 "></polyline>
<polyline clip-path="url(#clip040)" style="stroke:#000000; stroke-linecap:round; stroke-linejoin:round; stroke-width:4; stroke-opacity:1; fill:none" points="186.274,766.846 205.172,766.846 "></polyline>
<polyline clip-path="url(#clip040)" style="stroke:#000000; stroke-linecap:round; stroke-linejoin:round; stroke-width:4; stroke-opacity:1; fill:none" points="186.274,427.411 205.172,427.411 "></polyline>
<polyline clip-path="url(#clip040)" style="stroke:#000000; stroke-linecap:round; stroke-linejoin:round; stroke-width:4; stroke-opacity:1; fill:none" points="186.274,87.9763 205.172,87.9763 "></polyline>
<path clip-path="url(#clip040)" d="M62.9365 1431.51 Q59.3254 1431.51 57.4967 1435.08 Q55.6912 1438.62 55.6912 1445.75 Q55.6912 1452.86 57.4967 1456.42 Q59.3254 1459.96 62.9365 1459.96 Q66.5707 1459.96 68.3763 1456.42 Q70.205 1452.86 70.205 1445.75 Q70.205 1438.62 68.3763 1435.08 Q66.5707 1431.51 62.9365 1431.51 M62.9365 1427.81 Q68.7467 1427.81 71.8022 1432.42 Q74.8809 1437 74.8809 1445.75 Q74.8809 1454.48 71.8022 1459.08 Q68.7467 1463.67 62.9365 1463.67 Q57.1264 1463.67 54.0477 1459.08 Q50.9921 1454.48 50.9921 1445.75 Q50.9921 1437 54.0477 1432.42 Q57.1264 1427.81 62.9365 1427.81 Z" fill="#000000" fill-rule="nonzero" fill-opacity="1"></path><path clip-path="url(#clip040)" d="M83.0984 1457.12 L87.9827 1457.12 L87.9827 1463 L83.0984 1463 L83.0984 1457.12 Z" fill="#000000" fill-rule="nonzero" fill-opacity="1"></path><path clip-path="url(#clip040)" d="M108.168 1431.51 Q104.557 1431.51 102.728 1435.08 Q100.922 1438.62 100.922 1445.75 Q100.922 1452.86 102.728 1456.42 Q104.557 1459.96 108.168 1459.96 Q111.802 1459.96 113.608 1456.42 Q115.436 1452.86 115.436 1445.75 Q115.436 1438.62 113.608 1435.08 Q111.802 1431.51 108.168 1431.51 M108.168 1427.81 Q113.978 1427.81 117.033 1432.42 Q120.112 1437 120.112 1445.75 Q120.112 1454.48 117.033 1459.08 Q113.978 1463.67 108.168 1463.67 Q102.358 1463.67 99.2789 1459.08 Q96.2234 1454.48 96.2234 1445.75 Q96.2234 1437 99.2789 1432.42 Q102.358 1427.81 108.168 1427.81 Z" fill="#000000" fill-rule="nonzero" fill-opacity="1"></path><path clip-path="url(#clip040)" d="M138.33 1431.51 Q134.719 1431.51 132.89 1435.08 Q131.084 1438.62 131.084 1445.75 Q131.084 1452.86 132.89 1456.42 Q134.719 1459.96 138.33 1459.96 Q141.964 1459.96 143.769 1456.42 Q145.598 1452.86 145.598 1445.75 Q145.598 1438.62 143.769 1435.08 Q141.964 1431.51 138.33 1431.51 M138.33 1427.81 Q144.14 1427.81 147.195 1432.42 Q150.274 1437 150.274 1445.75 Q150.274 1454.48 147.195 1459.08 Q144.14 1463.67 138.33 1463.67 Q132.519 1463.67 129.441 1459.08 Q126.385 1454.48 126.385 1445.75 Q126.385 1437 129.441 1432.42 Q132.519 1427.81 138.33 1427.81 Z" fill="#000000" fill-rule="nonzero" fill-opacity="1"></path><path clip-path="url(#clip040)" d="M63.9319 1092.08 Q60.3208 1092.08 58.4921 1095.64 Q56.6865 1099.19 56.6865 1106.32 Q56.6865 1113.42 58.4921 1116.99 Q60.3208 1120.53 63.9319 1120.53 Q67.5661 1120.53 69.3717 1116.99 Q71.2004 1113.42 71.2004 1106.32 Q71.2004 1099.19 69.3717 1095.64 Q67.5661 1092.08 63.9319 1092.08 M63.9319 1088.38 Q69.742 1088.38 72.7976 1092.98 Q75.8763 1097.57 75.8763 1106.32 Q75.8763 1115.04 72.7976 1119.65 Q69.742 1124.23 63.9319 1124.23 Q58.1217 1124.23 55.043 1119.65 Q51.9875 1115.04 51.9875 1106.32 Q51.9875 1097.57 55.043 1092.98 Q58.1217 1088.38 63.9319 1088.38 Z" fill="#000000" fill-rule="nonzero" fill-opacity="1"></path><path clip-path="url(#clip040)" d="M84.0938 1117.68 L88.978 1117.68 L88.978 1123.56 L84.0938 1123.56 L84.0938 1117.68 Z" fill="#000000" fill-rule="nonzero" fill-opacity="1"></path><path clip-path="url(#clip040)" d="M103.191 1119.63 L119.51 1119.63 L119.51 1123.56 L97.566 1123.56 L97.566 1119.63 Q100.228 1116.87 104.811 1112.24 Q109.418 1107.59 110.598 1106.25 Q112.844 1103.72 113.723 1101.99 Q114.626 1100.23 114.626 1098.54 Q114.626 1095.78 112.682 1094.05 Q110.76 1092.31 107.658 1092.31 Q105.459 1092.31 103.006 1093.07 Q100.575 1093.84 97.7974 1095.39 L97.7974 1090.67 Q100.621 1089.53 103.075 1088.95 Q105.529 1088.38 107.566 1088.38 Q112.936 1088.38 116.131 1091.06 Q119.325 1093.75 119.325 1098.24 Q119.325 1100.37 118.515 1102.29 Q117.728 1104.19 115.621 1106.78 Q115.043 1107.45 111.941 1110.67 Q108.839 1113.86 103.191 1119.63 Z" fill="#000000" fill-rule="nonzero" fill-opacity="1"></path><path clip-path="url(#clip040)" d="M129.371 1089 L147.728 1089 L147.728 1092.94 L133.654 1092.94 L133.654 1101.41 Q134.672 1101.06 135.691 1100.9 Q136.709 1100.71 137.728 1100.71 Q143.515 1100.71 146.894 1103.89 Q150.274 1107.06 150.274 1112.47 Q150.274 1118.05 146.802 1121.15 Q143.33 1124.23 137.01 1124.23 Q134.834 1124.23 132.566 1123.86 Q130.32 1123.49 127.913 1122.75 L127.913 1118.05 Q129.996 1119.19 132.219 1119.74 Q134.441 1120.3 136.918 1120.3 Q140.922 1120.3 143.26 1118.19 Q145.598 1116.08 145.598 1112.47 Q145.598 1108.86 143.26 1106.76 Q140.922 1104.65 136.918 1104.65 Q135.043 1104.65 133.168 1105.07 Q131.316 1105.48 129.371 1106.36 L129.371 1089 Z" fill="#000000" fill-rule="nonzero" fill-opacity="1"></path><path clip-path="url(#clip040)" d="M62.9365 752.645 Q59.3254 752.645 57.4967 756.209 Q55.6912 759.751 55.6912 766.881 Q55.6912 773.987 57.4967 777.552 Q59.3254 781.094 62.9365 781.094 Q66.5707 781.094 68.3763 777.552 Q70.205 773.987 70.205 766.881 Q70.205 759.751 68.3763 756.209 Q66.5707 752.645 62.9365 752.645 M62.9365 748.941 Q68.7467 748.941 71.8022 753.547 Q74.8809 758.131 74.8809 766.881 Q74.8809 775.608 71.8022 780.214 Q68.7467 784.797 62.9365 784.797 Q57.1264 784.797 54.0477 780.214 Q50.9921 775.608 50.9921 766.881 Q50.9921 758.131 54.0477 753.547 Q57.1264 748.941 62.9365 748.941 Z" fill="#000000" fill-rule="nonzero" fill-opacity="1"></path><path clip-path="url(#clip040)" d="M83.0984 778.246 L87.9827 778.246 L87.9827 784.126 L83.0984 784.126 L83.0984 778.246 Z" fill="#000000" fill-rule="nonzero" fill-opacity="1"></path><path clip-path="url(#clip040)" d="M98.2141 749.566 L116.57 749.566 L116.57 753.501 L102.496 753.501 L102.496 761.973 Q103.515 761.626 104.534 761.464 Q105.552 761.279 106.571 761.279 Q112.358 761.279 115.737 764.45 Q119.117 767.621 119.117 773.038 Q119.117 778.617 115.645 781.719 Q112.172 784.797 105.853 784.797 Q103.677 784.797 101.409 784.427 Q99.1632 784.057 96.7558 783.316 L96.7558 778.617 Q98.8391 779.751 101.061 780.307 Q103.284 780.862 105.76 780.862 Q109.765 780.862 112.103 778.756 Q114.441 776.649 114.441 773.038 Q114.441 769.427 112.103 767.321 Q109.765 765.214 105.76 765.214 Q103.885 765.214 102.01 765.631 Q100.159 766.047 98.2141 766.927 L98.2141 749.566 Z" fill="#000000" fill-rule="nonzero" fill-opacity="1"></path><path clip-path="url(#clip040)" d="M138.33 752.645 Q134.719 752.645 132.89 756.209 Q131.084 759.751 131.084 766.881 Q131.084 773.987 132.89 777.552 Q134.719 781.094 138.33 781.094 Q141.964 781.094 143.769 777.552 Q145.598 773.987 145.598 766.881 Q145.598 759.751 143.769 756.209 Q141.964 752.645 138.33 752.645 M138.33 748.941 Q144.14 748.941 147.195 753.547 Q150.274 758.131 150.274 766.881 Q150.274 775.608 147.195 780.214 Q144.14 784.797 138.33 784.797 Q132.519 784.797 129.441 780.214 Q126.385 775.608 126.385 766.881 Q126.385 758.131 129.441 753.547 Q132.519 748.941 138.33 748.941 Z" fill="#000000" fill-rule="nonzero" fill-opacity="1"></path><path clip-path="url(#clip040)" d="M63.9319 413.21 Q60.3208 413.21 58.4921 416.775 Q56.6865 420.316 56.6865 427.446 Q56.6865 434.552 58.4921 438.117 Q60.3208 441.659 63.9319 441.659 Q67.5661 441.659 69.3717 438.117 Q71.2004 434.552 71.2004 427.446 Q71.2004 420.316 69.3717 416.775 Q67.5661 413.21 63.9319 413.21 M63.9319 409.506 Q69.742 409.506 72.7976 414.113 Q75.8763 418.696 75.8763 427.446 Q75.8763 436.173 72.7976 440.779 Q69.742 445.362 63.9319 445.362 Q58.1217 445.362 55.043 440.779 Q51.9875 436.173 51.9875 427.446 Q51.9875 418.696 55.043 414.113 Q58.1217 409.506 63.9319 409.506 Z" fill="#000000" fill-rule="nonzero" fill-opacity="1"></path><path clip-path="url(#clip040)" d="M84.0938 438.812 L88.978 438.812 L88.978 444.691 L84.0938 444.691 L84.0938 438.812 Z" fill="#000000" fill-rule="nonzero" fill-opacity="1"></path><path clip-path="url(#clip040)" d="M97.9826 410.131 L120.205 410.131 L120.205 412.122 L107.658 444.691 L102.774 444.691 L114.58 414.066 L97.9826 414.066 L97.9826 410.131 Z" fill="#000000" fill-rule="nonzero" fill-opacity="1"></path><path clip-path="url(#clip040)" d="M129.371 410.131 L147.728 410.131 L147.728 414.066 L133.654 414.066 L133.654 422.538 Q134.672 422.191 135.691 422.029 Q136.709 421.844 137.728 421.844 Q143.515 421.844 146.894 425.015 Q150.274 428.187 150.274 433.603 Q150.274 439.182 146.802 442.284 Q143.33 445.362 137.01 445.362 Q134.834 445.362 132.566 444.992 Q130.32 444.622 127.913 443.881 L127.913 439.182 Q129.996 440.316 132.219 440.872 Q134.441 441.427 136.918 441.427 Q140.922 441.427 143.26 439.321 Q145.598 437.214 145.598 433.603 Q145.598 429.992 143.26 427.886 Q140.922 425.779 136.918 425.779 Q135.043 425.779 133.168 426.196 Q131.316 426.613 129.371 427.492 L129.371 410.131 Z" fill="#000000" fill-rule="nonzero" fill-opacity="1"></path><path clip-path="url(#clip040)" d="M53.7467 101.321 L61.3856 101.321 L61.3856 74.9555 L53.0754 76.6222 L53.0754 72.3629 L61.3393 70.6963 L66.0152 70.6963 L66.0152 101.321 L73.654 101.321 L73.654 105.256 L53.7467 105.256 L53.7467 101.321 Z" fill="#000000" fill-rule="nonzero" fill-opacity="1"></path><path clip-path="url(#clip040)" d="M83.0984 99.3767 L87.9827 99.3767 L87.9827 105.256 L83.0984 105.256 L83.0984 99.3767 Z" fill="#000000" fill-rule="nonzero" fill-opacity="1"></path><path clip-path="url(#clip040)" d="M108.168 73.775 Q104.557 73.775 102.728 77.3398 Q100.922 80.8814 100.922 88.011 Q100.922 95.1174 102.728 98.6822 Q104.557 102.224 108.168 102.224 Q111.802 102.224 113.608 98.6822 Q115.436 95.1174 115.436 88.011 Q115.436 80.8814 113.608 77.3398 Q111.802 73.775 108.168 73.775 M108.168 70.0713 Q113.978 70.0713 117.033 74.6777 Q120.112 79.261 120.112 88.011 Q120.112 96.7378 117.033 101.344 Q113.978 105.928 108.168 105.928 Q102.358 105.928 99.2789 101.344 Q96.2234 96.7378 96.2234 88.011 Q96.2234 79.261 99.2789 74.6777 Q102.358 70.0713 108.168 70.0713 Z" fill="#000000" fill-rule="nonzero" fill-opacity="1"></path><path clip-path="url(#clip040)" d="M138.33 73.775 Q134.719 73.775 132.89 77.3398 Q131.084 80.8814 131.084 88.011 Q131.084 95.1174 132.89 98.6822 Q134.719 102.224 138.33 102.224 Q141.964 102.224 143.769 98.6822 Q145.598 95.1174 145.598 88.011 Q145.598 80.8814 143.769 77.3398 Q141.964 73.775 138.33 73.775 M138.33 70.0713 Q144.14 70.0713 147.195 74.6777 Q150.274 79.261 150.274 88.011 Q150.274 96.7378 147.195 101.344 Q144.14 105.928 138.33 105.928 Q132.519 105.928 129.441 101.344 Q126.385 96.7378 126.385 88.011 Q126.385 79.261 129.441 74.6777 Q132.519 70.0713 138.33 70.0713 Z" fill="#000000" fill-rule="nonzero" fill-opacity="1"></path><polyline clip-path="url(#clip042)" style="stroke:#009af9; stroke-linecap:round; stroke-linejoin:round; stroke-width:4; stroke-opacity:1; fill:none" points="247.59,1445.72 255.076,1445.17 262.563,1125.68 270.049,739.681 277.536,928.684 285.023,1445.71 292.509,226.85 299.996,1439.7 307.483,1445.71 314.969,1243.2 322.456,1217.98 329.942,1362.43 337.429,1078.07 344.916,1397.33 352.402,605.385 359.889,1444.74 367.376,661.153 374.862,1384.12 382.349,1388.85 389.836,1434.54 397.322,1333.05 404.809,1163.33 412.295,1442.25 419.782,1249.48 427.269,1443.77 434.755,997.512 442.242,1445.71 449.729,1311.64 457.215,1232.48 464.702,1100.69 472.189,1443.2 479.675,1429.67 487.162,1217.24 494.648,1256 502.135,1300.23 509.622,1404.03 517.108,1291.39 524.595,1229.46 532.082,1358.58 539.568,1164.59 547.055,91.0261 554.541,1445.72 562.028,964.525 569.515,997.449 577.001,1445.72 584.488,1206.35 591.975,1289.49 599.461,744.288 606.948,1443.5 614.435,1339.32 621.921,1190.49 629.408,1405.27 636.894,1288.63 644.381,1281.35 651.868,1293.8 659.354,1319.72 666.841,1276.72 674.328,1265.99 681.814,1312.3 689.301,1435.5 696.788,1421.44 704.274,1222.8 711.761,1360.33 719.247,1410.67 726.734,1156.61 734.221,767.951 741.707,1389.45 749.194,1270.63 756.681,899.304 764.167,1445.62 771.654,1225.9 779.14,1444.45 786.627,1243.25 794.114,1007.14 801.6,1426.14 809.087,809.207 816.574,1444.19 824.06,1227.92 831.547,1363.19 839.034,1395.2 846.52,1426.49 854.007,1381.67 861.493,1197.39 868.98,1360.96 876.467,251.904 883.953,1445.67 891.44,1443.98 898.927,1192.91 906.413,1401.93 913.9,1216.03 921.387,1224.64 928.873,1376 936.36,321.947 943.846,1445.66 951.333,1419.07 958.82,1224.08 966.306,1423.81 973.793,1366.4 981.28,1220.06 988.766,1423.7 996.253,1236.08 1003.74,1283.77 1011.23,1401.6 1018.71,1316.77 1026.2,1314.8 1033.69,1325.1 1041.17,666.505 1048.66,1435.31 1056.15,88.0333 1063.63,1445.72 1071.12,1444.44 1078.61,1009.55 1086.09,1285.4 1093.58,1346.84 1101.07,1342.65 1108.55,1298.29 1116.04,1397.19 1123.53,1293.59 1131.01,1077.4 1138.5,1418.64 1145.99,1315.06 1153.47,1231.91 1160.96,1284.2 1168.45,1391.88 1175.93,1270.93 1183.42,1352.56 1190.91,1256.34 1198.39,1388.66 1205.88,1325.94 1213.37,1211.02 1220.85,1247.78 1228.34,1250.83 1235.83,1368.49 1243.31,797.354 1250.8,1435.22 1258.29,1437.9 1265.77,1217.72 1273.26,1232.27 1280.74,1437.84 1288.23,1229.24 1295.72,1313.5 1303.2,1236.72 1310.69,1131.22 1318.18,1260.61 1325.66,1240.18 1333.15,1312.52 1340.64,1255.73 1348.12,1218.3 1355.61,1420.05 1363.1,1260.73 1370.58,393.662 1378.07,1043.54 1385.56,1442.23 1393.04,970.346 1400.53,1445.4 1408.02,1434.18 1415.5,498.331 1422.99,1007.11 1430.48,1445.64 1437.96,1445.71 1445.45,1444.42 1452.94,1445.13 1460.42,1196.02 1467.91,1445.41 1475.4,1247.2 1482.88,1306.81 1490.37,744.165 1497.86,1445.72 1505.34,1208.09 1512.83,1443.49 1520.32,94.5996 1527.8,1445.72 1535.29,1404.72 1542.78,1206.06 1550.26,1119.17 1557.75,1416.91 1565.24,1436.09 1572.72,1237.31 1580.21,1068.08 1587.7,1445.41 1595.18,1347.55 1602.67,1178.47 1610.16,1193.06 1617.64,1272.15 1625.13,1222.13 1632.62,1364.99 1640.1,1021.99 1647.59,1425.56 1655.08,991.198 1662.56,1440.52 1670.05,1344.87 1677.54,968.576 1685.02,1373.68 1692.51,1311.24 1700,1378.94 1707.48,1272.58 1714.97,1158.06 1722.46,1421.6 1729.94,602.8 1737.43,1443.14 1744.92,1108.56 1752.4,1435.98 1759.89,1145.79 1767.38,955.431 1774.86,1445.56 1782.35,413.098 1789.84,1441.8 1797.32,1444.44 1804.81,1293.01 1812.3,1173.13 1819.78,1442.72 1827.27,1425.1 1834.76,1182.36 1842.24,1393.24 1849.73,1347.96 1857.22,1350.03 1864.7,1122.75 1872.19,1407.19 1879.68,1427.83 1887.16,1261.3 1894.65,861.969 1902.14,1381.22 1909.62,1438.91 1917.11,1314.03 1924.6,1367.04 1932.08,1223.2 1939.57,127.229 1947.06,1445.72 1954.54,1257.92 1962.03,1382.39 1969.52,1257.51 1977,1398.01 1984.49,1244.5 1991.98,1232.3 1999.46,1373.27 2006.95,1004.84 2014.43,1124.85 2021.92,1445.08 2029.41,1417.56 2036.89,1355.09 2044.38,1369.49 2051.87,1443.8 2059.35,1310.36 2066.84,1206.01 2074.33,1370.76 2081.81,1383.96 2089.3,1293.82 2096.79,779.634 2104.27,1445.68 2111.76,1444.49 2119.25,1235.9 2126.73,1224.69 2134.22,1341.9 2141.71,1365.94 2149.19,1288.52 2156.68,1332.05 2164.17,1429.67 2171.65,1169.99 2179.14,1313.99 2186.63,1211.02 2194.11,1251.09 2201.6,1439.61 2209.09,1225.03 2216.57,1193.13 2224.06,1418.69 2231.55,1445.5 2239.03,1428.52 2246.52,1260.71 2254.01,1405.25 2261.49,1406.19 2268.98,1279.88 2276.47,1428.69 2283.95,1224.91 "></polyline>
<polyline clip-path="url(#clip042)" style="stroke:#e26f46; stroke-linecap:round; stroke-linejoin:round; stroke-width:4; stroke-opacity:1; fill:none" points="247.59,1439.67 255.076,87.9771 262.563,428.142 270.049,1204.53 277.536,89.811 285.023,212.055 292.509,1413.88 299.996,88.0269 307.483,701.196 314.969,99.3041 322.456,406.297 329.942,521.826 337.429,548.112 344.916,294.558 352.402,531.291 359.889,462.62 367.376,457.63 374.862,439.789 382.349,514.732 389.836,547.313 397.322,721.868 404.809,179.03 412.295,377.009 419.782,553.253 427.269,427.417 434.755,498.231 442.242,534.685 449.729,405.608 457.215,453.134 464.702,442.491 472.189,626.088 479.675,294.009 487.162,487.005 494.648,548.7 502.135,484.184 509.622,1241.41 517.108,103.523 524.595,1371.05 532.082,88.0597 539.568,158.127 547.055,474.667 554.541,1389.37 562.028,88.18 569.515,183.444 577.001,603.368 584.488,1445.03 591.975,87.9773 599.461,105.713 606.948,242.871 614.435,355.448 621.921,271.663 629.408,590.508 636.894,482.085 644.381,458.048 651.868,540.587 659.354,470.397 666.841,696.754 674.328,127.815 681.814,589.165 689.301,316.801 696.788,352.845 704.274,541.965 711.761,529.34 719.247,439.088 726.734,480.391 734.221,739.689 741.707,479.489 749.194,455.534 756.681,1175.79 764.167,87.9985 771.654,633.011 779.14,311.451 786.627,507.157 794.114,566.34 801.6,509.249 809.087,540.659 816.574,217.737 824.06,558.247 831.547,390.116 839.034,489.77 846.52,782.716 854.007,89.941 861.493,508.284 868.98,490.121 876.467,521.805 883.953,534.038 891.44,498.489 898.927,324.738 906.413,420.87 913.9,349.8 921.387,460.768 928.873,527.033 936.36,497.055 943.846,521.349 951.333,412.656 958.82,523.03 966.306,446.307 973.793,377.04 981.28,533.077 988.766,532.15 996.253,417.503 1003.74,497.388 1011.23,401.15 1018.71,968.148 1026.2,98.1873 1033.69,701.456 1041.17,385.736 1048.66,1445.34 1056.15,87.9768 1063.63,1445.53 1071.12,1445.72 1078.61,87.9763 1086.09,704.402 1093.58,87.9763 1101.07,1093.76 1108.55,88.0138 1116.04,384.935 1123.53,1353.57 1131.01,174.073 1138.5,107.125 1145.99,707.439 1153.47,1293.81 1160.96,88.8066 1168.45,243.009 1175.93,438.475 1183.42,93.5684 1190.91,442.681 1198.39,556.904 1205.88,505.161 1213.37,545.178 1220.85,626.538 1228.34,503.072 1235.83,471.769 1243.31,694.439 1250.8,132.87 1258.29,1128.94 1265.77,293.984 1273.26,528.116 1280.74,119.676 1288.23,150.926 1295.72,510.172 1303.2,469.396 1310.69,865.382 1318.18,87.9765 1325.66,1042.63 1333.15,427.701 1340.64,200.979 1348.12,987.884 1355.61,357.506 1363.1,336.011 1370.58,559.093 1378.07,364.673 1385.56,432.095 1393.04,473.206 1400.53,221.267 1408.02,489.426 1415.5,88.9993 1422.99,717.918 1430.48,352.57 1437.96,1039.71 1445.45,261.027 1452.94,206.652 1460.42,648.179 1467.91,231.606 1475.4,577.655 1482.88,573.41 1490.37,580.109 1497.86,428.577 1505.34,531.403 1512.83,455.058 1520.32,543.408 1527.8,540.668 1535.29,245.531 1542.78,504.938 1550.26,395.854 1557.75,800.739 1565.24,118.389 1572.72,621.942 1580.21,465.378 1587.7,643.816 1595.18,327.082 1602.67,552.665 1610.16,371.789 1617.64,451.112 1625.13,576.131 1632.62,258.85 1640.1,521.063 1647.59,621.826 1655.08,528.426 1662.56,274.284 1670.05,951.397 1677.54,142.406 1685.02,250.444 1692.51,491.559 1700,443.617 1707.48,634.608 1714.97,393.035 1722.46,507.671 1729.94,566.688 1737.43,706.636 1744.92,90.5976 1752.4,560.177 1759.89,122.449 1767.38,596.533 1774.86,431.326 1782.35,329.232 1789.84,1275.68 1797.32,89.4517 1804.81,108.504 1812.3,819.742 1819.78,945.533 1827.27,177.792 1834.76,512.479 1842.24,1291.54 1849.73,87.9792 1857.22,912.817 1864.7,411.596 1872.19,627.05 1879.68,413.004 1887.16,929.468 1894.65,1295.62 1902.14,98.0486 1909.62,947.126 1917.11,1342.6 1924.6,87.9763 1932.08,240.324 1939.57,1400.5 1947.06,1444.64 1954.54,87.9763 1962.03,733.235 1969.52,98.2172 1977,693.608 1984.49,445.597 1991.98,442.044 1999.46,341.971 2006.95,632.914 2014.43,164.146 2021.92,441.458 2029.41,1324.54 2036.89,88.0302 2044.38,1052.61 2051.87,1444.13 2059.35,925.287 2066.84,88.5741 2074.33,916.912 2081.81,88.0097 2089.3,977.713 2096.79,94.7486 2104.27,93.6049 2111.76,165.835 2119.25,552.064 2126.73,522.648 2134.22,143.311 2141.71,1131.02 2149.19,198.068 2156.68,395.735 2164.17,139.976 2171.65,261.49 2179.14,513.605 2186.63,278.602 2194.11,759.255 2201.6,334.066 2209.09,498.538 2216.57,796.15 2224.06,97.419 2231.55,1244.43 2239.03,90.7885 2246.52,215.275 2254.01,327.98 2261.49,534.497 2268.98,506.996 2276.47,506.27 2283.95,481.586 2291.44,504.169 "></polyline>
<path clip-path="url(#clip040)" d="M258.49 250.738 L553.865 250.738 L553.865 95.2176 L258.49 95.2176  Z" fill="#ffffff" fill-rule="evenodd" fill-opacity="1"></path>
<polyline clip-path="url(#clip040)" style="stroke:#000000; stroke-linecap:round; stroke-linejoin:round; stroke-width:4; stroke-opacity:1; fill:none" points="258.49,250.738 553.865,250.738 553.865,95.2176 258.49,95.2176 258.49,250.738 "></polyline>
<polyline clip-path="url(#clip040)" style="stroke:#009af9; stroke-linecap:round; stroke-linejoin:round; stroke-width:4; stroke-opacity:1; fill:none" points="282.562,147.058 426.994,147.058 "></polyline>
<path clip-path="url(#clip040)" d="M469.839 151.398 Q469.839 146.699 467.895 144.037 Q465.974 141.352 462.594 141.352 Q459.214 141.352 457.27 144.037 Q455.349 146.699 455.349 151.398 Q455.349 156.097 457.27 158.782 Q459.214 161.444 462.594 161.444 Q465.974 161.444 467.895 158.782 Q469.839 156.097 469.839 151.398 M455.349 142.347 Q456.691 140.032 458.728 138.921 Q460.788 137.787 463.636 137.787 Q468.358 137.787 471.298 141.537 Q474.261 145.287 474.261 151.398 Q474.261 157.509 471.298 161.259 Q468.358 165.009 463.636 165.009 Q460.788 165.009 458.728 163.898 Q456.691 162.763 455.349 160.449 L455.349 164.338 L451.066 164.338 L451.066 128.319 L455.349 128.319 L455.349 142.347 Z" fill="#000000" fill-rule="nonzero" fill-opacity="1"></path><path clip-path="url(#clip040)" d="M485.534 131.051 L485.534 138.412 L494.307 138.412 L494.307 141.722 L485.534 141.722 L485.534 155.796 Q485.534 158.967 486.39 159.87 Q487.27 160.773 489.932 160.773 L494.307 160.773 L494.307 164.338 L489.932 164.338 Q485.001 164.338 483.126 162.509 Q481.251 160.657 481.251 155.796 L481.251 141.722 L478.126 141.722 L478.126 138.412 L481.251 138.412 L481.251 131.051 L485.534 131.051 Z" fill="#000000" fill-rule="nonzero" fill-opacity="1"></path><path clip-path="url(#clip040)" d="M518.566 139.407 L518.566 143.389 Q516.76 142.393 514.932 141.907 Q513.126 141.398 511.274 141.398 Q507.131 141.398 504.839 144.037 Q502.547 146.652 502.547 151.398 Q502.547 156.143 504.839 158.782 Q507.131 161.398 511.274 161.398 Q513.126 161.398 514.932 160.912 Q516.76 160.402 518.566 159.407 L518.566 163.342 Q516.783 164.176 514.862 164.592 Q512.964 165.009 510.811 165.009 Q504.955 165.009 501.506 161.328 Q498.057 157.648 498.057 151.398 Q498.057 145.055 501.529 141.421 Q505.024 137.787 511.089 137.787 Q513.057 137.787 514.932 138.203 Q516.807 138.597 518.566 139.407 Z" fill="#000000" fill-rule="nonzero" fill-opacity="1"></path><polyline clip-path="url(#clip040)" style="stroke:#e26f46; stroke-linecap:round; stroke-linejoin:round; stroke-width:4; stroke-opacity:1; fill:none" points="282.562,198.898 426.994,198.898 "></polyline>
<path clip-path="url(#clip040)" d="M469.492 191.016 L469.492 195.043 Q467.687 194.117 465.742 193.655 Q463.798 193.192 461.714 193.192 Q458.543 193.192 456.946 194.164 Q455.372 195.136 455.372 197.08 Q455.372 198.562 456.506 199.418 Q457.64 200.252 461.066 201.016 L462.525 201.34 Q467.062 202.312 468.96 204.094 Q470.881 205.854 470.881 209.025 Q470.881 212.636 468.011 214.742 Q465.163 216.849 460.163 216.849 Q458.08 216.849 455.812 216.432 Q453.566 216.039 451.066 215.228 L451.066 210.83 Q453.427 212.057 455.719 212.682 Q458.011 213.284 460.256 213.284 Q463.265 213.284 464.886 212.266 Q466.506 211.224 466.506 209.349 Q466.506 207.613 465.325 206.687 Q464.168 205.761 460.21 204.904 L458.728 204.557 Q454.77 203.724 453.011 202.011 Q451.251 200.275 451.251 197.266 Q451.251 193.608 453.844 191.618 Q456.437 189.627 461.205 189.627 Q463.566 189.627 465.649 189.974 Q467.733 190.321 469.492 191.016 Z" fill="#000000" fill-rule="nonzero" fill-opacity="1"></path><path clip-path="url(#clip040)" d="M481.784 212.289 L481.784 226.039 L477.501 226.039 L477.501 190.252 L481.784 190.252 L481.784 194.187 Q483.126 191.872 485.163 190.761 Q487.223 189.627 490.071 189.627 Q494.793 189.627 497.733 193.377 Q500.696 197.127 500.696 203.238 Q500.696 209.349 497.733 213.099 Q494.793 216.849 490.071 216.849 Q487.223 216.849 485.163 215.738 Q483.126 214.603 481.784 212.289 M496.274 203.238 Q496.274 198.539 494.33 195.877 Q492.409 193.192 489.029 193.192 Q485.649 193.192 483.705 195.877 Q481.784 198.539 481.784 203.238 Q481.784 207.937 483.705 210.622 Q485.649 213.284 489.029 213.284 Q492.409 213.284 494.33 210.622 Q496.274 207.937 496.274 203.238 Z" fill="#000000" fill-rule="nonzero" fill-opacity="1"></path><path clip-path="url(#clip040)" d="M529.307 190.252 L519.932 202.867 L529.793 216.178 L524.77 216.178 L517.223 205.992 L509.677 216.178 L504.654 216.178 L514.723 202.613 L505.51 190.252 L510.534 190.252 L517.408 199.488 L524.283 190.252 L529.307 190.252 Z" fill="#000000" fill-rule="nonzero" fill-opacity="1"></path></svg>